<svg id="Camada_1" data-name="Camada 1" xmlns="http://www.w3.org/2000/svg" viewBox="0 0 50 50"><defs><style>.cls-1{fill:#f0c418;}.cls-2{fill:#d8eefc;}.cls-3{fill:#26231f;}.cls-4{fill:#dd1115;}.cls-5{fill:#e5dfe2;}.cls-6{fill:#fbfbfb;}</style></defs><path class="cls-1" d="M45.37,29.39c0,.85,0,1.7,0,2.54a1.72,1.72,0,0,1-1.77,1.78H40.8a4.35,4.35,0,0,0-8.7,0H13.33a4.35,4.35,0,0,0-8.7,0H2.14A1.72,1.72,0,0,1,.32,31.92c0-.84,0-1.69,0-2.54.71,0,1.41,0,2.11,0,.39,0,.5-.13.48-.5q0-.81,0-1.62c0-.37-.09-.51-.48-.49-.7,0-1.4,0-2.11,0q0-6.52,0-13A1.71,1.71,0,0,1,2,12.05H33.23c.55,3,1.1,6,1.64,9a.72.72,0,0,0,.6.68c3.31.8,6.6,1.64,9.9,2.47v2.58c-.76,0-1.51,0-2.26,0-.26,0-.35.08-.34.33q0,.95,0,1.89c0,.31.09.4.39.39C43.9,29.37,44.63,29.39,45.37,29.39Z"/><path class="cls-2" d="M45.37,24.19c-3.3-.83-6.59-1.67-9.9-2.47a.72.72,0,0,1-.6-.68c-.54-3-1.09-6-1.64-9,2.67,0,5.33,0,8,0a4.32,4.32,0,0,1,4.05,3.48,8.05,8.05,0,0,1,.1,1.7Z"/><path class="cls-3" d="M4.63,33.72a4.35,4.35,0,1,1,4.43,4.33A4.37,4.37,0,0,1,4.63,33.72Zm6.08,0a1.73,1.73,0,1,0-1.78,1.71A1.75,1.75,0,0,0,10.71,33.74Z"/><path class="cls-3" d="M32.1,33.72a4.35,4.35,0,1,1,4.43,4.33A4.35,4.35,0,0,1,32.1,33.72Zm4.36,1.73a1.74,1.74,0,1,0-1.75-1.69A1.75,1.75,0,0,0,36.46,35.45Z"/><path class="cls-1" d="M45.38,17.24a8.05,8.05,0,0,0-.1-1.7c.66,0,1.33,0,2,0a2.54,2.54,0,0,1,2.42,2.4c.05,1.49,0,3,0,4.49a.84.84,0,0,1-.87.89.85.85,0,0,1-.85-.92c0-1.34,0-2.67,0-4,0-.85-.29-1.13-1.13-1.14Z"/><path class="cls-4" d="M.33,26.79c.71,0,1.41,0,2.11,0,.39,0,.5.12.48.49q0,.81,0,1.62c0,.37-.09.52-.48.5-.7,0-1.4,0-2.11,0Z"/><path class="cls-5" d="M45.37,29.39c-.74,0-1.47,0-2.21,0-.3,0-.4-.08-.39-.39q0-.95,0-1.89c0-.25.08-.34.34-.33.75,0,1.5,0,2.26,0Z"/><path class="cls-2" d="M8.59,14.65h3.47c.3,0,.4.08.39.39q0,3.08,0,6.17c0,.32-.11.38-.4.38q-3.5,0-7,0c-.33,0-.42-.08-.42-.42q0-3.06,0-6.12c0-.35.12-.41.44-.4Z"/><path class="cls-2" d="M26.76,14.65h3.46c.32,0,.44.06.43.41q0,3.06,0,6.12c0,.34-.1.41-.43.41q-3.48,0-7,0c-.3,0-.4-.07-.4-.39q0-3.07,0-6.17c0-.31.1-.39.4-.38Z"/><path class="cls-2" d="M14.18,18.12c0-1,0-2,0-3,0-.3,0-.45.39-.45q3.09,0,6.18,0c.27,0,.37.06.37.36,0,2.07,0,4.15,0,6.22,0,.29-.1.36-.37.36-2.06,0-4.12,0-6.17,0-.37,0-.41-.14-.4-.44C14.19,20.14,14.18,19.13,14.18,18.12Z"/><path class="cls-6" d="M10.71,33.74A1.73,1.73,0,1,1,9,32,1.74,1.74,0,0,1,10.71,33.74Z"/><path class="cls-6" d="M36.46,35.45a1.74,1.74,0,1,1,1.72-1.73A1.75,1.75,0,0,1,36.46,35.45Z"/></svg>