<?xml version="1.0" encoding="iso-8859-1"?>
<!-- Generator: Adobe Illustrator 21.0.0, SVG Export Plug-In . SVG Version: 6.00 Build 0)  -->
<svg version="1.1" id="Capa_1" xmlns="http://www.w3.org/2000/svg" xmlns:xlink="http://www.w3.org/1999/xlink" x="0px" y="0px"
	 viewBox="0 0 512.042 512.042" style="enable-background:new 0 0 512.042 512.042;" xml:space="preserve">
<g transform="translate(0 -1)">
	<path style="fill:#14A085;" d="M502.923,479.586l-38.488-141.153l-15.36-56.143l-11.211-41.048
		c-3.141-11.506-13.585-19.493-25.512-19.509H99.679c-11.927,0.016-22.371,8.003-25.512,19.509L45.566,345.936l-12.712,46.698
		L9.108,479.586c-2.176,7.972-0.506,16.504,4.516,23.067c5.022,6.563,12.82,10.406,21.084,10.39h442.615
		c10.155,0.034,19.427-5.77,23.834-14.919C504.008,492.372,504.637,485.772,502.923,479.586z"/>
	<g>
		<path style="fill:#4482C3;" d="M146.465,430.593l-68.767,82.45h-42.99c-8.264,0.016-16.062-3.826-21.084-10.39
			c-5.022-6.563-6.692-15.095-4.516-23.067l23.746-86.952L146.465,430.593z"/>
		<path style="fill:#4482C3;" d="M501.157,498.124l-86.334-28.866h-0.088l-46.433-15.448l96.132-115.377l38.488,141.153
			C504.637,485.772,504.008,492.372,501.157,498.124z"/>
	</g>
	<path style="fill:#F0C419;" d="M501.157,498.124c-4.408,9.149-13.679,14.952-23.834,14.919h-84.127l-106.726-35.663l-91.454-30.543
		l-55.172,66.207H77.698l68.767-82.45L32.854,392.634l12.712-46.698l201.181,67.266l7.415,2.472l65.501,21.892l129.412-155.277
		l15.36,56.143l-96.132,115.377l46.433,15.448h0.088L501.157,498.124z"/>
	<path style="fill:#E64C3C;" d="M258.417,1.042c-73.135-1.78-135.372,52.912-143.007,125.67
		c-9.807,110.963,90.094,239.395,127.117,282.809c3.33,3.954,8.23,6.244,13.4,6.263c5.17,0.019,10.086-2.236,13.445-6.166
		c35.257-41.295,127.885-160.106,127.885-267.335C397.268,65.206,335.483,2.353,258.417,1.042z"/>
	<path style="fill:#F0C419;" d="M360.357,176.005c-3.077,6.367-9.524,10.414-16.596,10.417H168.093
		c-2.39,0.052-4.701-0.85-6.424-2.507c-1.723-1.657-2.715-3.931-2.756-6.321v-44.138h194.913c0.971,4.061,1.942,8.033,2.913,12.094
		C358.945,154.642,364.683,166.913,360.357,176.005z"/>
	<path style="fill:#B0D3F0;" d="M353.825,133.456h-62.499V89.318h37.164c6.539-0.107,12.595,3.432,15.713,9.181
		c1.906,3.863,3.3,7.959,4.149,12.182C350.117,118.273,351.971,125.864,353.825,133.456z"/>
	<g>
		<rect x="247.188" y="89.318" style="fill:#90BAE1;" width="44.138" height="44.138"/>
		<path style="fill:#90BAE1;" d="M203.05,89.318v44.138h-44.138v-35.31c0.042-2.39,1.034-4.664,2.756-6.321
			c1.723-1.657,4.035-2.559,6.424-2.507H203.05z"/>
	</g>
	<rect x="203.05" y="89.318" style="fill:#B0D3F0;" width="44.138" height="44.138"/>
	<g>
		<circle style="fill:#2C2F38;" cx="216.291" cy="190.835" r="22.069"/>
		<circle style="fill:#2C2F38;" cx="304.567" cy="190.835" r="22.069"/>
	</g>
</g>
<g>
</g>
<g>
</g>
<g>
</g>
<g>
</g>
<g>
</g>
<g>
</g>
<g>
</g>
<g>
</g>
<g>
</g>
<g>
</g>
<g>
</g>
<g>
</g>
<g>
</g>
<g>
</g>
<g>
</g>
</svg>
