<svg xmlns="http://www.w3.org/2000/svg" width="68" height="29" viewBox="0 0 68 29">
    <g fill="#77ADE4" opacity=".58">
        <path d="M12.828 3.709c.787-1.012 1.349-2.36 1.18-3.709-1.18.056-2.585.787-3.428 1.742-.73.843-1.405 2.248-1.236 3.54 1.348.17 2.64-.561 3.484-1.573m1.18 1.91c-1.91-.112-3.54 1.069-4.44 1.069-.899 0-2.304-1.012-3.821-1.012C3.78 5.732 1.982 6.8.97 8.598c-2.023 3.54-.562 8.767 1.461 11.633.956 1.405 2.136 2.979 3.653 2.922 1.461-.056 2.023-.955 3.765-.955s2.248.955 3.822.9c1.573-.057 2.585-1.406 3.54-2.867 1.124-1.63 1.574-3.203 1.574-3.26-.056-.056-3.091-1.18-3.091-4.664-.056-2.922 2.36-4.327 2.473-4.383-1.293-2.023-3.428-2.248-4.16-2.304M30.53 1.63c4.159 0 7.025 2.866 7.025 6.968 0 4.159-2.923 7.025-7.137 7.025h-4.552v7.25H22.55V1.63h7.98zm-4.664 11.24h3.765c2.866 0 4.496-1.574 4.496-4.216 0-2.697-1.63-4.214-4.496-4.214h-3.822v8.43h.057zm12.532 5.675c0-2.697 2.079-4.383 5.788-4.608l4.271-.225v-1.18c0-1.742-1.18-2.754-3.09-2.754-1.855 0-2.98.9-3.26 2.248h-3.035c.169-2.81 2.585-4.889 6.407-4.889 3.765 0 6.181 1.967 6.181 5.114V22.93h-3.034v-2.53h-.057c-.899 1.743-2.866 2.81-4.889 2.81-3.147 0-5.282-1.91-5.282-4.664zm10.059-1.405v-1.236l-3.821.225c-1.911.112-2.979.955-2.979 2.304 0 1.349 1.124 2.248 2.81 2.248 2.248 0 3.99-1.518 3.99-3.54zm6.013 11.52v-2.584c.225.056.787.056 1.012.056 1.46 0 2.248-.618 2.753-2.192 0-.056.281-.955.281-.955l-5.62-15.51h3.429l3.934 12.644h.056l3.934-12.645h3.371l-5.788 16.354c-1.349 3.765-2.866 4.945-6.07 4.945-.224-.056-1.01-.056-1.292-.112z"/>
    </g>
</svg>
