<?xml version="1.0" encoding="UTF-8"?>
<svg width="182px" height="27px" viewBox="0 0 182 27" version="1.1" xmlns="http://www.w3.org/2000/svg" xmlns:xlink="http://www.w3.org/1999/xlink">
    <title>5DFCC5E5-2CB6-4FFA-B45C-BED38CBD05D4</title>
    <defs>
        <polygon id="path-1" points="0 0 40.5 0 40.5 26.9999156 0 26.9999156"></polygon>
        <polygon id="path-3" points="0 0 40.4999156 0 40.4999156 26.9998639 0 26.9998639"></polygon>
        <polygon id="path-5" points="0 0.409048746 37.1249156 0.409048746 37.1249156 5.21429063 0 5.21429063"></polygon>
    </defs>
    <g id="Main" stroke="none" stroke-width="1" fill="none" fill-rule="evenodd">
        <g id="icons-for-book-a-trip" transform="translate(-31.000000, -210.000000)">
            <g id="credit_card_types" transform="translate(31.000000, 210.000000)">
                <g id="Group-13" transform="translate(94.000000, 0.000000)">
                    <path d="M3.375,0 L37.125,0 C38.9888438,0 40.5,1.51115625 40.5,3.375 L40.5,23.625 C40.5,25.4888438 38.9888438,27 37.125,27 L3.375,27 C1.51115625,27 0,25.4888438 0,23.625 L0,3.375 C0,1.51115625 1.51115625,0 3.375,0" id="Fill-1" fill="#F3F3F3"></path>
                    <path d="M27.0840375,15.6682688 L29.0339438,15.6682688 L29.2701938,15.6682688 C29.6718188,15.5906438 29.9603813,15.2345813 29.9527875,14.8245188 C29.9392875,14.42205 29.6600063,14.0786438 29.2701938,13.9807688 C29.1908813,13.9723313 29.1115687,13.9723313 29.0339438,13.9807688 L27.0840375,13.9807688 L27.0840375,15.6682688 Z" id="Fill-3" fill="#41A648"></path>
                    <path d="M28.8052875,3.375 C26.9414438,3.375 25.4302875,4.88615625 25.4302875,6.75 L25.4302875,10.2515625 L30.197475,10.2515625 C30.3096938,10.2380625 30.4227563,10.2380625 30.5358188,10.2515625 C31.6065375,10.3021875 32.4089438,10.8590625 32.4089438,11.8209375 C32.3861625,12.6646875 31.7077875,13.3430625 30.8640375,13.365 C31.9609125,13.4409375 32.796225,14.0484375 32.796225,15.001875 C32.796225,15.9553125 31.8681,16.689375 30.6455062,16.689375 L25.4134125,16.689375 L25.4134125,23.625 L30.3746625,23.625 C32.2385063,23.625 33.7496625,22.1138437 33.7496625,20.25 L33.7496625,3.375 L28.8052875,3.375 Z" id="Fill-5" fill="#41A648"></path>
                    <path d="M29.7166219,12.0741469 C29.7469969,11.6564906 29.4483094,11.2869281 29.0331844,11.2303969 L28.8484031,11.2303969 L27.0841219,11.2303969 L27.0841219,12.8588344 L28.8484031,12.8588344 C28.9091531,12.8681156 28.9715906,12.8681156 29.0331844,12.8588344 C29.4297469,12.8073656 29.7250594,12.4656469 29.7166219,12.0657094 L29.7166219,12.0741469 Z" id="Fill-7" fill="#41A648"></path>
                    <path d="M10.125,3.375 C8.26115625,3.375 6.75,4.88615625 6.75,6.75 L6.75,15.0778125 C7.6494375,15.5494688 8.6450625,15.8085 9.6609375,15.8371875 C10.1342812,15.8920313 10.6067812,15.7367812 10.9544062,15.4119375 C11.302875,15.08625 11.4893437,14.6247188 11.4665625,14.1496875 L11.4665625,10.2346875 L14.34375,10.2346875 L14.34375,14.1496875 C14.34375,15.6684375 13.39875,16.90875 10.1925,16.90875 C9.03234375,16.9079063 7.87640625,16.7661563 6.75,16.486875 L6.75,23.625 L11.7028125,23.625 C13.5666563,23.625 15.0778125,22.1138437 15.0778125,20.25 L15.0778125,3.375 L10.125,3.375 Z" id="Fill-9" fill="#0F67AF"></path>
                    <path d="M19.4820188,3.375 C17.618175,3.375 16.1070188,4.88615625 16.1070188,6.75 L16.1070188,11.1628125 C16.9507688,10.4371875 18.44505,9.973125 20.8328625,10.09125 C21.72555,10.1444062 22.613175,10.28025 23.4813938,10.49625 L23.4813938,11.9221875 C22.6992375,11.502 21.8360812,11.248875 20.9501437,11.1796875 C19.1360813,11.053125 18.0392062,11.9390625 18.0392062,13.5 C18.0392062,15.0609375 19.1360813,15.96375 20.9501437,15.8203125 C21.8343938,15.7393125 22.694175,15.4870313 23.4813938,15.0778125 L23.4813938,16.50375 C22.613175,16.7214375 21.72555,16.8572812 20.8328625,16.90875 C18.44505,17.026875 16.9592063,16.5628125 16.1070188,15.8371875 L16.1070188,23.625 L21.0935812,23.625 C22.957425,23.625 24.4685812,22.1138437 24.4685812,20.25 L24.4685812,3.375 L19.4820188,3.375 Z" id="Fill-11" fill="#BD2235"></path>
                </g>
                <g id="Group-12" transform="translate(141.000000, 0.000000)">
                    <g id="Group-3" transform="translate(0.000000, 0.000338)">
                        <mask id="mask-2" fill="white">
                            <use xlink:href="#path-1"></use>
                        </mask>
                        <g id="Clip-2"></g>
                        <path d="M3.375,-8.4375e-05 L37.125,-8.4375e-05 C38.9888438,-8.4375e-05 40.5,1.51107187 40.5,3.37491562 L40.5,23.6249156 C40.5,25.4887594 38.9888438,26.9999156 37.125,26.9999156 L3.375,26.9999156 C1.51115625,26.9999156 0,25.4887594 0,23.6249156 L0,3.37491562 C0,1.51107187 1.51115625,-8.4375e-05 3.375,-8.4375e-05" id="Fill-1" fill="#FEFEFE" mask="url(#mask-2)"></path>
                    </g>
                    <g id="Group-6" transform="translate(0.000000, 0.000338)">
                        <mask id="mask-4" fill="white">
                            <use xlink:href="#path-3"></use>
                        </mask>
                        <g id="Clip-5"></g>
                        <path d="M7.49241563,15.1029563 L7.49241563,21.9879563 L14.4617906,21.9879563 L15.1874156,20.9585813 L15.8961656,21.9879563 L20.1571031,21.9879563 L20.1571031,20.4354563 L20.6296031,20.4354563 C21.0590719,20.439675 21.4851656,20.3763938 21.8952281,20.2498313 L21.8952281,21.9879563 L24.7892906,21.9879563 L24.7892906,20.7560813 L25.7680406,21.9879563 L38.9474156,21.9879563 C39.4891031,21.9972375 40.0223531,21.8512688 40.4830406,21.5660813 L40.4830406,24.4685813 C40.0974469,25.96455 38.7457594,27.0065813 37.2008531,26.9998639 L3.37491563,26.9998639 C1.51107188,26.9998639 -8.4375e-05,25.488675 -8.4375e-05,23.6248313 L-8.4375e-05,12.9935813 L1.92366563,12.9935813 L2.32022813,11.9642063 L3.26522813,11.9642063 L3.65335313,12.9935813 L19.1277281,12.9935813 L19.1277281,11.7617063 L20.1064781,12.9935813 L24.1649156,12.9935813 L24.1649156,12.3692063 C24.7597594,12.7927688 25.4761031,13.0121438 26.2067906,12.9935813 L28.6283531,12.9935813 L29.0164781,11.9642063 L29.9614781,11.9642063 L30.3749156,12.9935813 L34.5092906,12.9935813 L34.5092906,11.6604563 L35.3530406,12.9935813 L38.2049156,12.9935813 L38.2049156,6.10858125 L35.1758531,6.10858125 L35.1758531,7.50920625 L34.2730406,6.10858125 L31.6236656,6.10858125 L31.6236656,7.88045625 L30.7799156,6.10858125 L26.2742906,6.10858125 C25.5123844,6.08664375 24.7665094,6.33133125 24.1649156,6.80045625 L24.1649156,6.10858125 L9.28116562,6.10858125 L8.77491563,7.59358125 L8.26866563,6.07483125 L4.89366563,6.07483125 L4.89366563,7.84670625 L4.10054062,6.07483125 L1.34991563,6.07483125 L-8.4375e-05,9.28108125 L-8.4375e-05,3.37483125 C-8.4375e-05,1.5109875 1.51107188,-0.00031466107 3.37491563,-0.00031466107 L37.2008531,-0.00031466107 C38.7516656,-0.0145125 40.1126344,1.03005 40.4999156,2.53108125 L40.4999156,15.1029563 L15.9130406,15.1029563 L15.1874156,16.1154563 L14.4786656,15.1029563 L7.49241563,15.1029563 Z" id="Fill-4" fill="#2B6DB5" mask="url(#mask-4)"></path>
                    </g>
                    <path d="M37.9938937,17.2295437 L40.0442062,17.2295437 L40.4998312,16.2001687 L38.0276437,16.2001687 C37.6074562,16.1512312 37.1855812,16.287075 36.87255,16.5714187 C36.558675,16.8557625 36.383175,17.2616062 36.3907687,17.6851687 C36.3654562,18.0792 36.5173312,18.46395 36.8042062,18.7347937 C37.0910812,19.0056375 37.4842687,19.1347312 37.8757687,19.0857937 L38.9642062,19.0857937 C39.1354875,19.0512 39.3101437,19.1237625 39.407175,19.2688875 C39.5042062,19.4131687 39.5042062,19.6021687 39.407175,19.7472937 C39.3101437,19.891575 39.1354875,19.9641375 38.9642062,19.9295437 L36.5257687,19.9295437 L36.5257687,20.9420437 L38.9473312,20.9420437 C39.6282375,21.0095437 40.2678,20.6062312 40.4998312,19.9632937 L40.4998312,18.8326687 C40.2568312,18.298575 39.6999562,17.9796375 39.1160812,18.0395437 L37.9685812,18.0395437 C37.7981437,18.0741375 37.6234875,18.0024187 37.5264562,17.8572937 C37.429425,17.7121687 37.429425,17.5231687 37.5264562,17.3780437 C37.6234875,17.2337625 37.7981437,17.1612 37.9685812,17.1957937 L37.9938937,17.2295437 Z M34.7032687,18.0732937 L33.5979562,18.0732937 C33.4275187,18.1078875 33.2528625,18.0361687 33.1558312,17.8910437 C33.0588,17.7459187 33.0588,17.5569187 33.1558312,17.4117937 C33.2528625,17.2675125 33.4275187,17.19495 33.5979562,17.2295437 L35.6482687,17.2295437 L36.1038937,16.2170437 L33.6317062,16.2170437 C33.2115187,16.1681062 32.7904875,16.30395 32.4766125,16.5882937 C32.1627375,16.8726375 31.9872375,17.2784812 31.9948312,17.7020437 C31.9695187,18.096075 32.12055,18.480825 32.4082687,18.7516687 C32.6951437,19.0225125 33.0883312,19.1516062 33.4798312,19.1026687 L34.5935812,19.1026687 C34.7648625,19.068075 34.9395187,19.1406375 35.03655,19.2857625 C35.1327375,19.4300437 35.1327375,19.6190437 35.03655,19.7641687 C34.9395187,19.90845 34.7648625,19.9810125 34.5935812,19.9464187 L32.1298312,19.9464187 L32.1298312,20.9589187 L34.5935812,20.9589187 C35.0188312,20.9935125 35.438175,20.843325 35.7436125,20.5454812 C36.0498937,20.2476375 36.2118937,19.8325125 36.1882687,19.4064187 C36.2093625,19.0166062 36.0558,18.6369187 35.7680812,18.372825 C35.4803625,18.1087312 35.09055,17.9855437 34.7032687,18.0395437 L34.7032687,18.0732937 Z M31.5223312,17.2295437 L31.5223312,16.2170437 L27.6832687,16.2170437 L27.6832687,20.9251687 L31.5223312,20.9251687 L31.5223312,19.9126687 L28.8476437,19.9126687 L28.8476437,19.0689187 L31.4548312,19.0689187 L31.4548312,18.0395437 L28.8476437,18.0395437 L28.8476437,17.1957937 L31.5223312,17.2295437 Z M25.3629562,18.2757937 L24.0298312,18.2757937 L24.0298312,17.1789187 L25.3629562,17.1789187 C25.5131437,17.1595125 25.664175,17.2059187 25.7772375,17.306325 C25.8911437,17.4058875 25.9552687,17.5510125 25.9535812,17.7020437 C25.9578,17.8539187 25.8945187,18.0007312 25.7806125,18.1011375 C25.6667062,18.2023875 25.5131437,18.24795 25.3629562,18.2251687 L25.3629562,18.2757937 Z M25.8185812,19.2207937 C26.6479875,19.1229187 27.2411437,18.3711375 27.1432687,17.5417312 C27.0453937,16.712325 26.2936125,16.1191687 25.4642062,16.2170437 L22.8823312,16.2170437 L22.8823312,20.9251687 L24.0298312,20.9251687 L24.0298312,19.2376687 L24.5529562,19.2376687 L25.9704562,20.9251687 L27.4132687,20.9251687 L25.8185812,19.2207937 Z M20.5113937,18.3770437 L19.1445187,18.3770437 L19.1445187,17.1789187 L20.5113937,17.1789187 C20.8328625,17.1789187 21.0935812,17.4396375 21.0935812,17.7611062 C21.0935812,18.082575 20.8328625,18.3432937 20.5113937,18.3432937 L20.5113937,18.3770437 Z M20.6126437,16.2001687 L17.9885812,16.2001687 L17.9885812,20.9251687 L19.1445187,20.9251687 L19.1445187,19.3557937 L20.5788937,19.3557937 C21.0210187,19.3895437 21.4572375,19.2342937 21.7787062,18.9288562 C22.100175,18.6234187 22.2773625,18.1964812 22.2663937,17.7526687 C22.2849562,17.3147625 22.1145187,16.8895125 21.7981125,16.5857625 C21.4817062,16.2828562 21.0497062,16.1301375 20.6126437,16.1664187 L20.6126437,16.2001687 Z M15.8623312,18.5626687 L17.7692062,16.2001687 L16.3685812,16.2001687 L15.1873312,17.6682937 L14.0145187,16.1664187 L12.5801437,16.1664187 L14.5123312,18.5626687 L12.6560812,20.9251687 L14.0398312,20.9251687 L15.1873312,19.4064187 L16.3348312,20.9420437 L17.7860812,20.9420437 L15.8623312,18.5626687 Z M12.4113937,17.1789187 L12.4113937,16.1664187 L8.58920625,16.1664187 L8.58920625,20.9251687 L12.4113937,20.9251687 L12.4113937,19.9126687 L9.73670625,19.9126687 L9.73670625,19.0689187 L12.3607687,19.0689187 L12.3607687,18.0395437 L9.73670625,18.0395437 L9.73670625,17.1957937 L12.4113937,17.1789187 Z" id="Fill-7" fill="#2B6DB5"></path>
                    <g id="Group-11" transform="translate(0.000000, 6.750338)">
                        <mask id="mask-6" fill="white">
                            <use xlink:href="#path-5"></use>
                        </mask>
                        <g id="Clip-10"></g>
                        <path d="M35.9521031,0.421790625 L35.9521031,2.95304063 L35.9521031,3.52679063 L35.6314781,2.98679063 L33.9439781,0.455540625 L32.5349156,0.455540625 L32.5349156,5.21429063 L33.6655406,5.21429063 L33.6655406,2.53116563 L33.6655406,1.97429063 L33.9692906,2.49741563 L35.7327281,5.18054063 L37.1249156,5.18054063 L37.1249156,0.421790625 L35.9521031,0.421790625 Z M28.7296031,3.25679063 L29.1683531,2.14304063 L29.4721031,1.40054063 L29.7589781,2.14304063 L30.2146031,3.25679063 L28.7296031,3.25679063 Z M30.2821031,0.421790625 L28.7633531,0.421790625 L26.7214781,5.18054063 L27.9533531,5.18054063 L28.3583531,4.21866563 L30.6111656,4.21866563 L31.0161656,5.21429063 L32.3155406,5.21429063 L30.2821031,0.421790625 Z M26.2489781,1.45116563 L27.4892906,1.45116563 L27.4892906,0.421790625 L26.1561656,0.421790625 C25.5284156,0.382134375 24.9150094,0.619228125 24.4771031,1.07063438 C24.0391969,1.52119688 23.8206656,2.14135313 23.8780406,2.76741563 L23.8780406,2.83491563 C23.8071656,3.45169688 24.0130406,4.06932188 24.4382906,4.52072813 C24.8643844,4.97297813 25.4685094,5.21429063 26.0886656,5.18054063 L26.1561656,5.18054063 L26.6202281,4.16804063 L26.2405406,4.16804063 C25.8903844,4.18575938 25.5503531,4.04738438 25.3124156,3.79004063 C25.0744781,3.53269688 24.9631031,3.18254063 25.0086656,2.83491563 L25.0086656,2.76741563 C24.9681656,2.42232188 25.0820719,2.07722813 25.3191656,1.82410313 C25.5571031,1.57013438 25.8937594,1.43429063 26.2405406,1.45116563 L26.2489781,1.45116563 Z M22.0302281,5.18054063 L23.1861656,5.18054063 L23.1861656,0.421790625 L22.0302281,0.421790625 L22.0302281,5.18054063 Z M19.7183531,2.48054063 L18.3852281,2.48054063 L18.3852281,1.43429063 L19.7183531,1.43429063 C19.8676969,1.41741563 20.0170406,1.46466563 20.1301031,1.56422813 C20.2423219,1.66463438 20.3072906,1.80722813 20.3089781,1.95741563 C20.3131969,2.10929063 20.2499156,2.25610313 20.1360094,2.35650938 C20.0221031,2.45775938 19.8685406,2.50332188 19.7183531,2.48054063 L19.7183531,2.48054063 Z M20.1739781,3.42554063 C20.9291344,3.33441563 21.4919156,2.68472813 21.4733531,1.92366563 C21.4792594,1.48997813 21.2970094,1.07485313 20.9730094,0.787134375 C20.6490094,0.498571875 20.2161656,0.365259375 19.7858531,0.421790625 L17.2124156,0.421790625 L17.2124156,5.18054063 L18.3852281,5.18054063 L18.3852281,3.49304063 L18.9083531,3.49304063 L20.3258531,5.18054063 L21.7602281,5.18054063 L20.1739781,3.42554063 Z M16.4530406,1.43429063 L16.4530406,0.421790625 L12.6561656,0.421790625 L12.6561656,5.18054063 L16.4530406,5.18054063 L16.4530406,4.16804063 L13.7783531,4.16804063 L13.7783531,3.32429063 L16.3855406,3.32429063 L16.3855406,2.29491563 L13.7783531,2.29491563 L13.7783531,1.45116563 L16.4530406,1.43429063 Z M9.87179063,0.421790625 L8.94366563,3.17241563 L8.79179063,3.69554063 L8.63991563,3.17241563 L7.69491563,0.421790625 L5.83022813,0.421790625 L5.83022813,5.18054063 L6.95241563,5.18054063 L6.95241563,2.05866563 L6.95241563,1.33304063 L7.18866563,2.05866563 L8.26866563,5.18054063 L9.28116563,5.18054063 L10.3864781,2.05866563 L10.6058531,1.33304063 L10.6058531,2.05866563 L10.6058531,5.18054063 L11.7196031,5.18054063 L11.7196031,0.421790625 L9.87179063,0.421790625 Z M2.00804063,3.25679063 L2.47210313,2.14304063 L2.77585313,1.40054063 L3.07960313,2.14304063 L3.53522813,3.25679063 L2.00804063,3.25679063 Z M3.56897813,0.421790625 L2.06710313,0.421790625 L-8.43749986e-05,5.18054063 L1.24866563,5.18054063 L1.68741563,4.21866563 L3.90647813,4.21866563 L4.31147813,5.21429063 L5.61085313,5.21429063 L3.56897813,0.421790625 Z" id="Fill-9" fill="#2B6DB5" mask="url(#mask-6)"></path>
                    </g>
                </g>
                <g id="Group-10" transform="translate(47.000000, 0.000000)">
                    <path d="M3.375,0 L37.125,0 C38.9888438,0 40.5,1.51115625 40.5,3.375 L40.5,23.625 C40.5,25.4888438 38.9888438,27 37.125,27 L3.375,27 C1.51115625,27 0,25.4888438 0,23.625 L0,3.375 C0,1.51115625 1.51115625,0 3.375,0" id="Fill-1" fill="#F2F0EB"></path>
                    <polygon id="Fill-5" fill="#F16224" points="15.946875 20.536875 24.5615625 20.536875 24.5615625 6.463125 15.946875 6.463125"></polygon>
                    <path d="M16.875,13.5 C16.8606563,10.7603438 18.1051875,8.16665625 20.25,6.463125 C16.5796875,3.57665625 11.3079375,3.996 8.13965625,7.42584375 C4.97221875,10.8556875 4.97221875,16.1443125 8.13965625,19.5741563 C11.3079375,23.004 16.5796875,23.4233438 20.25,20.536875 C18.1051875,18.8333438 16.8606563,16.2396563 16.875,13.5" id="Fill-7" fill="#E82328"></path>
                    <path d="M35.3475562,19.5506437 L35.3475562,18.6973312 L35.1602437,18.6973312 L34.9354687,19.3008937 L34.6919625,18.6973312 L34.50465,18.6973312 L34.50465,19.5506437 L34.6357687,19.5506437 L34.6357687,18.9054562 L34.8605437,19.4673937 L35.0103937,19.4673937 L35.2164375,18.9054562 L35.2164375,19.5506437 L35.3475562,19.5506437 Z M34.0738312,19.5506437 L34.0738312,18.8430187 L34.3548,18.8430187 L34.3548,18.6973312 L33.6992062,18.6973312 L33.6992062,18.8430187 L33.9614437,18.8430187 L33.9614437,19.5506437 L34.0738312,19.5506437 Z" id="Fill-8" fill="#F49D20"></path>
                    <path d="M34.7289188,13.5 C34.7263875,16.925625 32.770575,20.0483438 29.6900438,21.546 C26.6095125,23.0428125 22.9442625,22.6513125 20.2501688,20.536875 C24.1314188,17.4808125 24.8030438,11.8580625 21.7520437,7.9734375 C21.3149813,7.41065625 20.809575,6.9035625 20.2501688,6.463125 C22.9442625,4.3486875 26.6095125,3.9571875 29.6900438,5.454 C32.770575,6.95165625 34.7263875,10.074375 34.7289188,13.5" id="Fill-9" fill="#F49D20"></path>
                </g>
                <g id="Group-5">
                    <path d="M3.375,0 L37.125,0 C38.9888438,0 40.5,1.51115625 40.5,3.375 L40.5,23.625 C40.5,25.4888438 38.9888438,27 37.125,27 L3.375,27 C1.51115625,27 0,25.4888438 0,23.625 L0,3.375 C0,1.51115625 1.51115625,0 3.375,0" id="Fill-1" fill="#2A2C6B"></path>
                    <path d="M17.2886062,9.58490929 L14.0148562,17.3896031 L11.8126687,17.3896031 L10.2011062,11.1542906 C10.1724187,10.8572906 9.99016875,10.5982594 9.72016875,10.4708531 C9.0865125,10.1687906 8.41741875,9.94772812 7.72891875,9.81272812 L7.77954375,9.58490929 L11.2136062,9.58490929 C11.6785125,9.58322812 12.075075,9.91904062 12.1501687,10.3780406 L12.9939187,14.8921031 L15.0948562,9.58490929 L17.2886062,9.58490929 Z M25.6079812,14.9089781 C25.6164187,12.8080406 22.7814187,12.6561656 22.7814187,11.8124156 C22.7814187,11.5339781 23.0514187,11.2386656 23.6251687,11.1627281 C24.3077625,11.0952281 24.9962625,11.2150406 25.6164187,11.5086656 L25.9707937,9.82116562 C25.365825,9.59504062 24.7262625,9.47775937 24.0807937,9.47522812 C22.0895437,9.47522812 20.7057937,10.5383531 20.7057937,12.0571031 C20.7057937,13.1792906 21.7098562,13.8036656 22.4692312,14.1749156 C23.2286062,14.5461656 23.5239187,14.8077281 23.5154812,15.1452281 C23.5154812,15.6683531 22.8911062,15.9046031 22.3089187,15.9130406 C21.5908875,15.9223219 20.8821375,15.7485094 20.2501687,15.4067906 L19.8873562,17.0942906 C20.6020125,17.3735719 21.3639187,17.5136344 22.1317312,17.5077281 C24.2495437,17.5077281 25.6417312,16.4614781 25.6501687,14.8414781 L25.6079812,14.9089781 Z M30.8729812,17.4402281 L32.7461062,17.4402281 L31.1092312,9.63554062 L29.4217312,9.63554062 C29.0504812,9.63891562 28.7172,9.86588437 28.5779812,10.2092906 L25.5489187,17.4402281 L27.6751687,17.4402281 L28.0886062,16.2758531 L30.6282937,16.2758531 L30.8729812,17.4402281 Z M28.6201687,14.6727281 L29.6832937,11.7449156 L30.2992312,14.6727281 L28.6201687,14.6727281 Z M20.1320437,9.61022812 L18.4445437,17.4149156 L16.4195437,17.4149156 L18.1070437,9.61022812 L20.1320437,9.61022812 Z" id="Fill-3" fill="#FEFEFE"></path>
                </g>
            </g>
        </g>
    </g>
</svg>