<?xml version="1.0" encoding="UTF-8"?>
<svg width="44px" height="33px" viewBox="0 0 44 33" version="1.1" xmlns="http://www.w3.org/2000/svg" xmlns:xlink="http://www.w3.org/1999/xlink">
    <title>F2FBD177-F86C-4F36-B996-92EB109087E3</title>
    <g id="Main" stroke="none" stroke-width="1" fill="none" fill-rule="evenodd">
        <g id="icons-for-book-a-trip" transform="translate(-31.000000, -148.000000)" fill="#0B4178" fill-rule="nonzero">
            <g id="Credit_card" transform="translate(31.000000, 148.000000)">
                <path d="M31.0249991,6.50691 L2.65808681,6.50691 C1.19238128,6.50691 0,7.78059 0,9.34623 L0,29.54691 C0,31.11255 1.19238128,32.38623 2.65808681,32.38623 L31.0249149,32.38623 C32.4906204,32.38623 33.683086,31.11255 33.683086,29.54691 L33.683086,9.34623 C33.683086,7.78059 32.4907047,6.50691 31.0249991,6.50691 Z M32.4192562,29.54691 L32.4192562,29.54691 C32.4192562,30.36807 31.7937447,31.03623 31.0249149,31.03623 L2.65808681,31.03623 C1.88925702,31.03623 1.26382979,30.36807 1.26382979,29.54691 L1.26382979,9.34623 C1.26382979,8.52498 1.88925702,7.85691 2.65808681,7.85691 L31.0249149,7.85691 C31.7937447,7.85691 32.4192562,8.52498 32.4192562,9.34623 L32.4192562,29.54691 Z" id="Shape"></path>
                <path d="M8.73668681,14.44284 L6.03512426,14.44284 C4.94182723,14.44284 4.05242809,15.39297 4.05242809,16.56072 L4.05242809,18.0036 C4.05242809,19.17144 4.94182723,20.12148 6.03512426,20.12148 L8.73668681,20.12148 C9.82998383,20.12148 10.719383,19.17135 10.719383,18.0036 L10.719383,16.56072 C10.719383,15.39288 9.82989957,14.44284 8.73668681,14.44284 Z M6.75399064,18.77157 L6.03512426,18.77157 C5.63870298,18.77157 5.31625787,18.42714 5.31625787,18.00369 L5.31625787,16.56072 C5.31625787,16.13727 5.63878723,15.79284 6.03512426,15.79284 L6.75399064,15.79284 L6.75399064,18.77157 Z M9.45563745,18.0036 C9.45563745,18.42705 9.13310809,18.77148 8.73677106,18.77148 L8.01790468,18.77148 L8.01790468,15.79275 L8.73677106,15.79275 C9.13310809,15.79284 9.45563745,16.13727 9.45563745,16.56072 L9.45563745,18.0036 Z" id="Shape"></path>
                <path d="M8.73677106,22.37877 L4.68434298,22.37877 C4.33535745,22.37877 4.05242809,22.6809 4.05242809,23.05377 C4.05242809,23.42664 4.33535745,23.72877 4.68434298,23.72877 L8.73677106,23.72877 C9.0857566,23.72877 9.36868596,23.42664 9.36868596,23.05377 C9.36868596,22.6809 9.0857566,22.37877 8.73677106,22.37877 Z" id="Path"></path>
                <path d="M15.4907617,22.37877 L11.4383336,22.37877 C11.0893481,22.37877 10.8064187,22.6809 10.8064187,23.05377 C10.8064187,23.42664 11.0893481,23.72877 11.4383336,23.72877 L15.4907617,23.72877 C15.8397472,23.72877 16.1226766,23.42664 16.1226766,23.05377 C16.1226766,22.6809 15.8397472,22.37877 15.4907617,22.37877 Z" id="Path"></path>
                <path d="M18.1923243,25.98597 L4.68434298,25.98597 C4.33535745,25.98597 4.05242809,26.2881 4.05242809,26.66097 C4.05242809,27.03384 4.33535745,27.33597 4.68434298,27.33597 L18.1924085,27.33597 C18.541394,27.33597 18.8243234,27.03384 18.8243234,26.66097 C18.8243234,26.2881 18.541394,25.98597 18.1923243,25.98597 Z" id="Path"></path>
                <path d="M22.2447523,22.37877 L18.1923243,22.37877 C17.8433387,22.37877 17.5604094,22.6809 17.5604094,23.05377 C17.5604094,23.42664 17.8433387,23.72877 18.1923243,23.72877 L22.2447523,23.72877 C22.5937379,23.72877 22.8766672,23.42664 22.8766672,23.05377 C22.8766672,22.6809 22.5937379,22.37877 22.2447523,22.37877 Z" id="Path"></path>
                <path d="M28.998743,22.37877 L24.9463149,22.37877 C24.5973294,22.37877 24.3144,22.6809 24.3144,23.05377 C24.3144,23.42664 24.5973294,23.72877 24.9463149,23.72877 L28.998743,23.72877 C29.3477285,23.72877 29.6306579,23.42664 29.6306579,23.05377 C29.6306579,22.6809 29.3477285,22.37877 28.998743,22.37877 Z" id="Path"></path>
                <path d="M26.2971804,10.83564 C25.1865268,10.83564 24.2016664,11.41938 23.5956179,12.31407 C22.9894851,11.41929 22.0046247,10.83564 20.8940553,10.83564 C19.0559413,10.83564 17.5605779,12.43296 17.5605779,14.3964 C17.5605779,16.35984 19.0560255,17.95716 20.8940553,17.95716 C22.0047089,17.95716 22.9895694,17.37342 23.5956179,16.47873 C24.2017506,17.37351 25.1866111,17.95716 26.2971804,17.95716 C28.1352945,17.95716 29.6306579,16.35984 29.6306579,14.3964 C29.6306579,12.43296 28.1352945,10.83564 26.2971804,10.83564 Z M20.8939711,16.60716 C19.7527328,16.60716 18.8243234,15.61536 18.8243234,14.3964 C18.8243234,13.17744 19.752817,12.18564 20.8939711,12.18564 C22.0351251,12.18564 22.9636187,13.17744 22.9636187,14.3964 C22.9636187,15.61536 22.0352094,16.60716 20.8939711,16.60716 Z M26.2971804,16.60716 C25.1559421,16.60716 24.2275328,15.61536 24.2275328,14.3964 C24.2275328,13.17744 25.1560264,12.18564 26.2971804,12.18564 C27.4383345,12.18564 28.3668281,13.17744 28.3668281,14.3964 C28.3668281,15.61536 27.4384187,16.60716 26.2971804,16.60716 Z" id="Shape"></path>
                <path d="M40.4806366,0.01377 L12.1137243,0.01377 C10.6480187,0.01377 9.45555319,1.28745 9.45555319,2.85309 L9.45555319,4.29597 C9.45555319,4.66884 9.73848255,4.97097 10.0874681,4.97097 L41.8748936,4.97097 L41.8748936,7.94979 L35.7528179,7.94979 C35.4038323,7.94979 35.120903,8.25192 35.120903,8.62479 C35.120903,8.99766 35.4038323,9.29979 35.7528179,9.29979 L41.8748936,9.29979 L41.8748936,23.05377 C41.8748936,23.87502 41.2494664,24.54309 40.4806366,24.54309 L35.7526494,24.54309 C35.4036638,24.54309 35.1207345,24.84522 35.1207345,25.21809 C35.1207345,25.59096 35.4036638,25.89309 35.7526494,25.89309 L40.4806366,25.89309 C41.9463421,25.89309 43.1387234,24.61941 43.1387234,23.05377 L43.1387234,2.85309 C43.1387234,1.28754 41.9463421,0.01377 40.4806366,0.01377 Z M41.8748936,3.62097 L10.7194672,3.62097 L10.7194672,2.85309 C10.7194672,2.03193 11.3449787,1.36377 12.1138085,1.36377 L40.4806366,1.36377 C41.2494664,1.36377 41.8748936,2.03193 41.8748936,2.85309 L41.8748936,3.62097 Z" id="Shape"></path>
            </g>
        </g>
    </g>
</svg>