<svg width="130" height="46" viewBox="0 0 130 46" fill="none" xmlns="http://www.w3.org/2000/svg">
<g clip-path="url(#clip0)">
<path d="M53.6527 42.9522V16.5691C53.6527 14.2383 54.5829 12.0029 56.2387 10.3547C57.8945 8.70657 60.1403 7.78064 62.482 7.78064L70.307 7.7915C72.6426 7.79618 74.8809 8.72307 76.5306 10.3687C78.1804 12.0144 79.1067 14.2443 79.1063 16.5691V22.1837C79.1063 24.5146 78.1762 26.7502 76.5204 28.3985C74.8646 30.0469 72.6188 30.9731 70.277 30.9735H59.2169" stroke="#4176AC" stroke-width="2" stroke-linecap="round" stroke-linejoin="round"/>
<path d="M81.2935 7.7793H84.6883C85.6494 7.7793 86.5712 8.15934 87.2508 8.83582C87.9304 9.5123 88.3122 10.4298 88.3122 11.3865V31.093" stroke="#4176AC" stroke-width="2" stroke-linecap="round" stroke-linejoin="round"/>
<path d="M87.5836 4.72643L86.0445 3.1931C85.9537 3.10279 85.8816 2.99556 85.8325 2.87753C85.7834 2.75949 85.7581 2.63298 85.7581 2.50521C85.7581 2.37744 85.7834 2.25092 85.8325 2.13289C85.8816 2.01486 85.9537 1.90762 86.0445 1.81731L87.5836 0.285337C87.7673 0.102631 88.0163 0 88.276 0C88.5357 0 88.7848 0.102631 88.9685 0.285337L90.5062 1.81731C90.597 1.90762 90.6691 2.01486 90.7182 2.13289C90.7674 2.25092 90.7926 2.37744 90.7926 2.50521C90.7926 2.63298 90.7674 2.75949 90.7182 2.87753C90.6691 2.99556 90.597 3.10279 90.5062 3.1931L88.9617 4.72643C88.8708 4.81686 88.763 4.88859 88.6443 4.93753C88.5256 4.98647 88.3984 5.01165 88.2699 5.01165C88.1414 5.01165 88.0142 4.98647 87.8955 4.93753C87.7768 4.88859 87.669 4.81686 87.5781 4.72643" fill="#4B80B6"/>
<path d="M94.8287 7.76172H98.1948C99.9263 7.761 101.587 8.44495 102.812 9.66311L110.686 17.5009C110.929 17.7425 111.217 17.9341 111.533 18.0649C111.85 18.1957 112.19 18.263 112.533 18.263C112.876 18.263 113.216 18.1957 113.533 18.0649C113.85 17.9341 114.137 17.7425 114.38 17.5009L122.225 9.69299C122.832 9.08974 123.551 8.61131 124.343 8.28506C125.135 7.95881 125.984 7.79113 126.841 7.7916H129.578" stroke="#4176AC" stroke-width="2" stroke-linecap="round" stroke-linejoin="round"/>
<path d="M94.8287 30.9205H98.1948C99.9263 30.9211 101.587 30.2372 102.812 29.0191L110.686 21.1813C111.176 20.6941 111.84 20.4204 112.533 20.4204C113.226 20.4204 113.89 20.6941 114.38 21.1813L122.225 28.9906C123.45 30.2086 125.11 30.8925 126.841 30.892H129.578" stroke="#4176AC" stroke-width="2" stroke-linecap="round" stroke-linejoin="round"/>
<path d="M33.583 35.9267C32.7525 35.9297 31.9296 35.7689 31.1619 35.4535C30.3942 35.1381 29.6969 34.6744 29.1103 34.0892L22.6497 27.6543C22.4212 27.4368 22.1172 27.3154 21.801 27.3154C21.4849 27.3154 21.1809 27.4368 20.9524 27.6543L14.4699 34.1068C13.8837 34.6929 13.1866 35.1575 12.4189 35.4738C11.6512 35.7902 10.8281 35.952 9.99727 35.9498H8.73243L16.9191 44.0986C18.1469 45.3182 19.8106 46.0031 21.5452 46.0031C23.2798 46.0031 24.9435 45.3182 26.1713 44.0986L34.3744 35.9322L33.583 35.9267Z" fill="#4176AC"/>
<path d="M9.99864 13.1862C10.8295 13.184 11.6526 13.3457 12.4203 13.6621C13.188 13.9784 13.8851 14.4431 14.4713 15.0292L20.9537 21.4831C21.1791 21.7066 21.4843 21.8322 21.8024 21.8322C22.1206 21.8322 22.4258 21.7066 22.6511 21.4831L29.1104 15.0536C29.6961 14.4668 30.3931 14.0016 31.1609 13.685C31.9286 13.3684 32.752 13.2067 33.583 13.2093H34.3608L26.1577 5.0442C25.5503 4.43936 24.8291 3.95955 24.0353 3.6322C23.2416 3.30484 22.3908 3.13635 21.5316 3.13635C20.6724 3.13635 19.8216 3.30484 19.0278 3.6322C18.2341 3.95955 17.5129 4.43936 16.9054 5.0442L8.73243 13.1862H9.99864Z" fill="#4176AC"/>
<path d="M41.1461 19.9646L36.1891 15.0305C36.0773 15.076 35.9578 15.1 35.837 15.1011H33.583C32.41 15.1041 31.2856 15.5677 30.4543 16.3914L23.995 22.8167C23.4133 23.3947 22.625 23.7193 21.8031 23.7193C20.9811 23.7193 20.1928 23.3947 19.6111 22.8167L13.1272 16.3669C12.2961 15.5428 11.1717 15.0786 9.99857 15.0753H7.23148C7.11745 15.0728 7.00475 15.0503 6.89856 15.0088L1.91016 19.9646C0.684934 21.1868 -0.00317097 22.8428 -0.00317097 24.5694C-0.00317097 26.2959 0.684934 27.952 1.91016 29.1741L6.88765 34.1286C6.99361 34.0864 7.10644 34.0638 7.22057 34.062H9.99857C11.1717 34.0586 12.296 33.5945 13.1272 32.7705L19.6097 26.318C20.7818 25.1527 22.8243 25.1527 23.995 26.318L30.4543 32.746C31.2856 33.5696 32.41 34.0333 33.583 34.0362H35.837C35.9578 34.0371 36.0774 34.0611 36.1891 34.1069L41.1461 29.1728C41.7537 28.5681 42.2358 27.8503 42.5646 27.0602C42.8935 26.2701 43.0628 25.4232 43.0628 24.568C43.0628 23.7128 42.8935 22.8659 42.5646 22.0758C42.2358 21.2857 41.7537 20.5679 41.1461 19.9633" fill="#4176AC"/>
<path d="M60.3821 40.7101C59.9723 40.728 59.5657 40.7894 59.1691 40.8935V42.5015C59.4724 42.6074 59.7918 42.6607 60.1133 42.6591C60.9238 42.6591 61.3072 42.3874 61.3072 41.6771C61.3072 41.0089 60.9933 40.7101 60.3821 40.7101ZM58.8962 43.698V40.5159H59.1186L59.1418 40.6517C59.5551 40.5424 59.9784 40.4746 60.4053 40.4493C60.7011 40.4287 60.9946 40.5134 61.2335 40.6884C61.5064 40.9138 61.5992 41.2778 61.5992 41.6744C61.5992 42.071 61.4627 42.4811 61.0807 42.6971C60.7891 42.8419 60.4663 42.9132 60.1406 42.9049C59.8112 42.9028 59.484 42.8529 59.1691 42.7568V43.6926L58.8962 43.698Z" fill="#4176AC"/>
<path d="M63.6321 40.7008C62.823 40.7008 62.4615 40.9534 62.4615 41.6637C62.4615 42.3496 62.8176 42.6592 63.6321 42.6592C64.4467 42.6592 64.7987 42.4093 64.7987 41.7004C64.7987 41.0145 64.4426 40.7008 63.6321 40.7008ZM64.6745 42.6592C64.4016 42.8521 64.0442 42.9078 63.6321 42.9078C63.2201 42.9078 62.8503 42.848 62.587 42.6592C62.2909 42.4514 62.1695 42.116 62.1695 41.6827C62.1695 41.2495 62.2909 40.9127 62.587 40.7008C62.8503 40.512 63.2119 40.4523 63.6321 40.4523C64.0523 40.4523 64.4057 40.512 64.6745 40.7008C64.9747 40.9127 65.0907 41.2576 65.0907 41.6773C65.0907 42.097 64.9706 42.4514 64.6745 42.6592Z" fill="#4176AC"/>
<path d="M68.5087 42.8422L67.6054 40.9123H67.5877L66.698 42.8422H66.4483L65.4932 40.5157H65.7934L66.5943 42.4687H66.6134L67.484 40.5157H67.7337L68.626 42.4687H68.6451L69.427 40.5157H69.7231L68.7597 42.8422H68.5087Z" fill="#4176AC"/>
<path d="M71.4627 40.6952C70.7123 40.6952 70.4585 41.0279 70.4121 41.5101H72.5133C72.4901 40.9804 72.2173 40.6952 71.4627 40.6952ZM71.4532 42.9076C71.0043 42.9076 70.7123 42.8424 70.4803 42.6495C70.2074 42.4146 70.116 42.0737 70.116 41.6825C70.116 41.2914 70.2402 40.9125 70.5513 40.687C70.8233 40.5167 71.1418 40.4346 71.4627 40.4521C71.7899 40.4324 72.1155 40.5109 72.3974 40.6775C72.7344 40.903 72.7999 41.2995 72.7999 41.7504H70.4053C70.4148 42.2299 70.5717 42.6536 71.4791 42.6536C71.8848 42.643 72.2888 42.5975 72.6866 42.5178V42.7623C72.2822 42.8451 71.8713 42.8928 71.4586 42.9049" fill="#4176AC"/>
<path d="M73.5843 42.8424V40.5159H73.8054L73.8286 40.6517C74.3239 40.5268 74.5558 40.4493 74.9911 40.4493H75.0238V40.7074H74.9583C74.5927 40.7074 74.3703 40.7576 73.8572 40.8907V42.8397L73.5843 42.8424Z" fill="#4176AC"/>
<path d="M76.6093 40.6952C75.8602 40.6952 75.6051 41.0279 75.5587 41.5101H77.6599C77.6367 40.9804 77.3638 40.6952 76.6093 40.6952ZM76.5998 42.9076C76.1509 42.9076 75.8602 42.8424 75.6283 42.6495C75.3554 42.4146 75.2626 42.0737 75.2626 41.6825C75.2626 41.2914 75.3881 40.9125 75.6979 40.687C75.9701 40.517 76.2884 40.435 76.6093 40.4521C76.9365 40.4324 77.2621 40.5109 77.5439 40.6775C77.8823 40.903 77.9533 41.2995 77.9533 41.7504H75.5491C75.5587 42.2299 75.7156 42.6536 76.6229 42.6536C77.0291 42.643 77.4336 42.5976 77.8318 42.5178V42.7623C77.4274 42.845 77.0165 42.8927 76.6038 42.9049" fill="#4176AC"/>
<path d="M80.9388 40.8569C80.6353 40.7514 80.316 40.6986 79.9946 40.7007C79.1841 40.7007 78.8007 40.9723 78.8007 41.6826C78.8007 42.3549 79.1159 42.6496 79.7258 42.6496C80.1352 42.6307 80.5417 42.5702 80.9388 42.469V40.8569ZM80.9906 42.8424L80.9661 42.7066C80.553 42.8172 80.1296 42.8854 79.7026 42.9103C79.4064 42.9326 79.1121 42.8471 78.8744 42.67C78.6015 42.4445 78.5087 42.0805 78.5087 41.6853C78.5087 41.2697 78.6451 40.8786 79.0272 40.6667C79.3191 40.5186 79.6438 40.4457 79.9714 40.4549C80.2991 40.4593 80.6246 40.5087 80.9388 40.6015V39.5354H81.2117V42.8424H80.9906Z" fill="#4176AC"/>
<path d="M85.2162 40.7102C84.8065 40.7281 84.3999 40.7895 84.0033 40.8935V42.4975C84.3059 42.6064 84.6256 42.6611 84.9474 42.6591C85.7579 42.6591 86.1413 42.3875 86.1413 41.6772C86.1413 41.009 85.8275 40.7102 85.2162 40.7102ZM85.9148 42.6998C85.6237 42.8445 85.3014 42.9159 84.9761 42.9076C84.6201 42.9054 84.2667 42.8463 83.9296 42.7324L83.9159 42.8424H83.7304V39.5354H84.0033V40.645C84.4082 40.5419 84.8222 40.4773 85.2394 40.4521C85.5353 40.4315 85.8288 40.5162 86.0676 40.6912C86.3405 40.9166 86.4333 41.2806 86.4333 41.6772C86.4333 42.0737 86.2969 42.4839 85.9148 42.6998Z" fill="#4176AC"/>
<path d="M86.7963 43.7317V43.4791C86.9327 43.4927 87.0555 43.5022 87.1429 43.5022C87.4812 43.5022 87.6887 43.4044 87.8742 43.0228L87.9629 42.8381L86.7349 40.5116H87.0515L88.098 42.5203H88.1157L89.1104 40.5116H89.4215L88.1062 43.1246C87.866 43.5986 87.6068 43.7548 87.1292 43.7548C87.0165 43.7542 86.9039 43.7465 86.7922 43.7317" fill="#4176AC"/>
<path d="M93.1915 41.5154H92.2855V42.3303H93.1915C93.8164 42.3303 94.0524 42.261 94.0524 41.9229C94.0524 41.5589 93.7277 41.5154 93.186 41.5154H93.1915ZM93.0223 40.2008H92.2827V41.0292H93.0277C93.6431 41.0292 93.8887 40.9559 93.8887 40.6109C93.8887 40.2415 93.5776 40.2035 93.0223 40.2035V40.2008ZM94.4304 42.6318C94.0961 42.8437 93.6936 42.8518 92.9581 42.8518H91.5732V39.6874H92.9254C93.5599 39.6874 93.9487 39.6955 94.2721 39.8897C94.3796 39.9535 94.4669 40.046 94.5243 40.1566C94.5817 40.2673 94.6068 40.3917 94.5968 40.5158C94.5968 40.8472 94.4604 41.0686 94.0961 41.2166V41.2343C94.5054 41.3266 94.7674 41.5344 94.7674 41.9813C94.7776 42.1089 94.7514 42.2368 94.6918 42.3502C94.6322 42.4636 94.5415 42.5579 94.4304 42.6223" fill="#4176AC"/>
<path d="M97.5358 41.8657C97.263 41.8426 96.9901 41.829 96.694 41.829C96.2178 41.829 96.05 41.9254 96.05 42.1427C96.05 42.36 96.1864 42.4551 96.5548 42.4551C96.8857 42.4443 97.2145 42.3987 97.5358 42.3193V41.8657ZM97.6723 42.8421L97.6546 42.7063C97.2408 42.8224 96.815 42.8908 96.3856 42.91C96.1375 42.9267 95.8903 42.8669 95.6775 42.7389C95.586 42.6625 95.515 42.5647 95.4708 42.4543C95.4266 42.3439 95.4105 42.2243 95.424 42.1062C95.4375 41.9882 95.4802 41.8752 95.5482 41.7776C95.6163 41.6799 95.7076 41.6005 95.8139 41.5465C96.0595 41.4311 96.3884 41.4216 96.6899 41.4216C96.9341 41.4216 97.263 41.4351 97.5358 41.4542V41.4121C97.5358 41.0481 97.2957 40.9286 96.638 40.9286C96.3843 40.9286 96.0732 40.9422 95.7771 40.9693V40.4994C96.1059 40.4722 96.477 40.4546 96.7827 40.4546C97.192 40.4546 97.6109 40.4858 97.8742 40.6705C98.1376 40.8552 98.1935 41.1228 98.1935 41.4677V42.8449L97.6723 42.8421Z" fill="#4176AC"/>
<path d="M101.242 42.8423V41.5589C101.242 41.1352 101.025 40.983 100.636 40.983C100.313 40.9973 99.9928 41.0465 99.6807 41.1297V42.8437H99.0285V40.5158H99.5607L99.5839 40.6639C99.9907 40.5447 100.41 40.4736 100.834 40.452C101.121 40.4291 101.407 40.5144 101.635 40.691C101.819 40.8567 101.888 41.0876 101.888 41.419V42.8423H101.242Z" fill="#4176AC"/>
<path d="M103.733 42.9078C103.432 42.9078 103.103 42.8657 102.863 42.6633C102.576 42.4324 102.493 42.0698 102.493 41.6773C102.493 41.3093 102.613 40.9072 102.969 40.6818C103.261 40.493 103.621 40.4523 103.996 40.4523C104.269 40.4523 104.529 40.4699 104.815 40.4971V40.9955C104.579 40.9724 104.297 40.9548 104.07 40.9548C103.449 40.9548 103.157 41.1476 103.157 41.6827C103.157 42.1839 103.376 42.4012 103.885 42.4012C104.214 42.3905 104.543 42.3505 104.866 42.2817V42.7597C104.492 42.8463 104.111 42.8959 103.728 42.9078" fill="#4176AC"/>
<path d="M106.799 40.9398C106.178 40.9398 105.905 41.1341 105.905 41.6637C105.905 42.1934 106.178 42.4188 106.799 42.4188C107.42 42.4188 107.683 42.2301 107.683 41.7004C107.683 41.1707 107.42 40.9398 106.799 40.9398ZM107.919 42.6633C107.633 42.8562 107.257 42.9078 106.799 42.9078C106.34 42.9078 105.957 42.8521 105.675 42.6633C105.35 42.4514 105.234 42.101 105.234 41.6827C105.234 41.2644 105.35 40.9072 105.675 40.6954C105.957 40.5066 106.331 40.4523 106.799 40.4523C107.267 40.4523 107.633 40.5066 107.919 40.6954C108.243 40.9072 108.354 41.2631 108.354 41.6773C108.354 42.0915 108.238 42.4514 107.919 42.6633Z" fill="#4176AC"/>
<path d="M112.122 42.9074C111.729 42.9074 111.303 42.8422 110.984 42.5801C110.605 42.2664 110.489 41.7829 110.489 41.2627C110.489 40.7969 110.637 40.2441 111.131 39.9222C111.516 39.6737 111.992 39.6221 112.474 39.6221C112.826 39.6221 113.187 39.6452 113.58 39.6778V40.2441C113.243 40.2169 112.826 40.1938 112.502 40.1938C111.599 40.1938 111.216 40.5347 111.216 41.2627C111.216 41.9907 111.572 42.3356 112.238 42.3356C112.714 42.3193 113.187 42.256 113.65 42.1468V42.7091C113.148 42.8245 112.636 42.891 112.122 42.9074Z" fill="#4176AC"/>
<path d="M115.568 40.8661C115.023 40.8661 114.818 41.0603 114.776 41.4093H116.35C116.331 41.0317 116.109 40.8661 115.568 40.8661ZM115.47 42.9033C115.087 42.9033 114.739 42.8571 114.479 42.6452C114.22 42.4333 114.104 42.0694 114.104 41.6728C114.104 41.3183 114.22 40.9217 114.545 40.6909C114.831 40.4885 115.197 40.4478 115.568 40.4478C115.901 40.4478 116.294 40.4844 116.581 40.6827C116.956 40.9448 116.99 41.3509 116.99 41.829H114.771C114.785 42.1848 114.975 42.4143 115.632 42.4143C116.05 42.4053 116.466 42.3653 116.878 42.2948V42.7511C116.414 42.839 115.943 42.8898 115.47 42.9033Z" fill="#4176AC"/>
<path d="M119.896 42.8423V41.5589C119.896 41.1352 119.679 40.983 119.291 40.983C118.968 40.9973 118.648 41.0465 118.335 41.1297V42.8437H117.683V40.5158H118.215L118.239 40.6639C118.645 40.5447 119.065 40.4736 119.488 40.452C119.776 40.4291 120.062 40.5144 120.289 40.691C120.474 40.8567 120.543 41.0876 120.543 41.419V42.8423H119.896Z" fill="#4176AC"/>
<path d="M122.403 42.9075C122.088 42.9075 121.801 42.8192 121.644 42.5747C121.516 42.3634 121.456 42.1177 121.472 41.8712V40.9993H121V40.5158H121.472L121.542 39.8109H122.118V40.5158H123.039V40.9993H122.118V41.7463C122.109 41.8966 122.131 42.0472 122.182 42.189C122.251 42.3452 122.404 42.405 122.609 42.405C122.765 42.4021 122.921 42.3867 123.075 42.3588V42.8246C122.853 42.8725 122.627 42.9002 122.4 42.9075" fill="#4176AC"/>
<path d="M123.679 42.8423V40.5158H124.211L124.234 40.6639C124.607 40.5377 124.997 40.4664 125.391 40.452C125.419 40.4504 125.446 40.4504 125.474 40.452V41.0156C125.401 41.0156 125.312 41.0156 125.248 41.0156C124.938 41.0169 124.63 41.057 124.331 41.1351V42.8532L123.679 42.8423Z" fill="#4176AC"/>
<path d="M127.848 41.8657C127.575 41.8426 127.302 41.829 127.005 41.829C126.529 41.829 126.362 41.9254 126.362 42.1427C126.362 42.36 126.499 42.4551 126.866 42.4551C127.197 42.4443 127.526 42.3987 127.848 42.3193V41.8657ZM127.985 42.8421L127.966 42.7063C127.552 42.8224 127.126 42.8908 126.697 42.91C126.449 42.9267 126.201 42.8669 125.989 42.7389C125.903 42.6733 125.834 42.5878 125.789 42.4898C125.744 42.3918 125.723 42.2843 125.729 42.1767C125.723 42.0442 125.757 41.913 125.828 41.8004C125.898 41.6879 126.001 41.5993 126.124 41.5465C126.369 41.4311 126.697 41.4216 126.998 41.4216C127.244 41.4216 127.573 41.4351 127.846 41.4542V41.4121C127.846 41.0481 127.604 40.9286 126.948 40.9286C126.693 40.9286 126.383 40.9422 126.087 40.9693V40.4994C126.416 40.4722 126.785 40.4546 127.091 40.4546C127.5 40.4546 127.919 40.4858 128.183 40.6705C128.446 40.8552 128.502 41.1228 128.502 41.4677V42.8449L127.985 42.8421Z" fill="#4176AC"/>
<path d="M129.338 39.5354H129.992V42.8425H129.338V39.5354Z" fill="#4176AC"/>
</g>
<defs>
<clipPath id="clip0">
<rect width="130" height="46" fill="white"/>
</clipPath>
</defs>
</svg>
