<svg xmlns="http://www.w3.org/2000/svg" width="73" height="29" viewBox="0 0 73 29">
    <g fill="none" opacity=".58">
        <path fill="#77ADE4" d="M34.27 13.983v8.366h-2.656V1.685h7.04c1.698-.036 3.34.608 4.56 1.789 1.234 1.111 1.93 2.701 1.902 4.36.036 1.672-.66 3.274-1.903 4.388-1.231 1.174-2.752 1.761-4.559 1.758l-4.384.003zm0-9.753v7.215h4.45c.988.03 1.94-.358 2.626-1.07 1.394-1.354 1.428-3.586.07-4.98-.025-.024-.046-.048-.07-.07-.677-.725-1.635-1.122-2.626-1.095h-4.45zm16.965 3.52c1.964 0 3.512.524 4.647 1.572 1.135 1.048 1.701 2.487 1.701 4.312v8.715h-2.538v-1.963h-.115c-1.099 1.617-2.562 2.424-4.387 2.424-1.557 0-2.861-.461-3.909-1.386-1.018-.858-1.596-2.129-1.572-3.463 0-1.463.554-2.626 1.66-3.49 1.105-.864 2.58-1.298 4.43-1.298 1.574 0 2.875.29 3.893.865v-.609c.006-.91-.398-1.77-1.096-2.349-.702-.632-1.618-.978-2.563-.966-1.482 0-2.656.626-3.52 1.876l-2.337-1.473c1.283-1.846 3.186-2.767 5.706-2.767zM47.8 18.022c-.003.686.326 1.33.88 1.731.587.46 1.316.708 2.063.693 1.12-.003 2.195-.449 2.987-1.24.88-.83 1.319-1.799 1.319-2.916-.828-.66-1.982-.99-3.463-.99-1.078 0-1.979.258-2.698.78-.726.53-1.088 1.17-1.088 1.942zM72.16 8.21l-8.863 20.371h-2.74l3.288-7.127-5.83-13.244h2.885l4.213 10.157h.057L69.267 8.21h2.891zM23.283 12.158c0-.81-.067-1.618-.205-2.416H11.882v4.572h6.41c-.264 1.475-1.12 2.78-2.37 3.607v2.97h3.828c2.24-2.063 3.533-5.12 3.533-8.733z"/>
        <path fill="#5F9BD8" d="M11.882 23.76c3.204 0 5.902-1.05 7.868-2.867l-3.827-2.969c-1.066.723-2.436 1.136-4.041 1.136-3.096 0-5.725-2.087-6.664-4.9H1.276v3.06c2.014 4.01 6.119 6.54 10.606 6.54z"/>
        <path fill="#4985C2" d="M5.218 14.16c-.497-1.472-.497-3.071 0-4.544v-3.06H1.276c-1.687 3.355-1.687 7.309 0 10.664l3.942-3.06z"/>
        <path fill="#3770A9" d="M11.882 4.717c1.692-.028 3.327.61 4.553 1.78l3.39-3.388C17.675 1.09 14.83-.017 11.882.016c-4.487 0-8.592 2.532-10.606 6.54l3.942 3.06c.94-2.813 3.568-4.9 6.664-4.9z"/>
    </g>
</svg>
