<svg xmlns="http://www.w3.org/2000/svg" xmlns:xlink="http://www.w3.org/1999/xlink" width="62" height="38" viewBox="0 0 62 38">
    <defs>
        <path id="j6l010r1ta" d="M0.055 0.053L36.534 0.053 36.534 36.531 0.055 36.531z"/>
    </defs>
    <g fill="none" fill-rule="evenodd">
        <g transform="translate(24.413 .126)">
            <mask id="nwoaval3fb" fill="#fff">
                <use xlink:href="#j6l010r1ta"/>
            </mask>
            <path fill="#77ADE4" d="M18.261 36.531L19.202 36.506 20.131 36.439 21.042 36.322 21.946 36.162 22.826 35.959 23.694 35.713 24.543 35.424 25.373 35.098 26.185 34.729 26.973 34.329 27.736 33.886 28.48 33.412 29.194 32.901 29.883 32.36 30.547 31.787 31.181 31.178 31.79 30.545 32.363 29.88 32.904 29.191 33.414 28.478 33.888 27.733 34.331 26.97 34.731 26.182 35.1 25.37 35.426 24.54 35.715 23.691 35.962 22.823 36.165 21.943 36.325 21.039 36.441 20.128 36.509 19.199 36.534 18.258 36.509 17.323 36.441 16.4 36.325 15.489 36.165 14.597 35.962 13.718 35.715 12.856 35.426 12.007 35.1 11.183 34.731 10.376 34.331 9.589 33.888 8.832 33.414 8.088 32.904 7.374 32.363 6.691 31.79 6.027 31.181 5.393 30.547 4.79 29.883 4.218 29.194 3.677 28.48 3.166 27.736 2.692 26.973 2.255 26.185 1.855 25.373 1.486 24.543 1.16 23.694 0.871 22.826 0.625 21.946 0.422 21.042 0.262 20.131 0.145 19.202 0.077 18.261 0.053 17.325 0.077 16.397 0.145 15.486 0.262 14.588 0.422 13.708 0.625 12.841 0.871 11.997 1.16 11.167 1.486 10.361 1.855 9.579 2.255 8.817 2.692 8.078 3.166 7.365 3.677 6.675 4.218 6.017 4.79 5.383 5.393 4.78 6.027 4.208 6.691 3.667 7.374 3.162 8.088 2.688 8.832 2.252 9.589 1.846 10.376 1.483 11.183 1.157 12.007 0.874 12.856 0.627 13.718 0.425 14.597 0.264 15.489 0.147 16.4 0.08 17.323 0.055 18.258 0.08 19.199 0.147 20.128 0.264 21.039 0.425 21.943 0.627 22.823 0.874 23.691 1.157 24.54 1.483 25.37 1.846 26.182 2.252 26.97 2.688 27.733 3.162 28.478 3.667 29.191 4.208 29.88 4.78 30.545 5.383 31.178 6.017 31.787 6.675 32.36 7.365 32.901 8.078 33.412 8.817 33.886 9.579 34.329 10.361 34.729 11.167 35.098 11.997 35.424 12.841 35.713 13.708 35.959 14.588 36.162 15.486 36.322 16.397 36.439 17.325 36.506z" mask="url(#nwoaval3fb)" opacity=".38"/>
        </g>
        <path fill="#77ADE4" d="M18.273 0.178L17.332 0.203 16.403 0.271 15.492 0.387 14.588 0.548 13.708 0.751 12.84 0.996 11.991 1.286 11.161 1.612 10.348 1.981 9.561 2.381 8.798 2.818 8.054 3.291 7.34 3.802 6.651 4.344 5.986 4.915 5.352 5.518 4.744 6.152 4.172 6.817 3.63 7.499 3.119 8.214 2.645 8.958 2.202 9.715 1.803 10.502 1.433 11.308 1.107 12.133 0.818 12.982 0.572 13.843 0.369 14.723 0.209 15.615 0.092 16.526 0.024 17.448 0 18.384 0.024 19.325 0.092 20.254 0.209 21.164 0.369 22.069 0.572 22.949 0.818 23.816 1.107 24.666 1.433 25.496 1.803 26.308 2.202 27.095 2.645 27.859 3.119 28.603 3.63 29.317 4.172 30.006 4.744 30.67 5.352 31.304 5.986 31.913 6.651 32.485 7.34 33.027 8.054 33.537 8.798 34.011 9.561 34.454 10.348 34.854 11.161 35.224 11.991 35.549 12.84 35.838 13.708 36.085 14.588 36.288 15.492 36.448 16.403 36.564 17.332 36.632 18.273 36.657 19.208 36.632 20.137 36.564 21.048 36.448 21.946 36.288 22.826 36.085 23.693 35.838 24.536 35.549 25.367 35.224 26.173 34.854 26.954 34.454 27.717 34.011 28.455 33.537 29.169 33.027 29.858 32.485 30.517 31.913 31.15 31.304 31.754 30.67 32.326 30.006 32.867 29.317 33.371 28.603 33.845 27.859 34.282 27.095 34.688 26.308 35.051 25.496 35.377 24.666 35.66 23.816 35.906 22.949 36.11 22.069 36.27 21.164 36.386 20.254 36.454 19.325 36.478 18.384 36.454 17.448 36.386 16.526 36.27 15.615 36.11 14.723 35.906 13.843 35.66 12.982 35.377 12.133 35.051 11.308 34.688 10.502 34.282 9.715 33.845 8.958 33.371 8.214 32.867 7.499 32.326 6.817 31.754 6.152 31.15 5.518 30.517 4.915 29.858 4.344 29.169 3.802 28.455 3.291 27.717 2.818 26.954 2.381 26.173 1.981 25.367 1.612 24.536 1.286 23.693 0.996 22.826 0.751 21.946 0.548 21.048 0.387 20.137 0.271 19.208 0.203z" opacity=".289"/>
        <path fill="#0B4178" d="M21.805 17.83L21.805 17.83 21.719 17.824 21.632 17.811 21.552 17.799 21.472 17.787 21.399 17.775 21.319 17.762 21.239 17.75 21.153 17.738 21.066 17.725 20.968 17.719 20.857 17.713 20.74 17.707 20.611 17.707 20.47 17.713 20.309 17.725 20.131 17.738 20.008 17.756 19.891 17.775 19.787 17.811 19.694 17.849 19.608 17.891 19.528 17.941 19.467 18.002 19.411 18.057 19.374 18.125 19.343 18.193 19.331 18.267 19.331 18.341 19.35 18.421 19.374 18.5 19.424 18.581 19.485 18.66 19.608 18.777 19.756 18.87 19.928 18.95 20.113 19.017 20.309 19.079 20.513 19.147 20.716 19.22 20.913 19.301 21.097 19.405 21.269 19.534 21.423 19.688 21.552 19.879 21.651 20.112 21.712 20.39 21.737 20.722 21.712 21.109 21.669 21.398 21.595 21.65 21.497 21.884 21.374 22.087 21.233 22.266 21.072 22.42 20.9 22.555 20.71 22.672 20.513 22.764 20.309 22.844 20.1 22.906 19.885 22.955 19.676 22.992 19.473 23.01 19.27 23.023 19.079 23.029 18.815 23.029 18.568 23.023 18.353 23.023 18.15 23.016 17.965 23.01 17.799 22.998 17.652 22.986 17.51 22.968 17.381 22.955 17.264 22.931 17.147 22.912 17.043 22.881 16.938 22.857 16.84 22.82 16.741 22.783 16.637 22.746 16.913 21.386 16.969 21.398 17.036 21.417 17.123 21.442 17.227 21.466 17.338 21.49 17.461 21.516 17.597 21.546 17.744 21.571 17.898 21.595 18.058 21.62 18.224 21.639 18.396 21.657 18.575 21.663 18.753 21.669 18.931 21.669 19.11 21.663 19.288 21.626 19.43 21.576 19.54 21.509 19.626 21.423 19.688 21.337 19.737 21.238 19.768 21.14 19.793 21.048 19.805 20.869 19.75 20.716 19.645 20.592 19.491 20.488 19.307 20.396 19.091 20.303 18.851 20.217 18.611 20.119 18.365 20.008 18.132 19.879 17.916 19.719 17.719 19.528 17.565 19.294 17.455 19.017 17.399 18.685 17.406 18.292 17.436 18.051 17.479 17.824 17.541 17.615 17.615 17.418 17.713 17.233 17.824 17.073 17.953 16.919 18.107 16.784 18.285 16.667 18.482 16.569 18.704 16.476 18.95 16.409 19.227 16.353 19.528 16.31 19.86 16.286 20.223 16.279 20.451 16.279 20.66 16.286 20.851 16.292 21.023 16.298 21.177 16.31 21.319 16.323 21.442 16.335 21.552 16.347 21.657 16.359 21.743 16.378 21.823 16.39 21.897 16.403 21.958 16.415 22.014 16.421 22.069 16.433 22.119 16.439z"/>
        <path d="M21.805 17.83L21.805 17.83 21.719 17.824 21.632 17.811 21.552 17.799 21.472 17.787 21.399 17.775 21.319 17.762 21.239 17.75 21.153 17.738 21.066 17.725 20.968 17.719 20.857 17.713 20.74 17.707 20.611 17.707 20.47 17.713 20.309 17.725 20.131 17.738 20.008 17.756 19.891 17.775 19.787 17.811 19.694 17.849 19.608 17.891 19.528 17.941 19.467 18.002 19.411 18.057 19.374 18.125 19.343 18.193 19.331 18.267 19.331 18.341 19.35 18.421 19.374 18.5 19.424 18.581 19.485 18.66 19.608 18.777 19.756 18.87 19.928 18.95 20.113 19.017 20.309 19.079 20.513 19.147 20.716 19.22 20.913 19.301 21.097 19.405 21.269 19.534 21.423 19.688 21.552 19.879 21.651 20.112 21.712 20.39 21.737 20.722 21.712 21.109 21.669 21.398 21.595 21.65 21.497 21.884 21.374 22.087 21.233 22.266 21.072 22.42 20.9 22.555 20.71 22.672 20.513 22.764 20.309 22.844 20.1 22.906 19.885 22.955 19.676 22.992 19.473 23.01 19.27 23.023 19.079 23.029 18.815 23.029 18.568 23.023 18.353 23.023 18.15 23.016 17.965 23.01 17.799 22.998 17.652 22.986 17.51 22.968 17.381 22.955 17.264 22.931 17.147 22.912 17.043 22.881 16.938 22.857 16.84 22.82 16.741 22.783 16.637 22.746 16.913 21.386 16.969 21.398 17.036 21.417 17.123 21.442 17.227 21.466 17.338 21.49 17.461 21.516 17.597 21.546 17.744 21.571 17.898 21.595 18.058 21.62 18.224 21.639 18.396 21.657 18.575 21.663 18.753 21.669 18.931 21.669 19.11 21.663 19.288 21.626 19.43 21.576 19.54 21.509 19.626 21.423 19.688 21.337 19.737 21.238 19.768 21.14 19.793 21.048 19.805 20.869 19.75 20.716 19.645 20.592 19.491 20.488 19.307 20.396 19.091 20.303 18.851 20.217 18.611 20.119 18.365 20.008 18.132 19.879 17.916 19.719 17.719 19.528 17.565 19.294 17.455 19.017 17.399 18.685 17.406 18.292 17.436 18.051 17.479 17.824 17.541 17.615 17.615 17.418 17.713 17.233 17.824 17.073 17.953 16.919 18.107 16.784 18.285 16.667 18.482 16.569 18.704 16.476 18.95 16.409 19.227 16.353 19.528 16.31 19.86 16.286 20.223 16.279 20.451 16.279 20.66 16.286 20.851 16.292 21.023 16.298 21.177 16.31 21.319 16.323 21.442 16.335 21.552 16.347 21.657 16.359 21.743 16.378 21.823 16.39 21.897 16.403 21.958 16.415 22.014 16.421 22.069 16.433 22.119 16.439 21.805 17.83"/>
        <path fill="#0B4178" d="M23.263 14.92L24.967 14.92 24.715 16.409 25.742 16.409 25.521 17.799 24.438 17.768 23.847 21.202 23.841 21.324 23.872 21.429 23.934 21.509 24.014 21.576 24.124 21.62 24.247 21.657 24.383 21.682 24.53 21.694 24.666 21.688 24.789 21.675 24.9 21.657 24.998 21.632 25.078 21.608 25.133 21.589 25.17 21.576 25.182 21.571 24.967 22.715 24.924 22.746 24.881 22.77 24.838 22.795 24.795 22.82 24.752 22.838 24.703 22.857 24.647 22.875 24.592 22.894 24.53 22.912 24.469 22.924 24.395 22.936 24.321 22.949 24.241 22.961 24.149 22.973 24.05 22.986 23.946 22.998 23.478 22.998 23.232 22.98 23.017 22.955 22.82 22.918 22.654 22.875 22.512 22.82 22.395 22.758 22.29 22.684 22.211 22.604 22.149 22.518 22.106 22.414 22.075 22.309 22.057 22.192 22.051 22.063 22.051 21.928 22.069 21.786 22.088 21.632z"/>
        <path d="M23.263 14.92L24.967 14.92 24.715 16.409 25.742 16.409 25.521 17.799 24.438 17.768 23.847 21.202 23.841 21.324 23.872 21.429 23.934 21.509 24.014 21.576 24.124 21.62 24.247 21.657 24.383 21.682 24.53 21.694 24.666 21.688 24.789 21.675 24.9 21.657 24.998 21.632 25.078 21.608 25.133 21.589 25.17 21.576 25.182 21.571 24.967 22.715 24.924 22.746 24.881 22.77 24.838 22.795 24.795 22.82 24.752 22.838 24.703 22.857 24.647 22.875 24.592 22.894 24.53 22.912 24.469 22.924 24.395 22.936 24.321 22.949 24.241 22.961 24.149 22.973 24.05 22.986 23.946 22.998 23.478 22.998 23.232 22.98 23.017 22.955 22.82 22.918 22.654 22.875 22.512 22.82 22.395 22.758 22.29 22.684 22.211 22.604 22.149 22.518 22.106 22.414 22.075 22.309 22.057 22.192 22.051 22.063 22.051 21.928 22.069 21.786 22.088 21.632 23.263 14.92"/>
        <path fill="#0B4178" d="M29.582 18.937H27.33l.018-.092.025-.13.037-.122.043-.123.055-.11.055-.106.068-.098.074-.092.08-.086.08-.074.092-.068.092-.055.105-.05.105-.036.104-.025.111-.018.117-.007.11.013.105.018.099.025.098.037.092.049.093.055.08.062.074.074.061.086.061.092.044.104.043.118.024.122.013.136.006.148-.012.153zm1.667-.566l-.05-.369-.086-.326-.123-.283-.153-.246-.185-.21-.203-.172-.221-.147-.24-.111-.247-.092-.252-.062-.252-.043-.252-.024-.24-.007-.499.025-.443.074-.4.11-.356.154-.308.185-.27.21-.24.233-.198.246-.172.259-.141.27-.111.265-.092.264-.068.259-.05.24-.036.228-.025.196-.03.505.018.455.067.412.105.363.148.326.178.284.21.252.24.209.258.178.277.154.289.117.301.092.308.074.307.043.308.03.302.007h.203l.19-.006h.167l.16-.006.141-.013.13-.012.122-.012.111-.018.105-.019.098-.025.099-.03.092-.031.092-.037.099-.037.098-.05.098-.049.247-1.513-.18.105-.171.098-.179.074-.172.067-.166.056-.172.037-.167.03-.165.025-.167.013-.16.006h-.166l-.16-.006-.16-.013-.16-.018-.154-.019-.16-.024-.122-.025-.123-.043-.123-.055-.111-.068-.11-.074-.1-.092-.092-.093-.086-.104-.074-.105-.068-.116-.049-.111-.043-.117-.024-.117-.013-.117.006-.11.013-.075h3.993l.03-.375.093-.517.043-.467-.006-.419z"/>
        <path d="M29.582 18.937H27.33l.018-.092.025-.13.037-.122.043-.123.055-.11.055-.106.068-.098.074-.092.08-.086.08-.074.092-.068.092-.055.105-.05.105-.036.104-.025.111-.018.117-.007.11.013.105.018.099.025.098.037.092.049.093.055.08.062.074.074.061.086.061.092.044.104.043.118.024.122.013.136.006.148-.012.153zm1.667-.566l-.05-.369-.086-.326-.123-.283-.153-.246-.185-.21-.203-.172-.221-.147-.24-.111-.247-.092-.252-.062-.252-.043-.252-.024-.24-.007-.499.025-.443.074-.4.11-.356.154-.308.185-.27.21-.24.233-.198.246-.172.259-.141.27-.111.265-.092.264-.068.259-.05.24-.036.228-.025.196-.03.505.018.455.067.412.105.363.148.326.178.284.21.252.24.209.258.178.277.154.289.117.301.092.308.074.307.043.308.03.302.007h.203l.19-.006h.167l.16-.006.141-.013.13-.012.122-.012.111-.018.105-.019.098-.025.099-.03.092-.031.092-.037.099-.037.098-.05.098-.049.247-1.513-.18.105-.171.098-.179.074-.172.067-.166.056-.172.037-.167.03-.165.025-.167.013-.16.006h-.166l-.16-.006-.16-.013-.16-.018-.154-.019-.16-.024-.122-.025-.123-.043-.123-.055-.111-.068-.11-.074-.1-.092-.092-.093-.086-.104-.074-.105-.068-.116-.049-.111-.043-.117-.024-.117-.013-.117.006-.11.013-.075h3.993l.03-.375.093-.517.043-.467-.006-.419z"/>
        <path fill="#0B4178" d="M41.776 16.778L41.776 16.778 41.696 16.735 41.616 16.698 41.53 16.655 41.438 16.612 41.345 16.575 41.241 16.538 41.136 16.501 41.025 16.464 40.909 16.433 40.791 16.409 40.662 16.384 40.533 16.366 40.391 16.353 40.25 16.341 40.102 16.341 39.949 16.341 39.795 16.341 39.635 16.353 39.469 16.372 39.297 16.403 39.124 16.452 38.952 16.519 38.78 16.606 38.607 16.716 38.441 16.852 38.281 17.012 38.127 17.209 37.979 17.436 37.844 17.707 37.715 18.015 37.598 18.359 37.5 18.753 37.463 18.974 37.438 19.19 37.426 19.405 37.432 19.614 37.451 19.823 37.494 20.02 37.549 20.205 37.617 20.39 37.709 20.555 37.82 20.716 37.949 20.857 38.097 20.986 38.263 21.097 38.453 21.189 38.663 21.269 38.897 21.325 38.977 21.343 39.069 21.361 39.179 21.374 39.302 21.386 39.438 21.398 39.579 21.398 39.733 21.398 39.887 21.386 40.047 21.368 40.207 21.337 40.361 21.294 40.515 21.245 40.668 21.177 40.81 21.097 40.939 20.999 41.062 20.888 40.785 22.53 40.748 22.561 40.711 22.598 40.662 22.641 40.607 22.678 40.539 22.728 40.453 22.77 40.355 22.813 40.244 22.85 40.102 22.894 39.942 22.924 39.758 22.949 39.542 22.973 39.302 22.986 39.026 22.992 38.712 22.986 38.367 22.968 38.084 22.937 37.801 22.875 37.518 22.783 37.235 22.66 36.964 22.512 36.706 22.328 36.46 22.112 36.233 21.866 36.029 21.589 35.857 21.282 35.71 20.937 35.599 20.562 35.525 20.149 35.5 19.713 35.513 19.233 35.58 18.722 35.629 18.47 35.684 18.224 35.746 17.984 35.808 17.756 35.876 17.541 35.956 17.325 36.036 17.123 36.122 16.932 36.214 16.741 36.306 16.562 36.411 16.39 36.522 16.23 36.632 16.076 36.756 15.929 36.878 15.793 37.008 15.664 37.149 15.541 37.291 15.424 37.438 15.32 37.592 15.221 37.758 15.129 37.925 15.049 38.097 14.975 38.275 14.907 38.466 14.846 38.656 14.797 38.853 14.754 39.063 14.717 39.271 14.686 39.493 14.661 39.715 14.649 39.949 14.643 40.146 14.649 40.336 14.661 40.52 14.68 40.705 14.704 40.878 14.729 41.044 14.766 41.203 14.797 41.351 14.834 41.493 14.871 41.616 14.907 41.733 14.944 41.831 14.981 41.917 15.012 41.991 15.037 42.047 15.061 42.083 15.074z"/>
        <path d="M41.776 16.778L41.776 16.778 41.696 16.735 41.616 16.698 41.53 16.655 41.438 16.612 41.345 16.575 41.241 16.538 41.136 16.501 41.025 16.464 40.909 16.433 40.791 16.409 40.662 16.384 40.533 16.366 40.391 16.353 40.25 16.341 40.102 16.341 39.949 16.341 39.795 16.341 39.635 16.353 39.469 16.372 39.297 16.403 39.124 16.452 38.952 16.519 38.78 16.606 38.607 16.716 38.441 16.852 38.281 17.012 38.127 17.209 37.979 17.436 37.844 17.707 37.715 18.015 37.598 18.359 37.5 18.753 37.463 18.974 37.438 19.19 37.426 19.405 37.432 19.614 37.451 19.823 37.494 20.02 37.549 20.205 37.617 20.39 37.709 20.555 37.82 20.716 37.949 20.857 38.097 20.986 38.263 21.097 38.453 21.189 38.663 21.269 38.897 21.325 38.977 21.343 39.069 21.361 39.179 21.374 39.302 21.386 39.438 21.398 39.579 21.398 39.733 21.398 39.887 21.386 40.047 21.368 40.207 21.337 40.361 21.294 40.515 21.245 40.668 21.177 40.81 21.097 40.939 20.999 41.062 20.888 40.785 22.53 40.748 22.561 40.711 22.598 40.662 22.641 40.607 22.678 40.539 22.728 40.453 22.77 40.355 22.813 40.244 22.85 40.102 22.894 39.942 22.924 39.758 22.949 39.542 22.973 39.302 22.986 39.026 22.992 38.712 22.986 38.367 22.968 38.084 22.937 37.801 22.875 37.518 22.783 37.235 22.66 36.964 22.512 36.706 22.328 36.46 22.112 36.233 21.866 36.029 21.589 35.857 21.282 35.71 20.937 35.599 20.562 35.525 20.149 35.5 19.713 35.513 19.233 35.58 18.722 35.629 18.47 35.684 18.224 35.746 17.984 35.808 17.756 35.876 17.541 35.956 17.325 36.036 17.123 36.122 16.932 36.214 16.741 36.306 16.562 36.411 16.39 36.522 16.23 36.632 16.076 36.756 15.929 36.878 15.793 37.008 15.664 37.149 15.541 37.291 15.424 37.438 15.32 37.592 15.221 37.758 15.129 37.925 15.049 38.097 14.975 38.275 14.907 38.466 14.846 38.656 14.797 38.853 14.754 39.063 14.717 39.271 14.686 39.493 14.661 39.715 14.649 39.949 14.643 40.146 14.649 40.336 14.661 40.52 14.68 40.705 14.704 40.878 14.729 41.044 14.766 41.203 14.797 41.351 14.834 41.493 14.871 41.616 14.907 41.733 14.944 41.831 14.981 41.917 15.012 41.991 15.037 42.047 15.061 42.083 15.074 41.776 16.778"/>
        <path fill="#0B4178" d="M54.137 21.509l.172-.012.16-.037.147-.043.142-.068.129-.074.123-.092.117-.104.104-.111.093-.123.086-.136.08-.141.068-.148.06-.154.05-.16.043-.166.031-.166.031-.172.018-.178v-.167l-.006-.172-.018-.16-.025-.154-.043-.147-.049-.142-.062-.123-.074-.117-.08-.098-.092-.087-.104-.073-.111-.05-.117-.03-.13-.013-.165.013-.154.024-.142.05-.141.061-.123.08-.123.098-.105.105-.104.117-.093.135-.086.142-.08.147-.068.16-.06.167-.05.166-.05.178-.036.179-.03.27.011.296.043.301.08.29.123.252.16.203.203.135.247.049zm2.786 1.489H55.22l.123-.683v-.061l-.098.122-.105.111-.104.099-.11.086-.112.08-.11.068-.111.055-.117.056-.117.042-.117.031-.117.031-.123.019-.123.018-.117.012-.123.006h-.123l-.32-.024-.295-.068-.27-.104-.247-.142-.222-.178-.197-.21-.172-.227-.147-.259-.123-.276-.099-.29-.068-.301-.05-.314-.017-.314.006-.32.03-.313.056-.314.092-.363.111-.345.13-.313.153-.296.16-.277.184-.246.191-.221.203-.203.216-.179.227-.154.234-.135.234-.105.246-.086.246-.055.246-.037.253-.012.178.006.172.018.16.031.148.043.141.05.123.055.123.067.111.068.098.074.093.08.08.08.074.08.061.08.056.08.049.074.037.074.43-2.418h1.674l-1.39 8.047zM14.87 20.027l-.005-.031-.025-.032-.037-.018-.061-.012-.068-.012-.08-.007h-.185l-.098.007-.105.012-.098.012-.098.013-.093.012-.086.019-.074.018-.067.019-.044.012-.049.018-.068.025-.067.03-.08.037-.08.044-.086.043-.08.049-.087.061-.08.062-.073.074-.068.074-.062.08-.043.085-.036.099-.019.099-.006.209.03.166.062.123.08.092.092.062.105.037.099.018.098.006.184-.006.167-.018.16-.025.14-.037.124-.043.117-.055.105-.056.092-.067.08-.062.074-.074.061-.067.05-.074.043-.074.036-.074.031-.067.019-.068.049-.178.043-.204.037-.197.03-.16zm1.483 1.605l-.246 1.366h-1.55l.043-.252.03-.228.025-.172.025-.093-.086.1-.098.098-.118.092-.129.086-.147.086-.154.074-.16.074-.166.061-.179.056-.178.043-.179.037-.184.024-.179.013-.178.005-.172-.018-.166-.024-.216-.056-.197-.061-.172-.08-.154-.093-.135-.098-.123-.11-.099-.118-.086-.123-.074-.129-.061-.135-.05-.136-.036-.135-.025-.141-.018-.142-.013-.136v-.135l.019-.24.037-.227.061-.216.08-.209.099-.197.11-.179.13-.171.148-.154.153-.142.173-.129.178-.117.184-.098.197-.086.204-.068.209-.055.215-.037h.012l.031-.007.043-.006.068-.006.074-.012.086-.006.092-.013.105-.012.104-.012.105-.013.11-.006.099-.012.099-.006.092-.006.086-.006h.209l.148.006.135.006h.136l.11.006.086.006.062.006h.018l.013-.043.037-.11.03-.13.013-.116-.025-.136-.055-.123-.074-.11-.098-.093-.117-.08-.13-.055-.147-.037-.16-.013-.173-.006-.184-.006h-.191l-.197.006-.203.013-.197.018-.197.018-.19.025-.185.025-.178.03-.16.031-.148.03-.135.038-.111.037-.086.043-.068.037.437-1.483.135-.055.136-.05.147-.043.148-.03.148-.031.16-.025.16-.024.166-.013.172-.012.178-.006.185-.006h.591l.215.006.215.006.173.012.184.031.19.043.198.056.19.073.185.086.185.105.172.117.153.135.136.148.123.166.092.185.062.197.037.209v.233l-.037.247-.622 3.248zM3.408 22.998L1.735 22.998 3.131 14.92 6.042 14.92 6.319 19.713 8.331 14.92 11.37 14.92 9.942 22.998 8.269 22.998 9.327 16.963 9.26 16.963 6.755 22.998 4.867 22.998 4.854 22.746 4.811 22.075 4.756 21.122 4.694 20.026 4.633 18.925 4.577 17.959 4.534 17.258 4.522 16.963 4.504 16.963 4.467 16.963 4.43 16.963z"/>
        <path d="M3.408 22.998L1.735 22.998 3.131 14.92 6.042 14.92 6.319 19.713 8.331 14.92 11.37 14.92 9.942 22.998 8.269 22.998 9.327 16.963 9.26 16.963 6.755 22.998 4.867 22.998 4.854 22.746 4.811 22.075 4.756 21.122 4.694 20.026 4.633 18.925 4.577 17.959 4.534 17.258 4.522 16.963 4.504 16.963 4.467 16.963 4.43 16.963 3.408 22.998"/>
        <path fill="#0B4178" d="M45.4 20.027l-.013-.037-.024-.031-.043-.019-.061-.018-.068-.007-.08-.006h-.093l-.092.006-.098.013-.099.012-.098.013-.092.011-.093.02-.08.012-.08.018-.061.013-.044.006-.048.018-.062.018-.068.025-.08.037-.074.037-.086.043-.08.055-.08.056-.08.068-.068.067-.067.08-.055.086-.043.093-.037.098-.019.105-.006.209.03.166.05.123.074.092.092.062.105.037.104.018.104.006.185-.006.173-.018.16-.032.141-.042.135-.05.117-.055.111-.062.098-.073.087-.068.074-.08.067-.074.056-.08.043-.073.03-.074.025-.074.018-.068.025-.172.03-.178.025-.173.012-.153zm1.489 1.605l-.253 1.366h-1.544l.012-.252.007-.222v-.166l.011-.074-.079.093-.092.092-.111.086-.123.086-.13.08-.147.074-.154.074-.153.062-.167.049-.172.049-.172.03-.173.025-.178.013-.172.005-.167-.018-.166-.024-.221-.056-.197-.061-.172-.08-.16-.093-.136-.098-.117-.11-.098-.118-.086-.123-.074-.129-.055-.135-.05-.136-.03-.135-.025-.141-.018-.142-.013-.136v-.135l.013-.24.037-.227.055-.216.08-.209.092-.197.117-.179.13-.171.141-.154.16-.142.166-.129.179-.117.19-.098.191-.086.203-.068.203-.055.21-.037h.011l.031-.007.043-.006.062-.006.08-.012.086-.006.092-.013.098-.012.105-.012.11-.013.106-.006.104-.012.098-.006.087-.006.086-.006h.215l.148.006.141.006h.136l.117.006.098.006.055.006h.025l.012-.043.019-.11.018-.13.013-.116-.025-.136-.05-.123-.08-.11-.091-.093-.111-.08-.13-.055-.135-.037-.148-.013-.172-.006-.184-.006h-.191l-.197.006-.203.013-.197.018-.197.018-.19.025-.185.025-.178.03-.16.031-.148.03-.135.038-.111.037-.087.043-.067.037.43-1.483.136-.055.142-.05.14-.043.149-.03.153-.031.154-.025.16-.024.166-.013.172-.012.18-.006.178-.006H45.043l.209.006.21.006.171.012.186.031.19.043.197.056.19.073.191.086.185.105.172.117.154.135.141.148.123.166.093.185.067.197.043.209v.233l-.03.247-.646 3.248zM47.35 22.998L49.085 22.998 49.707 19.497 49.731 19.362 49.767 19.227 49.805 19.091 49.854 18.956 49.916 18.82 49.99 18.691 50.07 18.568 50.168 18.451 50.279 18.347 50.402 18.248 50.543 18.156 50.703 18.082 50.882 18.021 51.079 17.972 51.294 17.935 51.534 17.922 51.62 17.922 51.669 17.922 51.688 17.922 51.964 16.341 51.792 16.353 51.626 16.372 51.472 16.403 51.325 16.446 51.189 16.495 51.06 16.556 50.937 16.624 50.82 16.698 50.709 16.784 50.605 16.87 50.506 16.969 50.408 17.067 50.316 17.172 50.223 17.289 50.131 17.399 50.045 17.522 50.23 16.409 48.501 16.409zM31.058 22.998L32.793 22.998 32.824 22.998 33.415 19.497 33.439 19.362 33.47 19.233 33.501 19.104 33.543 18.98 33.593 18.857 33.654 18.741 33.728 18.63 33.815 18.525 33.913 18.433 34.024 18.341 34.159 18.267 34.307 18.199 34.479 18.144 34.67 18.094 34.879 18.064 35.119 18.045 35.137 18.045 35.162 18.051 35.193 18.057 35.223 18.057 35.254 18.064 35.279 18.07 35.297 18.076 35.303 18.076 35.309 18.051 35.328 17.978 35.353 17.867 35.383 17.731 35.427 17.572 35.47 17.399 35.525 17.227 35.58 17.055 35.629 16.938 35.691 16.821 35.752 16.704 35.814 16.6 35.87 16.507 35.912 16.433 35.943 16.39 35.955 16.372 35.949 16.372 35.925 16.366 35.894 16.359 35.851 16.353 35.808 16.353 35.759 16.347 35.716 16.341 35.673 16.341 35.482 16.353 35.309 16.372 35.149 16.403 35.002 16.439 34.86 16.489 34.731 16.55 34.614 16.612 34.503 16.686 34.399 16.765 34.3 16.858 34.208 16.95 34.116 17.055 34.024 17.159 33.937 17.276 33.845 17.399 33.753 17.522 33.974 16.409 32.209 16.409z"/>
    </g>
</svg>
