<svg xmlns="http://www.w3.org/2000/svg" width="66" height="32" viewBox="0 0 66 32">
    <g fill="#77ADE4" fill-rule="evenodd" opacity=".583">
        <path d="M2.557 27.849l-.113.86c-.05.424.283.796.717.796h27.956c.434 0 .768-.372.719-.796l-.116-.86c-.069-.67.419-1.281 1.086-1.352.673-.073 1.266.417 1.336 1.085l.107.837c.219 1.869-.842 3.51-2.732 3.51H2.76c-1.89 0-2.95-1.641-2.732-3.51l.108-.837c.072-.668.663-1.158 1.333-1.085.67.07 1.158.682 1.088 1.352M31.764 12.633c0 1.138-.403 1.782-1.07 2.576l-.067.08.092.056c1.322.806 2.244 2.023 2.313 3.733.103 2.547-2.056 4.655-4.619 4.65h-6.755c-.657 0-1.19-.547-1.19-1.22V9.406c0-.675.533-1.22 1.187-1.22l5.577.016c2.432.002 4.532 1.79 4.532 4.431M28.4 21.368c1.361.003 2.445-.988 2.417-2.293-.029-1.335-1.243-2.198-2.599-2.2h-2.737c-.606 0-1.104-.503-1.104-1.135s.496-1.137 1.104-1.137h1.828c1.233-.05 2.183-.796 2.242-1.962.061-1.248-1.012-2.185-2.324-2.185H22.79l-.018 10.912H28.4M9.99 19.237l.031.092.034-.092c.313-.863.69-1.818 1.091-2.86.413-1.097.824-2.144 1.235-3.143.416-1.014.809-1.918 1.184-2.706.375-.806.685-1.358.924-1.662.37-.44.858-.664 1.466-.664h.28c.372 0 .662.097.88.282.2.174.32.375.352.606l1.747 13.539c0 .349-.1.618-.298.819-.198.187-.48.28-.85.28s-.663-.088-.878-.26c-.24-.172-.375-.397-.409-.677-.059-.45-.113-.95-.167-1.5-.077-.547-.349-2.91-.426-3.505-.072-.613-.562-4.439-.729-5.828l-.015-.118-.56 1.173c-.19.403-.396.888-.622 1.453-.223.565-.451 1.161-.675 1.79-.244.611-1.325 3.7-1.325 3.7-.1.28-.29.845-.462 1.363-.174.516-.334.984-.377 1.074-.257.51-.758.847-1.394.852-.645-.003-1.146-.341-1.4-.852-.046-.09-.205-.558-.38-1.074-.174-.518-.36-1.083-.465-1.363 0 0-1.08-3.089-1.322-3.7-.226-.629-.452-1.225-.678-1.79-.226-.565-.431-1.05-.616-1.453l-.562-1.173-.013.118c-.17 1.39-.657 5.215-.732 5.828-.077.596-.35 2.958-.423 3.505-.057.55-.114 1.05-.173 1.5-.033.28-.169.505-.405.678-.219.171-.511.259-.881.259s-.65-.093-.847-.28c-.198-.2-.298-.472-.3-.82L2.574 9.09c.039-.231.154-.432.355-.606.215-.185.51-.282.878-.282h.282c.609 0 1.097.223 1.464.664.241.304.55.856.924 1.662.377.788.77 1.692 1.184 2.706.41.999.824 2.046 1.237 3.143.4 1.042.778 1.997 1.092 2.86M6.565 0H27.8c2 0 2.996 1.502 3.23 3.482l.09.634c.071.68-.43 1.29-1.097 1.361-.67.072-1.27-.42-1.34-1.101l-.085-.607c-.09-.752-.408-1.332-1.173-1.332H6.94c-.765 0-1.083.58-1.173 1.332l-.082.607c-.07.68-.67 1.173-1.343 1.101-.67-.072-1.168-.68-1.097-1.36l.09-.635C3.572 1.502 4.565 0 6.565 0M44.759 14.269c-.147.567-.298 1.173-.457 1.818-.16.641-.319 1.258-.475 1.846-.155.588-.3 1.101-.442 1.545-.139.445-.257.747-.35.912-.164.29-.454.434-.867.434-.116 0-.265-.023-.452-.072-.185-.046-.339-.177-.465-.393-.092-.164-.208-.483-.349-.958-.139-.475-.285-1.02-.442-1.638-.154-.619-.308-1.273-.464-1.964-.154-.69-.296-1.33-.419-1.926-.123-.59-.228-1.099-.31-1.514-.083-.42-.13-.666-.14-.75-.01-.052-.015-.088-.015-.108v-.062c0-.174.065-.318.2-.426.134-.108.301-.162.496-.162.188 0 .337.041.452.118.113.075.195.214.247.409 0 .02.03.172.084.449.06.277.131.634.219 1.065.09.435.187.917.295 1.454.108.536.22 1.08.342 1.633.118.55.238 1.08.356 1.6.118.513.229.957.334 1.327.103-.35.216-.75.341-1.2.124-.446.25-.91.373-1.388.123-.48.241-.958.357-1.438.113-.48.218-.927.318-1.338.098-.413.182-.778.254-1.096.072-.321.129-.557.172-.714.052-.195.15-.35.293-.462.149-.113.321-.172.53-.172.225 0 .412.061.559.18.14.118.236.272.277.454.116.506.239 1.07.372 1.695.134.621.275 1.252.419 1.892.146.64.298 1.266.45 1.88.156.613.305 1.157.451 1.63.103-.37.216-.814.334-1.328.118-.518.239-1.047.362-1.594.126-.545.244-1.086.357-1.623.115-.534.218-1.017.313-1.445l.224-1.043c.056-.27.084-.408.084-.418.052-.195.134-.334.25-.409.112-.077.264-.118.449-.118.195 0 .362.054.495.162.136.108.203.252.203.426v.062c0 .02-.005.056-.015.108-.008.084-.06.33-.15.75-.084.415-.192.924-.315 1.514-.126.596-.265 1.233-.421 1.918-.152.686-.306 1.338-.455 1.954-.151.619-.295 1.163-.436 1.633-.139.468-.257.786-.35.95-.123.216-.28.355-.472.411-.192.057-.344.085-.457.085-.044 0-.103-.005-.187-.015-.083-.013-.17-.031-.265-.064-.092-.03-.185-.078-.277-.145-.095-.069-.167-.159-.218-.272-.093-.195-.206-.521-.334-.973-.129-.454-.27-.965-.419-1.538-.149-.573-.297-1.17-.441-1.794-.144-.625-.28-1.21-.403-1.754M56.316 16.618c-.218-.67-.424-1.286-.621-1.846-.198-.562-.398-1.096-.606-1.602-.052-.113-.106-.242-.162-.396-.057-.146-.09-.236-.1-.266-.01.007-.046.094-.1.254-.06.159-.113.295-.165.408-.206.506-.406 1.04-.599 1.602-.19.56-.395 1.176-.61 1.846h2.963zm-3.444 1.345c-.156.496-.292.953-.41 1.374-.121.423-.232.77-.334 1.037-.116.3-.342.45-.683.45-.24 0-.411-.06-.521-.177-.109-.121-.162-.273-.162-.457 0-.072.01-.139.03-.203.021-.06.085-.272.196-.632.107-.36.249-.809.426-1.345.174-.537.37-1.125.58-1.762.213-.639.431-1.27.66-1.895.226-.623.45-1.206.667-1.746.216-.541.419-.978.604-1.306.085-.175.195-.296.334-.357.141-.062.329-.093.568-.093.229 0 .42.039.58.108.162.075.272.198.334.372.146.308.32.724.521 1.243.2.521.414 1.084.634 1.687.224.603.442 1.22.66 1.846.218.629.419 1.214.599 1.756l.464 1.384c.129.383.21.63.241.74.019.064.031.13.031.203 0 .184-.061.336-.187.457-.123.118-.305.177-.542.177-.177 0-.308-.039-.398-.118-.084-.075-.157-.188-.208-.332-.102-.267-.226-.614-.364-1.037-.139-.421-.288-.878-.442-1.374h-3.878zM61.575 16.926c-.052-.049-.1-.108-.147-.17-.049-.058-.097-.133-.149-.215-.146-.205-.3-.454-.472-.75-.172-.292-.342-.606-.514-.934-.17-.331-.333-.665-.493-.999-.162-.334-.308-.645-.433-.932-.132-.29-.242-.542-.335-.75-.095-.213-.153-.362-.172-.444-.02-.051-.033-.09-.038-.116-.003-.025-.008-.064-.008-.115 0-.185.065-.342.193-.462.13-.126.308-.188.536-.188.206 0 .352.052.442.154.087.106.154.208.193.311.02.054.072.164.149.339l.285.65c.113.256.244.541.387.85.15.31.293.613.444.913l.434.858c.14.272.273.496.396.673.198-.3.408-.675.637-1.13.225-.454.444-.901.65-1.343.207-.444.384-.837.536-1.176.149-.341.239-.552.272-.634.041-.103.105-.205.193-.31.087-.103.236-.155.441-.155.229 0 .406.062.537.188.128.12.192.277.192.462 0 .051-.002.09-.007.115-.006.026-.018.065-.036.116-.034.082-.093.231-.18.45-.087.215-.198.47-.328.757-.129.287-.273.6-.432.934-.162.337-.326.668-.495 1-.172.328-.342.644-.514.941-.17.298-.329.553-.472.758-.093.133-.193.254-.296.354v3.202c0 .205-.064.372-.195.503-.128.126-.295.193-.503.193-.208 0-.375-.067-.503-.193-.131-.13-.195-.298-.195-.503v-3.202"/>
    </g>
</svg>
