<svg xmlns="http://www.w3.org/2000/svg" xmlns:xlink="http://www.w3.org/1999/xlink" width="56" height="57" viewBox="0 0 56 57">
    <defs>
        <path id="kisudu71da" d="M0 55.756L55.756 55.756 55.756 0 0 0z"/>
    </defs>
    <g fill="none" fill-rule="evenodd" opacity=".58" transform="matrix(1 0 0 -1 0 56.787)">
        <mask id="62djewbfnb" fill="#fff">
            <use xlink:href="#kisudu71da"/>
        </mask>
        <g mask="url(#62djewbfnb)">
            <g fill="#77ADE4">
                <path d="M17.86 8.41h14.592c3.331 0 3.364 3.54 3.025 5.289-.185 1.175-2.182 1.165-2.402 0v-1.365c0-.623-.51-1.133-1.133-1.133H3.968c-.623 0-1.133.51-1.133 1.133V13.7c-.22 1.165-2.217 1.175-2.402 0-.34-1.749-.307-5.29 3.025-5.29H17.861zM7.546 42.325h22.498c1.581 0 2.874-1.368 2.874-3.04v-1.454c0-2.055-2.784-2.048-2.784-.014v.794c0 .505-.413.918-.918.918H6.67c-.505 0-.918-.413-.918-.918v-.778c0-2.044-2.653-2.03-2.653-.044v1.495c0 1.673 1.293 3.041 2.874 3.041h1.571zM32.35 25.619c1.557-.733 2.633-2.246 2.633-3.983 0-2.45-2.138-4.454-4.753-4.454h-7.326c-.685 0-1.246.525-1.246 1.168v13.94c0 .671.55 1.222 1.224 1.222h6.102c2.57 0 4.67-2.1 4.67-4.666 0-1.25-.497-2.387-1.305-3.227m-5.468 1.135h2.326v.026c1.06.163 1.877 1.084 1.877 2.186 0 1.217-.995 2.213-2.212 2.213h-4.686V19.61h5.942c1.257 0 2.285 1.028 2.285 2.285 0 1.256-1.028 2.284-2.285 2.284h-.921v.006h-2.326c-.707 0-1.284.578-1.284 1.284 0 .706.577 1.284 1.284 1.284" transform="translate(9.835 6.595)"/>
                <path fill-rule="nonzero" d="M8.475 4.13c0 .217.176.393.393.393.217 0 .393-.176.393-.393V2.005H9.26c0-.486-.198-.928-.518-1.247C8.423.439 7.982.242 7.497.24V.24h-.001V.24c-.487 0-.928.199-1.248.519-.318.318-.516.759-.516 1.244H5.73V4.13c0 .217.177.393.393.393.217 0 .393-.176.393-.393V2.004h-.001c0-.268.11-.513.29-.692.177-.177.421-.288.69-.288v.001h.002v-.001c.268 0 .513.11.691.29.178.177.289.422.289.69h-.002V4.13zM12.188 1.025c.217 0 .393-.176.393-.392 0-.217-.176-.394-.393-.394h-1.085v.002c-.407 0-.776.166-1.043.434-.267.266-.432.635-.432 1.041h-.002V4.13c0 .217.176.393.393.393.217 0 .393-.176.393-.393V1.717h-.002c0-.19.079-.363.205-.49.126-.125.298-.203.488-.203v.001h1.085zM20.494 18.574c.086-.807-.5-1.531-1.307-1.617-.807-.086-1.531.5-1.617 1.307l-1.205 11.085-4.267-10.839-.004-.01v-.001l-.012-.03-.01-.022-.002-.005-.01-.023-.007-.013-.01-.022-.005-.01-.011-.022-.004-.007c-.079-.149-.18-.28-.298-.389l-.005-.004-.022-.02c-.077-.068-.162-.128-.254-.18l-.006-.003-.028-.015-.001-.001-.026-.013-.012-.006-.016-.008-.018-.008-.015-.007-.019-.008-.015-.007-.016-.006-.013-.006-.008-.003-.012-.004-.02-.008-.011-.003c-.142-.05-.287-.077-.431-.082H10.67c-.16.006-.323.039-.482.1l-.02.008-.004.003-.02.007-.019.009-.015.007-.017.008-.017.008-.01.005-.027.014-.003.001-.023.013-.013.007c-.08.045-.156.098-.225.156l-.005.005-.049.042v.002c-.013.011-.026.023-.037.035l-.036.037-.044.05-.005.005c-.058.069-.11.144-.155.225l-.008.012-.012.024-.002.002-.013.027-.005.01-.009.018-.008.016-.007.016-.008.019-.008.02-.002.004-.008.02-4.272 10.85-1.205-11.085c-.086-.808-.81-1.393-1.617-1.307-.807.086-1.392.81-1.306 1.617l1.42 13.07v.003l.001.006c.016.152.049.304.095.453.045.144.105.286.179.425.362.681 1.03 1.16 1.826 1.27h.003l.08.009c.125.013.249.016.37.01h.007c.158-.007.307-.027.444-.059.76-.177 1.405-.705 1.709-1.477l3.636-9.235 3.635 9.235c.304.772.95 1.3 1.71 1.477.136.032.285.052.444.06h.005c.123.005.247.002.372-.011l.08-.01h.002c.797-.11 1.464-.588 1.827-1.269.074-.139.134-.281.178-.425.047-.15.079-.3.096-.453V31.644l1.42-13.07zM5.585.678C5.61.463 5.456.268 5.24.243c-.215-.026-.41.128-.436.343l-.337 2.83-1.2-2.784c-.086-.2-.317-.291-.516-.205-.096.04-.167.116-.205.205l-1.2 2.784-.338-2.83C.984.371.79.217.573.243.358.268.204.463.23.678l.39 3.286c.026.214.157.39.344.487.024.013.05.024.076.034.01.004.02.008.03.01.034.011.073.02.116.026h.007c.205.026.407-.04.549-.173.028-.027.055-.058.08-.092.017-.024.032-.049.045-.074.009-.014.016-.028.022-.044l1.018-2.36 1.018 2.36c.084.195.257.328.46.373.038.008.077.014.115.015.029.002.058.002.085 0h.003c.01 0 .019-.002.029-.003h.003v-.001h.001c.21-.027.39-.145.49-.315.02-.035.038-.073.051-.112.009-.024.016-.05.022-.077.004-.016.007-.033.009-.051v-.003L5.586.678zM13.905.632c0-.217-.176-.392-.393-.392-.217 0-.393.175-.393.392v3.105h-1.118c-.217 0-.393.176-.393.393 0 .217.176.393.393.393H15.023c.217 0 .392-.176.392-.393 0-.217-.175-.393-.392-.393h-1.118V.632zM16.8.632c0-.217-.266-.392-.594-.392-.328 0-.594.175-.594.392V4.13c0 .217.266.393.594.393.328 0 .594-.176.594-.393V.632zM24.415.68c.026-.215-.127-.411-.342-.437-.216-.027-.411.127-.437.342l-.139 1.11h-1.361c-.217 0-.393.175-.393.392 0 .217.176.393.393.393h1.263l-.035.289-.001.003-.002.027c-.01.066-.025.133-.046.201-.023.076-.05.145-.08.207-.156.312-.438.53-.795.53h-.004v.001c-.068 0-.134-.008-.197-.024-.06-.014-.118-.036-.176-.065-.301-.154-.503-.49-.547-.876L21.271.59c-.024-.216-.218-.371-.433-.347-.215.023-.37.217-.347.433l.246 2.183c.072.645.43 1.215.97 1.49.106.054.222.097.347.127.121.03.249.045.382.045v.002h.004c.681 0 1.21-.398 1.494-.966.055-.11.1-.22.133-.333.03-.1.053-.208.07-.32l.006-.037v-.003L24.415.68zM25.618.632c0-.217-.176-.392-.393-.392-.217 0-.393.175-.393.392v3.25c0 .023.002.046.005.067.006.044.016.087.031.127v.001c.008.022.02.046.033.071v.001c.065.12.172.212.307.258l.054.015.041.008h.004v.002c.026.004.057.005.094.004H25.41c.162-.006.312-.08.416-.213l2.091-2.666V4.13c0 .217.176.393.393.393.217 0 .393-.176.393-.393V.895c0-.17-.077-.325-.205-.43-.024-.02-.051-.038-.08-.054-.016-.009-.032-.017-.05-.024l-.003-.002h-.001c-.01-.005-.021-.01-.033-.014h-.004c-.143-.05-.292-.039-.421.024-.017.007-.034.016-.05.026-.027.016-.054.036-.079.058-.015.014-.032.031-.05.052l-.013.015v.001l-.005.007-2.091 2.666V.632zM31.754 1.025c.217 0 .393-.176.393-.392 0-.217-.176-.394-.393-.394h-1.157v.002c-.427 0-.815.175-1.096.455-.28.28-.453.667-.453 1.093h-.002V2.972h.002c0 .427.174.815.455 1.096.28.279.667.453 1.093.453v.002h1.158c.217 0 .393-.176.393-.393 0-.217-.176-.393-.393-.393h-1.158v.001c-.21 0-.401-.087-.54-.226-.14-.139-.225-.33-.225-.54V1.79c0-.21.086-.402.226-.541.139-.139.33-.225.54-.225v.001h1.157zM34.028 3.738v-.001h-.002v.001c-.29 0-.553-.114-.743-.297-.187-.18-.303-.425-.304-.693h.002v-.733h-.002c0-.269.117-.514.303-.694.191-.183.455-.297.745-.297v.001h.001v-.001c.29 0 .553.114.744.297.187.18.303.425.303.694h-.001v.732h.001c0 .27-.116.515-.303.694-.19.183-.454.297-.744.297m0 .785V4.52c.5 0 .957-.198 1.287-.515.335-.322.543-.767.543-1.258h.001v-.733h-.001c0-.492-.208-.937-.543-1.259-.33-.317-.786-.515-1.287-.515V.24h-.001v.002c-.501 0-.957.198-1.288.515-.334.322-.542.767-.542 1.258h-.002v.733h.002c0 .492.208.938.543 1.26.33.316.786.514 1.286.514v.002h.001z" transform="translate(9.835 6.595)"/>
                <path fill-rule="nonzero" d="M17.47 3.737V1.026h1.519v-.002c.135 0 .259.056.35.147.089.089.144.212.144.348v.001c0 .127-.05.244-.13.333l-.016.014c-.09.091-.214.147-.348.147v-.001h-.523c-.217 0-.393.176-.393.393 0 .216.176.393.393.393h.179c.113.008.217.06.295.137h.001c.086.086.139.203.139.331h-.002v.001h.002c0 .129-.054.246-.14.332-.085.085-.202.138-.33.138v-.001h-1.14zm-.785-1.331v1.707c0 .055.012.108.032.156.021.051.053.097.091.135l.005.004c.067.064.155.107.258.113h.023v.002h1.515V4.52c.346 0 .66-.141.887-.368.226-.226.366-.54.367-.884h.001v-.001h-.001c0-.245-.072-.474-.193-.667.08-.051.155-.11.223-.178l.024-.026c.216-.229.35-.537.35-.877v-.001c0-.352-.145-.672-.376-.904-.23-.23-.55-.374-.902-.374V.24h-1.911c-.217 0-.393.177-.393.394v1.773z" transform="translate(9.835 6.595)"/>
            </g>
        </g>
    </g>
</svg>
