<svg xmlns="http://www.w3.org/2000/svg" width="112" height="28" viewBox="0 0 112 28">
    <g fill="none" fill-rule="evenodd" opacity=".58">
        <path fill="#77ADE4" d="M41.55 6.068H35.4c-.42 0-.778.306-.844.721L32.07 22.557c-.05.312.192.592.507.592h2.936c.42 0 .779-.306.845-.722l.67-4.253c.065-.416.424-.722.844-.722h1.946c4.05 0 6.388-1.96 7-5.844.274-1.7.01-3.035-.785-3.97-.874-1.027-2.424-1.57-4.482-1.57zm.71 5.76c-.337 2.206-2.023 2.206-3.653 2.206h-.928l.651-4.121c.039-.25.254-.433.506-.433h.426c1.11 0 2.157 0 2.699.633.323.378.421.939.298 1.714zM59.93 11.756h-2.944c-.25 0-.467.184-.506.433l-.13.823-.206-.298c-.638-.926-2.06-1.235-3.478-1.235-3.254 0-6.033 2.465-6.575 5.922-.281 1.724.119 3.374 1.097 4.523.898 1.058 2.182 1.498 3.71 1.498 2.621 0 4.075-1.685 4.075-1.685l-.131.818c-.05.313.191.593.505.593H58c.422 0 .778-.306.845-.722l1.591-10.078c.05-.31-.19-.592-.504-.592zm-4.104 5.731c-.284 1.682-1.619 2.812-3.322 2.812-.855 0-1.538-.275-1.977-.794-.436-.516-.6-1.25-.462-2.069.265-1.668 1.622-2.834 3.3-2.834.836 0 1.515.278 1.963.802.449.53.627 1.269.498 2.083zM75.614 11.756h-2.96c-.282 0-.547.14-.707.375l-4.081 6.012-1.73-5.777c-.11-.362-.443-.61-.82-.61h-2.908c-.354 0-.599.345-.487.678L65.181 22l-3.064 4.326c-.241.34.001.809.418.809h2.955c.28 0 .543-.137.702-.367l9.842-14.206c.236-.34-.006-.805-.42-.805M85.41 6.068h-6.15c-.42 0-.777.306-.843.721L75.93 22.557c-.05.312.192.592.505.592h3.156c.293 0 .544-.214.59-.505l.706-4.47c.065-.416.424-.722.843-.722h1.946c4.051 0 6.388-1.96 7-5.844.276-1.7.01-3.035-.785-3.97-.873-1.027-2.422-1.57-4.48-1.57zm.71 5.76c-.336 2.206-2.021 2.206-3.652 2.206h-.927l.652-4.121c.038-.25.252-.433.505-.433h.425c1.11 0 2.158 0 2.7.633.322.378.42.939.297 1.714zM103.79 11.756h-2.942c-.253 0-.468.184-.506.433l-.13.823-.207-.298c-.637-.926-2.058-1.235-3.477-1.235-3.254 0-6.032 2.465-6.573 5.922-.28 1.724.117 3.374 1.096 4.523.899 1.058 2.181 1.498 3.709 1.498 2.621 0 4.075-1.685 4.075-1.685l-.13.818c-.05.313.19.593.506.593h2.652c.42 0 .778-.306.843-.722l1.593-10.078c.048-.31-.193-.592-.508-.592zm-4.104 5.731c-.282 1.682-1.62 2.812-3.322 2.812-.854 0-1.539-.275-1.978-.794-.435-.516-.598-1.25-.462-2.069.268-1.668 1.623-2.834 3.3-2.834.836 0 1.516.278 1.964.802.45.53.628 1.269.498 2.083zM107.262 6.5l-2.524 16.057c-.05.312.192.592.506.592h2.537c.422 0 .78-.306.844-.722l2.489-15.767c.05-.311-.191-.593-.505-.593h-2.841c-.251.001-.467.185-.506.434M6.533 26.213l.47-2.986-1.047-.025H.954L4.43 1.162c.01-.067.046-.129.097-.173.051-.044.117-.068.185-.068h8.434c2.8 0 4.732.582 5.741 1.732.473.54.774 1.104.92 1.724.153.651.155 1.429.006 2.377l-.01.07v.607l.473.268c.398.212.714.453.957.73.405.462.666 1.048.777 1.743.114.715.076 1.565-.11 2.528-.217 1.108-.565 2.073-1.037 2.862-.433.728-.985 1.331-1.64 1.798-.626.445-1.37.782-2.21.998-.815.212-1.744.319-2.763.319h-.656c-.47 0-.925.169-1.283.472-.359.31-.596.732-.669 1.194l-.05.269-.83 5.264-.038.193c-.01.062-.027.092-.052.113-.023.019-.055.031-.086.031H6.533"/>
        <path fill="#77ADE4" d="M20.723 6.894c-.025.16-.054.325-.086.494-1.112 5.71-4.917 7.683-9.777 7.683H8.385c-.594 0-1.095.432-1.187 1.018L5.572 26.401c-.06.385.236.732.625.732h4.389c.52 0 .96-.378 1.042-.89l.043-.223.827-5.244.053-.287c.08-.515.523-.892 1.043-.892h.656c4.252 0 7.58-1.727 8.554-6.722.406-2.087.196-3.83-.88-5.055-.325-.37-.729-.676-1.201-.926"/>
        <path fill="#4F8DCD" d="M19.56 6.43c-.17-.05-.346-.095-.525-.135-.181-.04-.366-.075-.557-.105-.667-.108-1.398-.16-2.181-.16h-6.61c-.164 0-.318.037-.456.104-.305.146-.532.435-.587.788L7.238 15.83l-.04.26c.092-.586.593-1.018 1.187-1.018h2.475c4.86 0 8.665-1.973 9.777-7.683.033-.169.061-.333.086-.494-.281-.15-.586-.277-.914-.386-.081-.027-.165-.053-.25-.078"/>
        <path fill="#619AD4" d="M8.644 6.922c.055-.353.282-.642.587-.787.139-.067.292-.104.455-.104h6.61c.784 0 1.515.052 2.182.16.19.03.376.065.557.105.18.04.355.085.525.135.084.025.168.05.25.077.328.109.633.237.914.386.331-2.11-.003-3.547-1.144-4.848C18.322.613 16.052 0 13.147 0H4.713c-.593 0-1.1.431-1.191 1.019L.009 23.286c-.07.44.27.838.715.838H5.93L8.644 6.922"/>
    </g>
</svg>
