<?xml version="1.0" encoding="UTF-8"?>
<svg width="55px" height="44px" viewBox="0 0 55 50" version="1.1" xmlns="http://www.w3.org/2000/svg" xmlns:xlink="http://www.w3.org/1999/xlink">
    <title>F2FBD177-F86C-4F36-B996-92EB109087E3</title>
    <g id="Main" stroke="none" stroke-width="1" fill="none" fill-rule="evenodd">
        <g id="icons-for-book-a-trip" transform="translate(-31.000000, -148.000000)" fill="#0B4178" fill-rule="nonzero">
            <g id="Credit_card" transform="translate(31.000000, 148.000000)">
				<path d="M33.583 35.9267C32.7525 35.9297 31.9296 35.7689 31.1619 35.4535C30.3942 35.1381 29.6969 34.6744 29.1103 34.0892L22.6497 27.6543C22.4212 27.4368 22.1172 27.3154 21.801 27.3154C21.4849 27.3154 21.1809 27.4368 20.9524 27.6543L14.4699 34.1068C13.8837 34.6929 13.1866 35.1575 12.4189 35.4738C11.6512 35.7902 10.8281 35.952 9.99727 35.9498H8.73243L16.9191 44.0986C18.1469 45.3182 19.8106 46.0031 21.5452 46.0031C23.2798 46.0031 24.9435 45.3182 26.1713 44.0986L34.3744 35.9322L33.583 35.9267Z" fill=""/>
				<path d="M9.99864 13.1862C10.8295 13.184 11.6526 13.3457 12.4203 13.6621C13.188 13.9784 13.8851 14.4431 14.4713 15.0292L20.9537 21.4831C21.1791 21.7066 21.4843 21.8322 21.8024 21.8322C22.1206 21.8322 22.4258 21.7066 22.6511 21.4831L29.1104 15.0536C29.6961 14.4668 30.3931 14.0016 31.1609 13.685C31.9286 13.3684 32.752 13.2067 33.583 13.2093H34.3608L26.1577 5.0442C25.5503 4.43936 24.8291 3.95955 24.0353 3.6322C23.2416 3.30484 22.3908 3.13635 21.5316 3.13635C20.6724 3.13635 19.8216 3.30484 19.0278 3.6322C18.2341 3.95955 17.5129 4.43936 16.9054 5.0442L8.73243 13.1862H9.99864Z" fill=""/>
				<path d="M41.1461 19.9646L36.1891 15.0305C36.0773 15.076 35.9578 15.1 35.837 15.1011H33.583C32.41 15.1041 31.2856 15.5677 30.4543 16.3914L23.995 22.8167C23.4133 23.3947 22.625 23.7193 21.8031 23.7193C20.9811 23.7193 20.1928 23.3947 19.6111 22.8167L13.1272 16.3669C12.2961 15.5428 11.1717 15.0786 9.99857 15.0753H7.23148C7.11745 15.0728 7.00475 15.0503 6.89856 15.0088L1.91016 19.9646C0.684934 21.1868 -0.00317097 22.8428 -0.00317097 24.5694C-0.00317097 26.2959 0.684934 27.952 1.91016 29.1741L6.88765 34.1286C6.99361 34.0864 7.10644 34.0638 7.22057 34.062H9.99857C11.1717 34.0586 12.296 33.5945 13.1272 32.7705L19.6097 26.318C20.7818 25.1527 22.8243 25.1527 23.995 26.318L30.4543 32.746C31.2856 33.5696 32.41 34.0333 33.583 34.0362H35.837C35.9578 34.0371 36.0774 34.0611 36.1891 34.1069L41.1461 29.1728C41.7537 28.5681 42.2358 27.8503 42.5646 27.0602C42.8935 26.2701 43.0628 25.4232 43.0628 24.568C43.0628 23.7128 42.8935 22.8659 42.5646 22.0758C42.2358 21.2857 41.7537 20.5679 41.1461 19.9633" fill=""/>            
			</g>
        </g>
    </g>
</svg>