<svg width="74" height="79" viewBox="0 0 74 79" fill="none" xmlns="http://www.w3.org/2000/svg">
<path fill-rule="evenodd" clip-rule="evenodd" d="M17.0001 0C10.9249 0 6.00006 4.92487 6.00006 11V57C6.00006 57.5523 6.44777 58 7.00006 58C7.55234 58 8.00006 57.5523 8.00006 57V11C8.00006 6.02944 12.0295 2 17.0001 2H57.0001C61.9706 2 66.0001 6.02944 66.0001 11V57C66.0001 57.5523 66.4478 58 67.0001 58C67.5523 58 68.0001 57.5523 68.0001 57V11C68.0001 4.92487 63.0752 0 57.0001 0H17.0001ZM12 70C12 69.4477 11.5523 69 11 69C10.4478 69 10 69.4477 10 70V77C10 78.1046 10.8955 79 12 79H24C25.1046 79 26 78.1046 26 77V74C26 73.4477 25.5523 73 25 73C24.4478 73 24 73.4477 24 74V77H12V70ZM63 69C63.5523 69 64 69.4477 64 70V77C64 78.1046 63.1046 79 62 79H50C48.8955 79 48 78.1046 48 77V74C48 73.4477 48.4478 73 49 73C49.5523 73 50 73.4477 50 74V77H62V70C62 69.4477 62.4478 69 63 69ZM23.0001 52C20.2386 52 18.0001 54.2386 18.0001 57C18.0001 59.7614 20.2386 62 23.0001 62C25.7615 62 28.0001 59.7614 28.0001 57C28.0001 54.2386 25.7615 52 23.0001 52ZM20.0001 57C20.0001 55.3431 21.3432 54 23.0001 54C24.6569 54 26.0001 55.3431 26.0001 57C26.0001 58.6569 24.6569 60 23.0001 60C21.3432 60 20.0001 58.6569 20.0001 57ZM46 57C46 54.2386 48.2386 52 51 52C53.7615 52 56 54.2386 56 57C56 59.7614 53.7615 62 51 62C48.2386 62 46 59.7614 46 57ZM51 54C49.3432 54 48 55.3431 48 57C48 58.6569 49.3432 60 51 60C52.6569 60 54 58.6569 54 57C54 55.3431 52.6569 54 51 54ZM27.0526 48.4986C27.6041 48.4696 28.0277 47.999 27.9987 47.4474C27.9697 46.8959 27.499 46.4724 26.9475 46.5014L17.4475 47.0014C16.896 47.0304 16.4724 47.501 16.5014 48.0526C16.5305 48.6041 17.0011 49.0276 17.5526 48.9986L27.0526 48.4986ZM47.0526 46.5014C46.5011 46.4724 46.0305 46.8959 46.0014 47.4474C45.9724 47.999 46.396 48.4696 46.9475 48.4986L56.4475 48.9986C56.999 49.0276 57.4697 48.6041 57.4987 48.0526C57.5277 47.501 57.1041 47.0304 56.5526 47.0014L47.0526 46.5014ZM26 10C26 9.44772 26.4477 9 27 9H47C47.5523 9 48 9.44772 48 10C48 10.5523 47.5523 11 47 11H27C26.4477 11 26 10.5523 26 10ZM3.00006 35C3.00006 34.4477 2.55234 34 2.00006 34C1.44777 34 1.00006 34.4477 1.00006 35V48C1.00006 48.5523 1.44777 49 2.00006 49C2.55234 49 3.00006 48.5523 3.00006 48V35ZM72.0001 34C72.5523 34 73.0001 34.4477 73.0001 35V48C73.0001 48.5523 72.5523 49 72.0001 49C71.4478 49 71.0001 48.5523 71.0001 48V35C71.0001 34.4477 71.4478 34 72.0001 34ZM0.390339 56.7074C0.827623 56.371 1.45459 56.4524 1.79159 56.8889L1.79406 56.892L1.81005 56.9122C1.82561 56.9316 1.85097 56.9629 1.88632 57.0052C1.95701 57.0899 2.06759 57.2189 2.21939 57.3858C2.523 57.7197 2.99134 58.2053 3.63495 58.7925C4.92212 59.9667 6.91002 61.5468 9.68369 63.1318C15.2244 66.2979 23.929 69.5 36.5 69.5C49.0718 69.5 58.0327 66.2974 63.8324 63.1228C66.735 61.534 68.8509 59.9494 70.2341 58.7702C70.9257 58.1807 71.434 57.6926 71.7656 57.3564C71.9314 57.1883 72.053 57.0582 72.1313 56.9723C72.1704 56.9294 72.1986 56.8976 72.2162 56.8776L72.2344 56.8566L72.2367 56.8541L72.2373 56.8534C72.5941 56.4324 73.2246 56.3801 73.646 56.7366C74.0676 57.0934 74.1202 57.7243 73.7634 58.1459L73.0001 57.5C73.7634 58.1459 73.763 58.1464 73.7626 58.1469L73.7615 58.1482L73.7585 58.1517L73.7495 58.1622L73.7193 58.197C73.6936 58.2262 73.657 58.2674 73.6093 58.3197C73.514 58.4243 73.3744 58.5734 73.1896 58.7608C72.82 59.1355 72.2697 59.6631 71.5316 60.2923C70.0555 61.5506 67.8276 63.216 64.7927 64.8772C58.7174 68.2026 49.4283 71.5 36.5 71.5C23.5711 71.5 14.5257 68.2021 8.69141 64.8682C5.77758 63.2032 3.67173 61.5333 2.28703 60.27C1.5947 59.6384 1.08256 59.1084 0.739694 58.7314C0.568249 58.5428 0.439087 58.3925 0.350843 58.2868C0.30672 58.2339 0.272821 58.1922 0.248976 58.1624L0.220727 58.1268L0.212216 58.1159L0.209357 58.1122L0.208275 58.1108C0.207831 58.1102 0.207426 58.1097 1.00005 57.5L0.207426 58.1097C-0.129308 57.672 -0.0474151 57.0441 0.390339 56.7074Z" fill="#FCB445"/>
</svg>
