<svg width="17" height="17" viewBox="0 0 12 12" fill="none" xmlns="http://www.w3.org/2000/svg">
<path d="M7.4617 11.0755C7.4617 10.9105 7.32792 10.7767 7.16284 10.7767L1.50927 10.7767C1.01428 10.7761 0.613152 10.3751 0.612685 9.88008L0.612685 1.49431C0.613152 0.99932 1.01428 0.598308 1.50927 0.597724L10.2973 0.597724C10.7922 0.598308 11.1933 0.99932 11.1939 1.49431L11.1939 9.14788C11.1939 9.31295 11.3277 9.44674 11.4928 9.44674C11.6577 9.44674 11.7916 9.31295 11.7916 9.14788L11.7916 1.49431C11.7907 0.669405 11.1222 0.000933915 10.2973 -6.53184e-08L1.50916 -4.0575e-07C0.684249 0.000933502 0.0157785 0.669404 0.0148448 1.49431L0.0148445 9.88008C0.0157781 10.705 0.684248 11.3735 1.50915 11.3744L7.16284 11.3744C7.32792 11.3744 7.4617 11.2406 7.4617 11.0755Z" fill="#C2CFDD"/>
<path d="M2.99998 3.31009C2.99998 3.23105 3.03005 3.15202 3.09055 3.09197C3.2111 2.97142 3.40654 2.97142 3.52708 3.09197L8.90959 8.47448C9.03014 8.59503 9.03014 8.79047 8.90959 8.91101C8.78904 9.03156 8.5936 9.03156 8.47298 8.91101L3.09055 3.52858C3.03042 3.46808 2.99998 3.38905 2.99998 3.31009Z" fill="#C2CFDD"/>
<path d="M2.99998 8.69297C2.99998 8.61394 3.03005 8.53498 3.09055 8.47485L8.47298 3.09197C8.5936 2.97142 8.78904 2.97142 8.90959 3.09197C9.03014 3.21252 9.03014 3.40796 8.90959 3.52858L3.52708 8.91101C3.40654 9.03156 3.2111 9.03156 3.09055 8.91101C3.03042 8.85051 2.99998 8.77155 2.99998 8.69297Z" fill="#C2CFDD"/>
</svg>