<svg width="16" height="16" viewBox="0 0 16 16" fill="none" xmlns="http://www.w3.org/2000/svg">
<path fill-rule="evenodd" clip-rule="evenodd" d="M8.00001 0C8.27615 0 8.50001 0.223858 8.50001 0.5V2.5C8.50001 2.77614 8.27615 3 8.00001 3C7.72387 3 7.50001 2.77614 7.50001 2.5V0.5C7.50001 0.223858 7.72387 0 8.00001 0ZM6.01154 4C6.00379 3.99982 5.99605 3.99982 5.98833 4H3.33334C3.17905 4 3.03339 4.07124 2.93867 4.19303L0.608096 7.18948C0.594782 7.20628 0.582484 7.22403 0.571314 7.24264C0.55083 7.27675 0.534694 7.31285 0.52299 7.35011C0.506274 7.40327 0.498774 7.4582 0.500163 7.51266C0.501417 7.56251 0.51013 7.61239 0.52648 7.66057C0.540613 7.70227 0.560332 7.74234 0.585463 7.77958C0.597998 7.79817 0.611697 7.81579 0.626433 7.83235L7.62372 15.8293C7.71866 15.9378 7.85583 16 8.00001 16C8.14419 16 8.28135 15.9378 8.3763 15.8293L15.3736 7.83237C15.3883 7.81582 15.402 7.79821 15.4145 7.77963C15.4397 7.74237 15.4594 7.70229 15.4735 7.66057C15.4899 7.61234 15.4986 7.56241 15.4999 7.51251C15.5012 7.4581 15.4937 7.40322 15.477 7.35011C15.4664 7.3162 15.4521 7.28326 15.4341 7.2519C15.4301 7.24479 15.4258 7.23776 15.4214 7.23082C15.4122 7.21648 15.4024 7.20268 15.3919 7.18947L13.0613 4.19303C12.9666 4.07124 12.821 4 12.6667 4H10.0117C10.004 3.99982 9.99623 3.99982 9.98847 4H6.01154ZM6.36039 5L5.69372 7H10.3063L9.63963 5H6.36039ZM5.73852 8L8.00001 13.6537L10.2615 8H5.73852ZM9.18307 13.3886L11.3385 8H13.8981L9.18307 13.3886ZM11.3604 7L10.6937 5H12.4221L13.9777 7H11.3604ZM2.02233 7H4.63963L5.30629 5H3.57788L2.02233 7ZM6.81694 13.3886L4.66149 8H2.10189L6.81694 13.3886ZM14.2774 0.583975C14.5071 0.737151 14.5692 1.04759 14.416 1.27735L13.416 2.77735C13.2629 3.00711 12.9524 3.0692 12.7227 2.91603C12.4929 2.76285 12.4308 2.45241 12.584 2.22265L13.584 0.72265C13.7372 0.492886 14.0476 0.430799 14.2774 0.583975ZM2.97435 0.841886C2.88703 0.579914 2.60387 0.438334 2.34189 0.525658C2.07992 0.612982 1.93834 0.896142 2.02567 1.15811L2.52567 2.65811C2.61299 2.92009 2.89615 3.06167 3.15812 2.97434C3.42009 2.88702 3.56167 2.60386 3.47435 2.34189L2.97435 0.841886Z" fill="white"/>
</svg>
