<svg width="17" height="17" viewBox="0 0 12 12" fill="none" xmlns="http://www.w3.org/2000/svg">
<path d="M11.0755 7.53831C10.9105 7.53831 10.7767 7.6721 10.7767 7.83717V10.4907C10.7761 10.9857 10.3751 11.3869 9.88008 11.3873H1.49431C0.99932 11.3869 0.598308 10.9857 0.597724 10.4907V2.7027C0.598308 2.20783 0.99932 1.8067 1.49431 1.80611H4.14788C4.31295 1.80611 4.44674 1.67233 4.44674 1.50725C4.44674 1.34229 4.31295 1.20839 4.14788 1.20839H1.49431C0.669405 1.20932 0.000933944 1.87779 0 2.7027V10.4909C0.000933944 11.3158 0.669405 11.9842 1.49431 11.9852H9.88008C10.705 11.9842 11.3735 11.3158 11.3744 10.4909V7.83717C11.3744 7.6721 11.2406 7.53831 11.0755 7.53831Z" fill="#C2CFDD"/>
<path d="M11.256 0.439422C10.7308 -0.085805 9.87928 -0.085805 9.35405 0.439422L4.02216 5.77131C3.98562 5.80785 3.95924 5.85315 3.94546 5.90288L3.2443 8.43422C3.21547 8.538 3.24477 8.64914 3.32089 8.72538C3.39712 8.80149 3.50826 8.83079 3.61204 8.80207L6.14338 8.1008C6.19312 8.08702 6.23841 8.06064 6.27495 8.0241L11.6067 2.6921C12.1311 2.16652 12.1311 1.3157 11.6067 0.790118L11.256 0.439422ZM4.67336 5.96557L9.03709 1.60172L10.4444 3.00905L6.08058 7.37291L4.67336 5.96557ZM4.39224 6.52967L5.51659 7.65414L3.96134 8.08504L4.39224 6.52967ZM11.1841 2.26949L10.8672 2.58644L9.4597 1.17899L9.77678 0.862032C10.0685 0.570291 10.5416 0.570291 10.8333 0.862032L11.1841 1.21273C11.4754 1.50482 11.4754 1.97751 11.1841 2.26949Z" fill="#C2CFDD"/>
</svg>
