<svg width="25" height="25" viewBox="0 0 15 15" fill="none" xmlns="http://www.w3.org/2000/svg">
<path d="M14.2278 5.83333H12.8244C12.5989 5.83333 12.4131 5.70917 12.3267 5.50083C12.2403 5.2925 12.2842 5.07306 12.4433 4.91361L13.4356 3.92167C13.5814 3.77583 13.6617 3.58167 13.6617 3.37556C13.6617 3.16917 13.5814 2.97528 13.4356 2.82917L12.1708 1.56444C11.8792 1.27278 11.3706 1.27222 11.0783 1.56444L10.0864 2.55639C9.92694 2.71556 9.70694 2.76 9.49917 2.67333C9.29083 2.58694 9.16667 2.40111 9.16667 2.17556V0.772222C9.16667 0.346389 8.82028 0 8.39444 0H6.60556C6.17972 0 5.83333 0.346389 5.83333 0.772222V2.17556C5.83333 2.40111 5.70917 2.58694 5.50083 2.67333C5.29306 2.76028 5.07306 2.71556 4.91361 2.55639L3.92167 1.56444C3.62944 1.27222 3.12083 1.27278 2.82917 1.56444L1.56444 2.82917C1.41861 2.975 1.33833 3.16917 1.33833 3.37556C1.33833 3.58167 1.41861 3.77556 1.56444 3.92167L2.55667 4.91361C2.71583 5.07306 2.75944 5.2925 2.67333 5.50083C2.58722 5.70917 2.40111 5.83333 2.17556 5.83333H0.772222C0.346389 5.83333 0 6.17972 0 6.60556V8.39417C0 8.82028 0.346389 9.16667 0.772222 9.16667H2.17556C2.40111 9.16667 2.58694 9.29083 2.67333 9.49917C2.75972 9.7075 2.71583 9.92694 2.55667 10.0864L1.56444 11.0783C1.41861 11.2242 1.33833 11.4183 1.33833 11.6244C1.33833 11.8308 1.41861 12.0247 1.56444 12.1708L2.82917 13.4356C3.12111 13.7275 3.62944 13.7281 3.92167 13.4356L4.91361 12.4433C5.07306 12.2842 5.29222 12.2403 5.50083 12.3267C5.70917 12.4131 5.83333 12.5989 5.83333 12.8244V14.2278C5.83333 14.6536 6.17972 15 6.60556 15H8.39417C8.82 15 9.16639 14.6536 9.16639 14.2278V12.8244C9.16639 12.5989 9.29056 12.4131 9.49889 12.3267C9.7075 12.24 9.92667 12.2842 10.0861 12.4433L11.0781 13.4356C11.3703 13.7278 11.8789 13.7272 12.1706 13.4356L13.4353 12.1708C13.5811 12.025 13.6614 11.8308 13.6614 11.6244C13.6614 11.4183 13.5811 11.2244 13.4353 11.0783L12.4431 10.0864C12.2839 9.92694 12.2403 9.7075 12.3264 9.49917C12.4125 9.29083 12.5989 9.16667 12.8244 9.16667H14.2278C14.6536 9.16667 15 8.82028 15 8.39444V6.60556C15 6.17972 14.6536 5.83333 14.2278 5.83333ZM14.4444 8.39444C14.4444 8.51389 14.3472 8.61111 14.2278 8.61111H12.8244C12.3733 8.61111 11.9858 8.87 11.8133 9.28667C11.6406 9.70333 11.7314 10.1606 12.0506 10.4794L13.0428 11.4714C13.1275 11.5561 13.1275 11.6936 13.0428 11.7781L11.7781 13.0428C11.6936 13.1272 11.5561 13.1278 11.4714 13.0428L10.4794 12.0506C10.1603 11.7314 9.70333 11.6411 9.28667 11.8133C8.87 11.9858 8.61111 12.3733 8.61111 12.8244V14.2278C8.61111 14.3472 8.51389 14.4444 8.39444 14.4444H6.60556C6.48611 14.4444 6.38889 14.3472 6.38889 14.2278V12.8244C6.38889 12.3733 6.13 11.9858 5.71333 11.8133C5.57361 11.7553 5.42972 11.7269 5.2875 11.7269C5.00583 11.7269 4.73278 11.8381 4.52056 12.0503L3.52861 13.0425C3.44361 13.1275 3.30611 13.1269 3.22194 13.0425L1.95722 11.7778C1.8725 11.6931 1.8725 11.5556 1.95722 11.4711L2.94944 10.4792C3.26833 10.1603 3.35944 9.70306 3.18667 9.28639C3.01417 8.87 2.62667 8.61111 2.17556 8.61111H0.772222C0.652778 8.61111 0.555556 8.51389 0.555556 8.39444V6.60556C0.555556 6.48611 0.652778 6.38889 0.772222 6.38889H2.17556C2.62667 6.38889 3.01417 6.13 3.18667 5.71333C3.35944 5.29667 3.26861 4.83944 2.94944 4.52056L1.95722 3.52861C1.8725 3.44389 1.8725 3.30639 1.95722 3.22194L3.22194 1.95722C3.30639 1.8725 3.44389 1.8725 3.52861 1.95722L4.52056 2.94917C4.83917 3.26778 5.29611 3.35917 5.71333 3.18639C6.13 3.01417 6.38889 2.62667 6.38889 2.17556V0.772222C6.38889 0.652778 6.48611 0.555556 6.60556 0.555556H8.39417C8.51389 0.555556 8.61111 0.652778 8.61111 0.772222V2.17556C8.61111 2.62667 8.87 3.01417 9.28667 3.18667C9.70389 3.35944 10.1606 3.26833 10.4794 2.94944L11.4714 1.9575C11.5564 1.87278 11.6939 1.87278 11.7781 1.9575L13.0428 3.22222C13.1275 3.30694 13.1275 3.44444 13.0428 3.52889L12.0506 4.52083C11.7317 4.83972 11.6406 5.29694 11.8133 5.71361C11.9858 6.13028 12.3733 6.38917 12.8244 6.38917H14.2278C14.3472 6.38889 14.4444 6.48611 14.4444 6.60556V8.39444Z" fill="#F8AE1B"/>
<path d="M7.5 5C6.12139 5 5 6.12139 5 7.5C5 8.87861 6.12139 10 7.5 10C8.87861 10 10 8.87861 10 7.5C10 6.12139 8.87861 5 7.5 5ZM7.5 9.44444C6.42806 9.44444 5.55556 8.57194 5.55556 7.5C5.55556 6.42806 6.42806 5.55556 7.5 5.55556C8.57194 5.55556 9.44444 6.42806 9.44444 7.5C9.44444 8.57194 8.57194 9.44444 7.5 9.44444Z" fill="#F8AE1B"/>
</svg>
