<svg width="24" height="24" viewBox="0 0 24 24" fill="none" xmlns="http://www.w3.org/2000/svg">
<path fill-rule="evenodd" clip-rule="evenodd" d="M11 2C10.1716 2 9.5 2.67157 9.5 3.5V4.75737C9.5 5.20282 8.96143 5.42591 8.64645 5.11092L7.75735 4.22182C7.17156 3.63604 6.22181 3.63604 5.63603 4.22182L4.22181 5.63604C3.63603 6.22182 3.63603 7.17157 4.22181 7.75736L5.1109 8.64645C5.42588 8.96143 5.2028 9.5 4.75735 9.5H3.5C2.67157 9.5 2 10.1716 2 11V13C2 13.8284 2.67157 14.5 3.5 14.5H4.75734C5.20279 14.5 5.42588 15.0386 5.11089 15.3536L4.22181 16.2426C3.63602 16.8284 3.63602 17.7782 4.22181 18.364L5.63602 19.7782C6.22181 20.364 7.17156 20.364 7.75734 19.7782L8.64645 18.8891C8.96143 18.5741 9.5 18.7972 9.5 19.2426V20.5C9.5 21.3284 10.1716 22 11 22H13C13.8284 22 14.5 21.3284 14.5 20.5V19.2427C14.5 18.7972 15.0386 18.5741 15.3536 18.8891L16.2426 19.7782C16.8284 20.364 17.7782 20.364 18.3639 19.7782L19.7782 18.364C20.3639 17.7782 20.3639 16.8284 19.7782 16.2426L18.8891 15.3536C18.5741 15.0386 18.7972 14.5 19.2426 14.5H20.5C21.3284 14.5 22 13.8284 22 13V11C22 10.1716 21.3284 9.5 20.5 9.5H19.2426C18.7972 9.5 18.5741 8.96143 18.8891 8.64645L19.7782 7.75736C20.3639 7.17157 20.3639 6.22182 19.7782 5.63604L18.3639 4.22182C17.7782 3.63604 16.8284 3.63604 16.2426 4.22182L15.3536 5.11089C15.0386 5.42588 14.5 5.20279 14.5 4.75734V3.5C14.5 2.67157 13.8284 2 13 2H11ZM10.5 3.5C10.5 3.22386 10.7239 3 11 3H13C13.2761 3 13.5 3.22386 13.5 3.5V4.75734C13.5 6.0937 15.1157 6.76295 16.0607 5.818L16.9497 4.92893C17.145 4.73367 17.4616 4.73367 17.6568 4.92893L19.0711 6.34314C19.2663 6.53841 19.2663 6.85499 19.0711 7.05025L18.182 7.93934C17.237 8.88429 17.9063 10.5 19.2426 10.5H20.5C20.7761 10.5 21 10.7239 21 11V13C21 13.2761 20.7761 13.5 20.5 13.5H19.2426C17.9063 13.5 17.237 15.1157 18.182 16.0607L19.0711 16.9497C19.2663 17.145 19.2663 17.4616 19.0711 17.6569L17.6568 19.0711C17.4616 19.2663 17.145 19.2663 16.9497 19.0711L16.0607 18.182C15.1157 17.237 13.5 17.9063 13.5 19.2427V20.5C13.5 20.7761 13.2761 21 13 21H11C10.7239 21 10.5 20.7761 10.5 20.5V19.2426C10.5 17.9063 8.88429 17.237 7.93934 18.182L7.05023 19.0711C6.85497 19.2663 6.53839 19.2663 6.34313 19.0711L4.92892 17.6569C4.73365 17.4616 4.73365 17.145 4.92892 16.9497L5.818 16.0607C6.76295 15.1157 6.0937 13.5 4.75734 13.5H3.5C3.22386 13.5 3 13.2761 3 13V11C3 10.7239 3.22386 10.5 3.5 10.5H4.75735C6.0937 10.5 6.76296 8.88429 5.81801 7.93934L4.92892 7.05025C4.73366 6.85499 4.73366 6.5384 4.92892 6.34314L6.34313 4.92893C6.53839 4.73367 6.85498 4.73367 7.05024 4.92893L7.93934 5.81803C8.88429 6.76298 10.5 6.09373 10.5 4.75737V3.5ZM9.5 12C9.5 10.6193 10.6193 9.5 12 9.5C13.3807 9.5 14.5 10.6193 14.5 12C14.5 13.3807 13.3807 14.5 12 14.5C10.6193 14.5 9.5 13.3807 9.5 12ZM12 8.5C10.067 8.5 8.5 10.067 8.5 12C8.5 13.933 10.067 15.5 12 15.5C13.933 15.5 15.5 13.933 15.5 12C15.5 10.067 13.933 8.5 12 8.5Z" fill="#ACB4D9"/>
</svg>
