<svg width="32" height="32" viewBox="0 0 32 32" fill="none" xmlns="http://www.w3.org/2000/svg">
<rect x="2.75" y="2.75" width="26.5" height="26.5" rx="4.25" stroke="#F8AE1B" stroke-width="1.5"/>
<rect x="8.75" y="8.75" width="14.5" height="14.5" rx="4.25" stroke="#F8AE1B" stroke-width="1.5"/>
<path fill-rule="evenodd" clip-rule="evenodd" d="M16 32C24.8366 32 32 24.8366 32 16C32 7.16344 24.8366 0 16 0C7.16344 0 0 7.16344 0 16C0 24.8366 7.16344 32 16 32ZM16 23.3333C20.0501 23.3333 23.3333 20.0501 23.3333 16C23.3333 11.9499 20.0501 8.66667 16 8.66667C11.9499 8.66667 8.66667 11.9499 8.66667 16C8.66667 20.0501 11.9499 23.3333 16 23.3333Z" fill="white"/>
<path fill-rule="evenodd" clip-rule="evenodd" d="M32 16C32 24.8366 24.8366 32 16 32L16 23.3333C20.0501 23.3333 23.3333 20.0501 23.3333 16C23.3333 11.9499 20.0501 8.66667 16 8.66667L16 0C24.8366 0 32 7.16344 32 16Z" fill="black" fill-opacity="0.04"/>
<path fill-rule="evenodd" clip-rule="evenodd" d="M9.25776 13.1108L1.28979 9.69595C0.45968 11.6304 0 13.7615 0 16C0 18.2387 0.459767 20.37 1.29003 22.3046L9.258 18.8898C8.87742 18.003 8.66667 17.0261 8.66667 16C8.66667 14.9741 8.87733 13.9974 9.25776 13.1108ZM13.1106 22.7422L9.69579 30.7101C11.6303 31.5403 13.7615 32 16 32C18.2385 32 20.3697 31.5403 22.3042 30.7101L18.8894 22.7422C18.0027 23.1226 17.026 23.3333 16 23.3333C14.974 23.3333 13.9973 23.1226 13.1106 22.7422ZM22.742 18.8898L30.71 22.3046C31.5402 20.37 32 18.2387 32 16C32 13.7615 31.5403 11.6304 30.7102 9.69595L22.7422 13.1108C23.1227 13.9974 23.3333 14.9741 23.3333 16C23.3333 17.0261 23.1226 18.003 22.742 18.8898ZM18.8895 9.25787L22.3043 1.28991C20.3698 0.459724 18.2386 0 16 0C13.7614 0 11.6302 0.459724 9.69568 1.28991L13.1105 9.25788C13.9972 8.87737 14.974 8.66667 16 8.66667C17.026 8.66667 18.0028 8.87737 18.8895 9.25787Z" fill="#FF6161"/>
<path fill-rule="evenodd" clip-rule="evenodd" d="M16 8.66667C17.026 8.66667 18.0028 8.87737 18.8895 9.25787L22.3043 1.28991C20.3698 0.459724 18.2386 0 16 0L16 8.66667ZM16 32C18.2385 32 20.3697 31.5403 22.3042 30.7101L18.8894 22.7422C18.0027 23.1226 17.026 23.3333 16 23.3333L16 32ZM30.71 22.3046L22.742 18.8898C23.1226 18.003 23.3333 17.0261 23.3333 16C23.3333 14.9741 23.1227 13.9974 22.7422 13.1108L30.7102 9.69595C31.5403 11.6304 32 13.7615 32 16C32 18.2387 31.5402 20.37 30.71 22.3046Z" fill="#FF0F27"/>
<g opacity="0.4">
<mask id="path-7-inside-1_1_417" fill="white">
<path fill-rule="evenodd" clip-rule="evenodd" d="M16 32C24.8366 32 32 24.8366 32 16C32 7.16344 24.8366 0 16 0C7.16344 0 0 7.16344 0 16C0 24.8366 7.16344 32 16 32ZM16 23.3333C20.0501 23.3333 23.3333 20.0501 23.3333 16C23.3333 11.9499 20.0501 8.66667 16 8.66667C11.9499 8.66667 8.66667 11.9499 8.66667 16C8.66667 20.0501 11.9499 23.3333 16 23.3333Z"/>
</mask>
<path d="M31 16C31 24.2843 24.2843 31 16 31V33C25.3888 33 33 25.3888 33 16H31ZM16 1C24.2843 1 31 7.71573 31 16H33C33 6.61116 25.3888 -1 16 -1V1ZM1 16C1 7.71573 7.71573 1 16 1V-1C6.61116 -1 -1 6.61116 -1 16H1ZM16 31C7.71573 31 1 24.2843 1 16H-1C-1 25.3888 6.61116 33 16 33V31ZM22.3333 16C22.3333 19.4978 19.4978 22.3333 16 22.3333V24.3333C20.6024 24.3333 24.3333 20.6024 24.3333 16H22.3333ZM16 9.66667C19.4978 9.66667 22.3333 12.5022 22.3333 16H24.3333C24.3333 11.3976 20.6024 7.66667 16 7.66667V9.66667ZM9.66667 16C9.66667 12.5022 12.5022 9.66667 16 9.66667V7.66667C11.3976 7.66667 7.66667 11.3976 7.66667 16H9.66667ZM16 22.3333C12.5022 22.3333 9.66667 19.4978 9.66667 16H7.66667C7.66667 20.6024 11.3976 24.3333 16 24.3333V22.3333Z" fill="#FFE3BC" mask="url(#path-7-inside-1_1_417)"/>
</g>
</svg>
