<svg width="25" height="24" viewBox="0 0 25 24" fill="none" xmlns="http://www.w3.org/2000/svg">
<path fill-rule="evenodd" clip-rule="evenodd" d="M6.5 2C5.11929 2 4 3.11929 4 4.5V15.8077C4 17.0185 4.98153 18 6.19231 18C6.46845 18 6.69231 17.7761 6.69231 17.5C6.69231 17.2239 6.46845 17 6.19231 17C5.53381 17 5 16.4662 5 15.8077V4.5C5 3.67157 5.67157 3 6.5 3H13.7353C14.4338 3 15 3.56623 15 4.26471C15 4.54085 15.2239 4.76471 15.5 4.76471C15.7761 4.76471 16 4.54085 16 4.26471C16 3.01394 14.9861 2 13.7353 2H6.5ZM10.5 6C9.11929 6 8 7.11929 8 8.5V19.5C8 20.8807 9.11929 22 10.5 22H17.5C18.8807 22 20 20.8807 20 19.5V8.5C20 7.11929 18.8807 6 17.5 6H10.5ZM9 8.5C9 7.67157 9.67157 7 10.5 7H17.5C18.3284 7 19 7.67157 19 8.5V19.5C19 20.3284 18.3284 21 17.5 21H10.5C9.67157 21 9 20.3284 9 19.5V8.5Z" fill="white"/>
</svg>
