<svg xmlns="http://www.w3.org/2000/svg" xmlns:xlink="http://www.w3.org/1999/xlink" width="266" height="254" viewBox="0 0 266 254">
    <defs>
        <path id="8yyqy6h0ja" d="M0 0.481L107.519 0.481 107.519 134.736 0 134.736z"/>
    </defs>
    <g fill="none" fill-rule="evenodd">
        <g>
            <g>
                <g>
                    <path fill="#E59900" d="M52.65 88.9c-7.954 7.262-20.288 6.702-27.55-1.25-7.262-7.954-6.701-20.288 1.251-27.55 7.953-7.262 20.287-6.701 27.549 1.251 7.262 7.953 6.702 20.287-1.25 27.549" transform="translate(-587 -304) translate(227 210) translate(360 94)"/>
                    <path fill="#FFC248" d="M53.649 86.9c-7.953 7.262-20.287 6.702-27.549-1.251-7.262-7.953-6.702-20.287 1.251-27.549 7.953-7.262 20.287-6.702 27.549 1.251 7.262 7.953 6.702 20.287-1.251 27.549" transform="translate(-587 -304) translate(227 210) translate(360 94)"/>
                    <path fill="#FFF" d="M40.983 57.274c-3.932 0-7.669 1.446-10.592 4.114-3.103 2.833-4.917 6.705-5.108 10.902-.19 4.198 1.265 8.218 4.099 11.32 5.85 6.405 15.822 6.857 22.227 1.01 3.104-2.834 4.918-6.705 5.108-10.902.19-4.198-1.265-8.218-4.098-11.32-2.834-3.103-6.707-4.917-10.905-5.107-.244-.012-.488-.017-.73-.017M41.007 90c-4.617 0-9.216-1.861-12.568-5.53-6.323-6.924-5.834-17.7 1.092-24.023 3.355-3.063 7.71-4.632 12.239-4.43 4.539.206 8.725 2.167 11.788 5.521 6.324 6.924 5.835 17.7-1.09 24.023C49.213 88.533 45.104 90 41.008 90" transform="translate(-587 -304) translate(227 210) translate(360 94)"/>
                    <path fill="#FFF" d="M38.928 79.595c-.963-.233-1.834-.575-2.616-1.024-.782-.45-1.427-.93-1.936-1.44-.294-.305-.416-.648-.365-1.03.041-.308.18-.56.414-.757.233-.197.505-.272.813-.225.239.036.472.147.7.334.574.488 1.176.91 1.808 1.266.632.356 1.36.597 2.185.723.308.047.603.073.887.078.283.005.559-.015.83-.06.269-.046.517-.119.744-.22.226-.1.428-.224.604-.37.177-.147.324-.332.44-.558.117-.226.194-.483.231-.77.071-.53-.049-.994-.36-1.394-.312-.4-.84-.764-1.588-1.095l-2.37-1.043c-.468-.212-.855-.393-1.16-.542-.303-.149-.628-.326-.97-.53-.343-.204-.619-.397-.827-.58-.21-.184-.41-.401-.605-.653-.195-.251-.336-.517-.426-.796-.09-.278-.148-.596-.177-.952-.029-.357-.014-.747.043-1.17.052-.393.147-.758.283-1.095.136-.336.305-.633.507-.889.201-.256.435-.485.7-.689.266-.203.557-.372.874-.507.318-.137.658-.241 1.024-.316.364-.074.743-.122 1.136-.143.393-.021.806-.015 1.237.018l.437-3.263c.044-.329.17-.569.377-.721.209-.153.442-.21.7-.17.258.04.475.167.649.383.173.216.239.483.196.802l-.44 3.294c.51.132 1.003.305 1.481.518.479.214.868.414 1.168.6.3.187.587.382.864.587.445.317.633.725.567 1.223-.014.106-.044.21-.088.311-.044.102-.1.19-.172.267-.07.075-.149.142-.232.2-.084.057-.183.096-.297.117-.114.02-.232.022-.35.004-.06-.01-.116-.024-.17-.043-.053-.02-.111-.041-.173-.067-.063-.025-.122-.054-.179-.084-.01-.002-.132-.072-.367-.21-.235-.139-.404-.238-.508-.297-.104-.059-.29-.152-.556-.28-.267-.127-.5-.227-.698-.3-.197-.074-.438-.151-.721-.233-.284-.08-.564-.142-.843-.185-.576-.088-1.096-.105-1.559-.051-.463.054-.864.207-1.202.459-.337.25-.537.605-.599 1.061-.076.573.023 1.008.298 1.304.274.296.863.637 1.764 1.024l2.33 1.005c1.504.651 2.555 1.396 3.153 2.235.597.838.815 1.867.652 3.087-.194 1.454-.797 2.526-1.807 3.216-1.01.69-2.276 1.001-3.797.93l-.43 3.216c-.042.319-.175.556-.4.71-.223.156-.469.213-.737.172-.159-.024-.303-.083-.433-.18-.128-.095-.23-.23-.303-.403-.073-.173-.095-.371-.065-.594l.43-3.215z" transform="translate(-587 -304) translate(227 210) translate(360 94)"/>
                    <path fill="#353148" d="M211.603 223.319l-91.352 29.997c-7.16 2.352-14.867-1.557-17.214-8.73L38.682 47.927c-2.347-7.173 1.555-14.893 8.716-17.244L138.749.684c7.16-2.351 14.868 1.557 17.215 8.73l64.353 196.66c2.348 7.173-1.554 14.893-8.714 17.245" transform="translate(-587 -304) translate(227 210) translate(360 94)"/>
                    <path fill="#423E49" d="M208.426 220.7l-87.601 28.678c-6.533 2.14-13.565-1.417-15.707-7.94L41.623 47.986C39.48 41.462 43.04 34.44 49.573 32.3l87.602-28.679c6.533-2.14 13.565 1.417 15.707 7.941l63.495 193.45c2.142 6.524-1.418 13.547-7.951 15.686" transform="translate(-587 -304) translate(227 210) translate(360 94)"/>
                    <path fill="#FFF" d="M203 184.04L105.688 216 54 57.959 151.312 26z" transform="translate(-587 -304) translate(227 210) translate(360 94)"/>
                    <path fill="#DCF1FF" d="M153 33.263L56.375 65 54 57.737 150.625 26z" transform="translate(-587 -304) translate(227 210) translate(360 94)"/>
                    <path fill="#FFF" d="M154.467 111.544c-.092 0-.185.014-.276.043-.488.155-.748.692-.577 1.195.082.246.254.447.483.566.224.116.477.139.711.065.49-.156.749-.692.579-1.195-.138-.41-.52-.674-.92-.674m.064 2.456c-.24 0-.478-.058-.7-.172-.356-.186-.622-.497-.751-.877-.266-.788.154-1.632.936-1.881.788-.25 1.638.19 1.904.978s-.154 1.633-.936 1.882c-.149.047-.3.07-.453.07M158.467 109.544c-.092 0-.184.014-.275.043-.235.074-.424.238-.534.46-.112.228-.128.488-.044.734.083.247.255.448.483.567.224.116.478.138.71.065.49-.156.75-.692.58-1.195-.138-.41-.52-.674-.92-.674m.064 2.456c-.239 0-.478-.058-.699-.173-.356-.185-.623-.496-.752-.876-.127-.38-.102-.783.072-1.138.177-.358.484-.622.865-.743.786-.25 1.637.19 1.903.978.266.789-.154 1.633-.937 1.882-.148.047-.3.07-.452.07M164.468 108.544c-.093 0-.186.014-.277.043-.488.156-.748.692-.577 1.196.169.504.708.786 1.194.63.235-.075.424-.238.535-.461.111-.227.127-.488.044-.734-.084-.246-.255-.447-.484-.565-.138-.072-.286-.109-.435-.109m.066 2.456c-.637 0-1.238-.41-1.454-1.048-.266-.789.154-1.632.936-1.881.384-.122.791-.086 1.152.102.356.185.623.496.752.876.127.38.102.784-.072 1.138-.177.358-.483.622-.865.743-.149.048-.3.07-.449.07" transform="translate(-587 -304) translate(227 210) translate(360 94)"/>
                    <path fill="#423E49" d="M159.477 222L157 213.199 157.523 213 160 221.801z" transform="translate(-587 -304) translate(227 210) translate(360 94)"/>
                    <path fill="#FFF" d="M159.491 206.63c-1.118 0-2.255.174-3.375.542-2.758.904-4.998 2.829-6.309 5.419-1.31 2.59-1.535 5.536-.63 8.294.903 2.76 2.827 5 5.417 6.312 2.588 1.312 5.532 1.536 8.29.63 2.758-.903 4.998-2.827 6.308-5.418 1.311-2.59 1.536-5.536.631-8.294-1.498-4.575-5.762-7.485-10.332-7.485m.017 22.37c-4.834 0-9.345-3.078-10.93-7.918-.957-2.919-.72-6.035.667-8.776 1.387-2.74 3.757-4.776 6.675-5.734 6.022-1.973 12.528 1.321 14.503 7.346.956 2.919.719 6.035-.668 8.776-1.387 2.74-3.757 4.776-6.675 5.733-1.184.388-2.388.572-3.572.573" transform="translate(-587 -304) translate(227 210) translate(360 94)"/>
                    <path fill="#353148" d="M168.55 215.197c1.548 4.722-1.026 9.805-5.747 11.353-4.722 1.548-9.805-1.025-11.353-5.747-1.548-4.722 1.026-9.805 5.747-11.353 4.722-1.548 9.805 1.025 11.353 5.747" transform="translate(-587 -304) translate(227 210) translate(360 94)"/>
                    <path fill="#FFF" d="M108.33 29.612c-.106 0-.213.016-.317.049l-18.657 5.728c-.259.079-.468.247-.59.474-.133.245-.148.52-.042.778.123.3.4.549.783.709l19.14-5.877c.107-.033.208-.082.296-.146.346-.246.488-.672.354-1.059-.085-.24-.266-.438-.508-.552-.145-.069-.301-.104-.459-.104zM89.486 38l-.108-.039c-.613-.22-1.062-.61-1.264-1.1-.173-.422-.149-.874.069-1.275.2-.372.545-.65.97-.778l18.656-5.73c.423-.13.876-.098 1.275.092.397.187.693.51.834.908.22.636-.013 1.332-.579 1.736-.147.105-.312.186-.488.24L89.486 38zM80.999 37.586c-.146 0-.294.023-.44.07-.358.118-.65.368-.82.705-.171.337-.2.72-.082 1.08.117.358.368.65.704.82.337.17.721.2 1.08.082.358-.117.65-.368.82-.704.171-.338.2-.721.082-1.08-.195-.595-.75-.973-1.344-.973M80.998 41c-.31 0-.617-.073-.9-.217-.477-.24-.831-.653-.998-1.16-.166-.508-.125-1.05.116-1.526.241-.477.654-.83 1.161-.997 1.047-.344 2.18.23 2.522 1.277.167.507.126 1.05-.115 1.526s-.654.83-1.162.996c-.204.068-.415.101-.624.101M97 26.56c-.045 0-.092.006-.137.021-.112.037-.203.115-.256.22-.054.105-.063.224-.026.337.075.23.324.357.556.281.112-.036.203-.115.257-.22.053-.105.062-.224.025-.336-.037-.112-.115-.203-.22-.256-.062-.032-.13-.048-.199-.048M97.001 28c-.42 0-.813-.268-.95-.688-.084-.254-.063-.525.057-.764.121-.237.327-.415.58-.498.254-.083.526-.062.764.058.238.121.415.327.498.58.083.255.062.526-.058.764-.12.237-.326.415-.58.498-.103.034-.208.05-.311.05" transform="translate(-587 -304) translate(227 210) translate(360 94)"/>
                    <path fill="#FFC248" d="M60.183 167.371c-5.728 6.729-15.826 7.54-22.555 1.812-6.728-5.728-7.54-15.825-1.81-22.554 5.727-6.729 15.825-7.54 22.554-1.812 6.728 5.728 7.539 15.826 1.81 22.554" transform="translate(-587 -304) translate(227 210) translate(360 94)"/>
                    <path fill="#FFDB94" d="M61.183 165.372c-5.728 6.728-15.826 7.539-22.555 1.811-6.728-5.728-7.54-15.826-1.81-22.554 5.727-6.729 15.825-7.54 22.554-1.812 6.728 5.728 7.539 15.826 1.81 22.555" transform="translate(-587 -304) translate(227 210) translate(360 94)"/>
                    <path fill="#FFF" d="M49.02 142.289c-.344 0-.69.013-1.037.04-3.384.273-6.46 1.846-8.66 4.431s-3.263 5.873-2.992 9.257c.272 3.383 1.846 6.459 4.43 8.66 2.585 2.2 5.866 3.26 9.257 2.991 3.384-.272 6.46-1.845 8.66-4.43s3.263-5.872 2.99-9.256c-.271-3.384-1.844-6.46-4.43-8.66-2.32-1.975-5.204-3.033-8.217-3.033M48.978 169c-3.32 0-6.497-1.166-9.052-3.341-2.847-2.424-4.58-5.812-4.88-9.539-.3-3.727.871-7.348 3.295-10.195 2.424-2.847 5.811-4.58 9.538-4.88 3.729-.294 7.348.871 10.196 3.295 2.847 2.423 4.58 5.81 4.88 9.538.298 3.728-.872 7.349-3.295 10.196-2.424 2.847-5.812 4.58-9.54 4.88-.381.03-.764.046-1.142.046" transform="translate(-587 -304) translate(227 210) translate(360 94)"/>
                    <path fill="#FFF" d="M49.292 160.582c-.797-.082-1.531-.258-2.204-.529-.672-.27-1.238-.58-1.696-.928-.266-.209-.397-.466-.392-.772.004-.247.091-.46.261-.64s.381-.268.634-.263c.195.003.393.065.596.189.508.322 1.033.59 1.576.804.542.213 1.152.326 1.828.337.253.005.493-.005.722-.031.228-.026.45-.072.661-.136.214-.065.406-.149.579-.252.173-.104.324-.222.452-.356.128-.134.228-.296.301-.486.072-.19.11-.4.113-.63.007-.425-.134-.778-.423-1.06-.289-.28-.75-.512-1.382-.692l-2.008-.57c-.398-.118-.726-.219-.986-.304-.26-.085-.537-.19-.832-.314-.296-.124-.537-.247-.721-.37-.186-.122-.37-.272-.55-.45-.18-.176-.32-.37-.419-.58-.098-.21-.176-.454-.233-.731-.056-.278-.082-.587-.077-.927.005-.314.047-.612.124-.89.078-.28.186-.53.324-.755.137-.222.304-.428.498-.616.195-.188.413-.352.656-.493.242-.14.507-.26.794-.356.287-.097.587-.175.902-.233.314-.06.647-.098.997-.118l.042-2.614c.003-.263.082-.467.235-.609.153-.142.336-.21.548-.207.211.003.398.081.558.233.16.151.239.354.235.61l-.041 2.64c.423.05.837.133 1.243.25.405.118.737.234.997.35.258.114.509.238.751.37.389.202.58.502.573.902-.001.085-.015.17-.04.255-.026.084-.064.16-.114.227s-.106.128-.168.182c-.062.055-.138.095-.228.124-.09.028-.184.042-.282.04-.049-.001-.096-.006-.14-.016-.045-.009-.094-.02-.146-.033-.053-.015-.104-.03-.152-.048-.009 0-.114-.043-.317-.127l-.436-.18c-.09-.035-.247-.088-.474-.16-.228-.072-.424-.127-.591-.163-.167-.037-.368-.073-.603-.107-.236-.033-.468-.052-.696-.056-.473-.008-.893.034-1.261.125-.368.092-.676.254-.924.488-.248.234-.375.534-.381.9-.008.46.114.79.364.995.249.204.755.41 1.518.619l1.97.543c1.275.354 2.193.829 2.753 1.425.561.597.834 1.384.82 2.362-.019 1.164-.402 2.073-1.15 2.723-.747.65-1.737 1.03-2.969 1.136l-.04 2.576c-.004.255-.089.456-.254.602-.166.146-.358.217-.578.213-.13-.002-.252-.034-.365-.095-.113-.062-.208-.157-.283-.286-.076-.128-.112-.282-.109-.461l.04-2.576z" transform="translate(-587 -304) translate(227 210) translate(360 94)"/>
                    <path fill="#E59900" d="M122.57 129.183c2.937 18.264-9.488 35.45-27.753 38.387-18.264 2.936-35.45-9.49-38.387-27.753-2.937-18.264 9.489-35.45 27.753-38.387 18.264-2.937 35.451 9.489 38.387 27.753" transform="translate(-587 -304) translate(227 210) translate(360 94)"/>
                    <path fill="#FFC248" d="M118.57 126.183c2.936 18.265-9.489 35.45-27.753 38.387-18.264 2.937-35.451-9.489-38.387-27.753-2.937-18.264 9.489-35.45 27.752-38.387 18.265-2.937 35.452 9.489 38.388 27.753" transform="translate(-587 -304) translate(227 210) translate(360 94)"/>
                    <path fill="#FFDB94" d="M80.993 107.072c-13.746 2.21-23.13 15.19-20.92 28.936 2.21 13.745 15.19 23.13 28.935 20.92 13.745-2.21 23.13-15.19 20.92-28.936-2.21-13.745-15.19-23.13-28.935-20.92m8.293 51.583c-14.698 2.363-28.578-7.672-30.941-22.37-2.363-14.697 7.672-28.577 22.37-30.94 14.697-2.363 28.577 7.672 30.94 22.37 2.363 14.697-7.672 28.577-22.369 30.94" transform="translate(-587 -304) translate(227 210) translate(360 94)"/>
                    <path fill="#FFF" d="M86.009 143.558c-1.717.09-3.329-.022-4.839-.338-1.51-.317-2.805-.741-3.886-1.275-.63-.322-.987-.782-1.072-1.379-.07-.48.048-.923.352-1.326.303-.403.723-.64 1.26-.711.416-.055.857.006 1.323.18 1.179.47 2.377.828 3.594 1.073s2.544.273 3.981.084c.537-.071 1.044-.167 1.52-.289.476-.122.93-.279 1.36-.47.432-.192.814-.416 1.149-.671.333-.255.615-.534.845-.834.231-.3.393-.647.486-1.04.094-.392.108-.812.044-1.26-.12-.828-.529-1.471-1.23-1.928-.7-.457-1.75-.762-3.147-.916l-4.435-.48c-.88-.104-1.608-.198-2.185-.283-.576-.084-1.197-.2-1.862-.35-.666-.15-1.214-.313-1.645-.493-.432-.18-.867-.414-1.306-.702-.437-.288-.794-.622-1.069-1-.275-.378-.515-.827-.723-1.349-.207-.522-.359-1.114-.454-1.777-.088-.614-.093-1.204-.016-1.772.077-.568.228-1.09.45-1.567.222-.477.51-.929.863-1.355.354-.427.765-.815 1.236-1.164.47-.35.994-.663 1.572-.942.576-.278 1.19-.524 1.838-.737.65-.212 1.342-.391 2.08-.54l-.732-5.098c-.074-.513.029-.932.308-1.257.28-.324.645-.515 1.095-.574.45-.06.87.032 1.257.277.388.245.618.616.69 1.113l.739 5.148c.912-.035 1.816-.002 2.713.099.896.102 1.638.224 2.222.366.586.143 1.156.304 1.71.484.886.273 1.385.798 1.497 1.577.024.166.022.335-.006.508-.028.172-.085.332-.17.479-.085.146-.184.281-.3.406-.113.125-.261.23-.443.312-.183.083-.377.139-.585.166-.104.014-.205.019-.303.014-.097-.004-.204-.011-.32-.021-.116-.01-.228-.025-.337-.044-.018.002-.254-.047-.71-.147-.454-.1-.782-.172-.983-.213-.199-.041-.55-.096-1.055-.165-.504-.069-.938-.113-1.303-.133-.364-.02-.801-.025-1.312-.017-.51.008-1.008.044-1.493.108-1.004.132-1.881.345-2.633.638-.752.294-1.354.707-1.807 1.24-.453.532-.627 1.155-.526 1.868.129.895.49 1.502 1.083 1.82.592.32 1.73.563 3.412.73l4.35.44c2.81.29 4.904.926 6.28 1.91 1.377.985 2.201 2.43 2.475 4.337.327 2.271-.2 4.157-1.582 5.657-1.38 1.5-3.36 2.545-5.94 3.139l.723 5.023c.07.498-.046.915-.351 1.25-.304.336-.69.534-1.158.597-.276.036-.545.011-.804-.072-.258-.085-.489-.24-.689-.467-.2-.227-.325-.515-.375-.863l-.721-5.024z" transform="translate(-587 -304) translate(227 210) translate(360 94)"/>
                    <path fill="#E59900" d="M63.801 119.04c1.359 8.45-4.39 16.403-12.841 17.761-8.45 1.359-16.403-4.39-17.761-12.84-1.359-8.451 4.39-16.404 12.841-17.762 8.45-1.359 16.402 4.39 17.761 12.84" transform="translate(-587 -304) translate(227 210) translate(360 94)"/>
                    <path fill="#FFC248" d="M62.801 117.04c1.359 8.45-4.39 16.403-12.84 17.761-8.451 1.359-16.403-4.39-17.762-12.841-1.36-8.45 4.39-16.402 12.841-17.761 8.45-1.359 16.403 4.39 17.761 12.841" transform="translate(-587 -304) translate(227 210) translate(360 94)"/>
                    <path fill="#FFDB94" d="M45.644 107.96c-6.363 1.022-10.708 7.032-9.685 13.395 1.023 6.364 7.033 10.709 13.397 9.686 6.363-1.024 10.708-7.033 9.685-13.397-1.023-6.363-7.033-10.708-13.397-9.685m3.84 23.882c-6.805 1.093-13.23-3.553-14.324-10.357-1.094-6.805 3.551-13.23 10.356-14.324 6.804-1.094 13.23 3.551 14.324 10.356 1.094 6.804-3.552 13.23-10.356 14.325" transform="translate(-587 -304) translate(227 210) translate(360 94)"/>
                    <path fill="#FFF" d="M48.221 125.862c-.746.044-1.447-.01-2.103-.165-.656-.154-1.22-.36-1.69-.62-.274-.158-.43-.382-.466-.673-.03-.234.021-.45.153-.646s.314-.311.547-.346c.181-.027.373.002.576.088.512.229 1.034.403 1.562.522.53.12 1.107.133 1.732.041.233-.034.453-.081.66-.141.207-.059.405-.136.592-.23.188-.092.353-.202.499-.326.145-.124.268-.26.368-.406.1-.146.17-.315.21-.506.042-.192.047-.396.02-.614-.052-.404-.23-.717-.535-.94-.304-.222-.76-.371-1.368-.446l-1.928-.234c-.383-.05-.7-.096-.95-.138-.251-.04-.52-.098-.81-.17-.29-.073-.528-.153-.715-.24-.188-.087-.377-.202-.568-.342-.19-.141-.345-.304-.464-.488-.12-.183-.225-.402-.315-.656-.09-.255-.156-.543-.197-.866-.039-.3-.041-.587-.007-.864s.098-.53.195-.763c.097-.233.222-.453.376-.66.154-.208.333-.398.537-.567.204-.17.432-.323.683-.459.251-.136.518-.256.8-.359.281-.104.583-.191.903-.263l-.317-2.484c-.032-.25.012-.454.134-.612.122-.158.28-.251.476-.28.195-.03.377.016.547.135.168.119.268.3.299.543l.321 2.508c.397-.018.79-.002 1.18.047.39.05.712.109.966.178.254.07.502.149.744.237.385.132.602.388.65.768.01.08.01.163-.002.247-.013.084-.037.162-.074.233-.037.072-.08.138-.13.198-.05.061-.114.112-.194.152-.079.041-.163.068-.254.081-.045.007-.088.01-.131.007-.042-.002-.089-.005-.14-.01-.05-.005-.099-.012-.146-.022-.008.002-.11-.023-.309-.071-.198-.05-.34-.084-.427-.104-.087-.02-.24-.047-.459-.08-.22-.034-.407-.055-.566-.065-.159-.01-.349-.012-.57-.009-.222.005-.439.022-.65.053-.437.064-.818.168-1.144.311-.327.143-.589.344-.786.604-.197.26-.273.562-.229.91.056.436.213.732.47.887.258.156.753.274 1.484.355l1.891.215c1.223.14 2.133.451 2.731.93.599.48.957 1.184 1.076 2.113.142 1.107-.087 2.026-.688 2.756-.6.73-1.461 1.24-2.582 1.53l.314 2.447c.031.242-.02.445-.152.609-.133.163-.3.26-.504.29-.12.018-.237.006-.35-.035-.112-.04-.212-.116-.3-.227-.086-.111-.14-.25-.162-.42l-.314-2.448z" transform="translate(-587 -304) translate(227 210) translate(360 94)"/>
                    <path fill="#0B4178" d="M84.291 230L109 184.396l-48.183-20.294 4.98 15.538s-37.344 14.4-51.72-26.922C-.3 111.396 48.612 100 48.612 100S.416 109.34 2.04 156.613c.763 22.223 9.47 37.34 28.764 48.392 11.453 6.562 26.722 10.766 45.19 5.54L84.29 230z" transform="translate(-587 -304) translate(227 210) translate(360 94)"/>
                    <g transform="translate(-587 -304) translate(227 210) translate(360 94) translate(0 97)">
                        <mask id="kz5wu10edb" fill="#fff">
                            <use xlink:href="#8yyqy6h0ja"/>
                        </mask>
                        <path fill="#70B7F2" d="M83.763 134.736l23.756-44.455-44.964-19.077 5.01 16.056S30.03 101.764 15.68 60.425C1.33 19.086 55.485.481 55.485.481S-1.587 11.658.034 58.95c.762 22.234 13.085 42.727 32.342 53.784 11.434 6.565 26.676 10.77 45.11 5.541l6.277 16.461z" mask="url(#kz5wu10edb)"/>
                    </g>
                    <path fill="#FFC248" d="M261.335 136.11c-3.65 18.135-21.311 29.876-39.445 26.225-18.135-3.65-29.875-21.311-26.225-39.446 3.651-18.134 21.312-29.875 39.446-26.224 18.134 3.651 29.875 21.311 26.224 39.446" transform="translate(-587 -304) translate(227 210) translate(360 94)"/>
                    <path fill="#FFDB94" d="M258.335 131.11c-3.651 18.135-21.312 29.875-39.446 26.225-18.134-3.651-29.874-21.312-26.224-39.445 3.651-18.135 21.312-29.876 39.446-26.225 18.134 3.651 29.874 21.312 26.224 39.446" transform="translate(-587 -304) translate(227 210) translate(360 94)"/>
                    <path fill="#FFF" d="M225.965 99.995c-4.86 0-9.62 1.404-13.768 4.113-5.555 3.627-9.337 9.151-10.65 15.556-1.312 6.404-.002 12.936 3.691 18.392 3.693 5.456 9.318 9.17 15.839 10.46 6.52 1.29 13.17.002 18.726-3.626 5.554-3.626 9.336-9.15 10.65-15.555 1.312-6.405.002-12.936-3.692-18.392-3.692-5.456-9.317-9.17-15.838-10.46-1.65-.326-3.31-.488-4.958-.488m.072 50.266c-1.733 0-3.477-.17-5.213-.512-6.856-1.356-12.77-5.262-16.652-10.997-3.882-5.736-5.26-12.603-3.88-19.336 1.38-6.734 5.357-12.543 11.197-16.355 5.84-3.813 12.833-5.166 19.687-3.81 6.856 1.355 12.77 5.26 16.652 10.996 3.882 5.735 5.26 12.602 3.88 19.336-1.38 6.734-5.356 12.542-11.196 16.355-4.361 2.847-9.366 4.323-14.475 4.323m-5.31-.038c14.44 2.858 28.556-6.36 31.464-20.545 2.908-14.183-6.476-28.046-20.918-30.902-14.442-2.855-28.556 6.361-31.464 20.544-2.908 14.184 6.476 28.048 20.917 30.903m5.282 1.777c-1.826 0-3.677-.177-5.534-.544-15.133-2.993-24.967-17.52-21.92-32.384 3.047-14.863 17.84-24.519 32.972-21.529 15.133 2.992 24.967 17.52 21.92 32.383C250.773 142.966 239.06 152 226.008 152" transform="translate(-587 -304) translate(227 210) translate(360 94)"/>
                    <path fill="#FFF" d="M221.17 136.984c-1.648-.497-3.126-1.15-4.43-1.964-1.305-.812-2.37-1.655-3.191-2.528-.474-.52-.64-1.076-.502-1.67.113-.48.385-.859.82-1.137.434-.28.917-.362 1.448-.246.411.088.804.296 1.179.62.937.845 1.933 1.591 2.989 2.237 1.055.645 2.295 1.123 3.717 1.431.532.116 1.044.196 1.537.243.494.046.978.051 1.455.016.476-.035.919-.117 1.327-.246.408-.128.775-.296 1.103-.502.327-.207.608-.481.84-.82.232-.341.4-.734.504-1.18.194-.826.044-1.575-.447-2.245-.492-.67-1.368-1.316-2.627-1.937l-4-1.961c-.789-.398-1.44-.734-1.952-1.01-.511-.276-1.053-.597-1.625-.965-.57-.366-1.027-.709-1.367-1.025-.34-.317-.663-.686-.97-1.11-.307-.421-.52-.858-.639-1.31-.12-.45-.181-.959-.185-1.523-.002-.565.073-1.178.227-1.839.143-.611.355-1.172.637-1.684.281-.512.614-.956 1-1.333.385-.376.822-.706 1.312-.99.49-.285 1.02-.513 1.59-.684.572-.17 1.18-.29 1.827-.359.646-.068 1.313-.092 2.002-.073.689.02 1.408.084 2.156.195l1.186-5.08c.12-.512.371-.874.754-1.087.383-.211.796-.27 1.242-.172.446.096.806.326 1.081.69.276.363.355.792.24 1.289l-1.198 5.129c.872.276 1.711.614 2.517 1.015.807.4 1.46.768 1.958 1.102.499.333.976.68 1.432 1.04.733.558 1.01 1.226.83 2.002-.04.165-.104.324-.194.479-.09.154-.202.286-.336.396-.133.11-.277.204-.43.284-.154.079-.332.127-.534.144-.202.017-.406.003-.612-.041-.102-.023-.198-.052-.289-.09-.09-.036-.189-.08-.294-.128-.105-.049-.206-.101-.301-.157-.018-.003-.222-.13-.614-.38-.391-.25-.674-.429-.847-.535-.173-.107-.484-.28-.933-.516-.45-.236-.842-.425-1.178-.568-.336-.142-.745-.295-1.23-.461-.482-.166-.964-.301-1.444-.405-.994-.216-1.899-.313-2.714-.29-.816.023-1.534.21-2.157.56-.622.352-1.016.883-1.182 1.593-.208.892-.092 1.59.348 2.093.441.504 1.423 1.12 2.945 1.85l3.933 1.895c2.54 1.228 4.277 2.542 5.21 3.942.934 1.4 1.179 3.05.735 4.95-.528 2.264-1.718 3.872-3.57 4.823-1.853.953-4.101 1.272-6.747.958l-1.17 5.006c-.115.495-.378.85-.788 1.066-.41.215-.847.271-1.31.17-.274-.059-.518-.172-.73-.34-.213-.168-.372-.393-.477-.676-.105-.283-.117-.598-.036-.945l1.17-5.006z" transform="translate(-587 -304) translate(227 210) translate(360 94)"/>
                    <path fill="#FFC248" d="M209.692 105.559c-1.69 8.39-9.86 13.822-18.25 12.133-8.391-1.69-13.823-9.86-12.134-18.25 1.69-8.391 9.86-13.823 18.25-12.134 8.391 1.69 13.823 9.86 12.134 18.25" transform="translate(-587 -304) translate(227 210) translate(360 94)"/>
                    <path fill="#FFDB94" d="M208.692 103.559c-1.69 8.39-9.86 13.822-18.25 12.133-8.391-1.69-13.823-9.86-12.134-18.25 1.69-8.391 9.86-13.823 18.25-12.134 8.391 1.689 13.823 9.86 12.134 18.25" transform="translate(-587 -304) translate(227 210) translate(360 94)"/>
                    <path fill="#FFF" d="M193.986 89.065c-2.13 0-4.216.627-6.034 1.836-2.435 1.618-4.092 4.084-4.667 6.94-.576 2.86-.001 5.773 1.617 8.209 1.619 2.434 4.084 4.092 6.941 4.667 2.858.576 5.772 0 8.207-1.618 2.435-1.619 4.092-4.084 4.667-6.941.576-2.858.001-5.773-1.617-8.207-1.619-2.434-4.084-4.092-6.941-4.668-.724-.145-1.45-.218-2.173-.218m.018 23.935c-.847 0-1.706-.083-2.568-.257-3.399-.684-6.33-2.655-8.254-5.55-1.924-2.894-2.607-6.36-1.923-9.758 1.414-7.026 8.28-11.592 15.307-10.178 7.026 1.415 11.591 8.282 10.177 15.309-1.241 6.163-6.68 10.434-12.739 10.434" transform="translate(-587 -304) translate(227 210) translate(360 94)"/>
                    <path fill="#FFF" d="M192.404 105.762c-.687-.23-1.302-.531-1.845-.906-.545-.376-.988-.765-1.33-1.168-.198-.239-.267-.496-.21-.77.048-.222.161-.396.342-.526.181-.128.382-.166.604-.113.17.042.334.137.49.287.391.39.806.734 1.246 1.032.44.298.956.518 1.549.661.221.053.434.09.64.112.206.021.409.024.607.007.198-.016.382-.054.552-.113.17-.06.324-.137.46-.233.136-.095.253-.221.35-.378.097-.157.167-.338.21-.544.081-.381.018-.727-.186-1.037-.205-.309-.57-.607-1.095-.893l-1.666-.905c-.33-.184-.6-.34-.814-.466-.213-.128-.438-.276-.677-.446-.237-.17-.428-.327-.57-.473-.141-.146-.276-.317-.403-.512-.128-.195-.217-.397-.267-.605-.05-.208-.076-.442-.077-.703-.002-.26.03-.543.095-.849.06-.282.148-.54.265-.777.117-.236.257-.441.417-.615.16-.174.342-.326.546-.458.204-.13.425-.236.663-.314.238-.08.492-.135.761-.167.27-.03.547-.042.835-.033.286.009.586.039.898.09l.494-2.345c.05-.236.154-.403.314-.502.16-.097.332-.123.518-.079.185.044.335.15.45.319.114.167.148.366.1.594l-.5 2.368c.364.127.714.283 1.05.468.336.185.608.355.815.508.208.155.407.315.597.48.306.258.421.566.346.925-.017.076-.044.15-.08.22-.039.072-.085.133-.14.184-.056.05-.116.093-.18.13-.065.037-.138.06-.222.068-.085.007-.17 0-.255-.02-.043-.01-.084-.024-.12-.04l-.123-.06c-.044-.023-.086-.047-.126-.073-.007-.002-.092-.06-.256-.176-.163-.114-.28-.197-.353-.246-.072-.05-.201-.129-.389-.238-.186-.109-.35-.197-.49-.262-.14-.066-.31-.137-.512-.213-.202-.077-.402-.14-.603-.187-.413-.1-.79-.144-1.13-.134-.34.01-.64.097-.899.26-.26.16-.424.406-.493.734-.086.411-.038.734.145.966.185.232.593.517 1.227.854l1.64.874c1.057.567 1.781 1.174 2.17 1.82.39.646.491 1.408.307 2.285-.221 1.045-.717 1.786-1.488 2.226-.772.439-1.71.586-2.811.441l-.488 2.31c-.048.23-.157.393-.328.492-.17.1-.353.126-.546.08-.115-.028-.216-.08-.304-.158-.089-.077-.155-.181-.2-.311-.043-.131-.048-.276-.014-.437l.487-2.31z" transform="translate(-587 -304) translate(227 210) translate(360 94)"/>
                    <path fill="#E59900" d="M176.445 23L152 67.603l49.34 21.07-5.92-17.166s37.544-14.465 51.896 26.762C261.67 139.496 207.096 153 207.096 153s57.491-6.097 55.87-53.26c-.762-22.173-13.088-42.61-32.35-53.638-11.435-6.546-26.68-10.74-45.118-5.526L176.445 23z" transform="translate(-587 -304) translate(227 210) translate(360 94)"/>
                    <path fill="#FFC248" d="M177.862 19L154 63.371l45.164 19.04-5.031-16.025S231.836 51.91 246.25 93.17c14.414 41.26-39.983 59.83-39.983 59.83s57.327-11.156 55.699-58.358c-.765-22.191-13.144-42.645-32.488-53.681-11.484-6.553-26.794-10.75-45.31-5.531L177.862 19z" transform="translate(-587 -304) translate(227 210) translate(360 94)"/>
                    <path fill="#70B7F2" d="M256.69 208.98l-103.342-10.047c-2.582-.251-4.524-2.784-4.335-5.657l4.283-65.507c.187-2.873 2.432-5 5.014-4.749l103.342 10.047c2.583.252 4.524 2.784 4.335 5.658l-4.282 65.506c-.188 2.874-2.434 5-5.015 4.749" transform="translate(-587 -304) translate(227 210) translate(360 94)"/>
                    <path fill="#5574D8" d="M256.634 209.98l-73.53-7.495c-2.599-.252 44.742-71.737 47.339-71.485l31.183 2.722c2.598.252 4.55 2.797 4.361 5.683l-4.308 65.805c-.189 2.886-2.448 5.022-5.045 4.77" transform="translate(-587 -304) translate(227 210) translate(360 94)"/>
                    <path fill="#2E7CBC" d="M254.723 205.992l-99.93-9.802c-1.065-.104-1.865-1.158-1.788-2.353l4.203-64.853c.077-1.196 1.003-2.08 2.068-1.976l99.93 9.801c1.066.104 1.866 1.158 1.789 2.354l-4.203 64.853c-.078 1.195-1.003 2.08-2.069 1.976" transform="translate(-587 -304) translate(227 210) translate(360 94)"/>
                    <path fill="#FFF" d="M179.61 169.998l-15.36-1.338c-.142-.013-.254-.088-.25-.17l.126-2.365c.004-.08.122-.135.265-.123l15.36 1.338c.141.013.253.088.249.17l-.126 2.364c-.004.081-.122.137-.265.124" transform="translate(-587 -304) translate(227 210) translate(360 94)"/>
                    <path fill="#0B4178" d="M188.426 184.999l-26.18-2.325c-.146-.013-.256-.14-.245-.28l.292-4.159c.01-.141.135-.246.28-.234l26.182 2.326c.144.012.254.138.244.28l-.292 4.158c-.01.142-.136.246-.281.234M205.454 186.999l-12.22-1.176c-.139-.013-.243-.142-.233-.29l.278-4.29c.01-.147.129-.255.267-.242l12.22 1.176c.139.013.243.143.233.29l-.278 4.29c-.01.147-.129.255-.267.242" transform="translate(-587 -304) translate(227 210) translate(360 94)"/>
                    <path fill="#FFF" d="M198.61 171.998l-15.36-1.338c-.142-.013-.254-.088-.25-.17l.126-2.365c.004-.08.122-.135.265-.123l15.36 1.338c.141.013.253.088.249.17l-.126 2.365c-.004.08-.122.136-.265.123M217.61 172.998l-15.36-1.338c-.142-.013-.254-.089-.25-.17l.126-2.365c.004-.08.122-.136.265-.123l15.36 1.338c.141.013.253.088.249.17l-.126 2.364c-.004.081-.122.137-.265.124M235.61 174.998l-15.36-1.338c-.142-.013-.254-.088-.25-.17l.126-2.365c.004-.08.122-.136.265-.123l15.36 1.338c.141.013.253.088.249.17l-.126 2.364c-.004.081-.122.137-.265.124M240.748 146.194c.156-1.743 1.014-3.237 2.252-4.218-.931-1.074-2.23-1.805-3.721-1.95-3.16-.307-5.96 2.118-6.254 5.418-.294 3.299 2.03 6.222 5.189 6.53 1.49.145 2.896-.324 4.001-1.2-1.043-1.203-1.622-2.837-1.467-4.58" transform="translate(-587 -304) translate(227 210) translate(360 94)"/>
                    <path fill="#70B7F2" d="M249.556 141.026c-1.557-.145-3.025.323-4.178 1.2-1.293.98-2.19 2.475-2.352 4.218-.162 1.743.443 3.377 1.532 4.58.973 1.074 2.33 1.805 3.886 1.95 3.3.307 6.223-2.119 6.53-5.418.307-3.3-2.12-6.223-5.418-6.53" transform="translate(-587 -304) translate(227 210) translate(360 94)"/>
                    <path fill="#FFC248" d="M181.726 154.993l-14.49-1.11c-1.327-.102-2.33-1.284-2.229-2.626l.538-7.186.135-1.809c.1-1.342 1.268-2.357 2.594-2.255l14.49 1.11c1.326.102 2.33 1.284 2.229 2.625l-.673 8.996c-.101 1.342-1.268 2.357-2.594 2.255" transform="translate(-587 -304) translate(227 210) translate(360 94)"/>
                    <path fill="#FFF" d="M184.947 146L166 144.571 166.053 144 185 145.429zM183.947 151L165 149.571 165.053 149 184 150.429z" transform="translate(-587 -304) translate(227 210) translate(360 94)"/>
                    <path fill="#FFF" d="M169.746 154L169 153.952 170.254 141 171 141.048zM179.813 154L179 153.958 180.187 141 181 141.042z" transform="translate(-587 -304) translate(227 210) translate(360 94)"/>
                </g>
            </g>
        </g>
    </g>
</svg>
