<svg xmlns="http://www.w3.org/2000/svg" xmlns:xlink="http://www.w3.org/1999/xlink" width="218" height="191" viewBox="0 0 218 191">
    <defs>
        <path id="vjzupeyyaa" d="M0 190.929L217.422 190.929 217.422 0 0 0z"/>
    </defs>
    <g fill="none" fill-rule="evenodd">
        <g>
            <g transform="translate(-611 -270) translate(611 270)">
                <path fill="#C2CFDD" d="M87.214 37.812c-2.55 0-4.624 2.075-4.624 4.624v39.11c0 2.55 2.074 4.623 4.624 4.623h33.864l13.893-14.253v-29.48c0-2.55-2.074-4.624-4.623-4.624H87.214zm35.215 51.557H87.214c-4.315 0-7.824-3.509-7.824-7.822V42.436c0-4.314 3.51-7.824 7.824-7.824h43.134c4.314 0 7.823 3.51 7.823 7.824v30.782L122.43 89.369z"/>
                <path fill="#C2CFDD" d="M122.548 87.471c-.883 0-1.6-.717-1.6-1.6v-9.425c0-1.198.467-2.325 1.316-3.171.846-.844 1.968-1.308 3.163-1.308h.01l9.229.03c.884.004 1.598.723 1.595 1.606-.003.882-.72 1.594-1.6 1.594h-.006l-9.226-.03h-.003c-.34 0-.661.133-.902.374-.242.241-.376.563-.376.905v9.425c0 .883-.717 1.6-1.6 1.6"/>
                <mask id="l2rcd23jub" fill="#fff">
                    <use xlink:href="#vjzupeyyaa"/>
                </mask>
                <path fill="#C2CFDD" d="M82.438 51.928L135.256 51.928 135.256 48.728 82.438 48.728zM97.33 60.367h-6.354c-.884 0-1.6-.717-1.6-1.6 0-.883.716-1.6 1.6-1.6h6.354c.883 0 1.6.717 1.6 1.6 0 .883-.717 1.6-1.6 1.6M122.945 60.367h-18.07c-.883 0-1.6-.717-1.6-1.6 0-.883.717-1.6 1.6-1.6h18.07c.883 0 1.6.717 1.6 1.6 0 .883-.717 1.6-1.6 1.6M97.33 68.905h-6.354c-.884 0-1.6-.716-1.6-1.6 0-.883.716-1.6 1.6-1.6h6.354c.883 0 1.6.717 1.6 1.6 0 .884-.717 1.6-1.6 1.6M122.945 68.905h-18.07c-.883 0-1.6-.716-1.6-1.6 0-.883.717-1.6 1.6-1.6h18.07c.883 0 1.6.717 1.6 1.6 0 .884-.717 1.6-1.6 1.6M97.33 76.848h-6.354c-.884 0-1.6-.717-1.6-1.6 0-.884.716-1.6 1.6-1.6h6.354c.883 0 1.6.716 1.6 1.6 0 .883-.717 1.6-1.6 1.6M122.945 76.848h-18.07c-.883 0-1.6-.717-1.6-1.6 0-.884.717-1.6 1.6-1.6h18.07c.883 0 1.6.716 1.6 1.6 0 .883-.717 1.6-1.6 1.6M145.435 96.392c-2.104 0-3.812-1.706-3.812-3.811 0-2.106 1.708-3.811 3.812-3.811 2.105 0 3.812 1.705 3.812 3.81 0 2.106-1.707 3.812-3.812 3.812M145.35 82.9c-5.698 0-10.316 4.618-10.316 10.315 0 8.317 10.316 19.047 10.316 19.047s10.314-10.259 10.314-19.047c0-5.697-4.617-10.315-10.314-10.315" mask="url(#l2rcd23jub)"/>
                <path fill="#C2CFDD" d="M108.624 116.487c-29.745.003-54.176-23.95-54.653-53.797-.12-7.413 1.224-14.625 3.992-21.438.249-.614.948-.911 1.563-.66.614.249.91.949.66 1.563-2.645 6.512-3.929 13.408-3.815 20.496.456 28.536 23.817 51.436 52.253 51.436.284 0 .565-.002.848-.007 8.3-.133 16.204-2.147 23.496-5.989.585-.307 1.312-.084 1.621.503.31.586.084 1.312-.502 1.62-7.628 4.02-15.897 6.127-24.576 6.266-.295.005-.594.007-.887.007M158.609 82.082c-.143 0-.287-.025-.428-.08-.62-.236-.93-.929-.693-1.548 2.373-6.214 3.522-12.767 3.414-19.476-.224-13.96-5.87-27-15.9-36.713-10.028-9.713-23.21-14.93-37.202-14.717-7.612.122-14.924 1.839-21.733 5.103-.596.286-1.313.035-1.6-.563-.287-.598-.035-1.315.563-1.601 7.123-3.415 14.77-5.211 22.73-5.339.298-.004.594-.007.89-.007 29.742 0 54.174 23.952 54.652 53.798.112 7.017-1.09 13.87-3.572 20.37-.183.48-.638.773-1.121.773" mask="url(#l2rcd23jub)"/>
                <path fill="#C2CFDD" d="M163.63 78.267c.038 2.324-1.817 4.239-4.14 4.275-2.325.038-4.24-1.816-4.277-4.14-.036-2.324 1.818-4.239 4.141-4.276 2.325-.037 4.238 1.817 4.276 4.141M63.007 42.948c.037 2.324-1.817 4.239-4.141 4.276-2.324.037-4.239-1.817-4.276-4.141-.036-2.324 1.817-4.239 4.141-4.276 2.325-.037 4.239 1.817 4.276 4.141M66.913 6.801c-5.026 0-9.115 4.09-9.115 9.116 0 6.376 6.72 14.553 9.132 17.282 2.421-2.646 9.099-10.55 9.099-17.282 0-5.027-4.09-9.116-9.116-9.116zm-.02 29.874l-.845-.88c-.435-.453-10.65-11.18-10.65-19.878 0-6.35 5.165-11.516 11.515-11.516 6.35 0 11.516 5.166 11.516 11.516 0 9.18-10.234 19.464-10.67 19.897l-.865.861z" mask="url(#l2rcd23jub)"/>
                <path fill="#C2CFDD" d="M67 12.671c-1.44 0-2.612 1.171-2.612 2.611 0 1.44 1.172 2.611 2.612 2.611 1.44 0 2.612-1.172 2.612-2.61 0-1.44-1.172-2.612-2.612-2.612m0 7.622c-2.763 0-5.012-2.248-5.012-5.01 0-2.764 2.25-5.012 5.012-5.012 2.764 0 5.012 2.248 5.012 5.011S69.764 20.293 67 20.293" mask="url(#l2rcd23jub)"/>
                <path fill="#E4ECF2" d="M171.974 141.418h-10.75c-.54 0-.976-.437-.976-.975v-.952c0-.538.437-.975.975-.975h10.751c.539 0 .976.437.976.975v.952c0 .538-.437.975-.976.975" mask="url(#l2rcd23jub)"/>
                <path fill="#C2CFDD" d="M161.224 139.316c-.097 0-.176.079-.176.176v.95c0 .098.079.176.176.176h10.75c.098 0 .176-.078.176-.175v-.951c0-.097-.078-.176-.175-.176h-10.751zm10.75 2.902h-10.75c-.98 0-1.776-.796-1.776-1.775v-.951c0-.98.796-1.776 1.776-1.776h10.75c.98 0 1.776.796 1.776 1.776v.95c0 .98-.796 1.776-1.775 1.776z" mask="url(#l2rcd23jub)"/>
                <path fill="#E4ECF2" d="M170.17 159.426h-7.143c-.781 0-1.415-.633-1.415-1.415v-13.443h9.974v13.443c0 .782-.634 1.415-1.415 1.415" mask="url(#l2rcd23jub)"/>
                <path fill="#C2CFDD" d="M162.413 145.368v12.644c0 .339.276.614.615.614h7.142c.34 0 .616-.275.616-.614v-12.644h-8.373zm7.757 14.858h-7.142c-1.222 0-2.215-.993-2.215-2.214v-13.444c0-.443.357-.8.8-.8h9.973c.443 0 .8.357.8.8v13.444c0 1.22-.993 2.214-2.216 2.214z" mask="url(#l2rcd23jub)"/>
                <path fill="#C2CFDD" d="M172.467 150.373h-11.884c-.443 0-.8-.357-.8-.8 0-.442.357-.8.8-.8h11.884c.443 0 .8.358.8.8 0 .443-.357.8-.8.8" mask="url(#l2rcd23jub)"/>
                <path fill="#C2CFDD" d="M166.703 160.1c-.443 0-.8-.357-.8-.8v-15.353c0-.442.357-.8.8-.8.442 0 .8.358.8.8v15.354c0 .442-.358.8-.8.8M164.252 160.1c-.443 0-.8-.357-.8-.8v-15.353c0-.442.357-.8.8-.8.442 0 .8.358.8.8v15.354c0 .442-.358.8-.8.8M169.176 160.1c-.442 0-.8-.357-.8-.8v-15.353c0-.442.358-.8.8-.8.442 0 .8.358.8.8v15.354c0 .442-.358.8-.8.8" mask="url(#l2rcd23jub)"/>
                <path fill="#C2CFDD" d="M172.467 156.11h-11.884c-.443 0-.8-.358-.8-.8 0-.442.357-.8.8-.8h11.884c.443 0 .8.358.8.8 0 .442-.357.8-.8.8M171.709 147.728c-.178 0-.357-.06-.506-.18-.342-.28-.393-.784-.113-1.126l1.941-2.376c.279-.343.783-.394 1.127-.113.341.279.392.783.112 1.125l-1.941 2.376c-.158.194-.388.294-.62.294M161.53 147.728c-.232 0-.462-.1-.62-.294l-1.942-2.376c-.28-.342-.228-.846.113-1.125.343-.281.847-.23 1.127.113l1.94 2.376c.28.342.23.846-.112 1.125-.15.122-.328.181-.506.181" mask="url(#l2rcd23jub)"/>
                <path fill="#C2CFDD" d="M161.624 145.655c-.443 0-.8-.358-.8-.8v-3.16c0-.443.357-.8.8-.8.442 0 .8.357.8.8v3.16c0 .442-.358.8-.8.8M171.532 145.655c-.442 0-.8-.358-.8-.8v-3.16c0-.443.358-.8.8-.8.443 0 .8.357.8.8v3.16c0 .442-.357.8-.8.8M195.428 97.993h-9.912c-.328 0-.621-.2-.743-.503-.61-1.527-1.814-2.405-3.234-2.286-1.299.087-2.376.966-2.681 2.182-.088.357-.409.607-.776.607h-3.304c-.442 0-.8-.358-.8-.8 0-.443.358-.8.8-.8h2.727c.643-1.573 2.151-2.666 3.925-2.786 1.554-.1 3.504.59 4.603 2.786h9.395c.442 0 .8.357.8.8 0 .442-.358.8-.8.8M184.137 22.856h-6.36c-.442 0-.8-.357-.8-.8 0-.442.358-.8.8-.8h5.643c.324-1.478 1.526-2.331 2.654-2.514.828-.131 1.768.077 2.484.74.878-1.308 2.377-2.149 4.008-2.1 1.519.037 3.297.901 4.005 3.171h1.593c.443 0 .8.358.8.8 0 .442-.357.8-.8.8h-2.214c-.382 0-.71-.27-.785-.643-.446-2.236-1.993-2.513-2.638-2.528l-.064-.001c-1.212 0-2.616.8-3.008 2.36-.085.346-.39.593-.744.606-.357.036-.678-.21-.79-.546-.393-1.178-1.318-1.123-1.591-1.08-.671.11-1.393.698-1.393 1.735 0 .443-.358.8-.8.8M200.977 22.153h-.703c-.443 0-.8-.358-.8-.8 0-.442.357-.8.8-.8h.703c.442 0 .8.358.8.8 0 .442-.358.8-.8.8M6.017 38.923H.8c-.442 0-.8-.357-.8-.8 0-.442.358-.8.8-.8h4.466c.346-2.73 2.446-4.3 4.41-4.617 1.834-.301 3.487.393 4.558 1.813 1.38-2.639 4.147-4.367 7.219-4.299 2.643.063 5.76 1.637 6.856 5.815h3.425c.442 0 .8.357.8.8 0 .441-.358.8-.8.8h-4.061c-.381 0-.71-.27-.784-.644-.635-3.172-2.682-5.104-5.475-5.17-2.475-.073-5.48 1.58-6.292 4.83-.087.345-.39.592-.746.605-.358.048-.677-.209-.789-.546-.704-2.112-2.353-2.637-3.655-2.426-1.5.244-3.115 1.549-3.115 3.84 0 .442-.358.8-.8.8M41.6 37.634h-6c-.442 0-.8-.357-.8-.8 0-.442.358-.8.8-.8h6c.443 0 .8.358.8.8 0 .443-.357.8-.8.8M205.854 34.412c-.34 0-.645-.215-.756-.54-.519-1.507-2.149-1.396-2.332-1.377-.442.04-.83-.277-.875-.715-.046-.438.269-.83.706-.877.775-.082 2.16.089 3.144 1.05.796-1.018 2.041-1.424 2.768-1.491.43-.055.83.28.872.72.042.44-.281.83-.721.872-.067.008-1.74.203-2.02 1.705-.066.357-.365.625-.727.651-.02.002-.04.002-.059.002M36.427 3.958c-.34 0-.646-.216-.756-.54-.519-1.51-2.151-1.397-2.332-1.378-.43.046-.83-.278-.875-.715-.046-.438.268-.829.706-.877.772-.082 2.16.086 3.143 1.05C37.11.48 38.355.074 39.083.008c.43-.06.829.28.87.72.043.44-.28.83-.72.871-.067.008-1.74.203-2.02 1.705-.066.358-.365.625-.728.651-.019.002-.039.003-.058.003M213.892 39.466c-.34 0-.645-.216-.756-.54-.535-1.559-2.254-1.388-2.327-1.38-.442.044-.834-.27-.882-.708-.048-.44.27-.835.709-.883.775-.081 2.16.089 3.143 1.05.797-1.018 2.041-1.423 2.769-1.49.452-.055.83.282.87.72.042.44-.28.831-.72.872-.066.008-1.74.203-2.02 1.705-.066.357-.365.625-.727.651l-.059.003" mask="url(#l2rcd23jub)"/>
                <path fill="#E4ECF2" d="M52.148 190.929h69.706c3.593 0 6.507-2.369 6.507-5.291v-2.003h21.398c3.594 0 6.507-2.37 6.507-5.291v-4.816c0-2.922-2.913-5.291-6.507-5.291H80.054c-3.594 0-6.508 2.369-6.508 5.291v2.002H52.148c-3.594 0-6.507 2.37-6.507 5.292v4.816c0 2.922 2.913 5.29 6.507 5.29" mask="url(#l2rcd23jub)"/>
                <path fill="#C2CFDD" d="M52.812 160.365H8.87c-.442 0-.8-.358-.8-.8 0-.443.358-.8.8-.8h43.942c.442 0 .8.357.8.8 0 .442-.358.8-.8.8M214.58 160.365H58.19c-.442 0-.8-.358-.8-.8 0-.443.358-.8.8-.8h156.39c.442 0 .8.357.8.8 0 .442-.358.8-.8.8M100.008 184.637h-4.727c-.443 0-.8-.357-.8-.8 0-.442.357-.8.8-.8h4.727c.442 0 .8.358.8.8 0 .443-.358.8-.8.8M88.662 184.637H44.696c-.443 0-.8-.357-.8-.8 0-.442.357-.8.8-.8h43.966c.442 0 .8.358.8.8 0 .443-.358.8-.8.8M202.267 189.481h-37.2c-.443 0-.8-.357-.8-.8 0-.442.357-.8.8-.8h37.2c.442 0 .8.358.8.8 0 .443-.358.8-.8.8M138.302 177.073h-10.408c-.443 0-.8-.357-.8-.8 0-.442.357-.8.8-.8h10.408c.442 0 .8.358.8.8 0 .443-.358.8-.8.8M122.228 177.073H85.352c-.441 0-.8-.357-.8-.8 0-.442.359-.8.8-.8h36.876c.442 0 .8.358.8.8 0 .443-.358.8-.8.8" mask="url(#l2rcd23jub)"/>
                <path fill="#C2CFDD" d="M209.461 160.407c-.208 0-.416-.08-.573-.242-.308-.315-.302-.821.015-1.13 1.733-1.693 1.337-3.77.388-5.149-.847-1.231-2.378-2.168-3.663-1.578-.303.139-.661.077-.897-.158-.238-.235-.304-.593-.167-.896.724-1.618.613-3.291-.3-4.473-.722-.937-1.83-1.38-2.963-1.194-.261.042-.531-.046-.714-.242-.183-.194-.257-.467-.197-.727.286-1.236-.117-2.425-1.078-3.18-1.052-.832-2.5-.95-3.77-.314-.364.18-.805.063-1.027-.277-1.107-1.69-2.931-1.824-4.156-1.426-1.153.376-2.355 1.39-2.27 3.113.019.381-.235.723-.605.815-.376.095-.753-.088-.917-.432-.435-.915-1.263-1.485-2.275-1.565-1.05-.084-2.099.39-2.661 1.209-.176.256-.483.384-.792.336-.307-.052-.556-.276-.639-.576-.608-2.206-2.75-2.707-3.392-2.808-1.321-.21-2.556.14-3.016.84-.244.37-.74.472-1.108.23-.37-.243-.472-.74-.23-1.109.82-1.247 2.624-1.856 4.602-1.541 1.49.233 3.228 1.078 4.184 2.747.878-.674 2.006-1.017 3.179-.923.907.072 1.721.394 2.381.924.506-1.286 1.59-2.301 3.064-2.781 1.74-.565 4.054-.279 5.584 1.527 1.673-.597 3.481-.328 4.855.753 1.187.935 1.816 2.297 1.778 3.77 1.341.075 2.583.729 3.45 1.852 1.009 1.308 1.337 3.003.953 4.723 1.495.004 3.05.89 4.126 2.454 1.257 1.828 1.857 4.811-.59 7.2-.156.152-.357.228-.559.228M179.596 149.21c0 .618-.501 1.118-1.118 1.118-.618 0-1.118-.5-1.118-1.117s.5-1.117 1.118-1.117c.617 0 1.118.5 1.118 1.117M155.618 156.274c0 .617-.5 1.117-1.117 1.117-.618 0-1.118-.5-1.118-1.117s.5-1.118 1.118-1.118c.616 0 1.117.501 1.117 1.118M193.062 156.008c0 .616-.5 1.117-1.117 1.117s-1.118-.5-1.118-1.117.5-1.117 1.118-1.117c.617 0 1.117.5 1.117 1.117" mask="url(#l2rcd23jub)"/>
                <path fill="#C2CFDD" d="M198.383 145.832c0 .617-.5 1.118-1.117 1.118-.618 0-1.118-.501-1.118-1.118 0-.617.5-1.117 1.118-1.117.616 0 1.117.5 1.117 1.117M185.501 153.946c0 .617-.5 1.118-1.117 1.118s-1.118-.501-1.118-1.118c0-.617.5-1.117 1.118-1.117.617 0 1.117.5 1.117 1.117" mask="url(#l2rcd23jub)"/>
                <path fill="#FFF" d="M50.378 92.963c0 7.35-5.958 13.31-13.31 13.31-7.349 0-13.308-5.96-13.308-13.31 0-7.35 5.96-13.309 13.309-13.309 7.351 0 13.31 5.959 13.31 13.31" mask="url(#l2rcd23jub)"/>
                <path fill="#C2CFDD" d="M37.07 80.655c-6.787 0-12.31 5.521-12.31 12.308 0 6.788 5.523 12.31 12.31 12.31 6.786 0 12.309-5.522 12.309-12.31 0-6.787-5.523-12.308-12.31-12.308m0 26.617c-7.889 0-14.309-6.419-14.309-14.309s6.42-14.308 14.31-14.308c7.89 0 14.309 6.418 14.309 14.308s-6.42 14.31-14.31 14.31" mask="url(#l2rcd23jub)"/>
                <path fill="#FFF" d="M30.31 97.5h13.548c.493 0 .892-.4.892-.893V90.29c0-1.167-.946-2.113-2.114-2.113H31.531c-1.168 0-2.113.946-2.113 2.113v6.317c0 .492.399.892.892.892" mask="url(#l2rcd23jub)"/>
                <path fill="#C2CFDD" d="M31.532 88.976c-.724 0-1.315.59-1.315 1.315v6.316c0 .05.043.092.093.092h13.549c.05 0 .092-.042.092-.092V90.29c0-.725-.59-1.315-1.314-1.315H31.532zM43.859 98.3h-13.55c-.932 0-1.692-.76-1.692-1.692V90.29c0-1.607 1.307-2.915 2.915-2.915h11.105c1.607 0 2.914 1.308 2.914 2.915v6.316c0 .933-.76 1.692-1.692 1.692z" mask="url(#l2rcd23jub)"/>
                <path fill="#FFF" d="M38.462 97.355c0 1.116.906 2.021 2.022 2.021 1.117 0 2.023-.905 2.023-2.021 0-1.117-.906-2.023-2.023-2.023-1.116 0-2.022.906-2.022 2.023" mask="url(#l2rcd23jub)"/>
                <path fill="#C2CFDD" d="M40.484 96.132c-.674 0-1.222.549-1.222 1.222 0 .674.548 1.223 1.222 1.223.674 0 1.222-.55 1.222-1.223s-.548-1.222-1.222-1.222m0 4.045c-1.556 0-2.822-1.266-2.822-2.823 0-1.556 1.266-2.822 2.822-2.822s2.822 1.266 2.822 2.822c0 1.557-1.266 2.823-2.822 2.823" mask="url(#l2rcd23jub)"/>
                <path fill="#FFF" d="M31.462 97.355c0 1.116.906 2.021 2.022 2.021 1.117 0 2.023-.905 2.023-2.021 0-1.117-.906-2.023-2.023-2.023-1.116 0-2.022.906-2.022 2.023" mask="url(#l2rcd23jub)"/>
                <path fill="#C2CFDD" d="M33.484 96.132c-.674 0-1.222.549-1.222 1.222 0 .674.548 1.223 1.222 1.223.674 0 1.222-.55 1.222-1.223s-.548-1.222-1.222-1.222m0 4.045c-1.556 0-2.822-1.266-2.822-2.823 0-1.556 1.266-2.822 2.822-2.822s2.822 1.266 2.822 2.822c0 1.557-1.266 2.823-2.822 2.823" mask="url(#l2rcd23jub)"/>
                <path fill="#FFF" d="M44.607 92.51L30.018 92.51" mask="url(#l2rcd23jub)"/>
                <path fill="#C2CFDD" d="M30.018 93.31L44.606 93.31 44.606 91.71 30.018 91.71z" mask="url(#l2rcd23jub)"/>
                <path fill="#FFF" d="M40.122 88.176L40.122 92.51" mask="url(#l2rcd23jub)"/>
                <path fill="#C2CFDD" d="M39.322 92.51L40.922 92.51 40.922 88.177 39.322 88.177z" mask="url(#l2rcd23jub)"/>
                <path fill="#FFF" d="M34.639 88.176L34.639 92.51" mask="url(#l2rcd23jub)"/>
                <path fill="#C2CFDD" d="M33.84 92.51L35.44 92.51 35.44 88.177 33.84 88.177zM36.666 155.751h.659v-46.597h-.66v46.597zm-1.6 1.6h3.86v-49.797h-3.86v49.797z" mask="url(#l2rcd23jub)"/>
                <path fill="#FFF" d="M34.359 109.108L39.63 109.108 39.63 106.095 34.359 106.095z" mask="url(#l2rcd23jub)"/>
                <path fill="#C2CFDD" d="M35.16 108.308h3.672v-1.413H35.16v1.413zm-1.6 1.6h6.871v-4.613H33.56v4.613z" mask="url(#l2rcd23jub)"/>
                <path fill="#FFF" d="M45.42 159.09H28.57v-2.019c0-.746.606-1.352 1.352-1.352H44.07c.746 0 1.35.606 1.35 1.352v2.019z" mask="url(#l2rcd23jub)"/>
                <path fill="#C2CFDD" d="M29.371 158.29h15.25v-1.219c0-.304-.248-.552-.552-.552H29.922c-.303 0-.55.248-.55.552v1.219zm16.85 1.6H27.77v-2.819c0-1.187.965-2.152 2.15-2.152H44.07c1.186 0 2.151.965 2.151 2.152v2.819z" mask="url(#l2rcd23jub)"/>
                <path fill="#FFF" d="M42.489 138.516H31.65c-1.513 0-2.739-1.226-2.739-2.739v-19.174c0-1.512 1.226-2.739 2.74-2.739h10.838c1.512 0 2.739 1.227 2.739 2.739v19.174c0 1.513-1.227 2.74-2.74 2.74" mask="url(#l2rcd23jub)"/>
                <path fill="#C2CFDD" d="M31.65 114.664c-1.07 0-1.939.87-1.939 1.94v19.174c0 1.07.87 1.938 1.94 1.938h10.838c1.07 0 1.939-.869 1.939-1.938v-19.175c0-1.07-.87-1.94-1.94-1.94H31.65zm10.839 24.652H31.65c-1.95 0-3.539-1.587-3.539-3.538v-19.175c0-1.952 1.588-3.54 3.54-3.54h10.838c1.95 0 3.539 1.588 3.539 3.54v19.175c0 1.95-1.588 3.538-3.54 3.538z" mask="url(#l2rcd23jub)"/>
                <path fill="#E4ECF2" d="M32.325 134.526L41.902 134.526 41.902 118.431 32.325 118.431z" mask="url(#l2rcd23jub)"/>
                <path fill="#C2CFDD" d="M91.183 149.332h58.625v-14.064c0-1.934-1.574-3.509-3.508-3.509H94.692c-1.934 0-3.509 1.575-3.509 3.509v14.064zm59.425 1.6H90.383c-.442 0-.8-.358-.8-.8v-14.864c0-2.818 2.291-5.109 5.109-5.109H146.3c2.817 0 5.108 2.291 5.108 5.109v14.864c0 .442-.358.8-.8.8z" mask="url(#l2rcd23jub)"/>
                <path fill="#FFF" d="M151.928 153.516H88.836c-1.139 0-2.062-.924-2.062-2.063v-1.965c0-1.139.923-2.063 2.062-2.063h63.092c1.14 0 2.063.924 2.063 2.063v1.965c0 1.14-.923 2.063-2.063 2.063" mask="url(#l2rcd23jub)"/>
                <path fill="#C2CFDD" d="M88.837 148.225c-.697 0-1.263.566-1.263 1.263v1.965c0 .696.566 1.262 1.263 1.262h63.092c.696 0 1.262-.566 1.262-1.262v-1.965c0-.697-.566-1.263-1.262-1.263H88.837zm63.092 6.09H88.837c-1.58 0-2.863-1.284-2.863-2.862v-1.965c0-1.58 1.284-2.863 2.863-2.863h63.092c1.578 0 2.862 1.284 2.862 2.863v1.965c0 1.578-1.284 2.862-2.862 2.862zM150.608 137.239H90.383c-.442 0-.8-.358-.8-.8 0-.442.358-.8.8-.8h60.225c.442 0 .8.358.8.8 0 .442-.358.8-.8.8M150.608 140.905H90.383c-.442 0-.8-.358-.8-.8 0-.443.358-.8.8-.8h60.225c.442 0 .8.357.8.8 0 .442-.358.8-.8.8M150.608 144.683H90.383c-.442 0-.8-.358-.8-.8 0-.443.358-.8.8-.8h60.225c.442 0 .8.357.8.8 0 .442-.358.8-.8.8" mask="url(#l2rcd23jub)"/>
                <path fill="#C2CFDD" d="M94.5 160.067L96.952 160.067 96.952 153.262 94.5 153.262zM144.236 160.067L146.689 160.067 146.689 153.262 144.236 153.262zM150.709 145.701c-.11 0-.22-.022-.327-.07-.403-.18-.584-.654-.402-1.057.62-1.383 1.724-2.413 2.953-2.756.56-.156 1.12-.166 1.654-.037.193-.624.603-1.205 1.2-1.673 1.273-1 3.06-1.235 4.44-.587.4.188.572.664.385 1.064-.187.4-.66.572-1.064.384-.973-.456-2.122-.114-2.774.398-.255.2-.832.74-.69 1.449.063.319-.074.646-.346.825-.273.179-.627.176-.895-.01-.466-.324-.965-.414-1.48-.272-.765.214-1.502.93-1.924 1.87-.133.296-.424.472-.73.472" mask="url(#l2rcd23jub)"/>
            </g>
        </g>
    </g>
</svg>
