<svg width="17" height="17" viewBox="0 0 10 14" fill="none" xmlns="http://www.w3.org/2000/svg">
<path d="M0.657029 0.599994L0.657029 13.4C0.657029 13.4663 0.683368 13.5299 0.730252 13.5768C0.777136 13.6237 0.840726 13.65 0.907029 13.65L3.25703 13.65C3.32333 13.65 3.38692 13.6237 3.43381 13.5768C3.48069 13.5299 3.50703 13.4663 3.50703 13.4C3.50703 12.9849 3.67191 12.5869 3.96541 12.2934C4.2589 11.9999 4.65697 11.835 5.07203 11.835C5.48709 11.835 5.88516 11.9999 6.17865 12.2934C6.47215 12.5869 6.63703 12.9849 6.63703 13.4C6.63703 13.4663 6.66337 13.5299 6.71025 13.5768C6.75714 13.6237 6.82073 13.65 6.88703 13.65L9.09303 13.65C9.15933 13.65 9.22292 13.6237 9.26981 13.5768C9.31669 13.5299 9.34303 13.4663 9.34303 13.4L9.34303 0.599994C9.34303 0.53369 9.31669 0.470101 9.26981 0.423217C9.22292 0.376333 9.15933 0.349994 9.09303 0.349994L6.88703 0.349994C6.82073 0.349994 6.75714 0.376333 6.71025 0.423217C6.66337 0.470101 6.63703 0.533689 6.63703 0.599994C6.63703 1.01506 6.47215 1.41312 6.17865 1.70662C5.88516 2.00011 5.48709 2.16499 5.07203 2.16499C4.65697 2.16499 4.2589 2.00011 3.96541 1.70662C3.67191 1.41312 3.50703 1.01506 3.50703 0.599994C3.50703 0.533689 3.48069 0.470101 3.43381 0.423217C3.38692 0.376333 3.32333 0.349994 3.25703 0.349994L0.907029 0.349994C0.840726 0.349994 0.777137 0.376333 0.730252 0.423217C0.683369 0.470101 0.657029 0.533689 0.657029 0.599994ZM3.02223 13.15L1.15703 13.15L1.15703 0.849994L3.02203 0.849994C3.08175 1.3427 3.31706 1.79802 3.68564 2.13191C4.06542 2.47596 4.55957 2.6665 5.07203 2.6665C5.58449 2.6665 6.07863 2.47596 6.45842 2.13191C6.827 1.79802 7.06231 1.3427 7.12202 0.849994L8.84303 0.849994L8.84303 13.15L7.12222 13.15C7.06251 12.6573 6.8272 12.202 6.45862 11.8681C6.07883 11.524 5.58469 11.3335 5.07223 11.3335C4.55977 11.3335 4.06562 11.524 3.68584 11.8681C3.31726 12.202 3.08195 12.6573 3.02223 13.15Z" fill="#C2CFDD" stroke="#C2CFDD" stroke-width="0.1"/>
</svg>
