<svg xmlns="http://www.w3.org/2000/svg" xmlns:xlink="http://www.w3.org/1999/xlink" width="56" height="38" viewBox="0 0 56 38">
    <defs>
        <path id="63649ztf8a" d="M0 0.296L48.641 0.296 48.641 23.433 0 23.433z"/>
    </defs>
    <g fill="none" fill-rule="evenodd">
        <g>
            <g>
                <g>
                    <path fill="#0B4178" d="M27.28 15.1c.035-.033-.006-.054-.085-.067h-.215l.3.068z" transform="translate(-234 -320) translate(234 320) translate(4.8 12.667)"/>
                    <g transform="translate(-234 -320) translate(234 320) translate(4.8 12.667) translate(0 .02)">
                        <mask id="8my19ie1hb" fill="#fff">
                            <use xlink:href="#63649ztf8a"/>
                        </mask>
                        <path fill="#0B4178" d="M48.488 18.288c.414-.966-.042-2.081-1.018-2.491l-10.678-4.483c-1.59-.79-3.996-.955-6.3-.873l2.212-3.869h4.146c.555 0 1.006-.654 1.006-1.457S37.405 3.66 36.85 3.66H26.147c-.236 0-.448.152-.598.429-.273.506-.313 1.432.102 2.046.188.278.473.438.782.438h3.33l-2.35 4.11c-1.736.2-3.075.457-3.42.526l-.906-.345-.338-.135c-7.844-5.715-12.987-5.5-13.563-5.454l-.383-.154-1.987-2.55C4.753-.08 2.242-.337.858 1.397c-.2.13-.377.298-.52.505-.6.864-.38 2.048.494 2.642l5.292 3.6 17.082 6.868h.732l-2.163 8.42h14.534s.991-2.083-1.899-2.083H27.53c-1.383 0-2.385-1.305-2.015-2.624l1.023-3.646-.196-.07c.125-.006.636-.033.854.003h8.576l12.717 3.275z" mask="url(#8my19ie1hb)"/>
                    </g>
                </g>
            </g>
        </g>
    </g>
</svg>
