<svg width="157" height="86" viewBox="0 0 157 86" fill="none" xmlns="http://www.w3.org/2000/svg">
<path d="M26.5525 22.8177C20.2403 22.8177 15.1018 17.7065 15.1018 11.4181C15.1062 5.13406 20.2403 0.0228271 26.5525 0.0228271C32.8647 0.0228271 38.0033 5.13406 38.0033 11.4225C38.0033 17.7065 32.8647 22.8177 26.5525 22.8177ZM26.5525 3.79499C22.3283 3.79499 18.8909 7.21707 18.8909 11.4225C18.8909 15.6278 22.3283 19.0499 26.5525 19.0499C30.7768 19.0499 34.2142 15.6278 34.2142 11.4225C34.2142 7.21269 30.7768 3.79499 26.5525 3.79499Z" fill="#FCB445"/>
<path d="M105.962 85.24H61.8467C60.8005 85.24 59.9521 84.3954 59.9521 83.3539V54.0606C59.9521 53.0191 60.8005 52.1745 61.8467 52.1745C62.8929 52.1745 63.7412 53.0191 63.7412 54.0606V81.4678H104.067V61.0054C104.067 59.9639 104.916 59.1193 105.962 59.1193C107.008 59.1193 107.856 59.9639 107.856 61.0054V83.3539C107.852 84.3954 107.008 85.24 105.962 85.24Z" fill="#FBAE2E"/>
<path d="M115.158 56.3693L103 56.2852C101.977 56.505 100.97 55.8575 100.752 54.8392C100.533 53.821 101.185 52.817 102.208 52.5972L114.365 52.6814C118.087 51.8816 120.465 48.2195 119.669 44.5144C118.873 40.8093 115.158 39.2472 111.479 39.2472L73.3515 37.7773C70.1125 37.7773 68.4973 37.7773 62.5645 37.7773C59.0098 37.7773 52.5865 36.4289 52.5865 36.4289L40.7209 33.4027L28.3158 29.1477C23.7485 27.0721 16.4468 22.6548 11.6078 26.2057L9.70322 27.7171C8.5202 28.5241 6.64182 31.0874 6.31722 33.3638C5.99262 35.6402 6.59439 37.8966 8.00051 39.7116C9.00839 41.0123 9.9225 41.4677 10.9761 41.2363C12.2944 40.953 12.0307 41.0096 12.765 40.576L14.5097 39.6522C17.6371 38.1163 19.0165 37.5776 24.2352 40.042C24.2352 40.042 30.8049 43.0596 37.7205 46.2465C47.5173 50.7612 61.9017 52.0941 61.9017 52.0941L77.8564 52.3251C78.8792 52.1053 79.8861 52.7528 80.1049 53.7711C80.3237 54.7893 79.6717 55.7933 78.6489 56.0131L61.478 56.0434C60.7388 56.2023 59.8737 55.6642 59.0098 55.4101C58.1459 55.156 48.7347 55.3942 37.4591 50.1643C26.1835 44.9345 23.3983 43.5256 21.8257 42.6254C20.2531 41.7252 17.6519 42.3071 16.1842 43.0298L13.8219 44.2105C13.7371 44.2556 13.3969 44.4121 13.2652 44.4896C11.1435 45.5711 7.18997 44.8317 5.00669 42.0155C2.96823 39.392 2.10129 36.1318 2.56743 32.8403C3.03449 29.553 4.77126 26.6509 7.45924 24.6812L9.30233 23.3911C15.7692 18.649 24.0572 23.7385 29.3651 25.9756C29.3651 25.9756 44.4963 31.1183 49.8898 32.1141C55.2833 33.1099 55.961 33.0942 61.478 33.3638C66.9949 33.6335 64.719 33.792 72.8121 34.0019L110.682 35.5601C116.772 35.5601 122.136 37.9819 123.369 43.7192C124.602 49.4566 120.921 55.1309 115.158 56.3693Z" fill="#FBAE2E"/>
<path d="M79.587 35.4502L76.668 35.7251C75.6264 35.8232 74.7026 35.0618 74.605 34.0249C74.5073 32.988 75.2727 32.0676 76.3143 31.9695L79.2333 31.6946C80.6337 31.5627 81.6649 30.3228 81.5336 28.9287C81.4109 27.626 80.3336 26.6418 79.0212 26.6291L56.7656 29.0272C56.1147 29.0534 55.4982 28.7422 55.1301 28.2099L38.2564 20.6191C37.6634 19.7607 37.8841 18.5883 38.7468 17.9972C39.6094 17.4061 40.7868 17.6249 41.3798 18.4833L57.6614 25.2243L78.9138 22.8635C78.9357 22.8615 78.958 22.8638 78.9842 22.8613C82.2773 22.8545 84.9943 25.3106 85.3016 28.5738C85.6278 32.0374 83.0662 35.1225 79.587 35.4502Z" fill="#FCB445"/>
<path d="M148.794 55.1556C148.506 55.5699 148.179 55.9579 147.812 56.3132C146.322 57.7585 144.325 58.5441 142.333 58.4698L129.638 57.6732C128.603 57.6287 127.851 56.7369 127.96 55.6833C128.07 54.6298 128.999 53.81 130.034 53.8546L142.719 54.6501C143.661 54.6863 144.58 54.3218 145.295 53.6311C146.009 52.9403 146.408 52.0235 146.416 51.0553C146.437 49.27 145.124 47.8757 143.369 47.8196L126.428 45.6554C125.391 45.6208 124.63 44.7341 124.736 43.6781C124.835 42.6235 125.76 41.7952 126.8 41.8323L143.738 43.9941C147.456 44.1212 150.235 47.0697 150.195 50.8554C150.174 52.3811 149.677 53.8863 148.794 55.1556Z" fill="#FCB445"/>
</svg>
