<svg xmlns="http://www.w3.org/2000/svg" xmlns:xlink="http://www.w3.org/1999/xlink" width="56" height="38" viewBox="0 0 56 38">
    <defs>
        <path id="1v6mpjrp7a" d="M0 0L21.976 0 21.976 36.309 0 36.309z"/>
    </defs>
    <g fill="none" fill-rule="evenodd">
        <g>
            <g>
                <g transform="translate(-28 -320) translate(28 320) translate(16)">
                    <mask id="20lcmddaxb" fill="#fff">
                        <use xlink:href="#1v6mpjrp7a"/>
                    </mask>
                    <path fill="#0B4178" d="M20.678 23.594v-.008c-1.737-.822-4.413-1.014-6.927-.96l2.636-4.61h4.497c.602 0 1.092-.709 1.092-1.58 0-.872-.49-1.58-1.092-1.58H9.273c-.257 0-.487.164-.65.465-.296.55-.338 1.554.111 2.22.207.306.509.475.849.475h3.612l-2.747 4.804c-.753.07-1.423.148-1.957.218l-1.156-.163-.015-.065C7.16 14.5 5.25 11.038 4.327 9.847l-.002-.004-.095-.416v-.006l.978-3.548c1.041-3.78-.695-6.184-3.472-5.84l.007.03C.753.222 0 1.071 0 2.095l.01 7.56v.002l4.122 17.85c.001.005.006.009.012.009h1.923l-2.232 8.792h15.768s1.075-2.261-2.06-2.261h-7.465c-1.5 0-2.588-1.415-2.186-2.846l1.034-3.685h10.772c1.118 0 2.104-.832 2.17-1.937.052-.875-.45-1.639-1.19-1.986" mask="url(#20lcmddaxb)"/>
                </g>
            </g>
        </g>
    </g>
</svg>
