<svg xmlns="http://www.w3.org/2000/svg" xmlns:xlink="http://www.w3.org/1999/xlink" width="35" height="24" viewBox="0 0 35 24">
    <defs>
        <path id="b4rc7ki2za" d="M0 0L13.735 0 13.735 22.932 0 22.932z"/>
    </defs>
    <g fill="none" fill-rule="evenodd">
        <g>
            <g>
                <g>
                    <g>
                        <g transform="translate(-235 -677) translate(110 555) translate(123 122) translate(2) translate(10)">
                            <mask id="6ewyu2yg8b" fill="#fff">
                                <use xlink:href="#b4rc7ki2za"/>
                            </mask>
                            <path fill="#CCC" d="M12.924 14.901v-.004c-1.086-.52-2.758-.64-4.33-.607l1.648-2.911h2.81c.377 0 .683-.448.683-.999 0-.55-.306-.998-.682-.998H5.795c-.16 0-.304.105-.405.294-.185.347-.212.982.069 1.402.13.194.318.3.53.3h2.258L6.53 14.413c-.47.045-.89.094-1.223.138l-.722-.102-.01-.041c-.1-5.25-1.294-7.436-1.87-8.188l-.002-.003-.06-.262V5.95l.612-2.24c.65-2.388-.434-3.906-2.17-3.69l.005.02C.47.14 0 .676 0 1.323l.006 4.774V6.1l2.577 11.273c0 .003.003.006.007.006h1.202l-1.395 5.553h9.855s.672-1.428-1.288-1.428H6.3c-.938 0-1.618-.894-1.367-1.797l.647-2.328h6.732c.699 0 1.315-.526 1.357-1.223.032-.553-.281-1.035-.744-1.255" mask="url(#6ewyu2yg8b)"/>
                        </g>
                    </g>
                </g>
            </g>
        </g>
    </g>
</svg>
