<svg width="105" height="86" viewBox="0 0 105 86" fill="none" xmlns="http://www.w3.org/2000/svg">
<path d="M32.6792 20.5662C27.1371 20.5662 22.6255 16.0785 22.6255 10.5574C22.6293 5.04003 27.1371 0.552399 32.6792 0.552399C38.2212 0.552399 42.7328 5.04003 42.7328 10.5612C42.7328 16.0785 38.2212 20.5662 32.6792 20.5662ZM32.6792 3.86433C28.9703 3.86433 25.9523 6.8689 25.9523 10.5612C25.9523 14.2535 28.9703 17.2581 32.6792 17.2581C36.388 17.2581 39.4061 14.2535 39.4061 10.5612C39.4061 6.86506 36.388 3.86433 32.6792 3.86433Z" fill="#FCB445"/>
<path d="M74.5343 85.7905H35.8016C34.883 85.7905 34.1382 85.0489 34.1382 84.1345V58.4152C34.1382 57.5007 34.883 56.7592 35.8016 56.7592C36.7201 56.7592 37.465 57.5007 37.465 58.4152V82.4785H72.8709V64.5127C72.8709 63.5982 73.6157 62.8567 74.5343 62.8567C75.4528 62.8567 76.1977 63.5982 76.1977 64.5127V84.1345C76.1938 85.0489 75.4528 85.7905 74.5343 85.7905Z" fill="#FBAE2E"/>
<path d="M78.6213 60.0712H67.7032C66.7846 60.0712 66.0398 59.3297 66.0398 58.4153C66.0398 57.5008 66.7846 56.7593 67.7032 56.7593H78.6213C81.9636 56.7593 84.6806 54.0544 84.6806 50.7271C84.6806 47.3998 81.9636 44.695 78.6213 44.695H44.5045C41.1044 44.695 38.0246 42.8238 36.4692 39.8116L23.8375 15.3448C21.4254 10.6727 15.7676 8.70167 10.9588 10.8571L8.19161 12.0981C6.34297 12.928 4.94202 14.4265 4.24347 16.3207C3.54492 18.2148 3.64527 20.2627 4.51748 22.08C5.1427 23.3825 6.65172 24.0165 8.0218 23.5477C8.17231 23.4978 8.37686 23.4286 8.6007 23.371L11.063 22.7563C14.0308 22.0147 17.0836 23.4978 18.3225 26.2834L31.5061 56.7632H46.3184C47.2369 56.7632 47.9818 57.5047 47.9818 58.4191C47.9818 59.3335 47.2369 60.0751 46.3184 60.0751H30.4139C29.7501 60.0751 29.148 59.6832 28.8856 59.0761L15.2774 27.6051C14.7024 26.3103 13.2705 25.6148 11.8773 25.9645L9.41503 26.5792C9.33398 26.6023 9.22978 26.6368 9.10242 26.6791C6.13456 27.6896 2.87725 26.3256 1.52261 23.5055C0.256734 20.8775 0.113937 17.919 1.12123 15.1795C2.12853 12.4439 4.1547 10.2731 6.82539 9.0782L9.59256 7.83719C16.0184 4.95942 23.5751 7.59129 26.7938 13.8309L39.4217 38.2978C40.4058 40.1996 42.3509 41.383 44.5006 41.383H78.6175C83.7929 41.383 88.0035 45.5748 88.0035 50.7271C88.0035 55.8795 83.7968 60.0712 78.6213 60.0712Z" fill="#FBAE2E"/>
<path d="M68.1431 44.6949H65.5689C64.6504 44.6949 63.9055 43.9534 63.9055 43.0389C63.9055 42.1245 64.6504 41.383 65.5689 41.383H68.1431C69.3781 41.383 70.3815 40.384 70.3815 39.1545C70.3815 38.0057 69.5209 37.0567 68.3747 36.9376L47.3025 35.7811C46.7313 35.7504 46.218 35.4276 45.9401 34.932L39.8655 24.0664C39.4178 23.2672 39.7072 22.2606 40.51 21.8149C41.3127 21.3692 42.3239 21.6574 42.7716 22.4565L48.3985 32.5307L68.5908 33.6372C68.6101 33.6372 68.6294 33.641 68.6525 33.641C71.5316 33.9061 73.7044 36.2768 73.7044 39.1545C73.7044 42.209 71.2113 44.6949 68.1431 44.6949Z" fill="#FCB445"/>
<path d="M98.3234 85.7251C97.895 85.7251 97.4666 85.6829 97.042 85.5945C95.3169 85.2372 93.8117 84.1652 92.9125 82.6553L85.7071 70.4027C85.2439 69.615 85.5102 68.6007 86.3014 68.1396C87.0926 67.6786 88.1114 67.9437 88.5746 68.7313L95.7762 80.9763C96.2007 81.6909 96.8954 82.1827 97.7213 82.3556C98.5472 82.5285 99.3808 82.3517 100.064 81.8599C101.326 80.957 101.677 79.2703 100.878 77.9448L89.2577 58.4997C88.7868 57.7159 89.0454 56.6977 89.8366 56.2328C90.6239 55.7641 91.6466 56.0215 92.1175 56.8091L103.738 76.2504C105.425 79.0629 104.684 82.6322 102.009 84.5494C100.928 85.3179 99.6355 85.7251 98.3234 85.7251Z" fill="#FCB445"/>
</svg>
