<svg xmlns="http://www.w3.org/2000/svg" xmlns:xlink="http://www.w3.org/1999/xlink" width="56" height="39" viewBox="0 0 56 39">
    <defs>
        <path id="igd0heafwa" d="M0 0L38.903 0 38.903 36.593 0 36.593z"/>
    </defs>
    <g fill="none" fill-rule="evenodd">
        <g>
            <g>
                <g transform="translate(-96 -320) translate(96 320) translate(9.6)">
                    <mask id="bbfzrdxwlb" fill="#fff">
                        <use xlink:href="#igd0heafwa"/>
                    </mask>
                    <path fill="#0B4178" d="M16.76 27.489h9.968l11.744 6.316c.705-.922.527-2.242-.396-2.947l-9.927-7.575h-.102l-.003-.042c-1.768-.845-4.464-1.005-6.982-.91l2.49-4.4h4.541c.608 0 1.102-.723 1.102-1.612 0-.889-.494-1.612-1.102-1.612H16.371c-.259 0-.491.168-.655.474-.3.56-.342 1.586.111 2.265.206.308.518.485.857.485h3.647l-2.64 4.666c-1.4.162-2.482.346-2.914.424l-.115-.213-.053-.152-.657-1.833C10.963 12.828 8.032 9.651 7.15 8.825l-.131-.307-.366-3.748C6.264.792 3.754-.878 1.258.447l.01.013C.204.92-.287 2.153.17 3.217l3.154 7.36 9.078 16.912h1.494l-2.315 9.104h15.92s1.084-2.307-2.081-2.307h-7.537c-1.514 0-2.612-1.444-2.207-2.903l1.082-3.894z" mask="url(#bbfzrdxwlb)"/>
                </g>
            </g>
        </g>
    </g>
</svg>
