<svg xmlns="http://www.w3.org/2000/svg" xmlns:xlink="http://www.w3.org/1999/xlink" width="56" height="38" viewBox="0 0 56 38">
    <defs>
        <path id="yjhabfi5ia" d="M0 0L47.633 0 47.633 31.343 0 31.343z"/>
    </defs>
    <g fill="none" fill-rule="evenodd">
        <g>
            <g>
                <g transform="translate(-165 -320) translate(165 320) translate(4.8 4.75)">
                    <mask id="tjedpgndgb" fill="#fff">
                        <use xlink:href="#yjhabfi5ia"/>
                    </mask>
                    <path fill="#0B4178" d="M23.08 22.614h10.217l14.29.872c.235-1.092-.47-2.165-1.574-2.396L33.725 18.57H33.6c-1.649-.74-4.078-.904-6.39-.836l2.476-4.33h4.41c.591 0 1.071-.695 1.071-1.55 0-.854-.48-1.55-1.07-1.55H22.71c-.251 0-.477.162-.636.457-.292.539-.333 1.524.107 2.176.2.297.504.467.833.467h3.542l-2.608 4.561c-1.559.169-2.765.375-3.174.449-.07-.107-.139-.208-.208-.314l-.78-1.147C14.69 9.7 10.091 7.62 8.628 7.114L8.16 6.68 7.002 3.603C5.703.16 3.11-.835 1.126.703 1 .764.88.84.766.93c-.88.697-1.023 1.97-.318 2.841l4.175 5.165 14.696 13.678h.982l-2.242 8.729H33.52s1.054-2.217-2.021-2.217h-7.32c-1.472 0-2.538-1.388-2.144-2.791l1.045-3.721z" mask="url(#tjedpgndgb)"/>
                </g>
            </g>
        </g>
    </g>
</svg>
