<svg width="125" height="21" viewBox="0 0 125 21" fill="none" xmlns="http://www.w3.org/2000/svg">
<path fill-rule="evenodd" clip-rule="evenodd" d="M0.507935 10.3619L0.498444 10.3861C0.343468 10.7816 0.176016 11.1886 0.0953043 11.5545C0.00662956 12.0951 0.00645574 12.3447 0.00607169 12.8962L0.00606944 12.8994L0.00645575 12.9086C0.00216584 13.0147 0 13.1214 0 13.2286C0.245435 17.4896 3.42371 20.8677 7.64706 20.8677C11.8704 20.8677 15.2941 17.4132 15.2941 13.1518C15.2941 11.3445 14.4142 9.77307 13.6144 8.3446C13.5803 8.28361 13.5463 8.22289 13.5125 8.16242C13.0226 7.28541 11.9801 5.9735 11.5417 5.44136L11.5406 5.43999L10.1922 3.77282C10.1914 3.77187 10.1907 3.77092 10.1899 3.76998C10.1887 3.76855 10.1875 3.76712 10.1863 3.76571L8.81668 2.15342C8.81519 2.15167 8.81369 2.14993 8.81217 2.14821L8.36314 1.63849L7.87554 1.01404C7.80336 0.921608 7.69315 0.867684 7.57652 0.867737C7.45989 0.86779 7.34973 0.921816 7.27764 1.01432L5.73966 2.98763L3.84035 5.30649L3.83883 5.30836L3.83734 5.31022C3.28872 5.99739 2.08678 7.59306 1.58571 8.39883C1.46329 8.59571 1.36007 8.7579 1.27041 8.89878C0.92163 9.44683 0.778142 9.6723 0.507935 10.3619Z" fill="#456691"/>
<path fill-rule="evenodd" clip-rule="evenodd" d="M45.6277 8.27515C47.6732 8.27515 49.3314 6.61695 49.3314 4.57145C49.3314 2.52595 47.6732 0.867744 45.6277 0.867744C43.5822 0.867744 41.924 2.52595 41.924 4.57145C41.924 6.61673 43.5819 8.2748 45.6271 8.27515L41.9234 20.127H50.0715L45.6271 8.27515H45.6277ZM28.704 8.27516C30.7495 8.27516 32.4077 6.61695 32.4077 4.57145C32.4077 2.52595 30.7495 0.867747 28.704 0.867747C26.6585 0.867747 25.0003 2.52595 25.0003 4.57145C25.0003 6.61695 26.6585 8.27516 28.704 8.27516ZM29.4447 20.127L25.0003 8.27516H33.1484L29.4447 20.127ZM36.8081 1.60848V20.8677H37.8081V1.60848H36.8081Z" fill="#456691"/>
<path fill-rule="evenodd" clip-rule="evenodd" d="M61.8471 0.983644C63.2311 0.563923 64.7012 1.32004 65.1307 2.67247L69.2807 15.7397H83.0907C84.5398 15.7397 85.7145 16.8877 85.7145 18.3037C85.7145 19.7198 84.5398 20.8677 83.0907 20.8677H65.4147L60.1188 4.19242C59.6893 2.83998 60.4631 1.40337 61.8471 0.983644Z" fill="#456691"/>
<path d="M95 5.29781C95 4.43301 95.211 3.67427 95.633 3.02159C96.0718 2.35259 96.6794 1.83045 97.4559 1.45516C98.2492 1.07987 99.1522 0.892219 100.165 0.892219C101.178 0.892219 102.072 1.07987 102.849 1.45516C103.642 1.83045 104.25 2.35259 104.672 3.02159C105.11 3.67427 105.33 4.43301 105.33 5.29781C105.33 6.16262 105.11 6.92952 104.672 7.59851C104.233 8.26751 103.617 8.79781 102.823 9.18942C102.047 9.56471 101.152 9.75236 100.14 9.75236C99.1269 9.75236 98.2323 9.56471 97.4559 9.18942C96.6794 8.79781 96.0718 8.26751 95.633 7.59851C95.211 6.92952 95 6.16262 95 5.29781ZM101.988 5.32229C101.988 4.66961 101.811 4.17194 101.456 3.82928C101.102 3.48663 100.663 3.3153 100.14 3.3153C99.6332 3.3153 99.2028 3.48663 98.8484 3.82928C98.5108 4.17194 98.342 4.66961 98.342 5.32229C98.342 5.95865 98.5108 6.44816 98.8484 6.79082C99.1859 7.13348 99.6163 7.30481 100.14 7.30481C100.663 7.30481 101.102 7.13348 101.456 6.79082C101.811 6.43185 101.988 5.94234 101.988 5.32229Z" fill="#456691"/>
<path d="M106.798 9.62998C106.798 7.93301 107.178 6.42369 107.938 5.10201C108.697 3.76402 109.752 2.72788 111.103 1.99362C112.47 1.24304 114.014 0.867744 115.736 0.867744C117.846 0.867744 119.652 1.40621 121.154 2.48313C122.656 3.56005 123.66 5.02858 124.167 6.88872H119.407C119.052 6.17077 118.546 5.62415 117.888 5.24886C117.246 4.87357 116.512 4.68593 115.685 4.68593C114.352 4.68593 113.271 5.13464 112.444 6.03208C111.617 6.92951 111.204 8.12882 111.204 9.62998C111.204 11.1311 111.617 12.3304 112.444 13.2279C113.271 14.1253 114.352 14.574 115.685 14.574C116.512 14.574 117.246 14.3864 117.888 14.0111C118.546 13.6358 119.052 13.0892 119.407 12.3712H124.167C123.66 14.2314 122.656 15.6999 121.154 16.7768C119.652 17.8374 117.846 18.3677 115.736 18.3677C114.014 18.3677 112.47 18.0006 111.103 17.2663C109.752 16.5158 108.697 15.4796 107.938 14.158C107.178 12.8363 106.798 11.327 106.798 9.62998Z" fill="#456691"/>
</svg>
