<svg width="142" height="46" viewBox="0 0 142 46" fill="none" xmlns="http://www.w3.org/2000/svg">
<path fill-rule="evenodd" clip-rule="evenodd" d="M31.112 8.3187L31.1037 8.33992C30.9679 8.68642 30.8212 9.04302 30.7505 9.36362C30.6728 9.83728 30.6726 10.056 30.6723 10.5392L30.6723 10.542L30.6726 10.5501C30.6689 10.6431 30.667 10.7365 30.667 10.8304C30.882 14.5639 33.6668 17.5238 37.3673 17.5238C41.0677 17.5238 44.0676 14.497 44.0676 10.7632C44.0676 9.17965 43.2966 7.80275 42.5958 6.55114C42.5659 6.49771 42.5361 6.4445 42.5065 6.39152C42.0773 5.62309 41.1638 4.4736 40.7797 4.00735L40.7788 4.00615L39.5973 2.54539C39.5966 2.54456 39.596 2.54373 39.5953 2.5429C39.5942 2.54165 39.5932 2.5404 39.5921 2.53916L38.3921 1.12649C38.3908 1.12496 38.3895 1.12343 38.3881 1.12192L37.9947 0.675315L37.5675 0.128177C37.5042 0.0471862 37.4077 -6.19548e-05 37.3055 -1.52242e-05C37.2033 3.16774e-05 37.1068 0.0473683 37.0436 0.128417L35.696 1.85742L34.0319 3.88918L34.0305 3.89082L34.0292 3.89245C33.5485 4.49454 32.4954 5.89265 32.0564 6.59866C31.9491 6.77116 31.8587 6.91327 31.7801 7.03671C31.4745 7.51691 31.3488 7.71446 31.112 8.3187Z" fill="#FCB445"/>
<path fill-rule="evenodd" clip-rule="evenodd" d="M55.8164 6.49028C57.6087 6.49028 59.0616 5.03738 59.0616 3.24513C59.0616 1.45289 57.6087 -1.52588e-05 55.8164 -1.52588e-05C54.0242 -1.52588e-05 52.5713 1.45289 52.5713 3.24513C52.5713 5.03738 54.0242 6.49028 55.8164 6.49028ZM56.4655 16.8748L52.5713 6.4903H59.7107L56.4655 16.8748ZM70.6445 6.49028C72.4367 6.49028 73.8896 5.03738 73.8896 3.24513C73.8896 1.45289 72.4367 -1.52588e-05 70.6445 -1.52588e-05C68.8522 -1.52588e-05 67.3993 1.45289 67.3993 3.24513C67.3993 5.03738 68.8522 6.49028 70.6445 6.49028ZM70.6448 6.49029L74.539 16.8748H67.3996L70.6448 6.49029ZM62.8553 0.649017V17.5238H63.8553V0.649017H62.8553Z" fill="#FCB445"/>
<path fill-rule="evenodd" clip-rule="evenodd" d="M78.9533 8.45411C79.337 7.08367 80.759 6.28378 82.1295 6.6675L94.6728 10.1796H109.78C111.203 10.1796 112.357 11.3333 112.357 12.7565C112.357 14.1796 111.203 15.3333 109.78 15.3333H93.9649L80.7399 11.6303C79.3694 11.2466 78.5695 9.82455 78.9533 8.45411Z" fill="#FCB445"/>
<path d="M113.905 3.88157C113.905 3.12384 114.09 2.45904 114.459 1.88716C114.844 1.30099 115.376 0.843496 116.057 0.51467C116.752 0.185843 117.543 0.0214294 118.43 0.0214294C119.318 0.0214294 120.101 0.185843 120.782 0.51467C121.477 0.843496 122.009 1.30099 122.379 1.88716C122.763 2.45904 122.956 3.12384 122.956 3.88157C122.956 4.6393 122.763 5.31125 122.379 5.89742C121.994 6.48359 121.455 6.94824 120.759 7.29136C120.079 7.62019 119.295 7.7846 118.408 7.7846C117.521 7.7846 116.737 7.62019 116.057 7.29136C115.376 6.94824 114.844 6.48359 114.459 5.89742C114.09 5.31125 113.905 4.6393 113.905 3.88157ZM120.027 3.90302C120.027 3.33114 119.872 2.89509 119.562 2.59486C119.251 2.29462 118.866 2.14451 118.408 2.14451C117.964 2.14451 117.587 2.29462 117.277 2.59486C116.981 2.89509 116.833 3.33114 116.833 3.90302C116.833 4.46059 116.981 4.88949 117.277 5.18973C117.572 5.48996 117.95 5.64008 118.408 5.64008C118.866 5.64008 119.251 5.48996 119.562 5.18973C119.872 4.8752 120.027 4.44629 120.027 3.90302Z" fill="#FCB445"/>
<path d="M124.242 7.67737C124.242 6.1905 124.575 4.86805 125.241 3.71001C125.906 2.53767 126.831 1.62982 128.014 0.986465C129.212 0.328811 130.565 -1.52588e-05 132.073 -1.52588e-05C133.922 -1.52588e-05 135.504 0.471779 136.821 1.41537C138.137 2.35896 139.017 3.64567 139.46 5.27551H135.29C134.979 4.64645 134.536 4.16751 133.959 3.83868C133.397 3.50985 132.754 3.34544 132.029 3.34544C130.861 3.34544 129.914 3.7386 129.189 4.52493C128.465 5.31125 128.102 6.36207 128.102 7.67737C128.102 8.99268 128.465 10.0435 129.189 10.8298C129.914 11.6161 130.861 12.0093 132.029 12.0093C132.754 12.0093 133.397 11.8449 133.959 11.5161C134.536 11.1872 134.979 10.7083 135.29 10.0792H139.46C139.017 11.7091 138.137 12.9958 136.821 13.9394C135.504 14.8687 133.922 15.3333 132.073 15.3333C130.565 15.3333 129.212 15.0116 128.014 14.3683C126.831 13.7106 125.906 12.8028 125.241 11.6447C124.575 10.4867 124.242 9.16424 124.242 7.67737Z" fill="#FCB445"/>
<path d="M123.952 41.1855L123.952 30.1469L133.934 30.1469L141.092 41.1855L123.952 41.1855Z" fill="#FCB445"/>
<path fill-rule="evenodd" clip-rule="evenodd" d="M94.4364 34.6886C94.1088 34.282 94.1088 33.6228 94.4364 33.2162L99.7751 26.5907C100.103 26.1841 100.634 26.1841 100.962 26.5907C101.289 26.9972 101.289 27.6564 100.962 28.063L97.0549 32.9113H111.041L107.134 28.063C106.806 27.6564 106.806 26.9972 107.134 26.5907C107.462 26.1841 107.993 26.1841 108.32 26.5907L113.659 33.2162C113.987 33.6228 113.987 34.282 113.659 34.6886L108.32 41.3141C107.993 41.7207 107.462 41.7207 107.134 41.3141C106.806 40.9075 106.806 40.2484 107.134 39.8418L111.041 34.9935H97.0549L100.962 39.8418C101.289 40.2484 101.289 40.9075 100.962 41.3141C100.634 41.7207 100.103 41.7207 99.7751 41.3141L94.4364 34.6886Z" fill="#FCB445"/>
<path fill-rule="evenodd" clip-rule="evenodd" d="M9.61252 2.69449C6.2834 3.24799 3.5806 4.9421 2.05453 6.3052C1.54176 6.76321 0.760082 6.7128 0.308606 6.1926C-0.142868 5.6724 -0.0931785 4.8794 0.419593 4.42139C2.21523 2.8175 5.33113 0.8629 9.21239 0.217598C13.1402 -0.435444 17.7861 0.26694 22.51 3.89824C23.0545 4.31683 23.1615 5.10399 22.7489 5.65641C22.3362 6.20883 21.5603 6.31733 21.0158 5.89874C16.8513 2.69744 12.8951 2.14873 9.61252 2.69449ZM10.8978 7.06457C9.19848 7.22489 7.59562 8.07358 6.07045 9.43589C5.5102 9.93631 4.65614 9.88123 4.16286 9.31286C3.66958 8.7445 3.72388 7.87807 4.28413 7.37765C6.08066 5.77296 8.2004 4.56489 10.6475 4.33401C13.1162 4.10109 15.7211 4.88106 18.4335 6.87887C19.0375 7.32378 19.1717 8.18122 18.7331 8.79402C18.2946 9.40682 17.4494 9.54292 16.8453 9.09802C14.5408 7.40064 12.5755 6.90628 10.8978 7.06457ZM11.5 15.3333C13.0941 15.3333 14.3864 14.0223 14.3864 12.4051C14.3864 10.7878 13.0941 9.4768 11.5 9.4768C9.90584 9.4768 8.61353 10.7878 8.61353 12.4051C8.61353 14.0223 9.90584 15.3333 11.5 15.3333Z" fill="#FCB445"/>
</svg>
