<svg width="125" height="20" viewBox="0 0 125 20" fill="none" xmlns="http://www.w3.org/2000/svg">
<path fill-rule="evenodd" clip-rule="evenodd" d="M0.507691 9.49418L0.4982 9.5184C0.343223 9.91387 0.175772 10.3209 0.0950601 10.6868C0.00638542 11.2273 0.0062116 11.477 0.00582755 12.0284L0.00582529 12.0317L0.00621161 12.0409C0.0019217 12.147 -0.000244141 12.2537 -0.000244141 12.3608C0.245191 16.6219 3.42346 20 7.64681 20C11.8702 20 15.2939 16.5455 15.2939 12.2841C15.2939 10.4768 14.414 8.90534 13.6142 7.47686C13.58 7.41588 13.546 7.35515 13.5123 7.29469C13.0224 6.41768 11.9798 5.10576 11.5415 4.57362L11.5404 4.57226L10.192 2.90508C10.1912 2.90413 10.1904 2.90318 10.1896 2.90224C10.1885 2.90081 10.1873 2.89938 10.1861 2.89797L8.81644 1.28568C8.81495 1.28393 8.81345 1.2822 8.81193 1.28047L8.36289 0.770757L7.87529 0.146306C7.80311 0.0538712 7.69291 -5.32943e-05 7.57628 3.9525e-08C7.45965 5.35684e-05 7.34949 0.0540791 7.2774 0.14658L5.73942 2.11989L3.84011 4.43875L3.83859 4.44062L3.83709 4.44248C3.28848 5.12965 2.08654 6.72533 1.58547 7.5311C1.46304 7.72797 1.35982 7.89017 1.27016 8.03105C0.921386 8.57909 0.777898 8.80456 0.507691 9.49418Z" fill="#456691"/>
<path fill-rule="evenodd" clip-rule="evenodd" d="M28.7037 7.40742C30.7492 7.40742 32.4074 5.74921 32.4074 3.70371C32.4074 1.65821 30.7492 7.62939e-06 28.7037 7.62939e-06C26.6582 7.62939e-06 25 1.65821 25 3.70371C25 5.74921 26.6582 7.40742 28.7037 7.40742ZM29.4445 19.2593L25 7.40742H33.1482L29.4445 19.2593ZM45.627 7.40742C47.6725 7.40742 49.3307 5.74921 49.3307 3.70371C49.3307 1.65821 47.6725 8.04012e-06 45.627 8.04012e-06C43.5815 8.04012e-06 41.9233 1.65821 41.9233 3.70371C41.9233 5.74921 43.5815 7.40741 45.6269 7.40742L41.9232 19.2593H50.0714L45.627 7.40742ZM36.8074 0.740733V20H37.8074V0.740733H36.8074Z" fill="#456691"/>
<path fill-rule="evenodd" clip-rule="evenodd" d="M58.8873 0.407594C60.2404 -0.404241 61.9954 0.0345071 62.8072 1.38756L70.5462 14.2858H86.071C87.6489 14.2858 88.9281 15.565 88.9281 17.1429C88.9281 18.7208 87.6489 20 86.071 20H67.3109L57.9073 4.32748C57.0955 2.97442 57.5343 1.21943 58.8873 0.407594Z" fill="#456691"/>
<path d="M94.9998 4.43008C94.9998 3.56528 95.2107 2.80654 95.6327 2.15385C96.0716 1.48486 96.6792 0.962711 97.4556 0.58742C98.2489 0.212128 99.1519 0.0244825 100.165 0.0244825C101.177 0.0244825 102.072 0.212128 102.848 0.58742C103.642 0.962711 104.249 1.48486 104.671 2.15385C105.11 2.80654 105.33 3.56528 105.33 4.43008C105.33 5.29488 105.11 6.06178 104.671 6.73078C104.232 7.39977 103.616 7.93008 102.823 8.32169C102.047 8.69698 101.152 8.88462 100.139 8.88462C99.1266 8.88462 98.232 8.69698 97.4556 8.32169C96.6792 7.93008 96.0716 7.39977 95.6327 6.73078C95.2107 6.06178 94.9998 5.29488 94.9998 4.43008ZM101.988 4.45455C101.988 3.80187 101.81 3.3042 101.456 2.96155C101.101 2.61889 100.663 2.44756 100.139 2.44756C99.633 2.44756 99.2026 2.61889 98.8481 2.96155C98.5105 3.3042 98.3417 3.80187 98.3417 4.45455C98.3417 5.09092 98.5105 5.58043 98.8481 5.92308C99.1857 6.26574 99.6161 6.43707 100.139 6.43707C100.663 6.43707 101.101 6.26574 101.456 5.92308C101.81 5.56411 101.988 5.0746 101.988 4.45455Z" fill="#456691"/>
<path d="M106.798 8.76225C106.798 7.06528 107.178 5.55595 107.938 4.23427C108.697 2.89628 109.752 1.86015 111.102 1.12588C112.469 0.375299 114.014 7.62939e-06 115.735 7.62939e-06C117.845 7.62939e-06 119.651 0.538469 121.154 1.61539C122.656 2.69232 123.66 4.16085 124.166 6.02099H119.407C119.052 5.30304 118.546 4.75642 117.888 4.38113C117.246 4.00584 116.512 3.81819 115.685 3.81819C114.351 3.81819 113.271 4.26691 112.444 5.16434C111.617 6.06178 111.204 7.26108 111.204 8.76225C111.204 10.2634 111.617 11.4627 112.444 12.3601C113.271 13.2576 114.351 13.7063 115.685 13.7063C116.512 13.7063 117.246 13.5187 117.888 13.1434C118.546 12.7681 119.052 12.2215 119.407 11.5035H124.166C123.66 13.3636 122.656 14.8322 121.154 15.9091C119.651 16.9697 117.845 17.5 115.735 17.5C114.014 17.5 112.469 17.1329 111.102 16.3986C109.752 15.648 108.697 14.6119 107.938 13.2902C107.178 11.9685 106.798 10.4592 106.798 8.76225Z" fill="#456691"/>
</svg>
