<svg width="128" height="86" viewBox="0 0 128 86" fill="none" xmlns="http://www.w3.org/2000/svg">
<path d="M32.7227 20.3813C27.1514 20.3813 22.616 15.87 22.616 10.3197C22.6198 4.77324 27.1514 0.261917 32.7227 0.261917C38.294 0.261917 42.8295 4.77324 42.8295 10.3236C42.8295 15.87 38.294 20.3813 32.7227 20.3813ZM32.7227 3.59134C28.9943 3.59134 25.9603 6.61176 25.9603 10.3236C25.9603 14.0354 28.9943 17.0558 32.7227 17.0558C36.4511 17.0558 39.4851 14.0354 39.4851 10.3236C39.4851 6.6079 36.4511 3.59134 32.7227 3.59134Z" fill="#456691"/>
<path d="M90.9677 81.6656H52.0306C51.1072 81.6656 50.3584 80.9202 50.3584 80.0009V54.1458C50.3584 53.2265 51.1072 52.4811 52.0306 52.4811C52.954 52.4811 53.7027 53.2265 53.7027 54.1458V78.3362H89.2956V60.2755C89.2956 59.3562 90.0444 58.6108 90.9677 58.6108C91.8911 58.6108 92.6399 59.3562 92.6399 60.2755V80.0009C92.636 80.9202 91.8911 81.6656 90.9677 81.6656Z" fill="#17428D"/>
<path d="M95.5401 55.152H84.5643C83.6409 55.152 82.8921 54.4065 82.8921 53.4873C82.8921 52.568 83.6409 51.8226 84.5643 51.8226H95.5401C98.8999 51.8226 101.631 49.1034 101.631 45.7586C101.631 42.4137 98.8999 39.6945 95.5401 39.6945H61.2431C58.9722 39.6945 54.716 39.6265 49.883 38.8216C47.6394 38.0944 45.6482 36.4906 43.5753 34.9239L23.3294 20.6624C19.773 18.0243 15.311 13.8046 10.4768 15.9715L8.55301 16.9226C7.38249 17.3996 5.28626 19.2632 4.58403 21.1674C3.88179 23.0716 3.98267 25.1303 4.85949 26.9572C5.48801 28.2666 6.19238 28.829 7.14447 28.8247C8.33458 28.8247 8.09656 28.8247 8.81063 28.5867L10.4875 28.113C13.471 27.3676 14.7612 27.1585 18.8076 30.2528C18.8076 30.2528 23.9173 34.075 29.2939 38.1076C36.9107 43.8201 48.1761 51.8264 48.1761 51.8264H63.0666C63.99 51.8264 64.7387 52.5719 64.7387 53.4911C64.7387 54.4104 63.99 55.1559 63.0666 55.1559H47.0781C46.4108 55.1559 45.7641 54.5311 45.0657 54.1516C44.3673 53.7721 37.1021 48.0438 28.3419 41.4399C19.5816 34.836 17.4394 33.1038 16.2493 32.0353C15.0592 30.9669 12.7067 30.9867 11.3061 31.3382L9.04865 31.919C8.96718 31.9421 8.64457 32.0141 8.51654 32.0566C6.4851 32.5963 3.2106 31.2252 1.8488 28.3902C0.576247 25.7482 0.432696 22.7742 1.44531 20.0203C2.45792 17.2702 4.49479 15.0879 7.17958 13.8867L9.00927 13.1152C15.469 10.2222 21.6772 16.1511 25.8428 19.0658C25.8428 19.0658 42.3534 30.0703 45.2415 32.3057C48.1295 34.5411 48.4549 35.4893 51.0732 35.9654C53.6914 36.4414 54.809 36.3651 61.2392 36.3651H95.5362C100.739 36.3651 104.972 40.579 104.972 45.7586C104.972 50.9381 100.743 55.152 95.5401 55.152Z" fill="#17428D"/>
<path d="M74.546 38.9249H71.9582C71.0348 38.9249 70.286 38.1795 70.286 37.2602C70.286 36.341 71.0348 35.5955 71.9582 35.5955H74.546C75.7875 35.5955 76.7963 34.5913 76.7963 33.3553C76.7963 32.2004 75.9311 31.2464 74.7788 31.1267L55.0235 31.3922C54.4493 31.3613 53.9333 31.0369 53.6539 30.5386L39.4545 22.4719C39.0044 21.6685 39.2954 20.6566 40.1024 20.2085C40.9094 19.7605 41.9259 20.0502 42.3759 20.8536L56.1253 28.1246L74.9961 27.8088C75.0155 27.8088 75.0349 27.8127 75.0581 27.8127C77.9524 28.0792 80.1367 30.4623 80.1367 33.3553C80.1367 36.4259 77.6304 38.9249 74.546 38.9249Z" fill="#456691"/>
<path d="M120.607 78.1532C120.195 78.3454 119.767 78.5 119.326 78.6118C117.533 79.0676 115.684 78.7882 114.254 77.8467L102.741 70.1661C102.001 69.6723 101.878 68.6493 102.466 67.8836C103.055 67.1179 104.134 66.8969 104.874 67.3907L116.381 75.0662C117.057 75.5122 117.909 75.6386 118.768 75.422C119.627 75.2054 120.363 74.6739 120.836 73.9293C121.713 72.5588 121.42 70.8988 120.156 70.0765L101.706 57.9704C100.959 57.4835 100.828 56.4606 101.415 55.6915C101.997 54.9207 103.077 54.691 103.825 55.1813L122.273 67.284C124.948 69.0324 125.569 72.5443 123.713 75.4521C122.961 76.6215 121.87 77.5644 120.607 78.1532Z" fill="#456691"/>
</svg>
