<svg xmlns:xlink="http://www.w3.org/1999/xlink" xmlns="http://www.w3.org/2000/svg" width="1440" height="300" viewBox="0 0 1440 300" fill="none" class="styles_responsiveImageRelative__A-iSD"><rect width="1440" height="300" fill="#D7EEFF"></rect><mask id="mask0_662_13" maskUnits="userSpaceOnUse" x="0" y="0" width="1440" height="300" style="mask-type: alpha;" fill="none"><rect width="1440" height="300" fill="#16428B"></rect></mask><g mask="url(#mask0_662_13)" fill="none"><path d="M953.717 217.476C953.717 217.476 952.128 181 915.119 193.9C878.111 206.8 893.023 251.982 789.819 263.42C686.584 274.859 647 220.431 647 220.431C647 220.431 667.412 246.453 736.596 208.929C783.651 185.353 798.594 181.794 798.594 181.794C798.594 181.794 834.808 191.771 864.217 188.435C883.039 186.306 914.102 185.989 914.102 185.989C914.102 185.989 883.929 183.606 863.327 184.019C842.724 184.4 820.119 180.396 771.887 160.061C723.624 139.727 663.31 55.6225 663.31 55.6225C663.31 55.6225 680.892 74.3052 720.794 78.0545C760.696 81.8037 822.758 104.522 822.758 104.522C822.758 104.522 842.343 144.715 908.951 174.391C866.538 147.003 843.456 132.196 809.722 63.0574C775.989 -6.04961 760.092 -54.5358 760.092 -54.5358C760.092 -54.5358 790.868 -30.4516 829.466 4.59446C868.032 39.6405 882.689 78.6264 891.433 98.3894C900.176 118.152 912.226 139.059 923.704 146.685C900.24 119.932 898.269 82.3756 880.591 58.1326C868.319 16.1282 885.297 -96 885.297 -96C885.297 -96 893.563 -58.1579 910.35 -27.9732C927.106 2.21146 938.742 59.8483 936.803 83.8372C934.832 107.858 929.204 121.584 944.084 146.018C958.995 170.42 954.004 163.843 954.004 163.843C954.004 163.843 940.968 103.6 983.063 70.0476C1025.16 36.4949 1095.26 -33.7878 1091.89 -61.2399C1104.2 -45.9887 1087.13 -2.55455 1063.5 46.6306C1039.88 95.8158 1002.46 133.976 996.639 141.887C990.821 149.767 986.243 162.921 989.231 170.61C979.884 177.473 956.579 207.372 953.717 217.476Z" fill="#F7AD1C"></path><path d="M912.065 354.319C906.128 328.318 902.984 267.256 902 255.432C909.716 264.077 916.923 276.061 921.559 284.389C936.133 247.866 978.268 190.619 1007.13 163.601C1037.26 135.375 1124.26 76.4111 1140.01 46.4366C1149.98 27.4602 1151.86 15 1151.86 15C1151.86 15 1158.33 26.6656 1148.78 53.0164C1141.63 72.6603 1107.85 126.061 1094.23 145.101C1080.6 164.141 975.982 294.719 964.265 308.324C947.342 328.031 940.261 402.157 943.404 441C943.436 441.063 923.051 402.316 912.065 354.319Z" fill="#16428B"></path><rect x="285" y="190" width="183" height="9" fill="#FA940E"></rect></g></svg>
