<svg xmlns:xlink="http://www.w3.org/1999/xlink" xmlns="http://www.w3.org/2000/svg" width="468" height="388" viewBox="0 0 468 388" fill="none">
<g opacity="0.4">
<mask id="mask0_160_107" style="mask-type:alpha" maskUnits="userSpaceOnUse" x="0" y="0" width="468" height="388">
<rect width="468" height="388" fill="#16428B"/>
</mask>
<g mask="url(#mask0_160_107)">
<path d="M316.23 289.496C316.23 289.496 314.804 256.793 281.624 268.359C248.445 279.924 261.813 320.432 169.286 330.687C76.7302 340.942 41.2415 292.145 41.2415 292.145C41.2415 292.145 59.5417 315.475 121.569 281.833C163.756 260.696 177.153 257.505 177.153 257.505C177.153 257.505 209.621 266.45 235.988 263.459C252.863 261.55 280.712 261.266 280.712 261.266C280.712 261.266 253.661 259.129 235.19 259.499C216.718 259.841 196.451 256.252 153.209 238.021C109.939 219.789 55.8645 144.386 55.8645 144.386C55.8645 144.386 71.6278 161.136 107.402 164.497C143.175 167.858 198.817 188.226 198.817 188.226C198.817 188.226 216.376 224.262 276.094 250.868C238.069 226.313 217.374 213.038 187.13 151.051C156.886 89.0934 142.634 45.6231 142.634 45.6231C142.634 45.6231 170.227 67.2158 204.832 98.6364C239.408 130.057 252.549 165.01 260.388 182.728C268.227 200.447 279.03 219.191 289.321 226.028C268.284 202.042 266.517 168.371 250.668 146.636C239.665 108.977 254.887 8.44824 254.887 8.44824C254.887 8.44824 262.298 42.3756 277.349 69.4378C292.371 96.4999 302.804 148.174 301.065 169.682C299.298 191.217 294.252 203.524 307.593 225.43C320.961 247.307 316.486 241.411 316.486 241.411C316.486 241.411 304.799 187.4 342.54 157.318C380.28 127.237 443.134 64.2247 440.112 39.6124C451.144 53.2859 435.837 92.2269 414.657 136.324C393.478 180.421 359.928 214.633 354.711 221.726C349.495 228.791 345.39 240.584 348.07 247.478C339.689 253.631 318.795 280.437 316.23 289.496Z" fill="#F7AD1C"/>
<path d="M278.886 412.182C273.563 388.871 270.745 334.126 269.862 323.525C276.78 331.276 283.242 342.02 287.398 349.487C300.464 316.742 338.24 265.417 364.117 241.194C391.132 215.888 469.132 163.024 483.252 136.15C492.19 119.137 493.87 107.965 493.87 107.965C493.87 107.965 499.677 118.424 491.109 142.049C484.704 159.661 454.415 207.538 442.202 224.608C429.99 241.678 336.191 358.748 325.686 370.946C310.513 388.614 304.165 455.072 306.983 489.896C307.012 489.953 288.736 455.214 278.886 412.182Z" fill="#16428B"/>
</g>
</g>
</svg>