<svg width="153" height="57" viewBox="0 0 153 57" fill="none" xmlns="http://www.w3.org/2000/svg">
<path d="M29.3583 30.4193C29.3583 30.4193 29.2168 27.1339 25.9049 28.2951C22.5929 29.4564 23.9291 33.5263 14.6906 34.5563C5.45319 35.5874 1.91006 30.6858 1.91006 30.6858C1.91006 30.6858 3.73643 33.0294 9.92793 29.6488C14.1386 27.5266 15.4768 27.205 15.4768 27.205C15.4768 27.205 18.718 28.1018 21.3484 27.8012C23.0333 27.6088 25.8132 27.5818 25.8132 27.5818C25.8132 27.5818 23.112 27.3703 21.2687 27.4054C19.4254 27.4405 17.4028 27.0798 13.0845 25.2482C8.76814 23.4166 3.36976 15.8439 3.36976 15.8439C3.36976 15.8439 4.94404 17.5252 8.51407 17.8638C12.0841 18.2015 17.6389 20.2475 17.6389 20.2475C17.6389 20.2475 19.3925 23.8665 25.3539 26.5397C21.5587 24.0719 19.4932 22.7413 16.4741 16.5152C13.4551 10.2891 12.0323 5.92358 12.0323 5.92358C12.0323 5.92358 14.7873 8.0928 18.2407 11.2479C21.6932 14.4031 23.0044 17.9139 23.7876 19.6934C24.5707 21.4729 25.6488 23.3565 26.6751 24.0439C24.5747 21.6332 24.3973 18.2536 22.8181 16.0703C21.7181 12.289 23.2366 2.19031 23.2366 2.19031C23.2366 2.19031 23.9779 5.59895 25.4784 8.31524C26.979 11.0325 28.0202 16.2226 27.8458 18.3838C27.6705 20.5461 27.1653 21.7835 28.4984 23.9817C29.8316 26.18 29.3862 25.5879 29.3862 25.5879C29.3862 25.5879 28.2195 20.1623 31.9868 17.1414C35.7541 14.1205 42.0273 7.79021 41.7274 5.3204C42.8274 6.69308 41.2999 10.6037 39.1856 15.0333C37.0713 19.4629 33.7225 22.8996 33.2024 23.61C32.6822 24.3194 32.2727 25.5047 32.5398 26.1971C31.7018 26.8163 29.6164 29.5095 29.3583 30.4193Z" fill="#F8AE19"/>
<path d="M25.6299 42.7693C25.0968 40.4297 24.8158 34.932 24.7291 33.8679C25.4196 34.6454 26.0673 35.7235 26.4818 36.474C27.788 33.1876 31.5643 28.0336 34.1489 25.6028C36.8501 23.0629 44.6448 17.7555 46.0556 15.0563C46.9484 13.349 47.1158 12.2278 47.1158 12.2278C47.1158 12.2278 47.6967 13.2788 46.8388 15.6504C46.1991 17.4179 43.1721 22.2263 41.9515 23.9396C40.732 25.6529 31.3571 37.4068 30.3069 38.6332C28.7904 40.4067 28.1557 47.0776 28.4387 50.5775C28.4397 50.5775 26.6123 47.0877 25.6299 42.7693Z" fill="#16408F"/>
<path d="M70.1082 17.6573C69.0431 17.6573 67.9909 17.7325 66.9816 17.8798C65.9772 18.0271 65.0247 18.2565 64.1489 18.5611C63.2781 18.8627 62.467 19.2545 61.7376 19.7234C61.0203 20.1863 60.3975 20.7444 59.8864 21.3806C59.3762 22.0168 58.9747 22.7593 58.6897 23.5859C58.4038 24.4145 58.2593 25.3553 58.2593 26.3833C58.2593 27.4214 58.3978 28.3662 58.6718 29.1908C58.9448 30.0154 59.3334 30.7549 59.8276 31.3901C60.3198 32.0253 60.9256 32.5824 61.629 33.0453C62.3395 33.5132 63.1366 33.903 64.0004 34.2066C64.8713 34.5122 65.8218 34.7406 66.8242 34.8859C68.4911 35.1294 70.2587 35.1765 72.2883 35.0102C73.0954 34.944 73.9084 34.8488 74.7065 34.7306C75.5086 34.6104 76.2948 34.4631 77.041 34.2958C77.6927 34.1485 78.2955 33.9862 78.8355 33.8118V25.6008H69.7037V28.6828H74.8968V31.3751L74.6467 31.4472C74.3289 31.5394 74.023 31.6276 73.7261 31.7117C73.4212 31.7979 73.0904 31.873 72.7437 31.9332C72.3949 31.9933 72.0093 32.0404 71.5958 32.0754C71.1833 32.1095 70.6901 32.1265 70.1311 32.1265C69.0222 32.1265 68.0487 32.0374 67.2377 31.862C66.4206 31.6837 65.7102 31.4442 65.1263 31.1476C64.5325 30.847 64.0403 30.4934 63.6656 30.0976C63.294 29.7078 62.9991 29.29 62.7868 28.8572C62.5786 28.4283 62.4341 27.9925 62.3574 27.5596C62.2837 27.1368 62.2458 26.741 62.2458 26.3813C62.2458 25.9645 62.2906 25.5327 62.3773 25.0948C62.465 24.648 62.6284 24.2011 62.8616 23.7673C63.0937 23.3354 63.4146 22.9236 63.8141 22.5449C64.2166 22.1641 64.7308 21.8285 65.3435 21.5459C65.9493 21.2674 66.6807 21.0439 67.5176 20.8806C68.3516 20.7183 69.34 20.6362 70.455 20.6362C71.3487 20.6362 72.2146 20.6963 73.0266 20.8155C73.8347 20.9337 74.6049 21.093 75.3143 21.2884C76.0247 21.4838 76.6913 21.7132 77.2971 21.9687C77.6977 22.1371 78.0733 22.3104 78.422 22.4878V19.0931C77.2951 18.6864 76.0526 18.3457 74.7245 18.0802C73.3126 17.8006 71.7582 17.6573 70.1082 17.6573Z" fill="#16408F"/>
<path d="M85.4903 22.1812H82.2013V34.433H85.4903V22.1812Z" fill="#16408F"/>
<path d="M99.2164 26.4164C99.2164 26.1308 99.1766 25.8854 99.0969 25.681C99.0162 25.4756 98.8847 25.3072 98.7023 25.177C98.519 25.0467 98.2799 24.9495 97.9839 24.8874C97.689 24.8253 97.3253 24.7942 96.8929 24.7942H92.1402V27.9504H96.8929C97.3243 27.9504 97.688 27.9253 97.9839 27.8742C98.2799 27.8231 98.519 27.738 98.7023 27.6157C98.8856 27.4935 99.0172 27.3342 99.0969 27.1388C99.1766 26.9424 99.2164 26.702 99.2164 26.4164ZM102.541 26.3633C102.541 26.9755 102.453 27.5386 102.275 28.0526C102.099 28.5666 101.813 29.0094 101.42 29.3812C101.027 29.7529 100.518 30.0425 99.891 30.2509C99.2643 30.4593 98.501 30.5625 97.6023 30.5625H92.1402V34.432H88.8511V22.1812H97.6023C98.501 22.1812 99.2633 22.2834 99.891 22.4888C100.517 22.6942 101.027 22.9827 101.42 23.3534C101.813 23.7252 102.099 24.167 102.275 24.678C102.453 25.189 102.541 25.7511 102.541 26.3633Z" fill="#16408F"/>
<path d="M116.49 25.6319C116.26 25.5187 115.955 25.3914 115.577 25.2492C115.198 25.1069 114.77 24.9706 114.292 24.8434C113.812 24.7151 113.292 24.6089 112.731 24.5227C112.169 24.4366 111.593 24.3935 111.002 24.3935C110.528 24.3935 110.126 24.4085 109.791 24.4386C109.457 24.4686 109.176 24.5067 108.949 24.5538C108.722 24.6019 108.542 24.656 108.408 24.7191C108.276 24.7812 108.173 24.8454 108.103 24.9105C108.031 24.9756 107.986 25.0418 107.966 25.1069C107.945 25.172 107.934 25.2311 107.934 25.2852C107.934 25.4636 108.022 25.6189 108.2 25.7531C108.377 25.8874 108.619 26.0056 108.927 26.1098C109.235 26.214 109.593 26.3122 110 26.4044C110.408 26.4966 110.841 26.5918 111.3 26.69C111.757 26.7882 112.23 26.8954 112.718 27.0116C113.207 27.1268 113.679 27.2631 114.137 27.4174C114.595 27.5717 115.028 27.752 115.437 27.9564C115.844 28.1618 116.202 28.4013 116.51 28.6748C116.816 28.9484 117.06 29.263 117.237 29.6197C117.414 29.9764 117.503 30.3832 117.503 30.841C117.503 31.4292 117.399 31.9352 117.193 32.357C116.986 32.7788 116.71 33.1355 116.363 33.4271C116.017 33.7186 115.617 33.9511 115.162 34.1264C114.706 34.3018 114.23 34.437 113.73 34.5322C113.231 34.6274 112.724 34.6895 112.214 34.7196C111.703 34.7497 111.217 34.7647 110.756 34.7647C109.55 34.7647 108.434 34.6655 107.408 34.4661C106.382 34.2667 105.477 34.0192 104.691 33.7217V30.797C105.501 31.2488 106.424 31.6025 107.461 31.858C108.499 32.1135 109.61 32.2408 110.791 32.2408C111.489 32.2408 112.058 32.2037 112.498 32.1296C112.939 32.0554 113.282 31.9602 113.53 31.844C113.78 31.7278 113.948 31.6015 114.037 31.4653C114.125 31.329 114.169 31.1977 114.169 31.0735C114.169 30.8771 114.08 30.7068 113.903 30.5605C113.727 30.4142 113.484 30.287 113.177 30.1768C112.869 30.0665 112.512 29.9663 112.104 29.8742C111.696 29.782 111.263 29.6898 110.805 29.5976C110.347 29.5054 109.876 29.4053 109.391 29.299C108.906 29.1918 108.435 29.0656 107.978 28.9203C107.519 28.774 107.086 28.6057 106.678 28.4123C106.271 28.2189 105.913 27.9895 105.606 27.726C105.299 27.4625 105.056 27.1549 104.879 26.8072C104.702 26.4595 104.613 26.0567 104.613 25.5988C104.613 25.0578 104.707 24.5919 104.897 24.1991C105.085 23.8063 105.341 23.4727 105.663 23.1962C105.985 22.9196 106.357 22.6952 106.78 22.5228C107.202 22.3505 107.648 22.2173 108.115 22.1221C108.582 22.0269 109.055 21.9618 109.534 21.9257C110.012 21.8896 110.468 21.8716 110.899 21.8716C111.372 21.8716 111.859 21.8956 112.358 21.9427C112.857 21.9898 113.349 22.0569 113.834 22.1441C114.319 22.2303 114.788 22.3295 115.239 22.4427C115.692 22.5549 116.11 22.6741 116.494 22.7994V25.6319H116.49Z" fill="#16408F"/>
<path d="M128.256 29.4303V34.433H124.975V29.4303L119.07 22.1812H122.759L126.625 27.1128L130.474 22.1812H134.161L128.256 29.4303Z" fill="#16408F"/>
<path d="M144.524 29.4303V34.433H141.243V29.4303L135.338 22.1812H139.027L142.893 27.1128L146.742 22.1812H150.429L144.524 29.4303Z" fill="#16408F"/>
</svg>
