<svg width="149" height="48" viewBox="0 0 149 48" fill="none" xmlns="http://www.w3.org/2000/svg">
<g clip-path="url(#clip0_26_281)">
<path d="M27.3809 28.0001C27.3809 28.0001 27.2387 24.742 23.9359 25.8939C20.633 27.0459 21.9649 31.0833 12.7492 32.105C3.53343 33.1268 0 28.2645 0 28.2645C0 28.2645 1.82287 30.5893 7.99917 27.2357C12.1985 25.1306 13.5344 24.8115 13.5344 24.8115C13.5344 24.8115 16.7676 25.7061 19.3916 25.4079C21.0724 25.2171 23.8484 25.1873 23.8484 25.1873C23.8484 25.1873 21.1539 24.9775 19.3151 25.0133C17.4763 25.0491 15.4586 24.6903 11.1509 22.8724C6.84323 21.0545 1.45909 13.5433 1.45909 13.5433C1.45909 13.5433 3.02951 15.2111 6.59077 15.5471C10.152 15.883 15.6932 17.9117 15.6932 17.9117C15.6932 17.9117 17.4425 21.5027 23.3882 24.1546C19.6033 21.7065 17.5429 20.3856 14.5303 14.2093C11.5177 8.03296 10.0994 3.70338 10.0994 3.70338C10.0994 3.70338 12.8456 5.85425 16.2945 8.98415C19.7435 12.114 21.0465 15.5968 21.8278 17.362C22.609 19.1272 23.6844 20.9958 24.7102 21.6777C22.614 19.2922 22.438 15.9337 20.8626 13.768C19.7693 10.0168 21.2801 -1.52588e-05 21.2801 -1.52588e-05C21.2801 -1.52588e-05 22.0186 3.37936 23.5155 6.0759C25.0123 8.77244 26.051 13.919 25.877 16.0629C25.7031 18.2069 25.1982 19.4354 26.5281 21.617C27.8579 23.7987 27.4137 23.2073 27.4137 23.2073C27.4137 23.2073 26.2498 17.8252 30.0078 14.8285C33.7659 11.8318 40.0227 5.5511 39.7235 3.10006C40.8218 4.46275 39.2971 8.34207 37.188 12.7412C35.0789 17.1404 31.7393 20.5446 31.2194 21.2493C30.6996 21.954 30.2921 23.1288 30.5595 23.8156C29.7255 24.4299 27.6452 27.1016 27.3878 28.0031" fill="#F9AF1A"/>
<path d="M23.6616 40.2533C23.1298 37.9334 22.8485 32.4787 22.767 31.4232C23.4548 32.1955 24.1019 33.2639 24.5154 34.0074C25.8174 30.7473 29.5844 25.6345 32.1637 23.2232C34.8542 20.7056 42.6338 15.4397 44.0372 12.7631C44.9317 11.0734 45.0947 9.95721 45.0947 9.95721C45.0947 9.95721 45.6742 11.0038 44.8204 13.3515C44.1823 15.1058 41.1627 19.8757 39.9501 21.5753C38.7375 23.2749 29.3757 34.9337 28.3281 36.1503C26.8153 37.9096 26.1832 44.5272 26.4645 47.998C25.2342 45.533 24.2936 42.9338 23.6616 40.2523" fill="#163F90"/>
<path d="M68.0307 17.4892C66.9872 17.4877 65.9448 17.5611 64.9118 17.7089C63.9509 17.8463 63.0049 18.0729 62.086 18.3858C61.2415 18.6737 60.4341 19.0607 59.6807 19.5387C58.981 19.9842 58.3577 20.5397 57.835 21.1837C57.3138 21.838 56.9102 22.5779 56.6423 23.3703C56.3452 24.2653 56.1997 25.2035 56.2119 26.1464C56.199 27.0902 56.3383 28.0299 56.6244 28.9294C56.881 29.7173 57.271 30.4552 57.7773 31.1111C58.2817 31.754 58.8889 32.3092 59.5744 32.7541C60.3132 33.2323 61.1076 33.6189 61.9399 33.905C62.8548 34.2196 63.7977 34.4456 64.7557 34.5799C66.4186 34.8214 68.1818 34.8682 70.2065 34.7022C71.0116 34.6366 71.8236 34.5422 72.6187 34.4259C73.4139 34.3096 74.2031 34.1605 74.9475 33.9945C75.5986 33.8484 76.1989 33.6874 76.7366 33.5144V25.3642H67.6282V28.4225H72.8086V31.0932L72.5601 31.1658L71.6417 31.4272C71.3191 31.5176 70.992 31.5909 70.6617 31.6468C70.3138 31.7065 69.9282 31.7542 69.5157 31.788C69.1032 31.8218 68.6132 31.8387 68.0556 31.8387C67.0883 31.8514 66.1223 31.7634 65.1732 31.5763C64.4443 31.4294 63.7367 31.1917 63.067 30.8686C62.5254 30.6071 62.0326 30.2548 61.6099 29.8269C60.9332 29.1366 60.4786 28.2593 60.3049 27.3083C60.2344 26.9229 60.1971 26.5322 60.1936 26.1404C60.1957 25.7137 60.2399 25.2882 60.3258 24.8702C60.4198 24.4095 60.5826 23.9655 60.8088 23.5532C61.0589 23.101 61.3797 22.6916 61.759 22.3406C62.21 21.9288 62.725 21.5931 63.2837 21.3467C63.9789 21.0433 64.7071 20.8218 65.4535 20.6867C66.4182 20.5152 67.3969 20.4347 68.3766 20.4462C69.2349 20.4437 70.0923 20.5032 70.942 20.6241C71.7111 20.7344 72.4728 20.891 73.2231 21.0932C73.8963 21.2751 74.557 21.5006 75.201 21.7681C75.5986 21.9351 75.9726 22.1067 76.3231 22.283V18.9165C75.1199 18.4917 73.8871 18.1559 72.6347 17.9117C71.1164 17.6213 69.5735 17.4798 68.0278 17.4892" fill="#163F90"/>
<path d="M83.3751 21.9778H80.0941V34.1317H83.3751V21.9778Z" fill="#163F90"/>
<path d="M97.0675 26.1782C97.0732 25.9297 97.0328 25.6824 96.9482 25.4487C96.8674 25.2475 96.7291 25.0746 96.5506 24.9517C96.3337 24.8083 96.0899 24.7106 95.834 24.6644C95.4736 24.5968 95.1073 24.5658 94.7407 24.572H89.9996V27.7019H94.7407C95.1066 27.7072 95.4723 27.6819 95.834 27.6264C96.0881 27.5915 96.3321 27.5042 96.5506 27.3699C96.7285 27.2567 96.8673 27.0915 96.9482 26.8968C97.0337 26.6678 97.0742 26.4245 97.0675 26.1802V26.1782ZM100.384 26.1275C100.39 26.697 100.301 27.2635 100.119 27.8033C99.9467 28.306 99.6535 28.7587 99.265 29.1213C98.8258 29.5171 98.305 29.8116 97.7394 29.984C97.1145 30.1907 96.3525 30.2938 95.4533 30.2931H90.0046V34.1327H86.7246V21.9769H95.4543C96.3508 21.9769 97.1128 22.0786 97.7403 22.282C98.3059 22.4519 98.8269 22.7448 99.266 23.1398C99.6537 23.5014 99.9469 23.9525 100.12 24.4537C100.302 24.9921 100.392 25.5573 100.385 26.1255" fill="#163F90"/>
<path d="M114.296 25.4C114.066 25.2873 113.762 25.1608 113.385 25.0203C113.008 24.8798 112.583 24.7466 112.11 24.6207C111.597 24.4871 111.077 24.3809 110.552 24.3027C109.981 24.2164 109.405 24.1735 108.828 24.1744C108.356 24.1744 107.953 24.1894 107.62 24.2192C107.338 24.2412 107.058 24.2794 106.78 24.3335C106.595 24.3684 106.414 24.4233 106.24 24.4975C106.13 24.5451 106.028 24.6091 105.936 24.6873C105.874 24.7404 105.826 24.8089 105.798 24.8861C105.779 24.9431 105.768 25.0028 105.767 25.063C105.77 25.1561 105.796 25.2471 105.843 25.328C105.889 25.4089 105.954 25.4773 106.033 25.5272C106.255 25.6824 106.499 25.8018 106.758 25.881C107.11 25.9966 107.467 26.0942 107.828 26.1732C108.235 26.2647 108.666 26.3591 109.12 26.4565C109.574 26.5539 110.046 26.6599 110.535 26.7746C111.022 26.8899 111.494 27.0224 111.951 27.1721C112.393 27.3203 112.825 27.499 113.243 27.7069C113.629 27.8968 113.988 28.1364 114.312 28.4195C114.612 28.682 114.859 29.0004 115.038 29.3568C115.22 29.7342 115.312 30.1492 115.304 30.5684C115.318 31.0869 115.212 31.6016 114.994 32.0722C114.796 32.4804 114.514 32.8421 114.167 33.1338C113.809 33.431 113.404 33.6661 112.968 33.8295C112.505 34.0043 112.027 34.1373 111.54 34.2271C111.041 34.3224 110.535 34.3845 110.027 34.4129C109.518 34.4428 109.033 34.4577 108.572 34.4577C107.452 34.4646 106.334 34.3648 105.233 34.1595C104.31 33.9896 103.403 33.7425 102.522 33.421V30.5197C103.393 30.992 104.322 31.3459 105.286 31.5723C106.374 31.8317 107.49 31.9592 108.608 31.952C109.178 31.9612 109.747 31.9243 110.311 31.8416C110.665 31.792 111.011 31.6971 111.34 31.5594C111.54 31.4821 111.714 31.3518 111.845 31.1827C111.926 31.0688 111.972 30.9337 111.977 30.794C111.976 30.6946 111.951 30.597 111.904 30.5089C111.858 30.4208 111.793 30.3445 111.712 30.2861C111.494 30.1194 111.249 29.9907 110.988 29.9055C110.636 29.7852 110.279 29.6856 109.916 29.6073C109.509 29.5158 109.078 29.4244 108.624 29.3329C108.167 29.2415 107.696 29.1431 107.214 29.0348C106.731 28.9264 106.259 28.8032 105.802 28.6591C105.361 28.5195 104.929 28.3508 104.51 28.1541C104.125 27.9761 103.765 27.7471 103.441 27.4733C103.141 27.2202 102.895 26.9104 102.715 26.5619C102.532 26.1912 102.441 25.7822 102.45 25.3692C102.437 24.8898 102.534 24.4139 102.733 23.9776C102.915 23.5966 103.176 23.258 103.497 22.9837C103.83 22.7024 104.206 22.4768 104.611 22.3158C105.042 22.1424 105.488 22.0093 105.943 21.9182C106.41 21.8224 106.883 21.756 107.359 21.7194C107.836 21.6836 108.29 21.6658 108.72 21.6658C109.193 21.6658 109.678 21.6896 110.175 21.7373C110.673 21.785 111.164 21.8513 111.648 21.9361C112.132 22.0216 112.6 22.121 113.05 22.2343C113.5 22.3476 113.919 22.4649 114.302 22.5881L114.296 25.4Z" fill="#163F90"/>
<path d="M126.036 29.1689V34.1307H122.763V29.1689L116.872 21.9778H120.552L124.408 26.869L128.247 21.9778H131.927L126.036 29.1689Z" fill="#163F90"/>
<path d="M142.264 29.1689V34.1307H138.991V29.1689L133.1 21.9778H136.78L140.636 26.869L144.475 21.9778H148.155L142.264 29.1689Z" fill="#163F90"/>
<path d="M102.524 37.0429H141.501C142.363 37.0429 143.216 37.2126 144.012 37.5422C144.808 37.8719 145.531 38.3551 146.14 38.9643C146.749 39.5734 147.232 40.2966 147.562 41.0925C147.892 41.8883 148.061 42.7414 148.061 43.6028V47.9761H109.08C107.34 47.9761 105.672 47.285 104.442 46.0548C103.211 44.8245 102.52 43.156 102.52 41.4162V37.0429H102.524Z" fill="#F9AF1A"/>
<path d="M112.086 39.5158L111.396 41.0673H113.41L112.998 41.9927H110.985L110.268 43.6118H112.539L112.113 44.564H108.634L111.302 38.5735H114.773L114.358 39.5158H112.086Z" fill="white"/>
<path d="M116.651 42.1815L117.169 44.567H115.815L115.496 43.1009L113.972 44.567H112.687L115.296 42.1815L114.782 39.816H116.136L116.454 41.281L117.979 39.816H119.266L116.651 42.1815Z" fill="white"/>
<path d="M121.716 39.9571C122.038 39.8136 122.386 39.7391 122.738 39.7384C123.046 39.7259 123.352 39.8051 123.615 39.966C123.846 40.1168 124.009 40.3518 124.07 40.621C124.14 40.9537 124.125 41.299 124.024 41.6239C123.972 41.8117 123.906 41.9952 123.825 42.1726C123.615 42.6496 123.324 43.0867 122.965 43.4647C122.631 43.8216 122.235 44.1161 121.797 44.3344C121.416 44.5302 120.995 44.6357 120.567 44.6425C120.275 44.6576 119.985 44.5831 119.737 44.4288C119.543 44.3007 119.399 44.1097 119.33 43.8881L118.028 46.8282H116.819L119.931 39.818H121.14L120.841 40.5038C121.104 40.2788 121.399 40.0945 121.716 39.9571ZM122.71 41.8635C122.8 41.5262 122.773 41.2635 122.629 41.0753C122.486 40.8871 122.262 40.793 121.96 40.793C121.721 40.7982 121.486 40.8551 121.272 40.96C121.019 41.0797 120.789 41.2436 120.594 41.444C120.38 41.6593 120.208 41.912 120.086 42.1895C120.039 42.2944 119.997 42.4019 119.962 42.5115C119.872 42.8488 119.9 43.1115 120.046 43.2997C120.192 43.4879 120.414 43.5823 120.712 43.583C120.954 43.578 121.192 43.5193 121.408 43.411C121.661 43.289 121.891 43.1238 122.088 42.923C122.303 42.7048 122.476 42.4492 122.599 42.1686C122.642 42.0693 122.679 41.9674 122.709 41.8635H122.71Z" fill="white"/>
<path d="M127.48 39.9869C127.775 39.8325 128.102 39.7504 128.435 39.7474L127.874 41.0067H127.557C127.237 40.9981 126.921 41.0783 126.643 41.2383C126.388 41.392 126.162 41.6547 125.964 42.0265L124.839 44.564H123.63L125.742 39.816H126.951L126.58 40.6558C126.842 40.3853 127.146 40.1594 127.48 39.9869Z" fill="white"/>
<path d="M132.622 40.2404C132.887 40.5717 132.944 41.0216 132.791 41.5901C132.748 41.7576 132.69 41.9209 132.618 42.0781C132.538 42.2491 132.46 42.3982 132.387 42.5234H128.916C128.895 42.5796 128.877 42.637 128.862 42.6954C128.782 42.9929 128.807 43.2248 128.936 43.3911C129.065 43.5574 129.273 43.6416 129.558 43.6436C129.789 43.646 130.017 43.5913 130.222 43.4846C130.424 43.3795 130.606 43.2388 130.758 43.0691H132.05C131.708 43.5328 131.271 43.9172 130.767 44.1962C130.274 44.4826 129.715 44.6347 129.145 44.6375C128.538 44.6375 128.098 44.4662 127.825 44.1237C127.551 43.7811 127.493 43.3153 127.651 42.7262C127.703 42.5413 127.769 42.3608 127.85 42.1865C128.06 41.7066 128.356 41.2688 128.723 40.8944C129.073 40.5349 129.486 40.2443 129.943 40.0376C130.375 39.8419 130.843 39.7403 131.317 39.7394C131.923 39.7388 132.358 39.9057 132.622 40.2404ZM131.573 41.5981C131.646 41.3238 131.615 41.1101 131.479 40.956C131.344 40.8019 131.133 40.7244 130.847 40.7244C130.527 40.7287 130.216 40.8287 129.953 41.0117C129.654 41.2108 129.408 41.4801 129.237 41.7959H131.499C131.538 41.7044 131.562 41.6378 131.573 41.5981Z" fill="white"/>
<path d="M133.319 44.4646C133.09 44.3683 132.9 44.196 132.782 43.9766C132.674 43.7536 132.655 43.4974 132.73 43.2609C132.749 43.1935 132.773 43.1272 132.799 43.0622H133.965C133.895 43.2609 133.911 43.4239 134.015 43.5472C134.119 43.6704 134.297 43.7311 134.549 43.7311C134.757 43.7357 134.963 43.6932 135.152 43.6068C135.23 43.5745 135.3 43.525 135.356 43.462C135.412 43.399 135.454 43.3242 135.477 43.243C135.498 43.1808 135.497 43.1135 135.476 43.0515C135.455 42.9895 135.413 42.9363 135.359 42.9001C135.175 42.7808 134.978 42.6831 134.772 42.6089C134.542 42.5205 134.318 42.4145 134.103 42.2919C133.933 42.1897 133.795 42.0406 133.706 41.8625C133.606 41.6806 133.606 41.449 133.677 41.1667C133.755 40.8827 133.909 40.6251 134.121 40.4213C134.354 40.1964 134.633 40.0239 134.938 39.9154C135.275 39.793 135.631 39.732 135.989 39.7354C136.3 39.7252 136.609 39.7867 136.892 39.9154C137.114 40.0155 137.293 40.1918 137.396 40.4123C137.491 40.6455 137.502 40.9045 137.427 41.1448C137.414 41.1972 137.397 41.2487 137.377 41.2989H136.262C136.333 41.1001 136.319 40.9401 136.219 40.8188C136.12 40.6976 135.945 40.6376 135.694 40.6389C135.505 40.6349 135.318 40.6809 135.152 40.7721C135.081 40.8082 135.019 40.8584 134.969 40.9196C134.919 40.9808 134.881 41.0517 134.86 41.1279C134.838 41.194 134.839 41.2651 134.862 41.3308C134.884 41.3964 134.927 41.4529 134.985 41.4917C135.17 41.6197 135.371 41.7248 135.581 41.8048C135.807 41.8982 136.025 42.0085 136.234 42.1348C136.394 42.2355 136.524 42.3777 136.609 42.5463C136.701 42.7532 136.711 42.9869 136.639 43.2013C136.559 43.4956 136.395 43.7605 136.169 43.9646C135.92 44.1893 135.626 44.3586 135.307 44.4616C134.954 44.578 134.585 44.6358 134.214 44.6326C133.907 44.6422 133.602 44.5848 133.319 44.4646Z" fill="white"/>
<path d="M137.991 44.4646C137.761 44.3679 137.571 44.1958 137.453 43.9766C137.344 43.7536 137.325 43.4974 137.4 43.2609C137.411 43.2212 137.434 43.1556 137.47 43.0622H138.636C138.565 43.2609 138.582 43.424 138.685 43.5472C138.789 43.6704 138.968 43.7311 139.219 43.7311C139.427 43.7357 139.633 43.6933 139.822 43.6068C139.901 43.5748 139.971 43.5254 140.027 43.4624C140.083 43.3993 140.124 43.3244 140.148 43.2431C140.168 43.1808 140.168 43.1135 140.147 43.0515C140.125 42.9896 140.084 42.9363 140.029 42.9001C139.846 42.7806 139.649 42.6829 139.443 42.6089C139.212 42.5203 138.989 42.4143 138.774 42.2919C138.603 42.1897 138.465 42.0406 138.376 41.8625C138.283 41.6806 138.277 41.449 138.348 41.1667C138.426 40.8826 138.579 40.6248 138.792 40.4213C139.025 40.1966 139.304 40.0242 139.609 39.9154C139.945 39.793 140.301 39.7321 140.659 39.7354C140.97 39.7252 141.28 39.7867 141.563 39.9154C141.785 40.0149 141.964 40.1914 142.067 40.4123C142.166 40.7006 142.16 41.0151 142.048 41.2989H140.934C141.005 41.1001 140.99 40.9401 140.891 40.8188C140.792 40.6976 140.616 40.6376 140.365 40.6389C140.176 40.6349 139.989 40.6809 139.823 40.7721C139.753 40.8082 139.691 40.8584 139.64 40.9196C139.59 40.9808 139.553 41.0517 139.531 41.128C139.51 41.194 139.511 41.2652 139.533 41.3308C139.556 41.3964 139.599 41.4529 139.657 41.4917C139.844 41.6203 140.046 41.7254 140.259 41.8048C140.484 41.8983 140.702 42.0086 140.911 42.1348C141.071 42.2352 141.201 42.3775 141.286 42.5463C141.378 42.753 141.389 42.9871 141.315 43.2013C141.235 43.4956 141.072 43.7606 140.845 43.9646C140.596 44.1893 140.303 44.3586 139.984 44.4616C139.631 44.578 139.262 44.6358 138.89 44.6326C138.582 44.643 138.275 44.5857 137.991 44.4646Z" fill="white"/>
</g>
<defs>
<clipPath id="clip0_26_281">
<rect width="148.155" height="48" fill="white"/>
</clipPath>
</defs>
</svg>
