<svg xmlns:xlink="http://www.w3.org/1999/xlink" xmlns="http://www.w3.org/2000/svg" width="20.7" height="28.7" viewBox="0 0 31 30" fill="none"><path d="M23.265 0H23.7346C24.2661 0.228554 24.4845 0.630868 24.443 1.20617C24.4156 1.5803 24.4375 1.9568 24.4375 2.34424C25.3768 2.34424 26.2738 2.33798 27.1692 2.34424C28.0089 2.35185 28.8233 2.63272 29.4891 3.14437C30.155 3.65601 30.6361 4.3706 30.8597 5.18003C30.9114 5.36553 30.9529 5.55416 30.9998 5.74123V26.5999C30.9766 26.6622 30.9576 26.726 30.9427 26.7909C30.6296 28.6115 29.0407 29.9914 27.1857 29.993C19.7279 30.0018 12.2702 30.0018 4.81245 29.993C3.80393 29.986 2.83876 29.582 2.12591 28.8686C1.41305 28.1552 1.0099 27.1896 1.00375 26.1811C0.994356 19.5045 0.994356 12.8277 1.00375 6.1506C1.00375 4.54994 2.0565 3.116 3.56088 2.56966C4.25985 2.31528 4.97917 2.34267 5.70084 2.34346H7.56214C7.56214 1.94427 7.58327 1.57483 7.55744 1.20773C7.51674 0.633218 7.72886 0.226988 8.26189 0H8.73152C9.26455 0.229336 9.48215 0.632437 9.43988 1.2093C9.41249 1.58266 9.43518 1.95992 9.43518 2.3278H22.559C22.559 1.94427 22.5801 1.57404 22.5543 1.20773C22.5159 0.633218 22.7289 0.226988 23.265 0ZM29.1237 10.3319H2.876V25.908C2.876 27.3168 3.68142 28.1262 5.08796 28.1262H26.9109C28.3198 28.1262 29.1237 27.3184 29.1237 25.9087C29.1237 20.831 29.1237 15.7535 29.1237 10.6763V10.3319ZM24.4367 4.22668C24.4367 4.53428 24.4367 4.80667 24.4367 5.07906C24.4313 5.67236 24.0376 6.09659 23.4975 6.09189C22.9574 6.0872 22.5692 5.66609 22.5653 5.06888C22.5653 4.79023 22.5653 4.51158 22.5653 4.24155H9.43831C9.43831 4.51706 9.43831 4.77066 9.43831 5.02426C9.43831 5.66766 9.05634 6.09659 8.49278 6.09189C7.94488 6.08798 7.56606 5.6614 7.56371 5.03679C7.56371 4.76753 7.56371 4.49906 7.56371 4.21885C6.64245 4.21885 5.76344 4.21337 4.8868 4.21885C3.87396 4.22667 3.02237 4.90216 2.91827 5.90717C2.83296 6.73372 2.90106 7.57671 2.90106 8.41891H29.1221C29.1221 7.70194 29.1221 7.00141 29.1221 6.30088C29.1246 6.19349 29.1204 6.08605 29.1096 5.97918C28.9906 5.04696 28.2603 4.28616 27.3328 4.23685C26.3826 4.18832 25.4261 4.22668 24.4367 4.22668Z" fill="#16428B"></path></svg>