<svg xmlns:xlink="http://www.w3.org/1999/xlink" xmlns="http://www.w3.org/2000/svg" width="23" height="28.7" viewBox="0 0 23 37" fill="none"><path d="M13.6528 30.1705L13.6606 28.7603L14.0104 28.776C14.2889 28.7969 14.5659 28.8179 14.842 28.8475C16.8512 29.0628 18.8518 29.3452 20.7314 30.2359C21.1921 30.4538 21.6405 30.7545 22.0261 31.1109C22.9344 31.9467 22.891 33.1495 21.9733 33.987C21.1161 34.7688 20.0984 35.154 19.0527 35.439C15.8668 36.3071 12.6281 36.4675 9.36845 36.2749C7.56953 36.1685 5.78225 35.9533 4.03375 35.4443C2.99117 35.1392 1.96798 34.7749 1.11157 33.9923C0.174491 33.1355 0.148116 31.9633 1.06348 31.0822C1.85472 30.3204 2.81896 29.9657 3.80258 29.6685C5.40912 29.1822 7.04669 28.9381 8.699 28.8091C8.88285 28.7952 9.0667 28.7821 9.25132 28.7699C9.3064 28.7664 9.36225 28.763 9.41733 28.7595L9.41888 30.1662L9.23193 30.1801C9.03489 30.1958 8.85415 30.2097 8.67262 30.2254C6.98541 30.3701 5.30828 30.6011 3.69398 31.1902C3.07185 31.4177 2.47608 31.7646 1.90437 32.1289C1.54521 32.3581 1.54521 32.6806 1.89661 32.9246C2.35352 33.2419 2.84223 33.5251 3.34723 33.7256C5.2532 34.4803 7.24761 34.7322 9.24744 34.8621C11.5172 35.0094 13.7948 34.9989 16.0459 34.6154C17.3391 34.3949 18.6159 34.0315 19.8827 33.655C20.3582 33.5138 20.802 33.1896 21.2232 32.8845C21.5125 32.6745 21.4993 32.3755 21.21 32.1585C20.8524 31.8901 20.4738 31.6373 20.0759 31.4587C18.7455 30.8617 17.3422 30.588 15.928 30.3962C15.2772 30.3073 14.6225 30.249 13.9491 30.1836L13.6528 30.1705ZM13.4123 30.1313C13.4123 30.5862 13.4201 30.9906 13.4108 31.3942C13.3844 32.5821 12.6545 33.4885 11.6716 33.5626C10.6554 33.6393 9.82458 32.8584 9.69504 31.6522C9.64384 31.1728 9.65315 30.6778 9.65315 30.1418C9.65315 30.1418 9.66013 28.4501 9.66013 28.3071C9.66091 23.1571 9.65703 23.4108 9.67021 18.2599C9.67099 17.9086 9.55075 17.8093 9.28623 17.7143C6.08944 16.5708 4.15399 14.1148 3.58383 10.4299C2.81275 5.44546 6.00566 0.744305 10.5057 0.0775681C10.56 0.0697242 10.6112 0.0270181 10.6631 0C11.2434 0 11.8244 0 12.4047 0C13.0082 0.169081 13.6257 0.293713 14.2137 0.515087C17.5997 1.79278 19.9044 5.77229 19.5771 9.74046C19.2598 13.5884 17.0272 16.6493 13.7265 17.7439C13.5116 17.8154 13.4061 17.8869 13.4069 18.1701C13.4147 23.3881 13.4123 23.2025 13.4139 28.4213L13.4123 30.1313ZM4.75596 8.72511C4.56823 12.6 7.2158 16.5272 11.3644 16.6789C14.9359 16.8088 18.0504 13.7548 18.3181 9.56528C18.5748 5.54917 15.9187 1.65943 11.8578 1.4154C8.17305 1.19315 4.89094 4.41964 4.75596 8.72511ZM10.9572 18.1135C10.9486 18.2006 10.9409 18.2407 10.9409 18.2817C10.9401 24.4488 10.9385 25.2131 10.9409 31.3802C10.9409 31.8509 11.1728 32.1393 11.5258 32.1489C11.8803 32.1585 12.1145 31.8753 12.1378 31.4081C12.1417 31.3271 12.1401 31.2451 12.1401 31.1641C12.1401 25.16 12.1401 24.5586 12.1394 18.5545C12.1394 18.4107 12.1285 18.2669 12.1215 18.1143C11.7181 18.1135 11.3489 18.1135 10.9572 18.1135Z" fill="#16428B"></path><path d="M17.1182 9.05021C17.1182 12.4937 14.6009 15.3236 11.5368 15.3245C8.47111 15.3245 5.95231 12.4963 5.95154 9.05282C5.95076 5.61109 8.47267 2.77856 11.5368 2.77856C14.6033 2.77856 17.1182 5.60412 17.1182 9.05021ZM11.4996 13.9108C13.8252 13.9858 15.7739 11.8444 15.8623 9.11557C15.9476 6.49483 13.9998 4.26019 11.5764 4.19657C9.24219 4.13556 7.30209 6.25342 7.22529 8.94649C7.14849 11.6291 9.04438 13.8315 11.4996 13.9108Z" fill="#16428B"></path></svg>