<svg xmlns:xlink="http://www.w3.org/1999/xlink" xmlns="http://www.w3.org/2000/svg" width="20.7" height="30" viewBox="0 0 30 39" fill="none"><path d="M15.4527 0C22.5619 0.0598573 28.6663 5.30735 29.8189 12.3963C30.3876 15.8962 29.5685 19.1309 27.9625 22.2035C26.4777 25.045 24.4356 27.4663 22.3439 29.8465C20.1518 32.3335 17.9459 34.7994 16.1253 37.5927C15.7792 38.1268 15.2381 38.1397 14.8954 37.6162C12.9168 34.5928 10.4397 31.9931 8.08845 29.2831C6.17327 27.0743 4.33769 24.8044 2.97976 22.1812C1.71066 19.7365 0.956139 17.1485 0.99998 14.3646C1.11535 7.41409 6.59669 1.13259 13.3448 0.208914C14.0486 0.111499 14.7489 0.068073 15.4527 0ZM15.5681 35.9015C16.0295 35.2783 16.5153 34.5682 17.0679 33.9156C18.9577 31.6716 20.8752 29.4557 22.7742 27.2139C24.4586 25.2246 26.0196 23.1448 27.1341 20.7587C28.5186 17.8058 29.0574 14.7425 28.2244 11.5126C26.5019 4.84023 20.2164 0.619701 13.4856 1.60793C6.06252 2.6971 0.595004 10.6593 2.94168 18.3915C3.7839 21.1695 5.22605 23.599 7.03509 25.7973C9.82941 29.1963 12.708 32.5248 15.5692 35.9015H15.5681Z" fill="#16428B"></path><path d="M6.52283 14.7918C6.52986 12.3691 7.48266 10.0485 9.1716 8.34052C10.8605 6.6325 13.1473 5.67696 15.5288 5.68412C17.9103 5.69128 20.1915 6.66055 21.8704 8.3787C23.5494 10.0968 24.4887 12.4231 24.4817 14.8458C24.469 19.7752 20.3283 23.9371 15.4561 23.9277C10.5493 23.9148 6.52283 19.7999 6.52283 14.7918ZM7.9073 14.8106C7.9073 18.9959 11.312 22.5087 15.3673 22.5087C19.5968 22.5087 23.103 19.0253 23.103 14.8212C23.103 10.5654 19.7041 7.07492 15.553 7.07492C14.5504 7.06811 13.5564 7.26321 12.6283 7.64899C11.7002 8.03476 10.8563 8.60358 10.1452 9.32266C9.43419 10.0417 8.87008 10.8969 8.4854 11.8387C8.10071 12.7806 7.90305 13.7907 7.90383 14.8106H7.9073Z" fill="#16428B"></path></svg>