<svg width="20" height="20" viewBox="0 0 20 20" fill="none" xmlns="http://www.w3.org/2000/svg">
<path d="M18.9495 20C18.6672 20 18.436 19.7798 18.4188 19.499C18.3095 17.6956 17.6877 16.0712 16.5132 14.6592C15.0903 12.9482 13.2705 11.9051 11.0464 11.638C8.47544 11.3293 6.21316 12.0475 4.29436 13.7864C2.72052 15.2121 1.82922 16.9984 1.58374 19.1042C1.56855 19.2328 1.56071 19.3625 1.55483 19.4921C1.54209 19.7759 1.30836 19.9995 1.02368 19.9995H0.532221C0.223038 19.9995 -0.0219568 19.7373 0.00156268 19.4295C0.328876 15.1274 2.64849 12.231 6.65366 10.5156C5.09941 9.35363 4.22478 7.79924 4.20224 5.8231C4.18411 4.21147 4.76524 2.81316 5.91427 1.681C8.30101 -0.670399 11.9867 -0.479097 14.1583 1.7813C16.5578 4.27899 16.2859 8.40103 13.2769 10.5435C13.3606 10.5768 13.4273 10.6037 13.4944 10.6306C16.5475 11.8454 18.5859 14.0085 19.582 17.1393C19.7976 17.8169 19.9192 18.5156 19.9662 19.226C19.9691 19.269 19.9784 19.3116 19.9878 19.3542C19.9961 19.3914 20 19.43 20 19.4682C20 19.7612 19.7619 19.999 19.4684 19.999H18.9495V20ZM9.98951 1.56211C7.67186 1.55868 5.77364 3.44626 5.76139 5.76684C5.74914 8.08497 7.65471 9.99505 9.98216 9.99848C12.2998 10.0019 14.198 8.11432 14.2103 5.79375C14.2225 3.47611 12.317 1.56553 9.98951 1.56211Z" fill="#F8AE19"/>
</svg>
