<?xml version="1.0" encoding="UTF-8"?>
<svg width="1440px" height="336px" viewBox="0 0 1440 336" version="1.1" xmlns="http://www.w3.org/2000/svg" xmlns:xlink="http://www.w3.org/1999/xlink">
    <title>831F9E56-87AA-4EB5-A7EF-B00F13823684</title>
    <defs>
        <rect id="path-1" x="0" y="0" width="1440" height="336"></rect>
    </defs>
    <g id="Extra-pages" stroke="none" stroke-width="1" fill="none" fill-rule="evenodd">
        <g id="Help" transform="translate(0.000000, -70.000000)">
            <g id="Fill-21-+-Group-Mask" transform="translate(0.000000, 70.000000)">
                <mask id="mask-2" fill="white">
                    <use xlink:href="#path-1"></use>
                </mask>
                <use id="Mask" fill="#275F99" xlink:href="#path-1"></use>
                <path d="M-9.64546862,338.054871 C-20.500299,291.630709 -26.2378522,182.529785 -28,161.416596 C-13.9451092,176.854494 -0.736049394,198.243853 7.70816282,213.14322 C34.3095459,147.925695 111.251967,45.6461686 163.904943,-2.58690643 C218.940343,-52.9879153 377.716907,-158.31912 406.475159,-211.868465 C424.660524,-245.740705 428.08614,-268 428.08614,-268 C428.08614,-268 439.913676,-247.135363 422.447267,-200.089819 C409.42147,-165.002431 347.760395,-69.585727 322.892965,-35.5892109 C298.039633,-1.59269474 107.051007,231.646604 85.665581,255.990982 C54.7645574,291.16122 41.8515384,423.570884 47.6031888,493 C47.6031888,493 10.3725303,423.750395 -9.64546862,338.054871" id="Fill-21" fill="#0B4178" mask="url(#mask-2)"></path>
                <g id="Group" mask="url(#mask-2)">
                    <g transform="translate(802.000000, -176.000000)">
                        <path d="M638.686606,639.970088 C638.686606,639.970088 635.385692,565.493326 558.337528,591.822857 C481.273263,618.152388 512.35016,710.424063 297.388199,733.771999 C82.4423401,757.135711 0,646.012155 0,646.012155 C0,646.012155 42.5093316,699.144486 186.574101,622.506462 C284.55489,574.390783 315.696195,567.102441 315.696195,567.102441 C315.696195,567.102441 391.118055,587.437231 452.321831,580.622158 C491.530249,576.268083 556.228164,575.637058 556.228164,575.637058 C556.228164,575.637058 493.381981,570.841266 450.486201,571.645823 C407.606523,572.45038 360.524218,564.262827 260.047616,522.741362 C159.571014,481.219897 33.9591592,309.533687 33.9591592,309.533687 C33.9591592,309.533687 70.5912537,347.647616 153.661573,355.314573 C236.731892,362.98153 365.982803,409.36189 365.982803,409.36189 C365.982803,409.36189 406.801422,491.426731 545.504219,552.020936 C457.200743,496.080543 409.136215,465.901758 338.867002,324.757173 C268.61389,183.612588 235.508138,84.6362689 235.508138,84.6362689 C235.508138,84.6362689 299.62638,133.808916 379.975458,205.335634 C460.324535,276.878128 490.82176,356.466194 509.049246,396.804487 C527.276732,437.158555 552.347577,479.847417 576.226872,495.433742 C527.34114,440.78695 523.235126,364.164703 486.474215,314.660768 C460.888106,228.93598 496.215937,0 496.215937,0 C496.215937,0 513.4612,77.2690485 548.370378,138.857118 C583.279556,200.460963 607.513096,318.115631 603.455387,367.114746 C599.381576,416.129637 587.627102,444.178711 618.639591,494.02971 C649.668183,543.864934 639.298482,530.455646 639.298482,530.455646 C639.298482,530.455646 612.150478,407.453039 699.809872,338.955242 C787.469266,270.473221 933.434074,126.946516 926.461899,70.9587954 C952.06411,102.084119 916.510851,190.743174 867.303079,291.170851 C818.095308,391.598528 740.193737,469.498602 728.085018,485.621298 C715.992402,501.712444 706.443904,528.578346 712.675386,544.259325 C693.224146,558.299638 644.692659,619.351336 638.686606,639.970088" id="Fill-20" fill="#FFB000"></path>
                        <path d="M589.8058,694.536644 C581.641079,659.642267 577.325442,577.637368 576,561.767796 C586.571722,573.371577 596.507232,589.448731 602.858749,600.647729 C622.867615,551.627461 680.741697,474.749814 720.345892,438.495781 C761.742084,400.612237 881.169674,321.440819 902.800881,281.190851 C916.479438,255.731034 919.056096,239 919.056096,239 C919.056096,239 927.95246,254.682749 914.814683,290.044184 C905.017019,316.417358 858.637166,388.136615 839.932535,413.689844 C821.238506,439.243073 677.581844,614.55566 661.496285,632.853931 C638.253341,659.28938 628.540505,758.814121 632.866746,811 C632.866746,811 604.862816,758.949048 589.8058,694.536644" id="Fill-21" fill="#0B4178"></path>
                    </g>
                </g>
            </g>
        </g>
    </g>
</svg>
