<svg xmlns="http://www.w3.org/2000/svg" width="29" height="24" viewBox="0 0 29 24">
    <g fill="#FFB000">
        <path d="M20.522 2.162c.596 0 1.08.483 1.08 1.08v19.44c0 .596-.484 1.08-1.08 1.08-.597 0-1.08-.484-1.08-1.08V3.242c0-.597.483-1.08 1.08-1.08z"/>
        <path d="M19.757.317c.203-.203.478-.317.765-.317.287 0 .562.114.765.317l6.48 6.48c.273.273.38.672.28 1.045-.1.373-.392.664-.765.764-.373.1-.772-.006-1.045-.28L20.522 2.61l-5.715 5.718c-.274.273-.672.38-1.045.28-.373-.1-.665-.392-.765-.765-.1-.373.007-.772.28-1.045l6.48-6.48zM.317 15.437c.203-.203.478-.317.765-.317.287 0 .562.114.765.317l5.715 5.718 5.715-5.718c.273-.273.672-.38 1.045-.28.373.1.664.392.764.765.1.373-.006.771-.28 1.045l-6.48 6.48c-.202.203-.477.317-.764.317-.287 0-.562-.114-.765-.317l-6.48-6.48C.114 16.764 0 16.489 0 16.202c0-.287.114-.562.317-.765z"/>
        <path d="M7.562.002c.596 0 1.08.483 1.08 1.08v19.44c0 .596-.484 1.08-1.08 1.08-.597 0-1.08-.484-1.08-1.08V1.082c0-.597.483-1.08 1.08-1.08z"/>
    </g>
</svg>
