<svg xmlns="http://www.w3.org/2000/svg" width="36" height="36" viewBox="0 0 36 36">
    <g fill="none" fill-rule="evenodd">
        <g fill-rule="nonzero">
            <g>
                <path fill="#C2F3FF" d="M25.031 36L10.969 36 10.969 26.859 25.031 26.859z" transform="translate(-101 -27) translate(101 27)"/>
                <path fill="#8AE7FF" d="M18 26.859L25.031 26.859 25.031 36 18 36z" transform="translate(-101 -27) translate(101 27)"/>
                <path fill="#FFB000" d="M0 33.891L36 33.891 36 36 0 36z" transform="translate(-101 -27) translate(101 27)"/>
                <path fill="#0064A8" d="M24.422 28.969H7.102V22.01l17.028-1.216c1.216-.087 2.397.367 3.242 1.246.844.878 1.252 2.077 1.117 3.288-.23 2.075-1.98 3.64-4.067 3.64z" transform="translate(-101 -27) translate(101 27)"/>
                <path fill="#0064A8" d="M12.078 23.344H4.933l-.239-.723C2.536 16.103 2.348 9.157 4.15 2.532 4.554 1.042 5.919 0 7.469 0c1.054 0 2.036.474 2.69 1.3.66.83.899 1.9.658 2.933-1.371 5.872-1.094 12 .801 17.725l.46 1.386z" transform="translate(-101 -27) translate(101 27)"/>
                <path fill="#C2F3FF" d="M8.156 29.672c-2.326 0-4.219-1.893-4.219-4.219 0-2.326 1.893-4.219 4.22-4.219 2.326 0 4.218 1.893 4.218 4.22 0 2.325-1.892 4.218-4.219 4.218z" transform="translate(-101 -27) translate(101 27)"/>
                <path fill="#FFB000" d="M10.611 14.789L23.566 13.854 23.718 15.958 10.763 16.893z" transform="translate(-101 -27) translate(101 27)"/>
                <path fill="#004E8D" d="M24.13 20.794l-6.13.438v7.737h6.422c2.088 0 3.836-1.566 4.067-3.64.135-1.212-.273-2.41-1.117-3.29-.845-.878-2.026-1.331-3.242-1.245z" transform="translate(-101 -27) translate(101 27)"/>
                <path fill="#CE8E00" d="M18 33.891L36 33.891 36 36 18 36zM18 16.371L23.718 15.958 23.566 13.854 18 14.256z" transform="translate(-101 -27) translate(101 27)"/>
                <path fill="#C2F3FF" d="M8.578 19.125c-1.745 0-3.164-1.42-3.164-3.164 0-1.745 1.42-3.164 3.164-3.164 1.745 0 3.164 1.42 3.164 3.164 0 1.745-1.42 3.164-3.164 3.164z" transform="translate(-101 -27) translate(101 27)"/>
                <g fill="#8AE7FF">
                    <path d="M2.531 2.11c-.581 0-1.054-.474-1.054-1.055C1.477.473 1.95 0 2.53 0c.582 0 1.055.473 1.055 1.055 0 .581-.473 1.054-1.055 1.054zM2.11 12.656c-1.164 0-2.11-.946-2.11-2.11 0-1.162.946-2.108 2.11-2.108 1.163 0 2.109.946 2.109 2.109s-.946 2.11-2.11 2.11z" transform="translate(-101 -27) translate(101 27) translate(6.047 14.906)"/>
                </g>
            </g>
        </g>
    </g>
</svg>
