<svg width="10" height="13" viewBox="0 0 10 13" fill="none" xmlns="http://www.w3.org/2000/svg">
<path fill-rule="evenodd" clip-rule="evenodd" d="M0.330158 6.17122L0.323988 6.18696C0.223254 6.44401 0.114411 6.70856 0.0619478 6.94639C0.00430921 7.29778 0.00419623 7.46002 0.0039466 7.81848L0.00394513 7.82059L0.00419624 7.82657C0.0014078 7.89555 0 7.96488 0 8.03455C0.159533 10.8042 2.22541 13 4.97059 13C7.71577 13 9.94118 10.7545 9.94118 7.98464C9.94118 6.80991 9.36926 5.78847 8.84938 4.85996C8.82719 4.82032 8.80509 4.78085 8.78314 4.74155C8.4647 4.17149 7.78704 3.31874 7.50212 2.97285L7.50139 2.97197L6.62493 1.8883C6.62443 1.88768 6.62393 1.88707 6.62342 1.88646C6.62266 1.88553 6.62188 1.8846 6.6211 1.88368L5.73084 0.835695C5.72988 0.834557 5.7289 0.833428 5.72791 0.832308L5.43604 0.500992L5.1191 0.0950991C5.07218 0.0350163 5.00055 -3.46413e-05 4.92474 2.56912e-08C4.84893 3.48195e-05 4.77733 0.0351514 4.73047 0.0952772L3.73078 1.37793L2.49623 2.88519L2.49524 2.88641L2.49427 2.88761C2.13767 3.33428 1.35641 4.37146 1.03071 4.89521C0.951136 5.02318 0.884042 5.12861 0.825766 5.22018C0.599059 5.57641 0.505793 5.72296 0.330158 6.17122Z" fill="#383838"/>
</svg>
