<svg width="20" height="12" viewBox="0 0 20 12" fill="none" xmlns="http://www.w3.org/2000/svg">
<path d="M0 3.03776C0 2.44476 0.13986 1.92448 0.41958 1.47692C0.71049 1.01818 1.11329 0.660139 1.62797 0.402797C2.15385 0.145454 2.75245 0.0167828 3.42378 0.0167828C4.0951 0.0167828 4.68811 0.145454 5.2028 0.402797C5.72867 0.660139 6.13147 1.01818 6.41119 1.47692C6.7021 1.92448 6.84755 2.44476 6.84755 3.03776C6.84755 3.63077 6.7021 4.15664 6.41119 4.61538C6.12028 5.07413 5.71189 5.43776 5.18601 5.70629C4.67133 5.96364 4.07832 6.09231 3.40699 6.09231C2.73566 6.09231 2.14266 5.96364 1.62797 5.70629C1.11329 5.43776 0.71049 5.07413 0.41958 4.61538C0.13986 4.15664 0 3.63077 0 3.03776ZM4.63217 3.05455C4.63217 2.60699 4.51469 2.26573 4.27972 2.03077C4.04475 1.7958 3.75385 1.67832 3.40699 1.67832C3.07133 1.67832 2.78601 1.7958 2.55105 2.03077C2.32727 2.26573 2.21538 2.60699 2.21538 3.05455C2.21538 3.49091 2.32727 3.82657 2.55105 4.06154C2.77483 4.2965 3.06014 4.41399 3.40699 4.41399C3.75385 4.41399 4.04475 4.2965 4.27972 4.06154C4.51469 3.81538 4.63217 3.47972 4.63217 3.05455Z" fill="#383838"/>
<path d="M7.82111 6.00839C7.82111 4.84475 8.07286 3.80979 8.57635 2.9035C9.07985 1.98601 9.77915 1.27552 10.6743 0.772028C11.5806 0.257343 12.6043 0 13.7456 0C15.1442 0 16.3414 0.369231 17.3372 1.10769C18.333 1.84615 18.9987 2.85315 19.3344 4.12867H16.1792C15.9442 3.63636 15.6085 3.26154 15.1722 3.0042C14.747 2.74685 14.2603 2.61818 13.712 2.61818C12.8281 2.61818 12.112 2.92587 11.5638 3.54126C11.0155 4.15664 10.7414 4.97902 10.7414 6.00839C10.7414 7.03776 11.0155 7.86014 11.5638 8.47552C12.112 9.09091 12.8281 9.3986 13.712 9.3986C14.2603 9.3986 14.747 9.26993 15.1722 9.01259C15.6085 8.75524 15.9442 8.38042 16.1792 7.88811H19.3344C18.9987 9.16364 18.333 10.1706 17.3372 10.9091C16.3414 11.6364 15.1442 12 13.7456 12C12.6043 12 11.5806 11.7483 10.6743 11.2448C9.77915 10.7301 9.07985 10.0196 8.57635 9.11329C8.07286 8.20699 7.82111 7.17203 7.82111 6.00839Z" fill="#383838"/>
</svg>
