<svg width="17" height="11" viewBox="0 0 17 11" fill="none" xmlns="http://www.w3.org/2000/svg">
<path fill-rule="evenodd" clip-rule="evenodd" d="M0.21188 6.02812C-0.0706267 5.73645 -0.0706267 5.26355 0.21188 4.97188L4.8156 0.218756C5.0981 -0.0729188 5.55614 -0.0729188 5.83864 0.218756C6.12115 0.510432 6.12115 0.98333 5.83864 1.27501L2.46986 4.75312H14.5301L11.1614 1.27501C10.8788 0.98333 10.8788 0.510432 11.1614 0.218756C11.4439 -0.0729188 11.9019 -0.0729188 12.1844 0.218756L16.7881 4.97188C17.0706 5.26355 17.0706 5.73645 16.7881 6.02812L12.1844 10.7812C11.9019 11.0729 11.4439 11.0729 11.1614 10.7812C10.8788 10.4896 10.8788 10.0167 11.1614 9.72499L14.5301 6.24688H2.46986L5.83864 9.72499C6.12115 10.0167 6.12115 10.4896 5.83864 10.7812C5.55614 11.0729 5.0981 11.0729 4.8156 10.7812L0.21188 6.02812Z" fill="#383838"/>
</svg>
