<svg xmlns="http://www.w3.org/2000/svg" width="20" height="20" viewBox="0 0 20 20">
    <g fill="none" fill-rule="evenodd">
        <g fill="#3D3D3D" fill-rule="nonzero">
            <g>
                <g>
                    <path d="M3.35 5.194C1.918 5.194.753 4.03.753 2.597S1.918 0 3.35 0s2.597 1.165 2.597 2.597S4.782 5.194 3.35 5.194zM3.35 14.712c-.219 0-.414-.134-.493-.338L.035 7.009c-.062-.162-.04-.344.058-.487.098-.143.26-.229.434-.229h5.645c.174 0 .337.086.435.229.098.143.12.325.058.487l-2.823 7.365c-.078.204-.274.338-.492.338zM14.51 5.194c-1.433 0-2.598-1.165-2.598-2.597S13.077 0 14.51 0s2.597 1.165 2.597 2.597-1.165 2.597-2.597 2.597zM17.332 14.712h-5.645c-.174 0-.336-.085-.435-.228-.098-.143-.12-.326-.058-.488l2.823-7.364c.078-.204.274-.339.492-.339.219 0 .415.135.493.339l2.822 7.364c.062.162.04.345-.058.488-.098.143-.26.228-.434.228zM8.93 14.712c-.292 0-.528-.236-.528-.527V.527c0-.29.236-.527.528-.527.29 0 .527.236.527.527v13.658c0 .291-.236.527-.527.527z" transform="translate(-527 -94) translate(527 94) translate(1 3)"/>
                </g>
            </g>
        </g>
    </g>
</svg>
