<svg xmlns="http://www.w3.org/2000/svg" width="20" height="20" viewBox="0 0 20 20">
    <g fill="none" fill-rule="evenodd">
        <g fill="#3D3D3D" fill-rule="nonzero">
            <g>
                <g transform="translate(-427 -95) translate(427 95) translate(1 3)">
                    <circle cx="8.942" cy="11.804" r="2.079"/>
                    <path d="M13.911 6.794c-.03-.032-.063-.06-.095-.09l-.093-.088c-.016-.016-.033-.028-.052-.043-2.69-2.443-6.804-2.346-9.37.22l-.302.302-.416.416c-.508.508-.505 1.335.003 1.843.51.51 1.337.51 1.843.003l.718-.718c1.632-1.631 4.287-1.631 5.918 0l.519.502c.502.502 1.321.501 1.826-.005.245-.243.38-.568.38-.913 0-.344-.132-.669-.376-.912l-.503-.517z"/>
                    <path d="M17.454 4.223l-.432-.432c-.002-.002-.003-.004-.006-.005l-.341-.343c-.06-.059-.125-.11-.194-.155C12.1-.56 5.433-.442 1.19 3.64c-.02.02-.044.032-.065.053l-.78.78c-.462.462-.46 1.214.006 1.68.464.464 1.216.468 1.679.004l.78-.78.014-.016c3.431-3.315 8.874-3.336 12.333-.068l.614.614c.462.462 1.215.46 1.68-.004.463-.465.465-1.218.003-1.68z"/>
                </g>
            </g>
        </g>
    </g>
</svg>
