<svg width="21" height="9" viewBox="0 0 21 9" fill="none" xmlns="http://www.w3.org/2000/svg">
<path d="M9.1282 0L5.9359 9H3.19231L0 0H2.33333L4.5641 6.79487L6.80769 0H9.1282Z" fill="#383838"/>
<path d="M12.2368 0V9H10.0445V0H12.2368Z" fill="#383838"/>
<path d="M20.6845 2.89744C20.6845 3.4188 20.5648 3.89744 20.3255 4.33333C20.0862 4.76068 19.7187 5.10684 19.223 5.3718C18.7272 5.63675 18.1118 5.76923 17.3768 5.76923H16.0178V9H13.8255V0H17.3768C18.0948 0 18.7016 0.123931 19.1973 0.371794C19.693 0.619658 20.0648 0.961538 20.3127 1.39744C20.5606 1.83333 20.6845 2.33333 20.6845 2.89744ZM17.2101 4.02564C17.6289 4.02564 17.9409 3.92735 18.146 3.73077C18.3512 3.53419 18.4537 3.25641 18.4537 2.89744C18.4537 2.53846 18.3512 2.26068 18.146 2.0641C17.9409 1.86752 17.6289 1.76923 17.2101 1.76923H16.0178V4.02564H17.2101Z" fill="#383838"/>
</svg>
