<svg width="111" height="87" viewBox="0 0 111 87" fill="none" xmlns="http://www.w3.org/2000/svg">
<path d="M34.9167 19.7414C29.6024 19.7414 25.2761 15.4382 25.2761 10.1439C25.2798 4.85326 29.6024 0.550018 34.9167 0.550018C40.231 0.550018 44.5573 4.85326 44.5573 10.1476C44.5573 15.4382 40.231 19.7414 34.9167 19.7414ZM34.9167 3.72587C31.3602 3.72587 28.4662 6.60697 28.4662 10.1476C28.4662 13.6882 31.3602 16.5693 34.9167 16.5693C38.4732 16.5693 41.3672 13.6882 41.3672 10.1476C41.3672 6.60329 38.4732 3.72587 34.9167 3.72587Z" fill="#456691"/>
<path d="M79.1386 84.102H41.9974C41.1166 84.102 40.4023 83.3909 40.4023 82.5141V57.8515C40.4023 56.9747 41.1166 56.2636 41.9974 56.2636C42.8782 56.2636 43.5924 56.9747 43.5924 57.8515V80.9262H77.5435V63.6985C77.5435 62.8216 78.2578 62.1106 79.1386 62.1106C80.0193 62.1106 80.7336 62.8216 80.7336 63.6985V82.5141C80.7299 83.3909 80.0193 84.102 79.1386 84.102Z" fill="#17428D"/>
<path d="M83.0578 59.4396H72.5882C71.7075 59.4396 70.9932 58.7285 70.9932 57.8516C70.9932 56.9748 71.7075 56.2637 72.5882 56.2637H83.0578C86.2627 56.2637 88.868 53.67 88.868 50.4794C88.868 47.2888 86.2627 44.6951 83.0578 44.6951H50.3428C47.0824 44.6951 44.1291 42.9008 42.6377 40.0124L23.2596 16.0968C20.9466 11.6167 15.5213 9.72667 10.9101 11.7936L8.25662 12.9836C6.48394 13.7794 5.14055 15.2162 4.47071 17.0326C3.80086 18.8489 3.89708 20.8127 4.73346 22.5553C5.33299 23.8043 6.78 24.4122 8.09378 23.9627C8.23811 23.9148 8.43426 23.8485 8.6489 23.7932L11.01 23.2038C13.8559 22.4927 16.7832 23.9148 17.9712 26.5859L37.8785 56.2674H52.0822C52.9629 56.2674 53.6772 56.9785 53.6772 57.8553C53.6772 58.7322 52.9629 59.4432 52.0822 59.4432H36.8312C36.1946 59.4432 35.6173 59.0675 35.3657 58.4853L15.0513 27.8533C14.4999 26.6117 13.1269 25.9449 11.7909 26.2801L9.42977 26.8696C9.35205 26.8917 9.25213 26.9249 9.13 26.9654C6.28409 27.9344 3.16063 26.6265 1.86165 23.9222C0.647787 21.4021 0.510858 18.5653 1.47676 15.9384C2.44267 13.3152 4.38559 11.2335 6.94654 10.0877L9.60001 8.89771C15.7618 6.13818 23.008 8.66191 26.0944 14.6452L45.4688 38.5608C46.4125 40.3845 48.2777 41.5192 50.3391 41.5192H83.0541C88.0169 41.5192 92.0544 45.5388 92.0544 50.4794C92.0544 55.42 88.0206 59.4396 83.0578 59.4396Z" fill="#17428D"/>
<path d="M72.3965 43.3419L69.9545 43.6865C69.0831 43.8094 68.2756 43.2037 68.1512 42.3339C68.0268 41.464 68.6325 40.6589 69.5038 40.5359L71.9459 40.1913C73.1175 40.026 73.9335 38.9414 73.7662 37.7718C73.6098 36.679 72.6642 35.8914 71.5607 35.9316L51.413 37.6523C50.867 37.6995 50.3361 37.4612 50.0051 37.0269L40.0389 25.68C39.5055 24.9797 39.6431 23.9834 40.344 23.4519C41.0448 22.9205 42.0433 23.0593 42.5767 23.7596L52.0105 34.4135L71.3166 32.7631C71.3349 32.7605 71.3537 32.7616 71.3757 32.7585C74.143 32.6252 76.5269 34.5895 76.9185 37.327C77.3341 40.2327 75.3072 42.9311 72.3965 43.3419Z" fill="#456691"/>
<path d="M104.481 81.9568C104.047 82.0815 103.606 82.1688 103.162 82.2143C101.357 82.4007 99.6624 81.8924 98.5122 80.8212L89.2718 72.1022C88.6779 71.5417 88.7871 70.569 89.5158 69.9318C90.2445 69.2947 91.3188 69.2323 91.9128 69.7928L101.148 78.5061C101.691 79.0134 102.473 79.2454 103.337 79.1578C104.202 79.0701 105.018 78.6716 105.633 78.0388C106.768 76.8747 106.857 75.2838 105.838 74.3462L90.9853 60.563C90.3842 60.0081 90.485 59.0342 91.2131 58.3937C91.9366 57.7509 93.0137 57.6806 93.6154 58.2389L108.467 72.0187C110.621 74.0105 110.436 77.3766 108.029 79.8469C107.056 80.8395 105.81 81.5751 104.481 81.9568Z" fill="#456691"/>
</svg>
