<svg width="139" height="46" viewBox="0 0 139 46" fill="none" xmlns="http://www.w3.org/2000/svg">
<path fill-rule="evenodd" clip-rule="evenodd" d="M30.4354 8.37664L30.4272 8.3974C30.2944 8.73637 30.1509 9.08522 30.0817 9.39884C30.0057 9.86221 30.0055 10.0762 30.0052 10.5489L30.0052 10.5516L30.0055 10.5595C30.0019 10.6505 30 10.7419 30 10.8338C30.2104 14.4861 32.9346 17.3816 36.5546 17.3816C40.1746 17.3816 43.1092 14.4206 43.1092 10.768C43.1092 9.21888 42.3551 7.87191 41.6695 6.64751C41.6403 6.59524 41.6111 6.54319 41.5822 6.49136C41.1622 5.73964 40.2686 4.61513 39.8929 4.15902L39.8919 4.15785L38.7362 2.72884C38.7355 2.72802 38.7349 2.72721 38.7342 2.72641C38.7332 2.72518 38.7321 2.72396 38.7311 2.72274L37.5572 1.34079C37.5559 1.33928 37.5546 1.3378 37.5533 1.33632L37.1684 0.899419L36.7505 0.364175C36.6886 0.284945 36.5941 0.238724 36.4942 0.23877C36.3942 0.238815 36.2998 0.285123 36.238 0.36441L34.9197 2.05582L33.2917 4.04342L33.2904 4.04502L33.2891 4.04661C32.8189 4.63562 31.7887 6.00334 31.3592 6.694C31.2542 6.86275 31.1658 7.00177 31.0889 7.12252C30.79 7.59228 30.667 7.78554 30.4354 8.37664Z" fill="#FCB445"/>
<path fill-rule="evenodd" clip-rule="evenodd" d="M54.611 6.58797C56.3606 6.58372 57.7777 5.16404 57.7777 3.41337C57.7777 1.66009 56.3564 0.23877 54.6031 0.23877C52.8498 0.23877 51.4285 1.66009 51.4285 3.41337C51.4285 5.16404 52.8456 6.58372 54.5952 6.58797H51.4285L55.238 16.7467L58.4126 6.58797H54.611ZM69.109 6.58798C70.8622 6.5879 72.2834 5.16661 72.2834 3.41337C72.2834 1.66009 70.8621 0.23877 69.1088 0.23877C67.3555 0.23877 65.9342 1.66009 65.9342 3.41337C65.9342 5.16666 67.3555 6.58798 69.1088 6.58798H69.1089L65.9343 16.7467H72.9185L69.109 6.58798ZM61.4781 0.873693V17.3816H62.4781V0.873693H61.4781Z" fill="#FCB445"/>
<path fill-rule="evenodd" clip-rule="evenodd" d="M77.2371 10.6519C77.6125 9.31128 79.0036 8.52877 80.3442 8.90415L92.6149 10.1971H107.394C108.786 10.1971 109.914 11.3257 109.914 12.7179C109.914 14.1101 108.786 15.2387 107.394 15.2387H91.9224L78.9848 13.7591C77.6442 13.3837 76.8617 11.9926 77.2371 10.6519Z" fill="#FCB445"/>
<path d="M111.428 4.03597C111.428 3.29471 111.609 2.64436 111.971 2.08492C112.347 1.5115 112.868 1.06394 113.533 0.742265C114.213 0.420587 114.987 0.259748 115.856 0.259748C116.724 0.259748 117.49 0.420587 118.156 0.742265C118.836 1.06394 119.357 1.5115 119.718 2.08492C120.094 2.64436 120.283 3.29471 120.283 4.03597C120.283 4.77723 120.094 5.43457 119.718 6.008C119.342 6.58143 118.814 7.03597 118.134 7.37164C117.469 7.69332 116.702 7.85415 115.834 7.85415C114.966 7.85415 114.199 7.69332 113.533 7.37164C112.868 7.03597 112.347 6.58143 111.971 6.008C111.609 5.43457 111.428 4.77723 111.428 4.03597ZM117.418 4.05695C117.418 3.49751 117.266 3.07094 116.962 2.77723C116.658 2.48352 116.282 2.33667 115.834 2.33667C115.4 2.33667 115.031 2.48352 114.727 2.77723C114.438 3.07094 114.293 3.49751 114.293 4.05695C114.293 4.60241 114.438 5.02199 114.727 5.31569C115.016 5.6094 115.385 5.75625 115.834 5.75625C116.282 5.75625 116.658 5.6094 116.962 5.31569C117.266 5.008 117.418 4.58842 117.418 4.05695Z" fill="#FCB445"/>
<path d="M121.541 7.74926C121.541 6.29471 121.867 5.00101 122.518 3.86814C123.169 2.72129 124.073 1.83318 125.231 1.2038C126.402 0.560448 127.726 0.23877 129.202 0.23877C131.01 0.23877 132.558 0.700308 133.846 1.62338C135.134 2.54646 135.994 3.8052 136.428 5.39961H132.349C132.045 4.78422 131.611 4.31569 131.047 3.99401C130.497 3.67234 129.867 3.5115 129.159 3.5115C128.016 3.5115 127.09 3.89611 126.381 4.66534C125.672 5.43457 125.317 6.46254 125.317 7.74926C125.317 9.03597 125.672 10.0639 126.381 10.8332C127.09 11.6024 128.016 11.987 129.159 11.987C129.867 11.987 130.497 11.8262 131.047 11.5045C131.611 11.1828 132.045 10.7143 132.349 10.0989H136.428C135.994 11.6933 135.134 12.9521 133.846 13.8751C132.558 14.7842 131.01 15.2388 129.202 15.2388C127.726 15.2388 126.402 14.9241 125.231 14.2947C124.073 13.6514 123.169 12.7632 122.518 11.6304C121.867 10.4975 121.541 9.2038 121.541 7.74926Z" fill="#FCB445"/>
<path d="M121.258 40.529L121.258 29.7303L131.022 29.7303L138.025 40.529L121.258 40.529Z" fill="#FCB445"/>
<path fill-rule="evenodd" clip-rule="evenodd" d="M92.3832 34.1732C92.0627 33.7755 92.0627 33.1306 92.3832 32.7329L97.6059 26.2513C97.9264 25.8536 98.446 25.8536 98.7665 26.2513C99.087 26.6491 99.087 27.2939 98.7665 27.6917L94.9448 32.4346H108.627L104.805 27.6917C104.484 27.2939 104.484 26.6491 104.805 26.2513C105.125 25.8536 105.645 25.8536 105.965 26.2513L111.188 32.7329C111.509 33.1306 111.509 33.7755 111.188 34.1732L105.965 40.6547C105.645 41.0525 105.125 41.0525 104.805 40.6547C104.484 40.257 104.484 39.6121 104.805 39.2144L108.627 34.4715H94.9448L98.7665 39.2144C99.087 39.6121 99.087 40.257 98.7665 40.6547C98.446 41.0525 97.9264 41.0525 97.6059 40.6547L92.3832 34.1732Z" fill="#FCB445"/>
<path fill-rule="evenodd" clip-rule="evenodd" d="M9.40356 2.8747C6.14681 3.41617 3.50276 5.07344 2.00987 6.40691C1.50824 6.85497 0.743559 6.80566 0.301897 6.29676C-0.139762 5.78787 -0.0911529 5.01211 0.410471 4.56405C2.16707 2.99503 5.21524 1.08293 9.01212 0.451652C12.8546 -0.187193 17.3994 0.499922 22.0206 4.05228C22.5533 4.46177 22.658 5.23182 22.2543 5.77223C21.8507 6.31264 21.0916 6.41878 20.5589 6.00929C16.4849 2.87759 12.6148 2.3408 9.40356 2.8747ZM10.6609 7.14977C8.99851 7.30662 7.4305 8.13685 5.93848 9.46954C5.39041 9.95909 4.55492 9.9052 4.07237 9.3492C3.58981 8.79318 3.64292 7.94559 4.19099 7.45605C5.94847 5.88624 8.02213 4.70444 10.416 4.47858C12.8311 4.25072 15.3793 5.01374 18.0327 6.96812C18.6237 7.40336 18.7549 8.24216 18.3259 8.84163C17.8969 9.44111 17.07 9.57425 16.4791 9.13902C14.2247 7.47854 12.3021 6.99493 10.6609 7.14977ZM11.25 15.2388C12.8095 15.2388 14.0737 13.9562 14.0737 12.3742C14.0737 10.7921 12.8095 9.50957 11.25 9.50957C9.69049 9.50957 8.42628 10.7921 8.42628 12.3742C8.42628 13.9562 9.69049 15.2388 11.25 15.2388Z" fill="#FCB445"/>
</svg>
