<svg width="141" height="46" viewBox="0 0 141 46" fill="none" xmlns="http://www.w3.org/2000/svg">
<path fill-rule="evenodd" clip-rule="evenodd" d="M31.0858 8.32632L31.0775 8.34752C30.9418 8.69374 30.7952 9.05004 30.7245 9.37037C30.6469 9.84364 30.6468 10.0622 30.6464 10.545L30.6464 10.5478L30.6468 10.5558C30.643 10.6488 30.6411 10.7421 30.6411 10.836C30.856 14.5663 33.6384 17.5237 37.3358 17.5237C41.0332 17.5237 44.0305 14.4994 44.0305 10.7688C44.0305 9.18656 43.2602 7.81081 42.56 6.56024C42.5301 6.50685 42.5003 6.45369 42.4708 6.40075C42.0419 5.63297 41.1292 4.48443 40.7454 4.01857L40.7444 4.01737L39.564 2.55783C39.5633 2.557 39.5626 2.55617 39.5619 2.55535C39.5609 2.55409 39.5599 2.55284 39.5588 2.5516L38.3598 1.14011C38.3585 1.13858 38.3571 1.13706 38.3558 1.13555L37.9627 0.689316L37.5358 0.142635C37.4726 0.0617114 37.3762 0.0145026 37.2741 0.0145493C37.1719 0.0145962 37.0755 0.0618933 37.0124 0.142874L35.666 1.87043L34.0032 3.9005L34.0019 3.90214L34.0005 3.90376C33.5203 4.50535 32.468 5.9023 32.0293 6.60772C31.9222 6.78008 31.8318 6.92207 31.7533 7.04541C31.448 7.5252 31.3223 7.72259 31.0858 8.32632Z" fill="#FCB445"/>
<path fill-rule="evenodd" clip-rule="evenodd" d="M70.5857 6.49944C72.3763 6.49934 73.8279 5.04769 73.8279 3.25699C73.8279 1.46624 72.3762 0.0145493 70.5855 0.0145493C68.7947 0.0145493 67.343 1.46624 67.343 3.25699C67.343 5.04774 68.7947 6.49944 70.5855 6.49944H70.5856L67.3432 16.8752H74.4766L70.5857 6.49944ZM55.7701 6.49944C57.5608 6.49944 59.0125 5.04775 59.0125 3.257C59.0125 1.46625 57.5608 0.0145557 55.7701 0.0145557C53.9793 0.0145557 52.5276 1.46625 52.5276 3.257C52.5276 5.04775 53.9793 6.49944 55.7701 6.49944ZM55.7701 6.49944H52.5276L56.4185 16.8753L59.661 6.49944H55.7701ZM62.8026 0.663032V17.5237H63.8026V0.663032H62.8026Z" fill="#FCB445"/>
<path fill-rule="evenodd" clip-rule="evenodd" d="M79.2126 5.45646C79.9678 4.34587 81.4804 4.05776 82.5909 4.81297L94.1309 12.6602H107.973C109.316 12.6602 110.405 13.7489 110.405 15.092C110.405 16.435 109.316 17.5237 107.973 17.5237H92.634L79.8561 8.83479C78.7455 8.07958 78.4574 6.56706 79.2126 5.45646Z" fill="#FCB445"/>
<path d="M113.81 3.8929C113.81 3.1358 113.995 2.47155 114.364 1.90015C114.748 1.31447 115.28 0.857357 115.96 0.528805C116.654 0.200252 117.445 0.0359761 118.331 0.0359761C119.218 0.0359761 120.001 0.200252 120.681 0.528805C121.375 0.857357 121.907 1.31447 122.277 1.90015C122.661 2.47155 122.853 3.1358 122.853 3.8929C122.853 4.65 122.661 5.32139 122.277 5.90707C121.893 6.49275 121.353 6.95701 120.659 7.29984C119.979 7.6284 119.196 7.79267 118.309 7.79267C117.423 7.79267 116.64 7.6284 115.96 7.29984C115.28 6.95701 114.748 6.49275 114.364 5.90707C113.995 5.32139 113.81 4.65 113.81 3.8929ZM119.927 3.91432C119.927 3.34293 119.772 2.90724 119.462 2.60726C119.152 2.30727 118.767 2.15728 118.309 2.15728C117.866 2.15728 117.489 2.30727 117.179 2.60726C116.883 2.90724 116.736 3.34293 116.736 3.91432C116.736 4.47143 116.883 4.89998 117.179 5.19996C117.474 5.49995 117.851 5.64994 118.309 5.64994C118.767 5.64994 119.152 5.49995 119.462 5.19996C119.772 4.8857 119.927 4.45715 119.927 3.91432Z" fill="#FCB445"/>
<path d="M124.139 7.68553C124.139 6.19991 124.471 4.87855 125.136 3.72148C125.801 2.55012 126.725 1.64303 127.907 1.00021C129.104 0.343102 130.456 0.0145493 131.963 0.0145493C133.81 0.0145493 135.391 0.48595 136.706 1.42875C138.022 2.37156 138.901 3.6572 139.344 5.28567H135.177C134.867 4.65714 134.423 4.17859 133.847 3.85004C133.286 3.52149 132.643 3.35721 131.919 3.35721C130.751 3.35721 129.806 3.75005 129.082 4.53572C128.358 5.32138 127.996 6.37132 127.996 7.68553C127.996 8.99974 128.358 10.0497 129.082 10.8354C129.806 11.621 130.751 12.0139 131.919 12.0139C132.643 12.0139 133.286 11.8496 133.847 11.521C134.423 11.1925 134.867 10.7139 135.177 10.0854H139.344C138.901 11.7139 138.022 12.9995 136.706 13.9423C135.391 14.8708 133.81 15.3351 131.963 15.3351C130.456 15.3351 129.104 15.0137 127.907 14.3709C126.725 13.7138 125.801 12.8067 125.136 11.6496C124.471 10.4925 124.139 9.17116 124.139 7.68553Z" fill="#FCB445"/>
<path d="M123.849 41.1658L123.849 30.1363L133.822 30.1363L140.975 41.1658L123.849 41.1658Z" fill="#FCB445"/>
<path fill-rule="evenodd" clip-rule="evenodd" d="M94.3576 34.6742C94.0302 34.2679 94.0302 33.6093 94.3576 33.203L99.6919 26.583C100.019 26.1768 100.55 26.1768 100.877 26.583C101.205 26.9893 101.205 27.6479 100.877 28.0541L96.9739 32.8984H110.948L107.045 28.0541C106.717 27.6479 106.717 26.9893 107.045 26.583C107.372 26.1768 107.903 26.1768 108.23 26.583L113.564 33.203C113.892 33.6093 113.892 34.2679 113.564 34.6742L108.23 41.2942C107.903 41.7004 107.372 41.7004 107.045 41.2942C106.717 40.888 106.717 40.2293 107.045 39.8231L110.948 34.9788H96.9739L100.877 39.8231C101.205 40.2293 101.205 40.888 100.877 41.2942C100.55 41.7004 100.019 41.7004 99.6919 41.2942L94.3576 34.6742Z" fill="#FCB445"/>
<path fill-rule="evenodd" clip-rule="evenodd" d="M9.6045 2.70682C6.27816 3.25986 3.57761 4.95255 2.05282 6.31452C1.54047 6.77215 0.759448 6.72178 0.308348 6.20201C-0.142749 5.68225 -0.0931008 4.88991 0.419243 4.43228C2.21338 2.82973 5.32668 0.87676 9.2047 0.231996C13.1293 -0.420501 17.7712 0.281298 22.4912 3.90957C23.0353 4.32781 23.1421 5.11431 22.7299 5.66627C22.3176 6.21823 21.5423 6.32664 20.9983 5.9084C16.8372 2.70977 12.8843 2.16152 9.6045 2.70682ZM10.8887 7.07325C9.1908 7.23345 7.58928 8.08143 6.06538 9.44259C5.5056 9.9426 4.65226 9.88757 4.15939 9.31968C3.66652 8.75178 3.72077 7.88608 4.28055 7.38607C6.07559 5.78272 8.19356 4.57566 10.6386 4.34498C13.1053 4.11225 15.7079 4.89157 18.4181 6.88772C19.0216 7.33226 19.1557 8.18898 18.7175 8.80127C18.2793 9.41355 17.4348 9.54954 16.8313 9.10501C14.5287 7.40905 12.565 6.9151 10.8887 7.07325ZM11.4904 15.3351C13.0832 15.3351 14.3744 14.0252 14.3744 12.4093C14.3744 10.7934 13.0832 9.48348 11.4904 9.48348C9.89757 9.48348 8.60634 10.7934 8.60634 12.4093C8.60634 14.0252 9.89757 15.3351 11.4904 15.3351Z" fill="#FCB445"/>
</svg>
