<svg width="148" height="86" viewBox="0 0 148 86" fill="none" xmlns="http://www.w3.org/2000/svg">
<path d="M25.6869 22.2706C19.7133 22.2706 14.8503 17.4335 14.8503 11.4824C14.8545 5.53548 19.7133 0.69841 25.6869 0.69841C31.6605 0.69841 36.5234 5.53548 36.5234 11.4866C36.5234 17.4335 31.6605 22.2706 25.6869 22.2706ZM25.6869 4.26824C21.6892 4.26824 18.4362 7.50676 18.4362 11.4866C18.4362 15.4664 21.6892 18.7049 25.6869 18.7049C29.6845 18.7049 32.9376 15.4664 32.9376 11.4866C32.9376 7.50262 29.6845 4.26824 25.6869 4.26824Z" fill="#FCB445"/>
<path d="M100.834 85.9384H59.0852C58.0951 85.9384 57.2922 85.1391 57.2922 84.1535V56.4314C57.2922 55.4458 58.0951 54.6465 59.0852 54.6465C60.0752 54.6465 60.8781 55.4458 60.8781 56.4314V82.3686H99.0409V63.0037C99.0409 62.0181 99.8438 61.2188 100.834 61.2188C101.824 61.2188 102.627 62.0181 102.627 63.0037V84.1535C102.623 85.1391 101.824 85.9384 100.834 85.9384Z" fill="#FBAE2E"/>
<path d="M109.537 58.6162L98.031 58.5366C97.063 58.7446 96.1101 58.1318 95.9031 57.1682C95.696 56.2045 96.313 55.2544 97.281 55.0464L108.787 55.126C112.309 54.3692 114.559 50.9035 113.806 47.3971C113.052 43.8908 109.537 42.4125 106.055 42.4125L69.9726 41.0215C66.9074 41.0215 65.1237 41.0157 59.5118 40.511C56.9961 40.2541 53.0325 39.0636 50.5065 37.8882L26.0706 27.4989C21.7483 25.5346 16.1202 22.1163 11.5408 25.4767L9.73841 26.9071C8.61884 27.6709 6.84122 30.0967 6.53403 32.251C6.22684 34.4053 6.79633 36.5406 8.12703 38.2582C9.08085 39.4892 9.94593 39.9201 10.943 39.7011C12.1906 39.433 11.9411 39.4866 12.636 39.0763L14.2871 38.202C17.2467 36.7485 18.5521 36.2387 23.4909 38.5709C23.4909 38.5709 29.7083 41.4266 36.2529 44.4426C45.5242 48.7152 59.137 54.5703 59.137 54.5703L74.2359 54.7889C75.2039 54.5809 76.1567 55.1937 76.3638 56.1573C76.5709 57.121 75.9539 58.0711 74.9859 58.2791L58.736 58.3078C58.0365 58.4581 57.2178 57.9489 56.4002 57.7084C55.5826 57.4679 46.6763 53.0996 36.0055 48.1503C25.3347 43.201 22.6989 41.8677 21.2106 41.0158C19.7224 40.1638 17.2607 40.7145 15.8717 41.3985L13.6361 42.5158C13.556 42.5585 13.234 42.7066 13.1093 42.78C11.1014 43.8034 7.35996 43.1037 5.2938 40.4385C3.36468 37.9558 2.54424 34.8704 2.98538 31.7555C3.42739 28.6446 5.071 25.8981 7.6148 24.0341L9.35903 22.8132C15.479 18.3254 23.3224 23.1419 28.3456 25.259C28.3456 25.259 48.1323 33.0755 51.6633 34.7682C55.1944 36.461 53.916 36.1725 59.137 36.4277C64.358 36.6829 62.0611 36.6829 69.7202 36.8815L105.301 38.9232C111.064 38.9232 116.141 41.2151 117.308 46.6446C118.474 52.0742 114.991 57.4442 109.537 58.6162Z" fill="#FBAE2E"/>
<path d="M75.8739 38.8192L73.1115 39.0794C72.1258 39.1722 71.2515 38.4518 71.1591 37.4705C71.0667 36.4892 71.7911 35.6181 72.7768 35.5253L75.5392 35.2651C76.8645 35.1403 77.8403 33.9669 77.7161 32.6475C77.6 31.4147 76.5805 30.4833 75.3384 30.4713L54.2767 32.7408C53.6606 32.7656 53.0772 32.4711 52.7289 31.9673L36.7602 24.7837C36.199 23.9714 36.4079 22.8619 37.2243 22.3025C38.0407 21.7431 39.1549 21.9501 39.7161 22.7625L55.1244 29.1419L75.2368 26.9078C75.2575 26.9058 75.2786 26.908 75.3035 26.9056C78.4199 26.8992 80.9911 29.2235 81.282 32.3117C81.5907 35.5896 79.1664 38.5092 75.8739 38.8192Z" fill="#FCB445"/>
<path d="M141.003 69.3515C140.662 69.7002 140.29 70.0183 139.887 70.2998C138.251 71.4452 136.262 71.8937 134.432 71.5318L119.656 68.5207C118.707 68.3271 118.17 67.3755 118.459 66.3976C118.748 65.4196 119.754 64.7823 120.704 64.9759L135.471 67.9846C136.336 68.1568 137.252 67.9476 138.037 67.4006C138.821 66.8536 139.354 66.047 139.535 65.1348C139.872 63.4535 138.907 61.9457 137.293 61.6357L118.831 56.7122C117.877 56.5276 117.332 55.5796 117.618 54.5988C117.898 53.6184 118.902 52.9725 119.858 53.1598L138.317 58.0806C141.735 58.7452 143.78 61.934 143.067 65.4998C142.775 66.9361 142.047 68.2835 141.003 69.3515Z" fill="#FCB445"/>
</svg>
