<svg xmlns="http://www.w3.org/2000/svg" width="24" height="15" viewBox="0 0 24 15">
    <g fill="none" fill-rule="evenodd">
        <g fill="#0B4178" fill-rule="nonzero">
            <g>
                <g>
                    <path d="M6.678.019L10.544.019 10.544 5.291 6.678 5.291zM18.025.019h-.803v5.468L24 7.747V5.993C24 2.699 21.32.019 18.025.019zM5.272.019H2.209C.99.019 0 1.008 0 2.229V5.29h5.272V.019zM0 6.697v6.075c0 .388.315.703.703.703H2.31c0-1.606 1.306-2.913 2.912-2.913 1.606 0 2.912 1.307 2.912 2.913h7.732c0-1.606 1.306-2.913 2.912-2.913 1.606 0 2.912 1.307 2.912 2.913h1.607c.388 0 .703-.315.703-.703V9.229l-7.595-2.532H0zM11.95.019L15.816.019 15.816 5.291 11.95 5.291z" transform="translate(-618 -981) translate(110 555) translate(508 426)"/>
                    <path d="M5.222 11.969c-.83 0-1.506.675-1.506 1.506 0 .83.675 1.506 1.506 1.506.83 0 1.506-.675 1.506-1.506 0-.83-.676-1.506-1.506-1.506zM18.778 11.969c-.83 0-1.506.675-1.506 1.506 0 .83.676 1.506 1.506 1.506s1.506-.675 1.506-1.506c0-.83-.675-1.506-1.506-1.506z" transform="translate(-618 -981) translate(110 555) translate(508 426)"/>
                </g>
            </g>
        </g>
    </g>
</svg>
