<?xml version="1.0" encoding="UTF-8"?>
<svg width="20px" height="14px" viewBox="0 0 20 14" version="1.1" xmlns="http://www.w3.org/2000/svg" xmlns:xlink="http://www.w3.org/1999/xlink">
    <title>8C78B6FC-1FED-4B35-8648-12F4D0ED8172</title>
    <g id="Main" stroke="none" stroke-width="1" fill="none" fill-rule="evenodd">
        <g id="Search-results-/-3.1-see-search-result" transform="translate(-1207.000000, -598.000000)" fill="#0B4178" fill-rule="nonzero">
            <g id="Group-77" transform="translate(1200.000000, 501.000000)">
                <g id="Icon" transform="translate(7.000000, 97.000000)">
                    <path d="M17.7452365,0.568627239 C17.4955748,0.212388898 17.087954,0.000189780528 16.6529406,3.10862447e-15 L1.33333858,3.10862447e-15 C0.597298699,0.000826650679 0.000826650679,0.597298699 -7.25345709e-15,1.33333858 L-7.25345709e-15,11.6667126 L1.71175674,11.6667126 C1.95351699,13.0170772 3.1281822,14.0001155 4.50001772,14.0001155 C5.87185323,14.0001155 7.04651845,13.0170772 7.2882787,11.6667126 L12.3784654,11.6667126 C12.6202257,13.0170772 13.7948909,14.0001155 15.1667264,14.0001155 C16.5385619,14.0001155 17.7132271,13.0170772 17.9549874,11.6667126 L20.0000799,11.6667126 L20.0000799,4.10505783 C20.000392,3.89984084 19.9372599,3.69954418 19.819328,3.53159724 L17.7452365,0.568627239 Z M6.83336024,1.33333858 L12.8333839,1.33333858 L12.8333839,5.33335433 L6.83336024,5.33335433 L6.83336024,1.33333858 Z M1.33333858,1.33333858 L5.50002165,1.33333858 L5.50002165,5.33335433 L1.33333858,5.33335433 L1.33333858,1.33333858 Z M4.50001181,12.6667165 C3.67158733,12.6667165 3.00001181,11.995141 3.00001181,11.1667047 C3.00001181,10.3382802 3.67158733,9.66670473 4.50001181,9.66670473 C5.3284481,9.66670473 6.00002362,10.3382802 6.00002362,11.1667047 C5.9991051,11.9947603 5.32806734,12.665798 4.50001181,12.6667165 L4.50001181,12.6667165 Z M15.1667205,12.6667165 C14.338296,12.6667165 13.6667205,11.995141 13.6667205,11.1667047 C13.6667205,10.3382802 14.338296,9.66670473 15.1667205,9.66670473 C15.9951568,9.66670473 16.6667323,10.3382802 16.6667323,11.1667047 C16.6658138,11.9947603 15.994776,12.665798 15.1667205,12.6667165 L15.1667205,12.6667165 Z M18.6667402,10.333374 L17.8748204,10.333374 C17.5090664,9.1444562 16.4106322,8.33313691 15.1667264,8.33313691 C13.9228206,8.33313691 12.8243864,9.1444562 12.4586324,10.333374 L7.20811171,10.333374 C6.84235771,9.1444562 5.74392349,8.33313691 4.50001772,8.33313691 C3.25611194,8.33313691 2.15767772,9.1444562 1.79192372,10.333374 L1.33333858,10.333374 L1.33333858,6.66669291 L18.6667402,6.66669291 L18.6667402,10.333374 Z M18.6667402,5.33335433 L14.1667224,5.33335433 L14.1667224,1.33333858 L16.6529406,1.33333858 L18.6667402,4.21014158 L18.6667402,5.33335433 Z" id="Icon-Shape"></path>
                </g>
            </g>
        </g>
    </g>
</svg>
