<?xml version="1.0" encoding="UTF-8"?>
<svg width="64" height="64" viewBox="0 0 64 64" fill="none" xmlns="http://www.w3.org/2000/svg">
<circle cx="32" cy="32" r="30.5" fill="white" stroke="#EF5B5B" stroke-width="3"/>
<path d="M15.9992 17.6455C15.9992 17.224 16.1596 16.8025 16.4822 16.4822C17.1252 15.8393 18.1676 15.8393 18.8105 16.4822L47.5178 45.1895C48.1607 45.8325 48.1607 46.8749 47.5178 47.5178C46.8749 48.1607 45.8325 48.1607 45.1891 47.5178L16.4822 18.8109C16.1616 18.4882 15.9992 18.0667 15.9992 17.6455Z" fill="#EF5B5B"/>
<path d="M15.9992 46.3549C15.9992 45.9333 16.1596 45.5122 16.4822 45.1915L45.1891 16.4822C45.8325 15.8393 46.8749 15.8393 47.5178 16.4822C48.1607 17.1251 48.1607 18.1675 47.5178 18.8109L18.8105 47.5178C18.1675 48.1607 17.1252 48.1607 16.4822 47.5178C16.1616 47.1951 15.9992 46.774 15.9992 46.3549Z" fill="#EF5B5B"/>
</svg>
