<svg xmlns="http://www.w3.org/2000/svg" width="18" height="22" viewBox="0 0 18 22">
    <g fill="none" fill-rule="evenodd">
        <g fill="#FFB000" fill-rule="nonzero">
            <g>
                <path d="M9 0C4.032.006.006 3.872 0 8.643c-.003 1.872.634 3.694 1.813 5.186 0 0 .246.31.286.355L9 22l6.905-7.82c.036-.042.282-.351.282-.351v-.003c1.18-1.49 1.816-3.311 1.813-5.183C17.994 3.872 13.968.006 9 0zm2.859 12.571L9 10.826 6.141 12.57l.477-3.104L4.235 7.37l3.336-.386L9 4.19l1.518 2.794 3.247.386-2.383 2.097.477 3.104z" transform="translate(-178 -602) translate(178 602)"/>
            </g>
        </g>
    </g>
</svg>
