<svg width="6" height="6" viewBox="0 0 6 6" fill="none" xmlns="http://www.w3.org/2000/svg">
<path d="M4.75651e-06 0.274179C4.75955e-06 0.204694 0.0264344 0.135209 0.0796242 0.0824165C0.185607 -0.0235662 0.357431 -0.0235662 0.463414 0.0824165L5.19554 4.81455C5.30152 4.92053 5.30152 5.09235 5.19554 5.19834C5.08955 5.30432 4.91773 5.30432 4.81168 5.19834L0.0796242 0.466273C0.0267653 0.413083 4.75348e-06 0.343598 4.75651e-06 0.274179Z" fill="#0B4178"/>
<path d="M4.54965e-06 5.00664C4.55269e-06 4.93715 0.0264342 4.86774 0.079624 4.81488L4.81168 0.0824167C4.91773 -0.023566 5.08955 -0.023566 5.19554 0.0824167C5.30152 0.188399 5.30152 0.360224 5.19554 0.466273L0.463413 5.19834C0.357431 5.30432 0.185607 5.30432 0.0796239 5.19834C0.0267651 5.14515 4.54663e-06 5.07573 4.54965e-06 5.00664Z" fill="#0B4178"/>
</svg>
