<svg width="53" height="44" viewBox="0 0 53 44" fill="none" xmlns="http://www.w3.org/2000/svg">
  <g>
    <path
      d="M16.6299 11.0025C13.8542 11.0025 11.5945 8.75073 11.5945 5.98037C11.5964 3.21194 13.8542 0.960178 16.6299 0.960178C19.4057 0.960178 21.6654 3.21194 21.6654 5.9823C21.6654 8.75073 19.4057 11.0025 16.6299 11.0025ZM16.6299 2.62201C14.7723 2.62201 13.2607 4.12961 13.2607 5.9823C13.2607 7.83498 14.7723 9.34258 16.6299 9.34258C18.4875 9.34258 19.9992 7.83498 19.9992 5.9823C19.9992 4.12768 18.4875 2.62201 16.6299 2.62201Z"
      fill="#F8AE1B" />
    <path
      d="M37.5933 43.7301H18.1937C17.7337 43.7301 17.3606 43.358 17.3606 42.8992V29.994C17.3606 29.5352 17.7337 29.1631 18.1937 29.1631C18.6538 29.1631 19.0268 29.5352 19.0268 29.994V42.0683H36.7602V33.0535C36.7602 32.5947 37.1332 32.2226 37.5933 32.2226C38.0533 32.2226 38.4264 32.5947 38.4264 33.0535V42.8992C38.4245 43.358 38.0533 43.7301 37.5933 43.7301Z"
      fill="#17428D" />
    <path
      d="M39.6403 30.8249H34.1718C33.7118 30.8249 33.3387 30.4528 33.3387 29.994C33.3387 29.5352 33.7118 29.1631 34.1718 29.1631H39.6403C41.3142 29.1631 42.6751 27.8059 42.6751 26.1363C42.6751 24.4668 41.3142 23.1095 39.6403 23.1095H22.5526C20.8496 23.1095 19.3071 22.1707 18.5281 20.6592L12.2014 8.3825C10.9933 6.03821 8.15948 5.04921 5.75097 6.13074L4.36501 6.75345C3.4391 7.16987 2.73743 7.92174 2.38755 8.87218C2.03768 9.82263 2.08794 10.8502 2.5248 11.7621C2.83794 12.4156 3.59374 12.7337 4.27996 12.4985C4.35535 12.4735 4.45779 12.4388 4.56991 12.4098L5.80316 12.1014C7.28963 11.7293 8.81863 12.4735 9.43913 13.8712L16.0422 29.165H23.4611C23.9211 29.165 24.2942 29.5371 24.2942 29.9959C24.2942 30.4548 23.9211 30.8268 23.4611 30.8268H15.4952C15.1627 30.8268 14.8612 30.6302 14.7297 30.3256L7.91399 14.5344C7.62598 13.8847 6.90883 13.5357 6.21102 13.7112L4.97777 14.0196C4.93718 14.0312 4.88499 14.0485 4.8212 14.0697C3.33472 14.5768 1.70327 13.8924 1.02479 12.4773C0.390768 11.1586 0.319248 9.67418 0.82376 8.2996C1.32827 6.92696 2.3431 5.83771 3.68073 5.23814L5.06669 4.61543C8.28513 3.17145 12.0699 4.49205 13.6821 7.62292L20.0068 19.8996C20.4997 20.8539 21.474 21.4477 22.5506 21.4477H39.6383C42.2305 21.4477 44.3394 23.551 44.3394 26.1363C44.3394 28.7216 42.2324 30.8249 39.6403 30.8249Z"
      fill="#17428D" />
    <path
      d="M34.3922 23.1095H33.1029C32.6429 23.1095 32.2698 22.7375 32.2698 22.2786C32.2698 21.8198 32.6429 21.4477 33.1029 21.4477H34.3922C35.0108 21.4477 35.5134 20.9465 35.5134 20.3296C35.5134 19.7531 35.0823 19.2769 34.5082 19.2172L23.9541 18.6369C23.668 18.6215 23.4109 18.4595 23.2717 18.2108L20.2292 12.7588C20.0049 12.3578 20.1499 11.8527 20.552 11.629C20.954 11.4054 21.4605 11.55 21.6847 11.951L24.503 17.0059L34.6165 17.5611C34.6261 17.5611 34.6358 17.563 34.6474 17.563C36.0894 17.6961 37.1777 18.8856 37.1777 20.3296C37.1777 21.8622 35.929 23.1095 34.3922 23.1095Z"
      fill="#F8AE1B" />
    <path
      d="M49.5081 43.6973C49.2936 43.6973 49.079 43.6761 48.8664 43.6318C48.0023 43.4525 47.2485 42.9146 46.7981 42.157L43.1892 36.009C42.9572 35.6138 43.0906 35.1048 43.4869 34.8734C43.8831 34.6421 44.3934 34.7751 44.6254 35.1703L48.2324 41.3145C48.445 41.6731 48.7929 41.9198 49.2066 42.0066C49.6203 42.0933 50.0378 42.0047 50.3799 41.7579C51.012 41.3048 51.1879 40.4585 50.7878 39.7934L44.9675 30.0364C44.7317 29.6431 44.8612 29.1322 45.2575 28.899C45.6518 28.6638 46.1641 28.7929 46.3999 29.1881L52.2201 38.9432C53.0649 40.3544 52.6937 42.1454 51.3542 43.1074C50.8129 43.493 50.1654 43.6973 49.5081 43.6973Z"
      fill="#F8AE1B" />
  </g>
  <defs>
    <clipPath id="clip0">
      <rect width="52.1793" height="42.7699" fill="white" transform="translate(0.491333 0.960178)" />
    </clipPath>
  </defs>
</svg>