<svg xmlns:xlink="http://www.w3.org/1999/xlink" xmlns="http://www.w3.org/2000/svg" width="41" height="42" viewBox="0 0 41 42" fill="none"><path d="M0 23.0664C0.108338 22.4916 0.191602 21.9108 0.330034 21.3431C0.814021 19.3671 1.88792 17.5852 3.40899 16.2342C4.93007 14.8832 6.82628 14.0271 8.84562 13.7796C12.5201 13.3423 15.6539 14.4547 18.0885 17.2705C19.8791 19.3409 20.6284 21.8055 20.4689 24.533C20.3385 26.7729 19.548 28.8182 18.5228 30.7823C16.9941 33.7124 14.9868 36.2994 12.7869 38.748L12.3375 39.2496C12.3456 39.2877 12.3375 39.3228 12.3566 39.3338C12.7127 39.5916 12.9163 39.9146 12.7578 40.363C12.5993 40.8114 12.2493 40.9428 11.8099 40.9498C11.3705 40.9568 10.899 41.0341 10.4526 40.9899C10.1437 40.9609 9.76949 40.8585 9.56084 40.6509C6.36988 37.471 3.52801 34.0224 1.56488 29.9277C0.812534 28.3598 0.238751 26.7278 0.0682183 24.9793C0.0533735 24.9014 0.0308563 24.8251 0.00100411 24.7516L0 23.0664ZM10.2911 38.9847C11.3093 37.8051 12.3195 36.6866 13.2734 35.522C15.2596 33.0975 17.0011 30.5175 18.0885 27.5473C18.7355 25.7768 19.0164 23.9582 18.5961 22.0894C17.7936 18.5374 15.1975 16.0928 11.6103 15.4869C9.79274 15.1818 7.92528 15.4768 6.29039 16.3275C4.6555 17.1781 3.34213 18.538 2.54896 20.2015C1.41141 22.6 1.52977 25.0295 2.39347 27.4711C3.15986 29.6398 4.32652 31.5928 5.65165 33.4576C7.05584 35.4149 8.60679 37.2626 10.2911 38.9847Z" fill="#16428B"></path><path d="M34.9211 0C35.7025 0.248771 36.5261 0.413282 37.2584 0.760357C39.7773 1.95105 41.3652 4.91924 40.9289 7.5554C40.6811 9.04803 40.002 10.3852 39.2887 11.7002C38.1256 13.8183 36.809 15.8483 35.3494 17.7741C35.1035 18.0719 34.982 18.4531 35.0104 18.8384C35.0279 19.1184 35.0249 19.3994 35.0013 19.679C34.9652 20.1685 34.5901 20.5176 34.1376 20.5025C33.6852 20.4875 33.3582 20.1454 33.3171 19.6739C33.309 19.6073 33.309 19.54 33.3171 19.4733C33.4766 18.5615 33.0904 17.8613 32.5587 17.1461C30.8935 14.9062 29.3668 12.5699 28.2372 10.008C27.854 9.14031 27.524 8.20241 27.4157 7.27052C27.1719 5.17904 27.9584 3.39752 29.44 1.93098C30.4619 0.915813 31.7894 0.265104 33.2178 0.0792463C33.3081 0.060157 33.3969 0.03468 33.4836 0.0030092L34.9211 0ZM34.1728 16.5091C34.6934 15.7588 35.192 15.0667 35.6634 14.3575C36.8893 12.5128 38.0589 10.6349 38.8885 8.56954C39.1784 7.8463 39.372 7.102 39.2647 6.30754C38.9778 4.20101 37.8543 2.71642 35.854 2.01424C33.8538 1.31207 32.002 1.74641 30.5244 3.26913C29.0748 4.76376 28.6495 6.54929 29.451 8.53745C30.6116 11.4184 32.3792 13.9422 34.1728 16.5091Z" fill="#16428B"></path><path d="M27.527 25.3677C27.3384 25.6415 27.2391 25.9174 27.0435 26.0468C26.1336 26.6486 25.5488 27.5043 25.0633 28.4542C24.8004 28.9678 24.334 29.1353 23.9077 28.9227C23.4813 28.71 23.2847 28.2536 23.4944 27.8102C24.0792 26.5674 24.8185 25.4379 26.0313 24.7006C26.3473 24.509 26.6944 24.4077 26.9983 24.6565C27.205 24.826 27.3304 25.0968 27.527 25.3677Z" fill="#16428B"></path><path d="M30.3809 25.5693C29.7449 25.5794 29.3777 25.2915 29.3155 24.8551C29.2493 24.3947 29.5242 24.0075 30.0177 23.8981C30.3819 23.8179 30.756 23.7868 31.1212 23.6975C31.714 23.5541 32.2477 23.2963 32.6259 22.7897C32.8355 22.5088 33.1124 22.3273 33.4826 22.3764C34.1396 22.4647 34.4275 23.1849 34.0283 23.7567C33.3993 24.6595 32.4854 25.1239 31.4492 25.3777C31.052 25.477 30.6397 25.5252 30.3809 25.5693Z" fill="#16428B"></path><path d="M23.7651 31.4855C23.7354 31.6556 23.6928 31.8233 23.6377 31.987C23.1361 33.0704 22.6406 34.1588 22.1109 35.2291C21.8501 35.7547 21.3505 35.9132 20.9192 35.6775C20.4878 35.4417 20.3604 34.9512 20.6082 34.4306C21.0877 33.4275 21.5632 32.419 22.0347 31.4052C22.3256 30.7793 22.8703 30.5466 23.3387 30.9037C23.5394 31.0551 23.6497 31.323 23.7651 31.4855Z" fill="#16428B"></path><path d="M19.7495 37.8582C19.6672 37.9776 19.5549 38.2505 19.3542 38.411C18.3451 39.2007 17.2025 39.803 15.9807 40.1895C15.4791 40.353 15.0307 40.1303 14.8702 39.6879C14.8297 39.5847 14.8107 39.4742 14.8144 39.3633C14.8182 39.2524 14.8446 39.1435 14.8921 39.0432C14.9395 38.9429 15.007 38.8534 15.0904 38.7802C15.1738 38.707 15.2712 38.6517 15.3768 38.6176C16.4634 38.216 17.4941 37.6766 18.4434 37.0126C19.0252 36.6054 19.7555 37.0337 19.7495 37.8582Z" fill="#16428B"></path><path d="M15.3771 23.9382C15.3753 24.9525 15.0725 25.9436 14.5071 26.7857C13.9416 27.6279 13.139 28.2833 12.2008 28.669C11.2626 29.0547 10.231 29.1533 9.2367 28.9524C8.24241 28.7514 7.33014 28.2599 6.61539 27.5401C5.90064 26.8203 5.41557 25.9046 5.22163 24.9089C5.02768 23.9133 5.13357 22.8825 5.52588 21.947C5.9182 21.0116 6.57929 20.2136 7.42545 19.6542C8.27161 19.0947 9.26478 18.7989 10.2792 18.8043C11.6335 18.8172 12.9281 19.3634 13.8824 20.3244C14.8367 21.2854 15.3737 22.5839 15.3771 23.9382ZM10.237 27.3267C11.1403 27.3272 12.0074 26.9714 12.6497 26.3363C13.2921 25.7013 13.658 24.8384 13.6677 23.9352C13.6908 22.0915 12.1339 20.5246 10.2681 20.5075C8.40229 20.4905 6.85747 22.0283 6.83641 23.9051C6.81133 25.7548 8.36316 27.3146 10.237 27.3267Z" fill="#16428B"></path><path d="M35.8778 6.81614C35.8814 7.15339 35.7849 7.48411 35.6004 7.7665C35.416 8.04888 35.152 8.27025 34.8418 8.40259C34.5316 8.53494 34.1891 8.57233 33.8576 8.51004C33.5261 8.44774 33.2206 8.28856 32.9796 8.05261C32.7386 7.81667 32.573 7.51456 32.5037 7.1845C32.4344 6.85443 32.4645 6.51122 32.5903 6.19828C32.716 5.88533 32.9317 5.6167 33.2102 5.42636C33.4886 5.23601 33.8172 5.1325 34.1545 5.12891C34.6057 5.12778 35.0392 5.30404 35.3616 5.61968C35.684 5.93532 35.8694 6.36504 35.8778 6.81614Z" fill="#16428B"></path></svg>