<svg width="24" height="44" viewBox="0 0 24 44" fill="none" xmlns="http://www.w3.org/2000/svg">
<g>
<path d="M11.8832 43.6385C12.4275 43.6385 12.8706 43.1969 12.8706 42.6546V36.4107L13.0196 36.3337C14.0107 35.8262 15.9563 34.6866 17.865 32.7702C20.4045 30.218 23.3798 25.7439 23.1334 18.9174C22.8153 10.1505 18.0195 4.63761 15.1895 2.1294C14.2057 1.25913 12.9736 0.823082 11.7397 0.823082C10.4966 0.823082 9.25172 1.26463 8.25873 2.14772C5.27423 4.80433 1.52475 9.85922 0.608991 18.8514C-0.181726 26.616 2.84139 31.0736 5.51696 33.4463C7.52317 35.2253 9.63237 36.1139 10.71 36.4876L10.8957 36.5518V42.6528C10.8938 43.1969 11.337 43.6385 11.8832 43.6385ZM10.5095 34.2982C9.54594 33.886 8.11162 33.1348 6.74717 31.9036C3.41512 28.8971 2.01206 24.5732 2.57475 19.0511C3.42799 10.6874 6.85382 6.04103 9.5772 3.6171C10.1748 3.08578 10.9435 2.79264 11.7416 2.79264C12.5304 2.79264 13.2899 3.08029 13.8783 3.60061C16.473 5.89813 20.8698 10.953 21.1603 18.987C21.3368 23.866 19.7811 28.0121 16.5355 31.3118C15.5701 32.292 14.4797 33.166 13.2954 33.908L12.8725 34.1736V22.5139L17.1865 18.2156C17.3722 18.0288 17.4752 17.7833 17.4752 17.5194C17.4752 17.2556 17.3722 17.0083 17.1865 16.8232C16.8022 16.4403 16.1751 16.4403 15.7889 16.8232L12.8725 19.729V13.5492C12.8725 13.0069 12.4293 12.5653 11.885 12.5653C11.3407 12.5653 10.8975 13.0069 10.8975 13.5492V26.0279L6.40146 20.9199C6.04288 20.5113 5.41582 20.471 5.00759 20.8283C4.59752 21.1856 4.55706 21.8103 4.91564 22.217L10.6474 28.7285C10.6879 28.7743 10.7357 28.8183 10.789 28.8604L10.8975 28.9429V34.4613L10.5095 34.2982Z" fill="#16438B"/>
<path d="M17.0502 16.9515C16.7358 16.64 16.2264 16.64 15.912 16.9515L12.6829 20.1705V13.5492C12.6829 13.1076 12.3225 12.7485 11.8793 12.7485C11.4362 12.7485 11.0757 13.1076 11.0757 13.5492V26.5153L6.25787 21.0408C6.11627 20.8796 5.91951 20.7843 5.7062 20.7697C5.68782 20.7678 5.66943 20.7678 5.65288 20.7678C5.45796 20.7678 5.27223 20.8374 5.12328 20.9675C4.79044 21.2588 4.75734 21.7663 5.04972 22.098L10.7815 28.6094C10.8146 28.646 10.8532 28.6809 10.8974 28.7157L11.0776 28.8531V42.6528C11.0776 43.0943 11.438 43.4534 11.8812 43.4534C12.3243 43.4534 12.6847 43.0943 12.6847 42.6528V22.4369L17.0521 18.0856C17.3647 17.7723 17.3647 17.2648 17.0502 16.9515Z" fill="#F8AE1B"/>
<path d="M11.8794 43.7301C11.2836 43.7301 10.8 43.2482 10.8 42.6546V28.9905L10.7283 28.9355C10.6694 28.8897 10.6179 28.8421 10.5738 28.7926L4.84202 22.2812C4.65262 22.065 4.55883 21.7883 4.57722 21.5007C4.59561 21.213 4.72617 20.951 4.94316 20.7623C5.15831 20.5754 5.43966 20.4802 5.72468 20.4967C6.01522 20.515 6.27818 20.6451 6.46759 20.8613L10.8018 25.7861V13.5492C10.8018 12.9555 11.2855 12.4737 11.8812 12.4737C12.477 12.4737 12.9607 12.9555 12.9607 13.5492V19.5073L15.7208 16.7573C16.1419 16.3377 16.8278 16.3377 17.2489 16.7573C17.67 17.1768 17.67 17.8602 17.2489 18.2798L12.9625 22.5505V42.6528C12.9588 43.2464 12.4752 43.7301 11.8794 43.7301ZM5.65113 21.0426C5.5224 21.0426 5.40288 21.0884 5.30358 21.1727C5.19692 21.2643 5.1344 21.3944 5.12521 21.5337C5.11601 21.6747 5.16198 21.8103 5.25577 21.9147L10.9876 28.4262C11.0078 28.45 11.0335 28.472 11.0648 28.4958L11.3535 28.7157V42.651C11.3535 42.9404 11.5907 43.1768 11.8812 43.1768C12.1718 43.1768 12.409 42.9404 12.409 42.651V22.3233L16.8573 17.8913C17.0632 17.6861 17.0632 17.3527 16.8573 17.1475C16.6513 16.9423 16.3166 16.9423 16.1107 17.1475L12.409 20.8356V13.5492C12.409 13.2597 12.1718 13.0233 11.8812 13.0233C11.5907 13.0233 11.3535 13.2597 11.3535 13.5492V27.2445L6.05016 21.2222C5.95638 21.1159 5.82766 21.0536 5.6879 21.0445C5.67687 21.0445 5.664 21.0426 5.65113 21.0426Z" fill="#F8AE1B"/>
</g>
<defs>
<clipPath id="clip0">
<rect width="22.6679" height="42.907" fill="white" transform="translate(0.478271 0.823082)"/>
</clipPath>
</defs>
</svg>
