<svg width="20" height="20" viewBox="0 0 20 20" fill="none" xmlns="http://www.w3.org/2000/svg">
<path fill-rule="evenodd" clip-rule="evenodd" d="M1 2.5C1 1.67157 1.67157 1 2.5 1H10C10.2761 1 10.5 0.776142 10.5 0.5C10.5 0.223858 10.2761 0 10 0H2.5C1.11929 0 0 1.11929 0 2.5V17.5C0 18.8807 1.11929 20 2.5 20H17.5C18.8807 20 20 18.8807 20 17.5V10C20 9.72386 19.7761 9.5 19.5 9.5C19.2239 9.5 19 9.72386 19 10V17.5C19 18.3284 18.3284 19 17.5 19H2.5C1.67157 19 1 18.3284 1 17.5V2.5ZM15.8278 0.43934C16.4135 -0.146446 17.3633 -0.146447 17.9491 0.43934L19.5349 2.02513C20.1206 2.61091 20.1207 3.56066 19.5349 4.14645L9.24197 14.4393C9.17789 14.5034 9.0976 14.5489 9.00969 14.5709L5.49476 15.4496C4.90885 15.5961 4.37814 15.0654 4.52461 14.4794L5.40335 10.9645C5.42533 10.8766 5.47078 10.7963 5.53486 10.7322L15.8278 0.43934ZM17.242 1.14645C17.0467 0.951185 16.7301 0.951184 16.5349 1.14645L15.3455 2.33579L17.6384 4.62868L18.8278 3.43934C19.023 3.24408 19.023 2.9275 18.8278 2.73223L17.242 1.14645ZM6.59552 11.0858L14.6384 3.04289L16.9313 5.33579L8.88842 13.3787L6.59552 11.0858ZM7.91042 13.8149L6.15931 12.0638L5.5756 14.3986L7.91042 13.8149Z" fill="#F8AE1B"/>
</svg>
