<svg width="61" height="60" viewBox="0 0 61 60" fill="none" xmlns="http://www.w3.org/2000/svg">
<path d="M52.6665 18H12.6665C11.1938 18 9.99988 19.1939 9.99988 20.6667V36.6667C9.99988 38.1394 11.1938 39.3333 12.6665 39.3333H52.6665C54.1393 39.3333 55.3332 38.1394 55.3332 36.6667V20.6667C55.3332 19.1939 54.1393 18 52.6665 18Z" fill="#FEF5E6"/>
<path d="M47.3332 60H44.6665C43.9593 60 43.281 59.7191 42.7809 59.219C42.2808 58.7189 41.9999 58.0406 41.9999 57.3333V57C41.9999 56.8232 42.0701 56.6536 42.1951 56.5286C42.3202 56.4036 42.4897 56.3333 42.6665 56.3333C42.8434 56.3333 43.0129 56.4036 43.138 56.5286C43.263 56.6536 43.3332 56.8232 43.3332 57V57.3333C43.3332 57.687 43.4737 58.0261 43.7237 58.2761C43.9738 58.5262 44.3129 58.6667 44.6665 58.6667H47.3332C47.6868 58.6667 48.026 58.5262 48.276 58.2761C48.5261 58.0261 48.6665 57.687 48.6665 57.3333V54.6667H25.5799C25.4031 54.6667 25.2335 54.5964 25.1085 54.4714C24.9834 54.3464 24.9132 54.1768 24.9132 54C24.9132 53.8232 24.9834 53.6536 25.1085 53.5286C25.2335 53.4036 25.4031 53.3333 25.5799 53.3333H49.9999C50.7071 53.3333 51.3854 53.0524 51.8855 52.5523C52.3856 52.0522 52.6665 51.3739 52.6665 50.6667V48.6667C52.6665 48.4899 52.7368 48.3203 52.8618 48.1953C52.9868 48.0702 53.1564 48 53.3332 48C53.51 48 53.6796 48.0702 53.8046 48.1953C53.9296 48.3203 53.9999 48.4899 53.9999 48.6667V50.6667C53.9999 51.7275 53.5784 52.7449 52.8283 53.4951C52.0782 54.2452 51.0607 54.6667 49.9999 54.6667V57.3333C49.9999 58.0406 49.7189 58.7189 49.2188 59.219C48.7187 59.7191 48.0405 60 47.3332 60ZM15.9999 60H13.3332C12.626 60 11.9477 59.7191 11.4476 59.219C10.9475 58.7189 10.6665 58.0406 10.6665 57.3333V54.6667C9.60568 54.6667 8.58826 54.2452 7.83812 53.4951C7.08797 52.7449 6.66654 51.7275 6.66654 50.6667V20.3333C6.66654 20.1565 6.73678 19.987 6.86181 19.8619C6.98683 19.7369 7.1564 19.6667 7.33321 19.6667C7.51002 19.6667 7.67959 19.7369 7.80462 19.8619C7.92964 19.987 7.99988 20.1565 7.99988 20.3333V50.6667C7.99988 51.3739 8.28083 52.0522 8.78093 52.5523C9.28102 53.0524 9.9593 53.3333 10.6665 53.3333H13.6665C13.8434 53.3333 14.0129 53.4036 14.1379 53.5286C14.263 53.6536 14.3332 53.8232 14.3332 54C14.3332 54.1768 14.263 54.3464 14.1379 54.4714C14.0129 54.5964 13.8434 54.6667 13.6665 54.6667H11.9999V57.3333C11.9999 57.687 12.1404 58.0261 12.3904 58.2761C12.6405 58.5262 12.9796 58.6667 13.3332 58.6667H15.9999C16.3535 58.6667 16.6926 58.5262 16.9427 58.2761C17.1927 58.0261 17.3332 57.687 17.3332 57.3333V54C17.3332 53.8232 17.4035 53.6536 17.5285 53.5286C17.6535 53.4036 17.8231 53.3333 17.9999 53.3333H22.9999C23.1767 53.3333 23.3463 53.4036 23.4713 53.5286C23.5963 53.6536 23.6665 53.8232 23.6665 54C23.6665 54.1768 23.5963 54.3464 23.4713 54.4714C23.3463 54.5964 23.1767 54.6667 22.9999 54.6667H18.6665V57.3333C18.6665 58.0406 18.3856 58.7189 17.8855 59.219C17.3854 59.7191 16.7071 60 15.9999 60ZM48.8999 49.3333C48.7231 49.3333 48.5535 49.2631 48.4285 49.1381C48.3034 49.0131 48.2332 48.8435 48.2332 48.6667V44.6667C48.2332 44.4899 48.163 44.3203 48.0379 44.1953C47.9129 44.0702 47.7434 44 47.5665 44H42.8265C42.1193 44 41.441 44.281 40.9409 44.781C40.4408 45.2811 40.1599 45.9594 40.1599 46.6667V47.3333C40.1599 47.5101 40.2301 47.6797 40.3551 47.8047C40.4802 47.9298 40.6497 48 40.8265 48H45.9999C46.1767 48 46.3463 48.0702 46.4713 48.1953C46.5963 48.3203 46.6665 48.4899 46.6665 48.6667C46.6665 48.8435 46.5963 49.0131 46.4713 49.1381C46.3463 49.2631 46.1767 49.3333 45.9999 49.3333H40.8265C40.2961 49.3333 39.7874 49.1226 39.4123 48.7476C39.0373 48.3725 38.8265 47.8638 38.8265 47.3333V46.6667C38.8265 45.6058 39.248 44.5884 39.9981 43.8382C40.7483 43.0881 41.7657 42.6667 42.8265 42.6667H47.5665C48.097 42.6667 48.6057 42.8774 48.9808 43.2525C49.3558 43.6275 49.5665 44.1362 49.5665 44.6667V48.6667C49.5665 48.8435 49.4963 49.0131 49.3713 49.1381C49.2463 49.2631 49.0767 49.3333 48.8999 49.3333ZM19.3332 49.3333H12.6199C12.0894 49.3333 11.5807 49.1226 11.2057 48.7476C10.8306 48.3725 10.6199 47.8638 10.6199 47.3333V44.6667C10.6199 44.1362 10.8306 43.6275 11.2057 43.2525C11.5807 42.8774 12.0894 42.6667 12.6199 42.6667C12.7967 42.6667 12.9663 42.7369 13.0913 42.8619C13.2163 42.987 13.2865 43.1565 13.2865 43.3333C13.2865 43.5101 13.2163 43.6797 13.0913 43.8047C12.9663 43.9298 12.7967 44 12.6199 44C12.5285 43.9936 12.4368 44.0061 12.3504 44.0367C12.2641 44.0673 12.1849 44.1154 12.118 44.178C12.0511 44.2405 11.9977 44.3162 11.9614 44.4003C11.925 44.4844 11.9063 44.5751 11.9065 44.6667V47.3333C11.9065 47.5101 11.9768 47.6797 12.1018 47.8047C12.2268 47.9298 12.3964 48 12.5732 48H19.3332C19.51 48 19.6796 47.9298 19.8046 47.8047C19.9296 47.6797 19.9999 47.5101 19.9999 47.3333V46.6667C19.9999 45.9594 19.7189 45.2811 19.2188 44.781C18.7187 44.281 18.0405 44 17.3332 44H15.6665C15.4897 44 15.3202 43.9298 15.1951 43.8047C15.0701 43.6797 14.9999 43.5101 14.9999 43.3333C14.9999 43.1565 15.0701 42.987 15.1951 42.8619C15.3202 42.7369 15.4897 42.6667 15.6665 42.6667H17.3332C18.3941 42.6667 19.4115 43.0881 20.1616 43.8382C20.9118 44.5884 21.3332 45.6058 21.3332 46.6667V47.3333C21.3332 47.8638 21.1225 48.3725 20.7474 48.7476C20.3724 49.1226 19.8636 49.3333 19.3332 49.3333ZM34.5865 48.6667H25.5799C25.4031 48.6667 25.2335 48.5964 25.1085 48.4714C24.9834 48.3464 24.9132 48.1768 24.9132 48C24.9132 47.8232 24.9834 47.6536 25.1085 47.5286C25.2335 47.4036 25.4031 47.3333 25.5799 47.3333H34.6065C34.7834 47.3333 34.9529 47.4036 35.0779 47.5286C35.203 47.6536 35.2732 47.8232 35.2732 48C35.2732 48.1768 35.203 48.3464 35.0779 48.4714C34.9529 48.5964 34.7834 48.6667 34.6065 48.6667H34.5865ZM34.5865 45.3333H25.5799C25.4031 45.3333 25.2335 45.2631 25.1085 45.1381C24.9834 45.0131 24.9132 44.8435 24.9132 44.6667C24.9132 44.4899 24.9834 44.3203 25.1085 44.1953C25.2335 44.0702 25.4031 44 25.5799 44H34.6065C34.7834 44 34.9529 44.0702 35.0779 44.1953C35.203 44.3203 35.2732 44.4899 35.2732 44.6667C35.2732 44.8435 35.203 45.0131 35.0779 45.1381C34.9529 45.2631 34.7834 45.3333 34.6065 45.3333H34.5865ZM53.3332 44.3C53.1564 44.3 52.9868 44.2298 52.8618 44.1047C52.7368 43.9797 52.6665 43.8101 52.6665 43.6333V38H12.6665C12.4897 38 12.3202 37.9298 12.1951 37.8047C12.0701 37.6797 11.9999 37.5101 11.9999 37.3333C11.9999 37.1565 12.0701 36.987 12.1951 36.8619C12.3202 36.7369 12.4897 36.6667 12.6665 36.6667H52.6665V16H49.3332C49.1564 16 48.9868 15.9298 48.8618 15.8047C48.7368 15.6797 48.6665 15.5101 48.6665 15.3333C48.6665 15.1565 48.7368 14.987 48.8618 14.8619C48.9868 14.7369 49.1564 14.6667 49.3332 14.6667H52.6665V7.33333C52.6665 6.62609 52.3856 5.94781 51.8855 5.44772C51.3854 4.94762 50.7071 4.66667 49.9999 4.66667H22.9999C22.8231 4.66667 22.6535 4.59643 22.5285 4.4714C22.4035 4.34638 22.3332 4.17681 22.3332 4C22.3332 3.82319 22.4035 3.65362 22.5285 3.5286C22.6535 3.40357 22.8231 3.33333 22.9999 3.33333H43.4399L42.9332 2.54667C42.6883 2.16978 42.352 1.86093 41.9558 1.6488C41.5595 1.43667 41.116 1.32815 40.6665 1.33333H19.4065C18.9789 1.33361 18.5576 1.43672 18.1782 1.63397C17.7988 1.83122 17.4724 2.11681 17.2265 2.46667L16.6199 3.33333H18.6665C18.8434 3.33333 19.0129 3.40357 19.138 3.5286C19.263 3.65362 19.3332 3.82319 19.3332 4C19.3332 4.17681 19.263 4.34638 19.138 4.4714C19.0129 4.59643 18.8434 4.66667 18.6665 4.66667H10.6665C9.9593 4.66667 9.28102 4.94762 8.78093 5.44772C8.28083 5.94781 7.99988 6.62609 7.99988 7.33333V14.6667H44.3199C44.4967 14.6667 44.6663 14.7369 44.7913 14.8619C44.9163 14.987 44.9865 15.1565 44.9865 15.3333C44.9865 15.5101 44.9163 15.6797 44.7913 15.8047C44.6663 15.9298 44.4967 16 44.3199 16H7.33321C7.1564 16 6.98683 15.9298 6.86181 15.8047C6.73678 15.6797 6.66654 15.5101 6.66654 15.3333V12.32L5.50655 12.78C5.2616 12.8775 5.05106 13.0455 4.90155 13.2626C4.75204 13.4798 4.67025 13.7364 4.66654 14V26.3333C4.66654 26.9522 4.42071 27.5457 3.98313 27.9832C3.54554 28.4208 2.95205 28.6667 2.33321 28.6667C1.71437 28.6667 1.12088 28.4208 0.683295 27.9832C0.245711 27.5457 -0.00012207 26.9522 -0.00012207 26.3333L-0.00012207 23.5C-0.00012207 23.3232 0.0701158 23.1536 0.19514 23.0286C0.320164 22.9036 0.489734 22.8333 0.666545 22.8333C0.843356 22.8333 1.01292 22.9036 1.13795 23.0286C1.26297 23.1536 1.33321 23.3232 1.33321 23.5V26.3333C1.33321 26.5986 1.43857 26.8529 1.6261 27.0404C1.81364 27.228 2.06799 27.3333 2.33321 27.3333C2.59843 27.3333 2.85278 27.228 3.04032 27.0404C3.22785 26.8529 3.33321 26.5986 3.33321 26.3333V14C3.33349 13.4678 3.493 12.9479 3.7912 12.5071C4.08941 12.0664 4.51267 11.7249 5.00655 11.5267L6.66654 10.86V8.86L3.70654 9.78667C3.02131 9.99274 2.42058 10.4139 1.99318 10.9877C1.56577 11.5616 1.33438 12.2578 1.33321 12.9733V20.3067C1.33321 20.4835 1.26297 20.653 1.13795 20.7781C1.01292 20.9031 0.843356 20.9733 0.666545 20.9733C0.489734 20.9733 0.320164 20.9031 0.19514 20.7781C0.0701158 20.653 -0.00012207 20.4835 -0.00012207 20.3067V12.9733C0.00105486 11.9693 0.326021 10.9924 0.92652 10.1877C1.52702 9.38307 2.37103 8.79353 3.33321 8.50667L6.66654 7.50667V7.33333C6.66654 6.27247 7.08797 5.25505 7.83812 4.50491C8.58826 3.75476 9.60568 3.33333 10.6665 3.33333H14.9865L16.1399 1.7C16.5084 1.17568 16.9975 0.747567 17.5659 0.451721C18.1344 0.155875 18.7657 0.000953295 19.4065 0L40.6665 0C41.3295 0.00338834 41.9811 0.171484 42.563 0.489171C43.1448 0.806858 43.6386 1.26418 43.9999 1.82L45.0265 3.33333H49.9999C51.0607 3.33333 52.0782 3.75476 52.8283 4.50491C53.5784 5.25505 53.9999 6.27247 53.9999 7.33333V7.50667L57.3332 8.50667C58.2954 8.79353 59.1394 9.38307 59.7399 10.1877C60.3404 10.9924 60.6654 11.9693 60.6665 12.9733V26.3067C60.6665 26.9255 60.4207 27.519 59.9831 27.9566C59.5455 28.3942 58.9521 28.64 58.3332 28.64C57.7144 28.64 57.1209 28.3942 56.6833 27.9566C56.2457 27.519 55.9999 26.9255 55.9999 26.3067V19.64C55.9999 19.4632 56.0701 19.2936 56.1951 19.1686C56.3202 19.0436 56.4897 18.9733 56.6665 18.9733C56.8434 18.9733 57.0129 19.0436 57.138 19.1686C57.263 19.2936 57.3332 19.4632 57.3332 19.64V26.3067C57.3332 26.5719 57.4386 26.8262 57.6261 27.0138C57.8136 27.2013 58.068 27.3067 58.3332 27.3067C58.5984 27.3067 58.8528 27.2013 59.0403 27.0138C59.2279 26.8262 59.3332 26.5719 59.3332 26.3067V12.9733C59.332 12.2578 59.1007 11.5616 58.6732 10.9877C58.2458 10.4139 57.6451 9.99274 56.9599 9.78667L53.9999 8.89333V10.8933L55.6599 11.56C56.1485 11.7561 56.5682 12.0924 56.866 12.5267C57.1638 12.9609 57.3263 13.4735 57.3332 14V16C57.3332 16.1768 57.263 16.3464 57.138 16.4714C57.0129 16.5964 56.8434 16.6667 56.6665 16.6667C56.4897 16.6667 56.3202 16.5964 56.1951 16.4714C56.0701 16.3464 55.9999 16.1768 55.9999 16V14C56.0001 13.733 55.9202 13.472 55.7704 13.2509C55.6207 13.0298 55.408 12.8588 55.1599 12.76L53.9999 12.32V43.6533C53.9947 43.8267 53.9221 43.9911 53.7977 44.1119C53.6732 44.2326 53.5066 44.3001 53.3332 44.3ZM45.6665 12H14.3332C13.7144 12 13.1209 11.7542 12.6833 11.3166C12.2457 10.879 11.9999 10.2855 11.9999 9.66667C11.9999 9.04783 12.2457 8.45434 12.6833 8.01675C13.1209 7.57917 13.7144 7.33333 14.3332 7.33333H37.3332C37.51 7.33333 37.6796 7.40357 37.8046 7.5286C37.9296 7.65362 37.9999 7.82319 37.9999 8C37.9999 8.17681 37.9296 8.34638 37.8046 8.47141C37.6796 8.59643 37.51 8.66667 37.3332 8.66667H14.3332C14.068 8.66667 13.8136 8.77202 13.6261 8.95956C13.4386 9.1471 13.3332 9.40145 13.3332 9.66667C13.3332 9.93188 13.4386 10.1862 13.6261 10.3738C13.8136 10.5613 14.068 10.6667 14.3332 10.6667H45.6665C45.9318 10.6667 46.1861 10.5613 46.3737 10.3738C46.5612 10.1862 46.6665 9.93188 46.6665 9.66667C46.6665 9.40145 46.5612 9.1471 46.3737 8.95956C46.1861 8.77202 45.9318 8.66667 45.6665 8.66667H42.9999C42.8231 8.66667 42.6535 8.59643 42.5285 8.47141C42.4035 8.34638 42.3332 8.17681 42.3332 8C42.3332 7.82319 42.4035 7.65362 42.5285 7.5286C42.6535 7.40357 42.8231 7.33333 42.9999 7.33333H45.6665C46.2854 7.33333 46.8789 7.57917 47.3165 8.01675C47.754 8.45434 47.9999 9.04783 47.9999 9.66667C47.9999 10.2855 47.754 10.879 47.3165 11.3166C46.8789 11.7542 46.2854 12 45.6665 12Z" fill="#17428D"/>
<path fill-rule="evenodd" clip-rule="evenodd" d="M34.6665 25.3333C34.6665 25.597 34.5883 25.8548 34.4418 26.0741C34.2953 26.2934 34.0871 26.4643 33.8434 26.5652C33.5998 26.6661 33.3317 26.6925 33.073 26.641C32.8144 26.5896 32.5768 26.4626 32.3904 26.2761C32.2039 26.0897 32.0769 25.8521 32.0255 25.5935C31.974 25.3348 32.0004 25.0667 32.1013 24.8231C32.2022 24.5795 32.3731 24.3712 32.5924 24.2247C32.8117 24.0782 33.0695 24 33.3332 24C33.6868 24 34.0259 24.1405 34.276 24.3905C34.526 24.6406 34.6665 24.9797 34.6665 25.3333ZM23.5265 32.4733C23.464 32.4114 23.4144 32.3376 23.3806 32.2564C23.3467 32.1751 23.3293 32.088 23.3293 32C23.3293 31.912 23.3467 31.8249 23.3806 31.7436C23.4144 31.6624 23.464 31.5886 23.5265 31.5267C25.1018 30.066 27.1856 29.2789 29.3332 29.3333C31.4808 29.2789 33.5646 30.066 35.1398 31.5267C35.202 31.5888 35.2513 31.6626 35.2849 31.7438C35.3186 31.825 35.3359 31.9121 35.3359 32C35.3359 32.0879 35.3186 32.175 35.2849 32.2562C35.2513 32.3374 35.202 32.4112 35.1398 32.4733C35.0777 32.5355 35.0039 32.5848 34.9227 32.6184C34.8415 32.6521 34.7544 32.6694 34.6665 32.6694C34.5786 32.6694 34.4916 32.6521 34.4103 32.6184C34.3291 32.5848 34.2553 32.5355 34.1932 32.4733C32.8693 31.2628 31.1263 30.6149 29.3332 30.6667C27.54 30.6149 25.7971 31.2628 24.4732 32.4733C24.4112 32.5358 24.3375 32.5854 24.2562 32.6193C24.175 32.6531 24.0878 32.6705 23.9998 32.6705C23.9118 32.6705 23.8247 32.6531 23.7435 32.6193C23.6622 32.5854 23.5885 32.5358 23.5265 32.4733ZM25.3332 26.6667C25.5969 26.6667 25.8547 26.5885 26.0739 26.442C26.2932 26.2955 26.4641 26.0872 26.565 25.8436C26.6659 25.5999 26.6923 25.3319 26.6409 25.0732C26.5894 24.8146 26.4625 24.577 26.276 24.3905C26.0895 24.2041 25.8519 24.0771 25.5933 24.0256C25.3347 23.9742 25.0666 24.0006 24.8229 24.1015C24.5793 24.2024 24.3711 24.3733 24.2245 24.5926C24.078 24.8118 23.9998 25.0696 23.9998 25.3333C23.9998 25.687 24.1403 26.0261 24.3904 26.2761C24.6404 26.5262 24.9795 26.6667 25.3332 26.6667Z" fill="#F8AE1B"/>
</svg>
