<svg width="40" height="40" viewBox="0 0 40 40" fill="none" xmlns="http://www.w3.org/2000/svg">
<rect width="40" height="40" fill="white"/>
<path fill-rule="evenodd" clip-rule="evenodd" d="M5 20C5 11.7157 11.7157 5 20 5C28.2843 5 35 11.7157 35 20C35 28.2843 28.2843 35 20 35C15.9471 35 12.2713 33.3939 9.57103 30.7813C9.17411 30.3973 8.54103 30.4077 8.157 30.8047C7.77298 31.2016 7.78342 31.8347 8.18034 32.2187C11.2386 35.1776 15.4075 37 20 37C29.3888 37 37 29.3888 37 20C37 10.6112 29.3888 3 20 3C10.6112 3 3 10.6112 3 20H1.04031C0.621059 20 0.387972 20.485 0.649878 20.8123L3.60957 24.512C3.80973 24.7622 4.19027 24.7622 4.39043 24.512L7.35012 20.8123C7.61203 20.485 7.37894 20 6.95969 20H5Z" fill="#F8AE1B"/>
<circle cx="20" cy="20" r="11" fill="#FEF5E6"/>
<path fill-rule="evenodd" clip-rule="evenodd" d="M20 11C20.5523 11 21 11.4477 21 12V13H24C24.5523 13 25 13.4477 25 14C25 14.5523 24.5523 15 24 15H21V19H22C24.2091 19 26 20.7909 26 23C26 25.2091 24.2091 27 22 27H21V28C21 28.5523 20.5523 29 20 29C19.4477 29 19 28.5523 19 28V27H15C14.4477 27 14 26.5523 14 26C14 25.4477 14.4477 25 15 25H19V21H18C15.7909 21 14 19.2091 14 17C14 14.7909 15.7909 13 18 13H19V12C19 11.4477 19.4477 11 20 11ZM21 25H22C23.1046 25 24 24.1046 24 23C24 21.8954 23.1046 21 22 21H21V25ZM18 15H19V19H18C16.8954 19 16 18.1046 16 17C16 15.8954 16.8954 15 18 15Z" fill="#17428D"/>
</svg>
