<svg xmlns="http://www.w3.org/2000/svg" width="21" height="20" viewBox="0 0 21 20">
    <g fill="none" fill-rule="evenodd">
        <g fill="#CCC" fill-rule="nonzero">
            <g>
                <g>
                    <path d="M17 11v5c0 .55-.45 1-1 1H4c-.55 0-1-.45-1-1v-5c0-.55-.45-1-1-1s-1 .45-1 1v6c0 1.1.9 2 2 2h14c1.1 0 2-.9 2-2v-6c0-.55-.45-1-1-1s-1 .45-1 1zm-6-.33l1.88-1.88c.252-.252.619-.35.963-.258.344.092.613.36.705.705.092.344-.006.711-.258.963l-3.59 3.59c-.187.187-.44.292-.705.292-.265 0-.518-.105-.705-.292L5.7 10.2c-.252-.252-.35-.619-.258-.963.092-.344.36-.613.705-.705.344-.092.711.006.963.258L9 10.67V2c0-.55.45-1 1-1s1 .45 1 1v8.67z" transform="translate(-315 -683) translate(309 676) translate(7 7)"/>
                </g>
            </g>
        </g>
    </g>
</svg>
