<svg width="73" height="65" viewBox="0 0 73 65" fill="none" xmlns="http://www.w3.org/2000/svg">
<path d="M8.7175 60.1213H15.2521C15.5218 62.5606 17.5898 64.4579 20.101 64.4579C22.6121 64.4579 24.6802 62.5606 24.9498 60.1213H49.4025C49.6722 62.5606 51.7402 64.4579 54.2514 64.4579C56.7626 64.4579 58.8306 62.5606 59.1002 60.1213H67.9918C70.8365 60.1213 73.0779 57.6973 72.8555 54.8612L72.1512 45.8825C71.5097 37.7024 64.6846 31.3916 56.4793 31.3916H8.7175C6.0231 31.3916 3.83887 33.5758 3.83887 36.2702V55.2427C3.83887 57.9371 6.0231 60.1213 8.7175 60.1213Z" fill="#FEF5E6"/>
<path d="M12.5965 60.2055C12.4528 60.2055 12.3149 60.2626 12.2132 60.3643C12.1116 60.4659 12.0544 60.6038 12.0544 60.7476C12.0544 60.8913 12.1116 61.0292 12.2132 61.1309C12.3149 61.2325 12.4528 61.2896 12.5965 61.2896V60.2055ZM42.9524 61.2896C43.0962 61.2896 43.2341 61.2325 43.3357 61.1309C43.4374 61.0292 43.4945 60.8913 43.4945 60.7476C43.4945 60.6038 43.4374 60.4659 43.3357 60.3643C43.2341 60.2626 43.0962 60.2055 42.9524 60.2055V61.2896ZM12.5965 61.2896H42.9524V60.2055H12.5965V61.2896Z" fill="#17428D"/>
<path d="M3.38133 60.2055C3.23756 60.2055 3.09968 60.2626 2.99803 60.3643C2.89637 60.4659 2.83926 60.6038 2.83926 60.7476C2.83926 60.8913 2.89637 61.0292 2.99803 61.1309C3.09968 61.2325 3.23756 61.2896 3.38133 61.2896V60.2055ZM4.46547 61.2896C4.60923 61.2896 4.74711 61.2325 4.84877 61.1309C4.95043 61.0292 5.00754 60.8913 5.00754 60.7476C5.00754 60.6038 4.95043 60.4659 4.84877 60.3643C4.74711 60.2626 4.60923 60.2055 4.46547 60.2055V61.2896ZM3.38133 61.2896H4.46547V60.2055H3.38133V61.2896Z" fill="#17428D"/>
<path d="M7.17582 60.2055C7.03205 60.2055 6.89417 60.2626 6.79252 60.3643C6.69086 60.4659 6.63375 60.6038 6.63375 60.7476C6.63375 60.8913 6.69086 61.0292 6.79252 61.1309C6.89417 61.2325 7.03205 61.2896 7.17582 61.2896V60.2055ZM9.88617 61.2896C10.0299 61.2896 10.1678 61.2325 10.2695 61.1309C10.3711 61.0292 10.4282 60.8913 10.4282 60.7476C10.4282 60.6038 10.3711 60.4659 10.2695 60.3643C10.1678 60.2626 10.0299 60.2055 9.88617 60.2055V61.2896ZM7.17582 61.2896H9.88617V60.2055H7.17582V61.2896Z" fill="#17428D"/>
<path d="M45.6628 60.2055C45.519 60.2055 45.3811 60.2626 45.2795 60.3643C45.1778 60.4659 45.1207 60.6038 45.1207 60.7476C45.1207 60.8913 45.1778 61.0292 45.2795 61.1309C45.3811 61.2325 45.519 61.2896 45.6628 61.2896V60.2055ZM64.6352 61.2896C64.779 61.2896 64.9169 61.2325 65.0185 61.1309C65.1202 61.0292 65.1773 60.8913 65.1773 60.7476C65.1773 60.6038 65.1202 60.4659 65.0185 60.3643C64.9169 60.2626 64.779 60.2055 64.6352 60.2055V61.2896ZM45.6628 61.2896H64.6352V60.2055H45.6628V61.2896Z" fill="#17428D"/>
<path d="M8.80203 62.9159C8.65826 62.9159 8.52038 62.973 8.41873 63.0746C8.31707 63.1763 8.25996 63.3142 8.25996 63.4579C8.25996 63.6017 8.31707 63.7396 8.41873 63.8412C8.52038 63.9429 8.65826 64 8.80203 64V62.9159ZM9.3441 64C9.48786 64 9.62574 63.9429 9.7274 63.8412C9.82906 63.7396 9.88617 63.6017 9.88617 63.4579C9.88617 63.3142 9.82906 63.1763 9.7274 63.0746C9.62574 62.973 9.48786 62.9159 9.3441 62.9159V64ZM8.80203 64H9.3441V62.9159H8.80203V64Z" fill="#17428D"/>
<path d="M12.0544 62.9159C11.9107 62.9159 11.7728 62.973 11.6711 63.0746C11.5695 63.1763 11.5124 63.3142 11.5124 63.4579C11.5124 63.6017 11.5695 63.7396 11.6711 63.8412C11.7728 63.9429 11.9107 64 12.0544 64V62.9159ZM14.7648 64C14.9086 64 15.0464 63.9429 15.1481 63.8412C15.2498 63.7396 15.3069 63.6017 15.3069 63.4579C15.3069 63.3142 15.2498 63.1763 15.1481 63.0746C15.0464 62.973 14.9086 62.9159 14.7648 62.9159V64ZM12.0544 64H14.7648V62.9159H12.0544V64Z" fill="#17428D"/>
<path d="M17.4751 62.9159C17.3314 62.9159 17.1935 62.973 17.0918 63.0746C16.9902 63.1763 16.9331 63.3142 16.9331 63.4579C16.9331 63.6017 16.9902 63.7396 17.0918 63.8412C17.1935 63.9429 17.3314 64 17.4751 64V62.9159ZM26.1483 64C26.292 64 26.4299 63.9429 26.5316 63.8412C26.6332 63.7396 26.6903 63.6017 26.6903 63.4579C26.6903 63.3142 26.6332 63.1763 26.5316 63.0746C26.4299 62.973 26.292 62.9159 26.1483 62.9159V64ZM17.4751 64H26.1483V62.9159H17.4751V64Z" fill="#17428D"/>
<path d="M28.8586 62.9159C28.7149 62.9159 28.577 62.973 28.4753 63.0746C28.3737 63.1763 28.3165 63.3142 28.3165 63.4579C28.3165 63.6017 28.3737 63.7396 28.4753 63.8412C28.577 63.9429 28.7149 64 28.8586 64V62.9159ZM58.6725 64C58.8162 64 58.9541 63.9429 59.0558 63.8412C59.1574 63.7396 59.2145 63.6017 59.2145 63.4579C59.2145 63.3142 59.1574 63.1763 59.0558 63.0746C58.9541 62.973 58.8162 62.9159 58.6725 62.9159V64ZM28.8586 64H58.6725V62.9159H28.8586V64Z" fill="#17428D"/>
<path d="M16.391 60.7476C15.0971 60.7476 13.8562 60.2336 12.9413 59.3187C12.0264 58.4037 11.5124 57.1628 11.5124 55.8689C11.5124 55.7252 11.5695 55.5873 11.6711 55.4856C11.7728 55.384 11.9107 55.3269 12.0544 55.3269C12.1982 55.3269 12.3361 55.384 12.4378 55.4856C12.5394 55.5873 12.5965 55.7252 12.5965 55.8689C12.5965 56.6194 12.8191 57.3531 13.236 57.9771C13.6529 58.6011 14.2456 59.0874 14.9389 59.3746C15.6323 59.6618 16.3952 59.7369 17.1313 59.5905C17.8673 59.4441 18.5435 59.0827 19.0741 58.5521C19.6048 58.0214 19.9662 57.3453 20.1126 56.6092C20.259 55.8732 20.1839 55.1102 19.8967 54.4169C19.6095 53.7235 19.1231 53.1309 18.4991 52.7139C17.8751 52.297 17.1415 52.0745 16.391 52.0745C16.2472 52.0745 16.1094 52.0173 16.0077 51.9157C15.906 51.814 15.8489 51.6762 15.8489 51.5324C15.8489 51.3886 15.906 51.2507 16.0077 51.1491C16.1094 51.0474 16.2472 50.9903 16.391 50.9903C17.6849 50.9903 18.9258 51.5043 19.8407 52.4192C20.7556 53.3342 21.2696 54.5751 21.2696 55.8689C21.2696 57.1628 20.7556 58.4037 19.8407 59.3187C18.9258 60.2336 17.6849 60.7476 16.391 60.7476Z" fill="#17428D"/>
<path d="M50.5414 60.7476C49.2475 60.7476 48.0066 60.2336 47.0917 59.3187C46.1768 58.4037 45.6628 57.1628 45.6628 55.8689C45.6628 54.5751 46.1768 53.3342 47.0917 52.4192C48.0066 51.5043 49.2475 50.9903 50.5414 50.9903C50.6852 50.9903 50.8231 51.0474 50.9247 51.1491C51.0264 51.2507 51.0835 51.3886 51.0835 51.5324C51.0835 51.6762 51.0264 51.814 50.9247 51.9157C50.8231 52.0173 50.6852 52.0745 50.5414 52.0745C49.7909 52.0745 49.0573 52.297 48.4333 52.7139C47.8093 53.1309 47.323 53.7235 47.0358 54.4169C46.7486 55.1102 46.6734 55.8732 46.8198 56.6092C46.9663 57.3453 47.3276 58.0214 47.8583 58.5521C48.389 59.0827 49.0651 59.4441 49.8012 59.5905C50.5372 59.7369 51.3002 59.6618 51.9935 59.3746C52.6869 59.0874 53.2795 58.6011 53.6964 57.9771C54.1134 57.3531 54.3359 56.6194 54.3359 55.8689C54.3359 55.7252 54.393 55.5873 54.4947 55.4856C54.5963 55.384 54.7342 55.3269 54.878 55.3269C55.0217 55.3269 55.1596 55.384 55.2613 55.4856C55.3629 55.5873 55.4201 55.7252 55.4201 55.8689C55.4201 57.1628 54.9061 58.4037 53.9911 59.3187C53.0762 60.2336 51.8353 60.7476 50.5414 60.7476Z" fill="#17428D"/>
<path d="M30.4848 56.411C30.3411 56.411 30.2032 56.3539 30.1015 56.2522C29.9999 56.1506 29.9428 56.0127 29.9428 55.8689V46.6538C29.9428 45.9349 30.2283 45.2455 30.7366 44.7372C31.2449 44.229 31.9343 43.9434 32.6531 43.9434H35.9055C36.6244 43.9434 37.3138 44.229 37.822 44.7372C38.3303 45.2455 38.6159 45.9349 38.6159 46.6538V52.6165C38.6159 52.7603 38.5588 52.8982 38.4571 52.9998C38.3555 53.1015 38.2176 53.1586 38.0738 53.1586C37.93 53.1586 37.7922 53.1015 37.6905 52.9998C37.5889 52.8982 37.5317 52.7603 37.5317 52.6165V46.6538C37.5317 46.2225 37.3604 45.8088 37.0554 45.5039C36.7505 45.1989 36.3368 45.0275 35.9055 45.0275H32.6531C32.2218 45.0275 31.8082 45.1989 31.5032 45.5039C31.1982 45.8088 31.0269 46.2225 31.0269 46.6538V55.8689C31.0269 56.0127 30.9698 56.1506 30.8681 56.2522C30.7665 56.3539 30.6286 56.411 30.4848 56.411Z" fill="#F8AE1B"/>
<path d="M68.1587 47.7379C61.54 47.7379 58.6508 44.415 56.1031 41.4824C54.2167 39.3141 52.585 37.4386 49.7283 37.4386H46.2049C46.0611 37.4386 45.9232 37.3815 45.8216 37.2798C45.7199 37.1781 45.6628 37.0403 45.6628 36.8965C45.6628 36.7527 45.7199 36.6149 45.8216 36.5132C45.9232 36.4115 46.0611 36.3544 46.2049 36.3544H49.7283C53.0783 36.3544 54.943 38.5227 56.9216 40.7723C59.3175 43.5314 62.0333 46.6538 68.1587 46.6538C68.3025 46.6538 68.4403 46.7109 68.542 46.8125C68.6437 46.9142 68.7008 47.0521 68.7008 47.1958C68.7008 47.3396 68.6437 47.4775 68.542 47.5791C68.4403 47.6808 68.3025 47.7379 68.1587 47.7379ZM42.9524 37.4386H10.4282C9.13434 37.4386 7.89344 36.9246 6.97852 36.0096C6.0636 35.0947 5.54961 33.8538 5.54961 32.5599V31.4758C5.54961 31.332 5.60672 31.1942 5.70838 31.0925C5.81003 30.9908 5.94791 30.9337 6.09168 30.9337C6.23544 30.9337 6.37332 30.9908 6.47498 31.0925C6.57664 31.1942 6.63375 31.332 6.63375 31.4758V32.5599C6.63375 33.5663 7.03352 34.5314 7.74513 35.243C8.45673 35.9546 9.42188 36.3544 10.4282 36.3544H42.9524C43.0962 36.3544 43.2341 36.4115 43.3357 36.5132C43.4374 36.6149 43.4945 36.7527 43.4945 36.8965C43.4945 37.0403 43.4374 37.1781 43.3357 37.2798C43.2341 37.3815 43.0962 37.4386 42.9524 37.4386Z" fill="#F8AE1B"/>
<path d="M15.3069 37.4386C15.1631 37.4386 15.0252 37.3815 14.9236 37.2798C14.8219 37.1781 14.7648 37.0403 14.7648 36.8965V33.102C14.7648 32.9582 14.8219 32.8204 14.9236 32.7187C15.0252 32.617 15.1631 32.5599 15.3069 32.5599C15.4506 32.5599 15.5885 32.617 15.6902 32.7187C15.7918 32.8204 15.8489 32.9582 15.8489 33.102V36.8965C15.8489 37.0403 15.7918 37.1781 15.6902 37.2798C15.5885 37.3815 15.4506 37.4386 15.3069 37.4386Z" fill="#F8AE1B"/>
<path d="M24.5221 37.4386C24.3783 37.4386 24.2404 37.3815 24.1388 37.2798C24.0371 37.1781 23.98 37.0403 23.98 36.8965V33.102C23.98 32.9582 24.0371 32.8204 24.1388 32.7187C24.2404 32.617 24.3783 32.5599 24.5221 32.5599C24.6658 32.5599 24.8037 32.617 24.9054 32.7187C25.007 32.8204 25.0641 32.9582 25.0641 33.102V36.8965C25.0641 37.0403 25.007 37.1781 24.9054 37.2798C24.8037 37.3815 24.6658 37.4386 24.5221 37.4386Z" fill="#F8AE1B"/>
<path d="M33.7372 37.4386C33.5935 37.4386 33.4556 37.3815 33.3539 37.2798C33.2523 37.1781 33.1952 37.0403 33.1952 36.8965V33.102C33.1952 32.9582 33.2523 32.8204 33.3539 32.7187C33.4556 32.617 33.5935 32.5599 33.7372 32.5599C33.881 32.5599 34.0189 32.617 34.1206 32.7187C34.2222 32.8204 34.2793 32.9582 34.2793 33.102V36.8965C34.2793 37.0403 34.2222 37.1781 34.1206 37.2798C34.0189 37.3815 33.881 37.4386 33.7372 37.4386Z" fill="#F8AE1B"/>
<path d="M42.9524 37.4386C42.8087 37.4386 42.6708 37.3815 42.5691 37.2798C42.4675 37.1781 42.4104 37.0403 42.4104 36.8965V33.102C42.4104 32.9582 42.4675 32.8204 42.5691 32.7187C42.6708 32.617 42.8087 32.5599 42.9524 32.5599C43.0962 32.5599 43.2341 32.617 43.3357 32.7187C43.4374 32.8204 43.4945 32.9582 43.4945 33.102V36.8965C43.4945 37.0403 43.4374 37.1781 43.3357 37.2798C43.2341 37.3815 43.0962 37.4386 42.9524 37.4386Z" fill="#F8AE1B"/>
<path d="M52.7097 47.4669C52.5659 47.4669 52.4281 47.4098 52.3264 47.3081C52.2247 47.2064 52.1676 47.0686 52.1676 46.9248V42.8593C52.1676 42.7155 52.2247 42.5776 52.3264 42.476C52.4281 42.3743 52.5659 42.3172 52.7097 42.3172C52.8535 42.3172 52.9913 42.3743 53.093 42.476C53.1947 42.5776 53.2518 42.7155 53.2518 42.8593V46.9248C53.2518 47.0686 53.1947 47.2064 53.093 47.3081C52.9913 47.4098 52.8535 47.4669 52.7097 47.4669Z" fill="#F8AE1B"/>
<path d="M68.4297 51.5324C65.2911 51.5324 61.3828 51.5324 61.3828 46.1117C61.3828 45.9679 61.4399 45.83 61.5416 45.7284C61.6432 45.6267 61.7811 45.5696 61.9249 45.5696C62.0687 45.5696 62.2065 45.6267 62.3082 45.7284C62.4098 45.83 62.467 45.9679 62.467 46.1117C62.467 50.4482 65.096 50.4482 68.4297 50.4482C68.5735 50.4482 68.7114 50.5054 68.813 50.607C68.9147 50.7087 68.9718 50.8466 68.9718 50.9903C68.9718 51.1341 68.9147 51.272 68.813 51.3736C68.7114 51.4753 68.5735 51.5324 68.4297 51.5324Z" fill="#F8AE1B"/>
<path d="M20.7276 55.3269C20.5838 55.3269 20.4459 55.384 20.3443 55.4857C20.2426 55.5873 20.1855 55.7252 20.1855 55.869C20.1855 56.0127 20.2426 56.1506 20.3443 56.2523C20.4459 56.3539 20.5838 56.411 20.7276 56.411V55.3269ZM8.25996 56.411C8.40372 56.411 8.5416 56.3539 8.64326 56.2523C8.74492 56.1506 8.80203 56.0127 8.80203 55.869C8.80203 55.7252 8.74492 55.5873 8.64326 55.4857C8.5416 55.384 8.40372 55.3269 8.25996 55.3269V56.411ZM43.4945 56.411C43.6383 56.411 43.7762 56.3539 43.8778 56.2523C43.9795 56.1506 44.0366 56.0127 44.0366 55.869C44.0366 55.7252 43.9795 55.5873 43.8778 55.4857C43.7762 55.384 43.6383 55.3269 43.4945 55.3269V56.411ZM54.878 55.3269C54.7342 55.3269 54.5963 55.384 54.4947 55.4857C54.393 55.5873 54.3359 55.7252 54.3359 55.869C54.3359 56.0127 54.393 56.1506 54.4947 56.2523C54.5963 56.3539 54.7342 56.411 54.878 56.411V55.3269ZM36.4476 56.411C36.5914 56.411 36.7292 56.3539 36.8309 56.2523C36.9326 56.1506 36.9897 56.0127 36.9897 55.869C36.9897 55.7252 36.9326 55.5873 36.8309 55.4857C36.7292 55.384 36.5914 55.3269 36.4476 55.3269V56.411ZM40.7842 55.3269C40.6404 55.3269 40.5025 55.384 40.4009 55.4857C40.2992 55.5873 40.2421 55.7252 40.2421 55.869C40.2421 56.0127 40.2992 56.1506 40.4009 56.2523C40.5025 56.3539 40.6404 56.411 40.7842 56.411V55.3269ZM0.128906 32.5599V51.5324H1.21305V32.5599H0.128906ZM69.1453 51.1529L68.4297 42.1708L67.3456 42.2576L68.0503 51.2343L69.1453 51.1529ZM52.7693 27.6813H5.00754V28.7654H52.7693V27.6813ZM5.00754 56.411H8.25996V55.3269H5.00754V56.411ZM54.878 56.411H64.2829V55.3269H54.878V56.411ZM20.7276 56.411H36.4476V55.3269H20.7276V56.411ZM40.7842 56.411H43.4945V55.3269H40.7842V56.411ZM68.4297 42.1708C68.1202 38.2287 66.3364 34.5481 63.4339 31.8626C60.5315 29.1772 56.7236 27.6842 52.7693 27.6813V28.7654C56.4504 28.7692 59.995 30.1599 62.6964 32.6605C65.3979 35.161 67.0579 38.5877 67.3456 42.2576L68.4297 42.1708ZM68.0557 51.2343C68.0969 51.757 68.0293 52.2827 67.8571 52.7781C67.685 53.2734 67.412 53.7277 67.0555 54.1123C66.6989 54.4968 66.2666 54.8033 65.7856 55.0123C65.3047 55.2214 64.7856 55.3285 64.2612 55.3269V56.411C64.9351 56.4131 65.6021 56.2755 66.2202 56.0069C66.8382 55.7384 67.394 55.3447 67.8523 54.8507C68.3107 54.3567 68.6617 53.7731 68.8833 53.1366C69.1049 52.5002 69.1923 51.8248 69.1398 51.1529L68.0557 51.2343ZM0.128906 51.5324C0.128906 52.8263 0.642903 54.0672 1.55782 54.9821C2.47274 55.897 3.71364 56.411 5.00754 56.411V55.3269C4.00118 55.3269 3.03603 54.9271 2.32443 54.2155C1.61282 53.5039 1.21305 52.5388 1.21305 51.5324H0.128906ZM1.21305 32.5599C1.21305 31.5536 1.61282 30.5884 2.32443 29.8768C3.03603 29.1652 4.00118 28.7654 5.00754 28.7654V27.6813C3.71364 27.6813 2.47274 28.1953 1.55782 29.1102C0.642903 30.0251 0.128906 31.266 0.128906 32.5599H1.21305Z" fill="#17428D"/>
<path fill-rule="evenodd" clip-rule="evenodd" d="M58.6725 5.45643C58.8162 5.45643 58.9541 5.51354 59.0558 5.6152C59.1574 5.71686 59.2145 5.85474 59.2145 5.9985V7.08264C59.2145 7.22641 59.1574 7.36429 59.0558 7.46594C58.9541 7.5676 58.8162 7.62471 58.6725 7.62471C58.5287 7.62471 58.3908 7.5676 58.2892 7.46594C58.1875 7.36429 58.1304 7.22641 58.1304 7.08264V5.9985C58.1304 5.85474 58.1875 5.71686 58.2892 5.6152C58.3908 5.51354 58.5287 5.45643 58.6725 5.45643ZM58.6725 20.0923C58.8162 20.0923 58.9541 20.1494 59.0558 20.2511C59.1574 20.3528 59.2145 20.4906 59.2145 20.6344V22.2606C59.2145 22.4044 59.1574 22.5422 59.0558 22.6439C58.9541 22.7456 58.8162 22.8027 58.6725 22.8027C58.5287 22.8027 58.3908 22.7456 58.2892 22.6439C58.1875 22.5422 58.1304 22.4044 58.1304 22.2606V20.6344C58.1304 20.4906 58.1875 20.3528 58.2892 20.2511C58.3908 20.1494 58.5287 20.0923 58.6725 20.0923ZM66.8035 14.6716C66.9473 14.6716 67.0852 14.6145 67.1868 14.5129C67.2885 14.4112 67.3456 14.2733 67.3456 14.1296C67.3456 13.9858 67.2885 13.8479 67.1868 13.7463C67.0852 13.6446 66.9473 13.5875 66.8035 13.5875H65.7194C65.5756 13.5875 65.4377 13.6446 65.3361 13.7463C65.2344 13.8479 65.1773 13.9858 65.1773 14.1296C65.1773 14.2733 65.2344 14.4112 65.3361 14.5129C65.4377 14.6145 65.5756 14.6716 65.7194 14.6716H66.8035ZM52.1676 14.1296C52.1676 14.2733 52.1105 14.4112 52.0089 14.5129C51.9072 14.6145 51.7693 14.6716 51.6256 14.6716H50.5414C50.3977 14.6716 50.2598 14.6145 50.1581 14.5129C50.0565 14.4112 49.9994 14.2733 49.9994 14.1296C49.9994 13.9858 50.0565 13.8479 50.1581 13.7463C50.2598 13.6446 50.3977 13.5875 50.5414 13.5875H51.6256C51.7693 13.5875 51.9072 13.6446 52.0089 13.7463C52.1105 13.8479 52.1676 13.9858 52.1676 14.1296ZM64.7111 7.95538C64.7619 8.00577 64.8023 8.06572 64.8298 8.13178C64.8573 8.19783 64.8715 8.26869 64.8715 8.34025C64.8715 8.4118 64.8573 8.48266 64.8298 8.54871C64.8023 8.61477 64.7619 8.67472 64.7111 8.72512L63.8655 9.56532C63.7618 9.65413 63.6284 9.70053 63.492 9.69526C63.3556 9.68999 63.2262 9.63344 63.1296 9.5369C63.0331 9.44036 62.9765 9.31095 62.9712 9.17452C62.966 9.03809 63.0124 8.9047 63.1012 8.801L63.9414 7.95538C63.9918 7.90457 64.0517 7.86424 64.1178 7.83672C64.1839 7.8092 64.2547 7.79503 64.3263 7.79503C64.3978 7.79503 64.4687 7.8092 64.5347 7.83672C64.6008 7.86424 64.6607 7.90457 64.7111 7.95538ZM54.2438 18.4227C54.3447 18.5243 54.4014 18.6617 54.4014 18.8049C54.4014 18.9481 54.3447 19.0855 54.2438 19.1871L53.4036 20.0327C53.353 20.0832 53.293 20.1233 53.227 20.1507C53.1609 20.178 53.0902 20.1921 53.0187 20.1921C52.9472 20.1921 52.8764 20.178 52.8104 20.1507C52.7444 20.1233 52.6844 20.0832 52.6338 20.0327C52.5833 19.9822 52.5432 19.9222 52.5158 19.8561C52.4885 19.7901 52.4744 19.7193 52.4744 19.6478C52.4744 19.5764 52.4885 19.5056 52.5158 19.4395C52.5432 19.3735 52.5833 19.3135 52.6338 19.263L53.4794 18.4227C53.581 18.3218 53.7184 18.2651 53.8616 18.2651C54.0048 18.2651 54.1422 18.3218 54.2438 18.4227ZM63.9414 20.049C63.9919 20.0995 64.0519 20.1396 64.118 20.1669C64.184 20.1943 64.2548 20.2084 64.3263 20.2084C64.3977 20.2084 64.4685 20.1943 64.5346 20.1669C64.6006 20.1396 64.6606 20.0995 64.7111 20.049C64.7617 19.9984 64.8018 19.9384 64.8291 19.8724C64.8565 19.8063 64.8706 19.7356 64.8706 19.6641C64.8706 19.5926 64.8565 19.5218 64.8291 19.4558C64.8018 19.3898 64.7617 19.3298 64.7111 19.2792L63.8655 18.439C63.7618 18.3502 63.6284 18.3038 63.492 18.3091C63.3556 18.3143 63.2262 18.3709 63.1296 18.4674C63.0331 18.564 62.9765 18.6934 62.9712 18.8298C62.966 18.9662 63.0124 19.0996 63.1012 19.2033L63.9414 20.049ZM53.4794 9.56532C53.5831 9.65413 53.7165 9.70053 53.853 9.69526C53.9894 9.68999 54.1188 9.63344 54.2153 9.5369C54.3119 9.44036 54.3684 9.31095 54.3737 9.17452C54.379 9.03809 54.3326 8.9047 54.2438 8.801L53.4036 7.95538C53.3567 7.89509 53.2976 7.84539 53.2301 7.80953C53.1627 7.77368 53.0884 7.75248 53.0122 7.74733C52.936 7.74217 52.8596 7.75318 52.788 7.77963C52.7163 7.80607 52.651 7.84736 52.5965 7.90079C52.5419 7.95421 52.4992 8.01857 52.4712 8.08964C52.4433 8.16071 52.4306 8.23689 52.4342 8.31318C52.4377 8.38948 52.4573 8.46417 52.4917 8.53235C52.5261 8.60054 52.5745 8.66069 52.6338 8.70885L53.4794 9.56532ZM54.878 14.1296C54.8786 13.3883 55.0963 12.6635 55.5041 12.0446C55.912 11.4257 56.4922 10.9398 57.1731 10.6469C57.854 10.354 58.6058 10.267 59.3356 10.3965C60.0654 10.5261 60.7413 10.8665 61.2798 11.3758C61.3848 11.475 61.5248 11.5285 61.6692 11.5244C61.8135 11.5203 61.9504 11.4591 62.0496 11.3542C62.1488 11.2492 62.2022 11.1091 62.1981 10.9648C62.1941 10.8204 62.1328 10.6836 62.0279 10.5844C61.2128 9.81211 60.1562 9.34464 59.0364 9.26088C57.9166 9.17712 56.8023 9.48219 55.8813 10.1246C54.9603 10.7671 54.2892 11.7075 53.9811 12.7873C53.673 13.8671 53.7468 15.0201 54.1901 16.0518C54.6334 17.0835 55.419 17.9307 56.4143 18.4505C57.4097 18.9702 58.5539 19.1307 59.6538 18.9048C60.7538 18.679 61.7421 18.0806 62.4521 17.2106C63.1621 16.3407 63.5503 15.2524 63.5511 14.1296C63.5511 13.9858 63.494 13.8479 63.3923 13.7463C63.2907 13.6446 63.1528 13.5875 63.009 13.5875C62.8653 13.5875 62.7274 13.6446 62.6257 13.7463C62.5241 13.8479 62.467 13.9858 62.467 14.1296C62.467 15.1359 62.0672 16.1011 61.3556 16.8127C60.644 17.5243 59.6788 17.924 58.6725 17.924C57.6661 17.924 56.701 17.5243 55.9894 16.8127C55.2778 16.1011 54.878 15.1359 54.878 14.1296Z" fill="#F8AE1B"/>
<path d="M37.5317 17.924H33.1952C33.0514 17.924 32.9135 17.8669 32.8119 17.7653C32.7102 17.6636 32.6531 17.5257 32.6531 17.382C32.6531 17.2382 32.7102 17.1003 32.8119 16.9987C32.9135 16.897 33.0514 16.8399 33.1952 16.8399H37.5317C37.6755 16.8399 37.8134 16.897 37.915 16.9987C38.0167 17.1003 38.0738 17.2382 38.0738 17.382C38.0738 17.5257 38.0167 17.6636 37.915 17.7653C37.8134 17.8669 37.6755 17.924 37.5317 17.924Z" fill="#E1E3F0"/>
<path d="M31.0269 17.924H29.9428C29.799 17.924 29.6611 17.8669 29.5595 17.7653C29.4578 17.6636 29.4007 17.5257 29.4007 17.382C29.4007 17.2382 29.4578 17.1003 29.5595 16.9987C29.6611 16.897 29.799 16.8399 29.9428 16.8399H31.0269C31.1707 16.8399 31.3085 16.897 31.4102 16.9987C31.5119 17.1003 31.569 17.2382 31.569 17.382C31.569 17.5257 31.5119 17.6636 31.4102 17.7653C31.3085 17.8669 31.1707 17.924 31.0269 17.924Z" fill="#E1E3F0"/>
<path d="M42.4104 23.3447H35.9055C35.7618 23.3447 35.6239 23.2876 35.5222 23.186C35.4206 23.0843 35.3635 22.9464 35.3635 22.8027C35.3635 22.6589 35.4206 22.521 35.5222 22.4194C35.6239 22.3177 35.7618 22.2606 35.9055 22.2606H42.4104C42.5541 22.2606 42.692 22.3177 42.7937 22.4194C42.8953 22.521 42.9524 22.6589 42.9524 22.8027C42.9524 22.9464 42.8953 23.0843 42.7937 23.186C42.692 23.2876 42.5541 23.3447 42.4104 23.3447Z" fill="#E1E3F0"/>
<path d="M46.2049 23.3447H44.5787C44.4349 23.3447 44.297 23.2876 44.1954 23.186C44.0937 23.0843 44.0366 22.9464 44.0366 22.8027C44.0366 22.6589 44.0937 22.521 44.1954 22.4194C44.297 22.3177 44.4349 22.2606 44.5787 22.2606H46.2049C46.3486 22.2606 46.4865 22.3177 46.5882 22.4194C46.6898 22.521 46.7469 22.6589 46.7469 22.8027C46.7469 22.9464 46.6898 23.0843 46.5882 23.186C46.4865 23.2876 46.3486 23.3447 46.2049 23.3447Z" fill="#E1E3F0"/>
<path d="M64.0932 38.2517C63.9825 38.2521 63.8743 38.2185 63.7832 38.1555C63.6921 38.0925 63.6224 38.0031 63.5837 37.8994C62.8139 35.8449 59.3718 32.7443 57.7131 32.2672C57.64 32.2524 57.5707 32.2227 57.5097 32.1799C57.4486 32.1371 57.397 32.0822 57.3581 32.0185C57.3193 31.9549 57.2939 31.8839 57.2837 31.8101C57.2735 31.7362 57.2787 31.661 57.2989 31.5892C57.3191 31.5174 57.3539 31.4506 57.4011 31.3928C57.4483 31.3351 57.5069 31.2877 57.5732 31.2537C57.6396 31.2197 57.7122 31.1997 57.7867 31.195C57.8611 31.1903 57.9357 31.201 58.0058 31.2265C60.1741 31.8444 63.7517 35.2595 64.6028 37.5199C64.6279 37.5868 64.6396 37.658 64.6371 37.7294C64.6346 37.8009 64.618 37.8711 64.5883 37.9361C64.5586 38.0011 64.5163 38.0595 64.4639 38.1081C64.4115 38.1567 64.35 38.1944 64.2829 38.2192C64.2222 38.2413 64.1579 38.2523 64.0932 38.2517Z" fill="#F8AE1B"/>
<path d="M41.3262 10.335H29.4007C29.2569 10.335 29.119 10.2779 29.0174 10.1763C28.9157 10.0746 28.8586 9.93673 28.8586 9.79297C28.8586 9.6492 28.9157 9.51132 29.0174 9.40967C29.119 9.30801 29.2569 9.2509 29.4007 9.2509H41.3262C41.6845 9.2513 42.033 9.13334 42.3173 8.91536C42.6017 8.69737 42.8062 8.39156 42.8989 8.04545C42.9916 7.69933 42.9674 7.33228 42.83 7.00133C42.6927 6.67039 42.4499 6.39406 42.1393 6.2153C42.0746 6.18142 42.0173 6.13478 41.971 6.07819C41.9247 6.0216 41.8904 5.95623 41.87 5.88602C41.8496 5.8158 41.8437 5.7422 41.8525 5.66962C41.8613 5.59705 41.8847 5.527 41.9213 5.46371C41.9579 5.40041 42.0069 5.34517 42.0654 5.30131C42.1239 5.25745 42.1906 5.22587 42.2616 5.20848C42.3326 5.19109 42.4064 5.18824 42.4786 5.2001C42.5507 5.21197 42.6197 5.2383 42.6814 5.27752C43.1981 5.57586 43.6019 6.03634 43.8302 6.58755C44.0585 7.13876 44.0985 7.7499 43.9441 8.32619C43.7897 8.90247 43.4494 9.41171 42.9761 9.77492C42.5028 10.1381 41.9228 10.335 41.3262 10.335ZM27.2324 9.2509C27.1483 9.2509 27.0653 9.2313 26.99 9.19367C26.9147 9.15603 26.8492 9.10139 26.7988 9.03407C26.4363 8.55086 26.2157 7.97627 26.1614 7.3747C26.1072 6.77313 26.2215 6.16834 26.4916 5.62809C26.7618 5.08784 27.177 4.63349 27.6908 4.31594C28.2046 3.99839 28.7967 3.8302 29.4007 3.8302H30.1216C30.4362 2.64369 31.1641 1.60855 32.1744 0.911345C33.1847 0.214139 34.4107 -0.0992767 35.6316 0.0275879C36.8525 0.154453 37.988 0.713252 38.8333 1.60327C39.6786 2.49329 40.1782 3.65599 40.2421 4.88181C40.2464 4.953 40.2366 5.02433 40.2133 5.09173C40.19 5.15913 40.1536 5.22128 40.1063 5.27464C40.059 5.328 40.0016 5.37151 39.9375 5.4027C39.8734 5.43389 39.8037 5.45214 39.7325 5.45641C39.6614 5.46068 39.59 5.45089 39.5226 5.42759C39.4552 5.40429 39.3931 5.36795 39.3397 5.32064C39.2864 5.27332 39.2428 5.21596 39.2117 5.15183C39.1805 5.08769 39.1622 5.01805 39.1579 4.94686C39.0995 3.95308 38.6785 3.01528 37.9748 2.31121C37.271 1.60715 36.3334 1.18578 35.3396 1.12697C34.3459 1.06816 33.3651 1.376 32.5832 1.99214C31.8012 2.60828 31.2726 3.48989 31.0974 4.46984C31.0743 4.59612 31.0071 4.71011 30.9079 4.7915C30.8086 4.8729 30.6837 4.91643 30.5553 4.91434H29.4007C28.998 4.91434 28.6033 5.02647 28.2608 5.23817C27.9182 5.44987 27.6414 5.75277 27.4613 6.11293C27.2812 6.4731 27.205 6.87629 27.2412 7.27734C27.2773 7.67839 27.4245 8.06144 27.6661 8.38358C27.7523 8.4986 27.7894 8.64317 27.769 8.78549C27.7487 8.92781 27.6727 9.05622 27.5577 9.14248C27.4638 9.21286 27.3497 9.2509 27.2324 9.2509Z" fill="#E1E3F0"/>
<path d="M5.42493 13.4682C5.40894 13.538 5.40694 13.6103 5.41902 13.6808C5.43111 13.7514 5.45706 13.8188 5.49536 13.8793C5.53366 13.9398 5.58356 13.9921 5.64219 14.0332C5.70081 14.0743 5.76699 14.1033 5.8369 14.1187C5.97706 14.1494 6.12365 14.1232 6.24457 14.046C6.36548 13.9688 6.45085 13.8468 6.48197 13.7067L5.42493 13.4682ZM18.2611 15.3113L17.7191 15.2787C17.7146 15.3526 17.7254 15.4266 17.7506 15.4962C17.7759 15.5658 17.8151 15.6294 17.8659 15.6832C17.9167 15.7371 17.9779 15.7799 18.0459 15.8092C18.1139 15.8384 18.1871 15.8535 18.2611 15.8533V15.3113ZM20.4728 21.7185C20.6166 21.7185 20.7544 21.6614 20.8561 21.5598C20.9578 21.4581 21.0149 21.3202 21.0149 21.1765C21.0149 21.0327 20.9578 20.8948 20.8561 20.7932C20.7544 20.6915 20.6166 20.6344 20.4728 20.6344V21.7185ZM3.53853 14.2651C3.67654 14.2234 3.79234 14.1286 3.86045 14.0015C3.92856 13.8744 3.94341 13.7255 3.90171 13.5875C3.86002 13.4495 3.76521 13.3337 3.63814 13.2656C3.51107 13.1974 3.36214 13.1826 3.22413 13.2243L3.53853 14.2651ZM22.614 19.3063C22.5501 19.435 22.5399 19.5838 22.5856 19.72C22.6313 19.8562 22.7293 19.9687 22.8579 20.0327C22.9859 20.097 23.1342 20.108 23.2703 20.0633C23.4064 20.0186 23.5193 19.9219 23.5843 19.7942L22.614 19.3063ZM12.0544 9.25092C13.564 9.25092 15.0117 9.85059 16.0791 10.918C17.1465 11.9854 17.7462 13.4331 17.7462 14.9427H18.8303C18.8303 14.0528 18.6551 13.1717 18.3145 12.3496C17.974 11.5276 17.4749 10.7806 16.8457 10.1514C16.2165 9.52219 15.4696 9.02308 14.6475 8.68257C13.8254 8.34205 12.9443 8.16678 12.0544 8.16678V9.25092ZM4.46547 20.6344C3.60287 20.6344 2.77561 20.2917 2.16566 19.6818C1.55571 19.0718 1.21305 18.2446 1.21305 17.382H0.128907C0.128907 18.5321 0.585793 19.6351 1.39906 20.4484C2.21232 21.2616 3.31534 21.7185 4.46547 21.7185V20.6344ZM20.4728 15.8533C20.7869 15.8526 21.0981 15.914 21.3885 16.0338C21.6788 16.1537 21.9426 16.3298 22.1647 16.5519C22.3869 16.774 22.5629 17.0378 22.6828 17.3282C22.8027 17.6186 22.864 17.9297 22.8633 18.2439H23.9475C23.9475 17.3223 23.5814 16.4385 22.9298 15.7869C22.2781 15.1353 21.3943 14.7692 20.4728 14.7692V15.8533ZM6.48197 13.6851C6.76892 12.4229 7.47715 11.296 8.49003 10.49C9.5029 9.68406 10.76 9.24704 12.0544 9.25092V8.16678C10.5139 8.16783 9.01955 8.69341 7.81752 9.65701C6.61549 10.6206 5.77739 11.9648 5.44119 13.4682L6.48197 13.6851ZM18.2611 15.8533H20.4728V14.7692H18.2611V15.8533ZM17.7191 14.9427C17.7191 15.0565 17.7191 15.1649 17.7191 15.2787L18.8032 15.3384C18.8032 15.2083 18.8032 15.0782 18.8032 14.9427H17.7191ZM4.46547 21.7185H20.4728V20.6344H4.46547V21.7185ZM3.22413 13.2243C2.3293 13.4916 1.54467 14.0407 0.986988 14.7898C0.429302 15.5389 0.128351 16.4481 0.128907 17.382H1.21305C1.21318 16.6813 1.43962 15.9993 1.85864 15.4377C2.27767 14.8761 2.86687 14.4648 3.53853 14.2651L3.22413 13.2243ZM22.8633 18.2439C22.8664 18.6198 22.781 18.9912 22.614 19.328L23.5843 19.8159C23.8233 19.334 23.9476 18.8034 23.9475 18.2655L22.8633 18.2439Z" fill="#E1E3F0"/>
</svg>
