<svg width="18" height="21" viewBox="0 0 18 21" fill="none" xmlns="http://www.w3.org/2000/svg">
<path d="M16.6653 4.98563C15.0609 1.93283 12.3621 0.431122 9.23095 0.276845C7.79555 0.27185 6.72592 0.435006 5.75406 0.796836C2.67181 1.94337 0.794065 4.05886 0.146751 7.12498C-0.159531 8.57451 0.0254161 9.99076 0.591448 11.3687C1.24878 12.9697 2.27305 14.3499 3.44635 15.6413C4.97245 17.3206 6.75831 18.7452 8.49646 20.2158C8.71027 20.3967 8.85104 20.3928 9.07368 20.2002C10.3383 19.1059 11.6288 18.0365 12.8533 16.9027C14.3812 15.4881 15.7112 13.922 16.6394 12.0802C17.8292 9.71827 17.8975 7.33086 16.6653 4.98563ZM8.76387 12.4331C6.29064 12.4187 4.27566 10.503 4.29216 8.18272C4.30924 5.8286 6.33305 3.93732 8.8104 3.95952C11.2766 3.98172 13.2733 5.88743 13.2586 8.20492C13.2438 10.544 11.2212 12.447 8.76387 12.4331Z" fill="#F8AE19"/>
</svg>
