<svg width="252" height="1" viewBox="0 0 252 1" fill="none" xmlns="http://www.w3.org/2000/svg">
<path fill-rule="evenodd" clip-rule="evenodd" d="M0.5 0.5C0.5 0.223858 0.723858 0 1 0H141C141.276 0 141.5 0.223858 141.5 0.5C141.5 0.776142 141.276 1 141 1H1C0.723858 1 0.5 0.776142 0.5 0.5ZM144.5 0.5C144.5 0.223858 144.724 0 145 0H158C158.276 0 158.5 0.223859 158.5 0.500001C158.5 0.776144 158.276 1 158 1L145 1C144.724 1 144.5 0.776142 144.5 0.5ZM162 0C161.724 0 161.5 0.223858 161.5 0.5C161.5 0.776142 161.724 1 162 1H185C185.276 1 185.5 0.776142 185.5 0.5C185.5 0.223858 185.276 0 185 0H162ZM188.5 0.5C188.5 0.223858 188.724 0 189 0H193C193.276 0 193.5 0.223858 193.5 0.5C193.5 0.776142 193.276 1 193 1H189C188.724 1 188.5 0.776142 188.5 0.5ZM197 0C196.724 0 196.5 0.223858 196.5 0.5C196.5 0.776142 196.724 1 197 1H225C225.276 1 225.5 0.776142 225.5 0.5C225.5 0.223858 225.276 0 225 0H197ZM228.5 0.5C228.5 0.223858 228.724 0 229 0H231C231.276 0 231.5 0.223858 231.5 0.5C231.5 0.776142 231.276 1 231 1H229C228.724 1 228.5 0.776142 228.5 0.5ZM235 0C234.724 0 234.5 0.223858 234.5 0.5C234.5 0.776142 234.724 1 235 1H237C237.276 1 237.5 0.776142 237.5 0.5C237.5 0.223858 237.276 0 237 0H235ZM240.5 0.5C240.5 0.223858 240.724 0 241 0H243C243.276 0 243.5 0.223858 243.5 0.5C243.5 0.776142 243.276 1 243 1H241C240.724 1 240.5 0.776142 240.5 0.5ZM247 0C246.724 0 246.5 0.223858 246.5 0.5C246.5 0.776142 246.724 1 247 1H251C251.276 1 251.5 0.776142 251.5 0.5C251.5 0.223858 251.276 0 251 0H247Z" fill="#FFE3BC"/>
</svg>
