<svg xmlns:xlink="http://www.w3.org/1999/xlink" xmlns="http://www.w3.org/2000/svg" width="51" height="51" viewBox="0 0 51 51" fill="none" class="styles_icon__2mZJx"><path d="M-0.000927287 25.5773C-0.013251 22.2166 0.639312 18.8866 1.9192 15.7791C3.19909 12.6715 5.08104 9.84785 7.45668 7.47053C9.83232 5.09322 12.6547 3.20923 15.7615 1.92704C18.8682 0.64484 22.1979 -0.0102434 25.5588 -0.000503313C39.58 -0.0103283 51.0089 11.4866 50.9991 25.5871C50.9893 39.6876 39.5489 51.0077 25.3312 50.9995C11.4263 50.9913 -0.000927287 39.5239 -0.000927287 25.5773ZM25.5654 3.96225C13.8041 3.8378 4.07016 13.4319 3.92113 25.294C3.77211 37.084 13.4029 46.9336 25.2002 47.0728C37.1236 47.207 46.9804 37.6162 47.0541 25.6886C47.1294 14.2523 38.0931 4.02775 25.5654 3.96553V3.96225Z" fill="#163F90"></path><path d="M27.4594 28.4679C27.4594 31.0405 27.4594 33.6146 27.4594 36.1888C27.4636 36.6517 27.3027 37.1009 27.0055 37.4559C26.7084 37.8109 26.2946 38.0485 25.8381 38.1259C24.8212 38.27 23.9287 37.7444 23.629 36.8012C23.5631 36.5668 23.5322 36.3241 23.5373 36.0807C23.5373 30.9924 23.5373 25.9052 23.5373 20.8192C23.5373 19.5616 24.343 18.7314 25.5188 18.7412C26.6651 18.7494 27.4626 19.6107 27.4643 20.8699C27.4643 23.3971 27.4626 25.9298 27.4594 28.4679Z" fill="#163F90"></path><path d="M23.534 14.7867C23.5422 13.6764 24.4036 12.8528 25.5384 12.8708C25.7929 12.8703 26.0449 12.9205 26.2798 13.0184C26.5147 13.1163 26.7277 13.26 26.9065 13.441C27.0853 13.6221 27.2262 13.8369 27.3212 14.073C27.4161 14.3091 27.4631 14.5617 27.4594 14.8161C27.4574 15.0742 27.4047 15.3293 27.3041 15.567C27.2036 15.8046 27.0572 16.0202 26.8734 16.2013C26.6895 16.3824 26.4718 16.5255 26.2326 16.6225C25.9935 16.7194 25.7375 16.7683 25.4795 16.7664C25.2214 16.7645 24.9663 16.7117 24.7286 16.6112C24.4909 16.5106 24.2754 16.3643 24.0943 16.1804C23.9131 15.9966 23.77 15.7789 23.673 15.5397C23.5761 15.3006 23.5272 15.0447 23.5291 14.7867H23.534Z" fill="#163F90"></path></svg>