<svg width="17" height="16" viewBox="0 0 17 16" fill="none" xmlns="http://www.w3.org/2000/svg">
<path fill-rule="evenodd" clip-rule="evenodd" d="M4.99976 4.5C4.99976 2.567 6.56676 1 8.49976 1C10.4328 1 11.9998 2.567 11.9998 4.5C11.9998 6.433 10.4328 8 8.49976 8C6.56676 8 4.99976 6.433 4.99976 4.5ZM10.8302 8.35032C12.1308 7.56145 12.9998 6.13221 12.9998 4.5C12.9998 2.01472 10.985 0 8.49976 0C6.01447 0 3.99976 2.01472 3.99976 4.5C3.99976 6.13221 4.86874 7.56145 6.16931 8.35032C3.47011 9.1938 1.49976 11.4923 1.49976 14.5C1.49976 14.7761 1.72361 15 1.99976 15C2.2759 15 2.49976 14.7761 2.49976 14.5C2.49976 11.3228 5.13698 9 8.49976 9C11.8625 9 14.4998 11.3228 14.4998 14.5C14.4998 14.7761 14.7236 15 14.9998 15C15.2759 15 15.4998 14.7761 15.4998 14.5C15.4998 11.4923 13.5294 9.1938 10.8302 8.35032Z" fill="#17428D"/>
</svg>
