<svg width="48" height="46" viewBox="0 0 48 46" fill="none" xmlns="http://www.w3.org/2000/svg">
<path d="M26.1894 28.46C26.7918 28.1239 27.2649 27.6258 27.6073 26.9659H30.2157C29.7208 28.2359 28.9271 29.2118 27.8361 29.8981C26.7451 30.5829 25.4938 30.9269 24.0852 30.9269C22.6005 30.9269 21.2791 30.5238 20.1243 29.7176C18.9695 28.9114 18.1633 27.836 17.7057 26.4897H15.9548V25.0049H17.3633C17.3384 24.6501 17.3244 24.3699 17.3244 24.1676C17.3244 23.9653 17.3369 23.6851 17.3633 23.3303H15.9548V21.8455H17.7057C18.1633 20.5008 18.9679 19.4238 20.1243 18.6176C21.2791 17.8114 22.5989 17.4083 24.0852 17.4083C25.4813 17.4083 26.7279 17.7539 27.8267 18.4464C28.924 19.139 29.7208 20.1195 30.2157 21.388H27.6088C27.2664 20.7281 26.7933 20.23 26.191 19.8939C25.5887 19.5577 24.8868 19.3896 24.0868 19.3896C23.1608 19.3896 22.3452 19.6059 21.6402 20.037C20.9352 20.4682 20.3998 21.072 20.0309 21.8455H24.0868V23.3303H19.6123C19.5734 23.5964 19.5547 23.8766 19.5547 24.1676C19.5547 24.4602 19.5734 24.7388 19.6123 25.0049H24.0868V26.4897H20.0309C20.3982 27.2772 20.9352 27.8858 21.6402 28.3169C22.3452 28.748 23.1608 28.9643 24.0868 28.9643C24.8852 28.9643 25.5871 28.7962 26.1894 28.46Z" fill="#F8AE19"/>
<path d="M47.1086 18.4962C46.8954 19.5561 46.2292 20.3094 45.476 21.0347C43.0013 23.4159 40.5625 25.8329 38.0879 28.2141C37.5121 28.7682 37.3113 29.3659 37.4498 30.1518C38.0895 33.7703 38.7011 37.3935 39.3237 41.0167C39.5634 42.4097 39.168 43.5832 38.0257 44.4267C36.888 45.2687 35.6413 45.3325 34.3885 44.6789C31.117 42.9731 27.8471 41.2611 24.5927 39.5242C23.869 39.1382 23.2387 39.1413 22.5166 39.5258C19.2887 41.2486 16.0468 42.9466 12.8018 44.6384C10.945 45.6064 8.89532 44.9621 8.03776 43.1645C7.71715 42.4922 7.6549 41.784 7.78096 41.0556C8.40351 37.434 9.01516 33.8108 9.65949 30.1923C9.80579 29.3705 9.59412 28.7542 8.99181 28.1768C6.37246 25.6586 3.77801 23.114 1.18045 20.574C0.0178499 19.4363 -0.30276 18.0465 0.293325 16.6815C0.816262 15.4831 1.7672 14.8341 3.04185 14.6489C6.71019 14.1151 10.377 13.5828 14.0469 13.063C14.7628 12.9618 15.2375 12.6101 15.5581 11.9549C17.1705 8.65384 18.8078 5.36369 20.4279 2.06733C21.0474 0.808234 22.0092 0.0456186 23.4379 0.00204054C24.9227 -0.0430938 25.9841 0.661936 26.6394 1.9755C27.5825 3.86492 28.5101 5.76368 29.4439 7.65777C30.1489 9.08495 30.8711 10.5043 31.5497 11.944C31.8796 12.6428 32.3979 12.9665 33.1465 13.0723C36.8024 13.5844 40.4551 14.1073 44.1064 14.6552C45.6518 14.887 46.6479 15.7835 47.0261 17.3243C47.0401 17.3803 47.079 17.4301 47.107 17.4831C47.1086 17.8208 47.1086 18.1585 47.1086 18.4962ZM45.2036 18.1398C45.2098 17.1827 44.648 16.6302 43.641 16.4854C40.0645 15.9672 36.4911 15.424 32.9099 14.94C31.4345 14.7408 30.4524 14.0077 29.8097 12.6786C28.2377 9.42579 26.6191 6.19635 25.0239 2.95601C24.7857 2.47354 24.4931 2.05955 23.9297 1.92726C23.1344 1.74049 22.5306 2.06888 22.0995 2.94044C20.4731 6.2337 18.8404 9.5254 17.2281 12.8264C16.6678 13.9719 15.8024 14.6972 14.5402 14.887C12.1637 15.2466 9.78088 15.5781 7.40277 15.9236C5.9787 16.1306 4.54996 16.3189 3.13212 16.5648C2.25122 16.7173 1.7314 17.4908 1.95707 18.3266C2.05357 18.6846 2.31815 19.0363 2.59051 19.304C5.20052 21.8751 7.82454 24.4322 10.4563 26.9815C11.345 27.8437 11.7668 28.8709 11.5723 30.0927C11.2532 32.1035 10.8875 34.1081 10.5451 36.1142C10.24 37.8947 9.92407 39.6736 9.64392 41.4588C9.50074 42.3646 10.0548 43.1272 10.931 43.1847C11.3014 43.2097 11.7201 43.0696 12.0594 42.8937C15.253 41.2362 18.4451 39.5756 21.6123 37.8713C22.9321 37.1616 24.171 37.1523 25.4939 37.8636C28.6891 39.5818 31.9123 41.2486 35.1215 42.942C35.7223 43.2595 36.3183 43.3466 36.8942 42.9264C37.4467 42.5217 37.5821 41.9583 37.4669 41.2938C36.888 37.9601 36.4039 34.6077 35.7191 31.2957C35.3005 29.2662 35.73 27.741 37.288 26.3294C39.7859 24.0664 42.1391 21.6448 44.5577 19.2931C44.9141 18.9414 45.2207 18.5694 45.2036 18.1398Z" fill="#16408F"/>
</svg>
