<svg width="48" height="46" viewBox="0 0 48 46" fill="none" xmlns="http://www.w3.org/2000/svg">
<path d="M20.6911 29.608L18.2566 25.256H17.2132V29.608H15V18.44H19.1418C19.9955 18.44 20.7227 18.5947 21.3234 18.904C21.9241 19.2027 22.372 19.6133 22.6671 20.136C22.9728 20.648 23.1256 21.224 23.1256 21.864C23.1256 22.6 22.9148 23.2667 22.4932 23.864C22.0717 24.4507 21.4446 24.856 20.612 25.08L23.2521 29.608H20.6911ZM17.2132 23.576H19.0628C19.6635 23.576 20.1114 23.432 20.4065 23.144C20.7016 22.8453 20.8492 22.4347 20.8492 21.912C20.8492 21.4 20.7016 21.0053 20.4065 20.728C20.1114 20.44 19.6635 20.296 19.0628 20.296H17.2132V23.576Z" fill="#F8AE19"/>
<path d="M32 26.392C32 26.9467 31.8577 27.4693 31.5732 27.96C31.2992 28.44 30.8881 28.84 30.3401 29.16C29.8026 29.4693 29.165 29.6507 28.4273 29.704V31H27.4155V29.688C26.3616 29.592 25.5132 29.272 24.8703 28.728C24.2275 28.1733 23.8955 27.4267 23.8744 26.488H26.2457C26.3089 27.256 26.6989 27.72 27.4155 27.88V24.824C26.6567 24.632 26.0455 24.44 25.5817 24.248C25.118 24.056 24.7175 23.7467 24.3803 23.32C24.043 22.8933 23.8744 22.312 23.8744 21.576C23.8744 20.648 24.2011 19.8907 24.8545 19.304C25.5185 18.7173 26.3722 18.3813 27.4155 18.296V17H28.4273V18.296C29.439 18.3813 30.2452 18.6907 30.846 19.224C31.4572 19.7573 31.7998 20.4933 31.8735 21.432H29.4864C29.4548 21.1227 29.3442 20.856 29.1545 20.632C28.9753 20.3973 28.7329 20.232 28.4273 20.136V23.16C29.2177 23.3627 29.8395 23.56 30.2927 23.752C30.7564 23.9333 31.1569 24.2373 31.4941 24.664C31.8314 25.08 32 25.656 32 26.392ZM26.1825 21.464C26.1825 21.816 26.2878 22.104 26.4986 22.328C26.7094 22.5413 27.015 22.7173 27.4155 22.856V20.088C27.0361 20.1413 26.7358 20.2853 26.5144 20.52C26.2931 20.7547 26.1825 21.0693 26.1825 21.464ZM28.4273 27.912C28.8278 27.8373 29.1387 27.672 29.36 27.416C29.5918 27.16 29.7078 26.8507 29.7078 26.488C29.7078 26.136 29.5971 25.8533 29.3758 25.64C29.1545 25.4267 28.8383 25.2507 28.4273 25.112V27.912Z" fill="#F8AE19"/>
<path d="M47.1086 18.4962C46.8954 19.5561 46.2292 20.3094 45.476 21.0347C43.0013 23.4159 40.5625 25.8329 38.0879 28.2141C37.5121 28.7682 37.3113 29.3659 37.4498 30.1518C38.0895 33.7703 38.7011 37.3935 39.3237 41.0167C39.5634 42.4097 39.168 43.5832 38.0257 44.4267C36.888 45.2687 35.6413 45.3325 34.3885 44.6789C31.117 42.9731 27.8471 41.2611 24.5927 39.5242C23.869 39.1382 23.2387 39.1413 22.5166 39.5258C19.2887 41.2486 16.0468 42.9466 12.8018 44.6384C10.945 45.6064 8.89532 44.9621 8.03776 43.1645C7.71715 42.4922 7.6549 41.784 7.78096 41.0556C8.40351 37.434 9.01516 33.8108 9.65949 30.1923C9.80579 29.3705 9.59412 28.7542 8.99181 28.1768C6.37246 25.6586 3.77801 23.114 1.18045 20.574C0.0178499 19.4363 -0.30276 18.0465 0.293325 16.6815C0.816262 15.4831 1.7672 14.8341 3.04185 14.6489C6.71019 14.1151 10.377 13.5828 14.0469 13.063C14.7628 12.9618 15.2375 12.6101 15.5581 11.9549C17.1705 8.65384 18.8078 5.36369 20.4279 2.06733C21.0474 0.808234 22.0092 0.0456186 23.4379 0.00204054C24.9227 -0.0430938 25.9841 0.661936 26.6394 1.9755C27.5825 3.86492 28.5101 5.76368 29.4439 7.65777C30.1489 9.08495 30.8711 10.5043 31.5497 11.944C31.8796 12.6428 32.3979 12.9665 33.1465 13.0723C36.8024 13.5844 40.4551 14.1073 44.1064 14.6552C45.6518 14.887 46.6479 15.7835 47.0261 17.3243C47.0401 17.3803 47.079 17.4301 47.107 17.4831C47.1086 17.8208 47.1086 18.1585 47.1086 18.4962ZM45.2036 18.1398C45.2098 17.1827 44.648 16.6302 43.641 16.4854C40.0645 15.9672 36.4911 15.424 32.9099 14.94C31.4345 14.7408 30.4524 14.0077 29.8097 12.6786C28.2377 9.42579 26.6191 6.19635 25.0239 2.95601C24.7857 2.47354 24.4931 2.05955 23.9297 1.92726C23.1344 1.74049 22.5306 2.06888 22.0995 2.94044C20.4731 6.2337 18.8404 9.5254 17.2281 12.8264C16.6678 13.9719 15.8024 14.6972 14.5402 14.887C12.1637 15.2466 9.78088 15.5781 7.40277 15.9236C5.9787 16.1306 4.54996 16.3189 3.13212 16.5648C2.25122 16.7173 1.7314 17.4908 1.95707 18.3266C2.05357 18.6846 2.31815 19.0363 2.59051 19.304C5.20052 21.8751 7.82454 24.4322 10.4563 26.9815C11.345 27.8437 11.7668 28.8709 11.5723 30.0927C11.2532 32.1035 10.8875 34.1081 10.5451 36.1142C10.24 37.8947 9.92407 39.6736 9.64392 41.4588C9.50074 42.3646 10.0548 43.1272 10.931 43.1847C11.3014 43.2097 11.7201 43.0696 12.0594 42.8937C15.253 41.2362 18.4451 39.5756 21.6123 37.8713C22.9321 37.1616 24.171 37.1523 25.4939 37.8636C28.6891 39.5818 31.9123 41.2486 35.1215 42.942C35.7223 43.2595 36.3183 43.3466 36.8942 42.9264C37.4467 42.5217 37.5821 41.9583 37.4669 41.2938C36.888 37.9601 36.4039 34.6077 35.7191 31.2957C35.3005 29.2662 35.73 27.741 37.288 26.3294C39.7859 24.0664 42.1391 21.6448 44.5577 19.2931C44.9141 18.9414 45.2207 18.5694 45.2036 18.1398Z" fill="#16408F"/>
</svg>
