<?xml version="1.0" encoding="UTF-8"?>
<svg width="65" height="64" viewBox="0 0 65 64" fill="none" xmlns="http://www.w3.org/2000/svg">
<path d="M32.7958 2.28863C37.9977 2.28863 43.1997 3.77625 47.8489 6.57165C51.1001 8.54968 53.9937 11.0835 56.3833 14.0587L48.7917 13.8135C48.1577 13.7972 47.6376 14.2876 47.6213 14.9252C47.605 15.5627 48.0927 16.0858 48.7267 16.1022L58.6104 16.4291C59.2444 16.4455 59.7646 15.955 59.7808 15.3175C59.7808 15.2848 59.7808 15.2685 59.7808 15.2358L59.4557 5.29655C59.4394 4.659 58.903 4.16858 58.2853 4.18493C57.6513 4.20128 57.1636 4.74074 57.1798 5.36194L57.3912 11.6884C54.9853 8.89298 52.1567 6.50626 49.0193 4.59361C44.0125 1.60204 38.4041 0 32.7958 0C23.8387 0 15.5644 3.71086 9.53342 10.4623C4.46154 16.1349 1.32412 23.6547 0.999004 30.7985C0.966492 31.4524 1.48668 32.0082 2.13693 32.0082C2.7384 32.0082 3.24234 31.5341 3.27485 30.9292C3.56746 24.2922 6.49354 17.2955 11.224 12.0153C16.8161 5.73793 24.489 2.28863 32.7958 2.28863Z" fill="#F7AD1C"/>
<path d="M54.775 52.001C49.1666 58.2621 41.5101 61.7114 33.2032 61.7114C28.0013 61.7114 22.7994 60.2238 18.1501 57.4284C14.8827 55.4503 12.0054 52.9165 9.61571 49.9412L17.2073 50.1865C17.8413 50.2028 18.3615 49.7124 18.3777 49.0748C18.394 48.4373 17.9063 47.9142 17.2723 47.8978L7.38864 47.5709C7.07977 47.5545 6.77091 47.6853 6.54332 47.8978C6.31574 48.1267 6.20195 48.4209 6.2182 48.7479L6.54332 58.6871C6.55958 59.3246 7.09603 59.8151 7.71376 59.7987C8.34774 59.7824 8.83542 59.2429 8.81917 58.6217L8.60784 52.2953C11.0137 55.0907 13.8423 57.4774 16.9797 59.39C21.9866 62.4143 27.5949 64 33.2032 64C42.1603 64 50.4346 60.2891 56.4656 53.5377C61.5375 47.8651 64.6749 40.3617 64.9838 33.2015C65.0163 32.5476 64.4961 31.9918 63.8458 31.9918C63.2444 31.9918 62.7404 32.4659 62.7079 33.0707C62.4316 39.7241 59.5055 46.7208 54.775 52.001Z" fill="#F7AD1C"/>
<path d="M22.85 16.4848L22.85 47.5152C22.85 47.684 22.9177 47.8456 23.0377 47.9645C23.1576 48.0834 23.3201 48.15 23.4892 48.15L29.2369 48.15C29.406 48.15 29.5684 48.0834 29.6884 47.9645C29.8084 47.8456 29.8761 47.684 29.8761 47.5152C29.8761 46.517 30.2761 45.5595 30.9886 44.8533C31.7011 44.147 32.6678 43.75 33.6761 43.75C34.6844 43.75 35.6511 44.147 36.3636 44.8533C37.0761 45.5595 37.4761 46.517 37.4761 47.5152C37.4761 47.684 37.5438 47.8456 37.6638 47.9645C37.7838 48.0834 37.9462 48.15 38.1153 48.15L43.5108 48.15C43.6799 48.15 43.8424 48.0834 43.9623 47.9645C44.0823 47.8456 44.15 47.684 44.15 47.5152L44.15 16.4848C44.15 16.316 44.0823 16.1544 43.9623 16.0355C43.8424 15.9166 43.6799 15.85 43.5108 15.85L38.1153 15.85C37.9462 15.85 37.7838 15.9166 37.6638 16.0355C37.5438 16.1544 37.4761 16.316 37.4761 16.4848C37.4761 17.483 37.0761 18.4405 36.3636 19.1467C35.6511 19.853 34.6844 20.25 33.6761 20.25C32.6678 20.25 31.7011 19.853 30.9886 19.1467C30.2761 18.4405 29.8761 17.483 29.8761 16.4848C29.8761 16.316 29.8084 16.1544 29.6884 16.0355C29.5684 15.9166 29.406 15.85 29.2369 15.85L23.4892 15.85C23.3201 15.85 23.1576 15.9166 23.0377 16.0355C22.9177 16.1544 22.85 16.316 22.85 16.4848ZM28.6383 46.8803L24.1283 46.8803L24.1283 17.1197L28.6378 17.1197C28.7897 18.3117 29.3669 19.4121 30.2671 20.2204C31.2012 21.0591 32.4162 21.5234 33.6761 21.5234C34.936 21.5234 36.151 21.0591 37.0851 20.2204C37.9853 19.4121 38.5625 18.3117 38.7144 17.1197L42.8717 17.1197L42.8717 46.8803L38.7149 46.8803C38.563 45.6883 37.9858 44.5879 37.0856 43.7796C36.1515 42.9409 34.9365 42.4766 33.6766 42.4766C32.4167 42.4766 31.2016 42.9409 30.2676 43.7796C29.3674 44.5879 28.7902 45.6883 28.6383 46.8803Z" fill="#F7AD1C" stroke="#F7AD1C" stroke-width="0.3"/>
</svg>
