<svg width="24" height="24" viewBox="0 0 24 24" fill="none" xmlns="http://www.w3.org/2000/svg">
<path fill-rule="evenodd" clip-rule="evenodd" d="M14.1091 2.15025C14.3044 1.95495 14.6209 1.95492 14.8162 2.15018L15.5374 2.87137C14.3224 4.43466 14.4332 6.69481 15.8694 8.13105C17.3057 9.5673 19.5654 9.67762 21.1281 8.46215L21.8493 9.18332C22.0446 9.37858 22.0446 9.6952 21.8494 9.8905L9.89094 21.8536C9.69571 22.0489 9.37916 22.0489 9.1839 21.8536L8.48471 21.1544L8.48468 21.1544C8.4843 21.1534 8.48284 21.1493 8.48267 21.1413C8.48229 21.1237 8.48864 21.0988 8.50518 21.0768C9.67469 19.5155 9.55012 17.2922 8.13068 15.8728C6.71124 14.4534 4.48835 14.3292 2.92764 15.4992C2.90558 15.5158 2.88074 15.5221 2.86308 15.5218C2.85514 15.5216 2.85101 15.5201 2.85007 15.5197C2.85003 15.5197 2.85001 15.5197 2.84998 15.5197L2.15076 14.8205C1.9555 14.6252 1.95547 14.3086 2.1507 14.1133L14.1091 2.15025ZM15.8689 2.49578L15.8452 2.51969C15.9593 2.38528 16.1425 2.30902 16.3544 2.36703C16.1794 2.31911 15.9945 2.37009 15.8689 2.49578ZM21.5983 7.55557C21.7116 7.78504 21.6402 8.0064 21.491 8.14303L21.5036 8.13051C21.645 7.98902 21.6993 7.76017 21.5983 7.55557ZM15.5231 1.44294C14.9374 0.857154 13.9877 0.857249 13.402 1.44315L1.44359 13.4062C0.857916 13.9921 0.858008 14.942 1.44379 15.5277L2.14302 16.227C2.54423 16.6282 3.1434 16.5873 3.52735 16.2995C4.69569 15.4236 6.36106 15.5174 7.42371 16.58C8.48636 17.6427 8.58046 19.3084 7.70496 20.4771C7.41725 20.8612 7.37653 21.4605 7.77774 21.8617L8.47693 22.5609C9.06272 23.1467 10.0124 23.1466 10.598 22.5607L22.5565 10.5976C23.1422 10.0117 23.1421 9.06186 22.5563 8.47608L21.5035 7.42333C21.2714 7.19124 20.9545 7.25123 20.7782 7.44156C19.6115 8.58906 17.7358 8.58319 16.5764 7.42381C15.4212 6.26861 15.4108 4.40181 16.5454 3.23386C16.7475 3.05848 16.8045 2.72432 16.5759 2.49571L15.5231 1.44294ZM11.2973 7.07228C11.102 6.87702 10.7855 6.87705 10.5903 7.07235C10.395 7.26765 10.3951 7.58427 10.5903 7.77953L11.2943 8.48347C11.4895 8.67874 11.8061 8.67871 12.0013 8.48341C12.1965 8.2881 12.1965 7.97149 12.0012 7.77623L11.2973 7.07228ZM13.4091 9.18412C13.2139 8.98886 12.8973 8.98889 12.7021 9.18419C12.5069 9.37949 12.5069 9.6961 12.7022 9.89137L14.1101 11.2993C14.3053 11.4945 14.6219 11.4945 14.8171 11.2992C15.0123 11.1039 15.0123 10.7873 14.817 10.592L13.4091 9.18412ZM16.2249 11.9999C16.0297 11.8046 15.7131 11.8047 15.5179 12C15.3227 12.1953 15.3227 12.5119 15.518 12.7071L16.2219 13.4111C16.4172 13.6064 16.7337 13.6063 16.9289 13.411C17.1242 13.2157 17.1241 12.8991 16.9289 12.7038L16.2249 11.9999Z" fill="#F8AE1B"/>
</svg>
