<svg xmlns:xlink="http://www.w3.org/1999/xlink" xmlns="http://www.w3.org/2000/svg" width="38" height="39" viewBox="0 0 38 39" fill="none"><path d="M17.8937 0H20.1208C20.7568 0.0799452 21.3966 0.13758 22.028 0.243554C25.9977 0.906355 29.4569 2.61402 32.3042 5.45765C36.5752 9.72357 38.4545 14.9088 37.9077 20.9122C37.5413 24.942 35.9643 28.5042 33.2676 31.5309C29.6875 35.5505 25.1822 37.7155 19.8055 37.9768C16.0571 38.1627 12.5319 37.2861 9.32288 35.3293C4.39259 32.3211 1.36115 27.9641 0.30107 22.2675C0.168096 21.5555 0.10208 20.8304 0.00537109 20.1109V17.8882C0.0351276 17.6214 0.0667439 17.3537 0.0983602 17.0869C0.554007 12.9967 2.11528 9.3917 4.87241 6.33333C7.7997 3.08626 11.4263 1.05974 15.741 0.290962C16.4486 0.169185 17.173 0.0976075 17.8937 0ZM19.017 2.95147C10.1691 2.93938 2.97637 10.1177 2.95219 18.9833C2.92894 27.8144 10.1124 35.0151 18.9798 35.0513C27.8231 35.0876 35.0669 27.8628 35.0669 19.0009C35.0669 10.1391 27.8807 2.96355 19.017 2.95147Z" fill="#16428B"></path><path d="M20.4846 14.2395C20.4846 15.513 20.4911 16.7875 20.4846 18.0611C20.4764 18.1631 20.4961 18.2655 20.5414 18.3573C20.5868 18.4492 20.6561 18.527 20.7422 18.5826C22.3899 19.8059 24.0275 21.0441 25.6706 22.2721C26.2183 22.6812 26.4843 23.2073 26.3215 23.8831C26.0686 24.9243 24.8858 25.3361 23.9968 24.6882C22.9739 23.9445 21.9761 23.1776 20.9672 22.4209C20.0671 21.746 19.1707 21.0646 18.2631 20.3999C18.0323 20.2428 17.8448 20.0302 17.7177 19.7817C17.5907 19.5331 17.5282 19.2567 17.5359 18.9776C17.5359 16.1201 17.5359 13.2628 17.5359 10.4058C17.5359 9.58687 18.0213 8.97333 18.7401 8.84319C19.0713 8.77883 19.4146 8.83237 19.7105 8.99452C20.0064 9.15667 20.2361 9.4172 20.36 9.73095C20.4452 9.97532 20.4873 10.2326 20.4846 10.4914C20.492 11.7407 20.4846 12.9901 20.4846 14.2395Z" fill="#16428B"></path></svg>