<svg width="64" height="64" viewBox="0 0 64 64" fill="none" xmlns="http://www.w3.org/2000/svg">
<path fill-rule="evenodd" clip-rule="evenodd" d="M27 3C24.7909 3 23 4.79086 23 7V11H13H11.9355H9C8.44772 11 8 11.4477 8 12C8 12.5523 8.44772 13 9 13H12.0605L14.6503 54.4366C14.8809 58.1259 17.9403 61 21.6367 61H42.3633C46.0597 61 49.1191 58.1259 49.3497 54.4366L51.9394 13H55C55.5523 13 56 12.5523 56 12C56 11.4477 55.5523 11 55 11H52.0645H51H41V7C41 4.79086 39.2092 3 37 3H27ZM39 11H25V7C25 5.89543 25.8954 5 27 5H37C38.1046 5 39 5.89543 39 7V11ZM16.6464 54.3119L14.0645 13H23H24H40H41H49.9356L47.3536 54.3119C47.1889 56.9471 45.0036 59 42.3633 59H21.6367C18.9964 59 16.8111 56.9471 16.6464 54.3119ZM23.4989 19.9532C23.473 19.4015 23.0049 18.9752 22.4532 19.0011C21.9015 19.027 21.4752 19.4951 21.5011 20.0468L23.0011 52.0468C23.027 52.5985 23.4951 53.0248 24.0468 52.9989C24.5985 52.973 25.0248 52.5049 24.9989 51.9532L23.4989 19.9532ZM41.5468 19.0011C42.0985 19.027 42.5248 19.4951 42.4989 20.0468L40.9989 52.0468C40.973 52.5985 40.5049 53.0248 39.9532 52.9989C39.4015 52.973 38.9752 52.5049 39.0011 51.9532L40.5011 19.9532C40.527 19.4015 40.9951 18.9752 41.5468 19.0011ZM33 20C33 19.4477 32.5523 19 32 19C31.4477 19 31 19.4477 31 20V52C31 52.5523 31.4477 53 32 53C32.5523 53 33 52.5523 33 52V20Z" fill="#FF4D1A"/>
</svg>
