<svg width="18" height="22" viewBox="0 0 18 22" fill="none" xmlns="http://www.w3.org/2000/svg">
<path fill-rule="evenodd" clip-rule="evenodd" d="M8 0C6.61929 0 5.5 1.11929 5.5 2.5V3H2H1.47145H0.5C0.223858 3 0 3.22386 0 3.5C0 3.77614 0.223858 4 0.5 4H1.52701L2.39582 19.6387C2.46942 20.9635 3.56514 22 4.89197 22H13.108C14.4349 22 15.5306 20.9635 15.6042 19.6387L16.473 4H17.5C17.7761 4 18 3.77614 18 3.5C18 3.22386 17.7761 3 17.5 3H16.5285H16H12.5V2.5C12.5 1.11929 11.3807 0 10 0H8ZM11.5 3H6.5V2.5C6.5 1.67157 7.17157 1 8 1H10C10.8284 1 11.5 1.67157 11.5 2.5V3ZM3.39428 19.5832L2.52855 4H5.5H6H12H12.5H15.4715L14.6057 19.5832C14.5616 20.3781 13.9041 21 13.108 21H4.89197C4.09587 21 3.43844 20.3781 3.39428 19.5832ZM5.99957 6.47918C5.98807 6.20328 5.75509 5.98894 5.47918 6.00043C5.20328 6.01193 4.98894 6.24491 5.00043 6.52082L5.50043 18.5208C5.51193 18.7967 5.74491 19.0111 6.02082 18.9996C6.29672 18.9881 6.51106 18.7551 6.49957 18.4792L5.99957 6.47918ZM12.5208 6.00043C12.7967 6.01193 13.0111 6.24491 12.9996 6.52082L12.4996 18.5208C12.4881 18.7967 12.2551 19.0111 11.9792 18.9996C11.7033 18.9881 11.4889 18.7551 11.5004 18.4792L12.0004 6.47918C12.0119 6.20328 12.2449 5.98894 12.5208 6.00043ZM9.5 6.5C9.5 6.22386 9.27614 6 9 6C8.72386 6 8.5 6.22386 8.5 6.5V18.5C8.5 18.7761 8.72386 19 9 19C9.27614 19 9.5 18.7761 9.5 18.5V6.5Z" fill="#F8AE1B"/>
</svg>
