<svg width="11" height="16" viewBox="0 0 11 16" fill="none" xmlns="http://www.w3.org/2000/svg">
<path d="M6.54371 13.2813L6.54753 12.6606L6.72017 12.6675C6.85759 12.6767 6.99424 12.6859 7.13051 12.6989C8.12192 12.7937 9.10911 12.918 10.0366 13.3101C10.264 13.406 10.4852 13.5384 10.6755 13.6953C11.1237 14.0633 11.1023 14.5927 10.6494 14.9614C10.2265 15.3056 9.72424 15.4751 9.20825 15.6006C7.63617 15.9827 6.03805 16.0533 4.4296 15.9685C3.54193 15.9217 2.66 15.827 1.79721 15.6029C1.28275 15.4686 0.777865 15.3083 0.355274 14.9637C-0.107126 14.5866 -0.120141 14.0705 0.331542 13.6827C0.721979 13.3473 1.19778 13.1912 1.68314 13.0604C2.47589 12.8463 3.28394 12.7388 4.09926 12.6821C4.18998 12.6759 4.2807 12.6702 4.3718 12.6648C4.39898 12.6633 4.42654 12.6617 4.45372 12.6602L4.45448 13.2794L4.36223 13.2856C4.26501 13.2925 4.17582 13.2986 4.08625 13.3055C3.2537 13.3692 2.42612 13.4709 1.62955 13.7302C1.32256 13.8304 1.02859 13.9831 0.746477 14.1434C0.569249 14.2443 0.569249 14.3863 0.742649 14.4937C0.968108 14.6334 1.20926 14.7581 1.45845 14.8463C2.39895 15.1786 3.38308 15.2895 4.36989 15.3466C5.48991 15.4115 6.61376 15.4069 7.72459 15.238C8.36269 15.141 8.99275 14.981 9.61783 14.8152C9.85247 14.7531 10.0714 14.6104 10.2793 14.4761C10.4221 14.3836 10.4155 14.252 10.2728 14.1565C10.0963 14.0383 9.90951 13.9271 9.71314 13.8484C9.05667 13.5856 8.36422 13.4651 7.66641 13.3807C7.34525 13.3416 7.02218 13.3159 6.68993 13.2871L6.54371 13.2813ZM6.42505 13.2641C6.42505 13.4644 6.42887 13.6424 6.42428 13.82C6.41127 14.3429 6.05107 14.742 5.56608 14.7746C5.06464 14.8083 4.65468 14.4646 4.59075 13.9336C4.56549 13.7226 4.57008 13.5046 4.57008 13.2687C4.57008 13.2687 4.57353 12.524 4.57353 12.4611C4.57391 10.194 4.572 10.3056 4.57851 8.03818C4.57889 7.88356 4.51956 7.83982 4.38903 7.798C2.81159 7.29463 1.85654 6.21346 1.5752 4.59132C1.19471 2.39714 2.77024 0.32765 4.99076 0.0341462C5.01756 0.0306932 5.04282 0.0118936 5.06847 0C5.35479 0 5.64149 0 5.92781 0C6.22562 0.0744311 6.53031 0.129295 6.82046 0.226746C8.4913 0.7892 9.62855 2.54102 9.46701 4.28785C9.31045 5.98173 8.20881 7.32916 6.58007 7.81105C6.47404 7.84251 6.42198 7.87397 6.42237 7.99866C6.42619 10.2957 6.42505 10.2139 6.42581 12.5113L6.42505 13.2641ZM2.15358 3.84088C2.06095 5.54665 3.36738 7.27545 5.4145 7.34221C7.17683 7.39937 8.7137 6.05501 8.84576 4.21073C8.97246 2.4428 7.66181 0.730499 5.65795 0.623073C3.83974 0.525238 2.22019 1.94557 2.15358 3.84088ZM5.21354 7.97372C5.20933 8.01209 5.2055 8.02973 5.2055 8.04777C5.20512 10.7626 5.20435 11.0991 5.2055 13.8139C5.2055 14.0211 5.31995 14.148 5.49412 14.1523C5.66905 14.1565 5.78465 14.0318 5.79613 13.8262C5.79805 13.7905 5.79728 13.7544 5.79728 13.7187C5.79728 11.0757 5.79728 10.8109 5.7969 8.16785C5.7969 8.10455 5.79154 8.04124 5.7881 7.9741C5.58905 7.97372 5.40685 7.97372 5.21354 7.97372Z" fill="#F8AE1B"/>
</svg>
