<svg width="56" height="44" viewBox="0 0 56 44" fill="none" xmlns="http://www.w3.org/2000/svg">
<g clip-path="url(#clip0)">
<path d="M45.2592 8.25247C39.4806 6.66911 33.6679 4.20366 28.4497 1.12274C28.1725 0.959087 27.8285 0.959087 27.5514 1.12274C22.1827 4.29217 16.6841 6.62424 10.7414 8.25247C10.3575 8.35755 10.0914 8.70651 10.0914 9.10461V18.1318C10.0914 27.4278 14.3799 33.5811 17.9776 37.1061C21.8508 40.9013 26.3625 43 28.0006 43C29.6385 43 34.1502 40.9013 38.0234 37.1061C41.621 33.5812 45.9093 27.4279 45.9093 18.1318V9.10453C45.9093 8.70651 45.6431 8.35755 45.2592 8.25247ZM44.1423 18.1317C44.1423 26.8141 40.1424 32.5559 36.7867 35.8439C32.9779 39.5759 28.9056 41.2329 28.0006 41.2329C27.0955 41.2329 23.023 39.5759 19.2141 35.8439C15.8585 32.5558 11.8584 26.8141 11.8584 18.1317V9.77521C17.5414 8.16166 22.8338 5.90983 28.0007 2.90724C33.0386 5.83017 38.5951 8.19398 44.1423 9.77489V18.1317Z" fill="#17428D"/>
<path d="M20.1691 9.67639C19.9903 9.22234 19.4774 8.9993 19.0232 9.17821C17.445 9.80009 15.825 10.3725 14.2084 10.8796C13.84 10.9953 13.5893 11.3365 13.5893 11.7226V15.1343C13.5893 15.6222 13.985 16.0178 14.4728 16.0178C14.9606 16.0178 15.3563 15.6222 15.3563 15.1343V12.3682C16.8065 11.899 18.2552 11.38 19.671 10.8221C20.125 10.6434 20.348 10.1304 20.1691 9.67639Z" fill="#F8AE1B"/>
<path d="M21.8477 9.84393C21.9663 9.84393 22.0866 9.82006 22.202 9.76969L22.2183 9.76263C22.6653 9.56674 22.8666 9.04642 22.6707 8.5996C22.4746 8.15261 21.9513 7.95041 21.5049 8.14613L21.4906 8.15228C21.0433 8.3476 20.8414 8.86751 21.0367 9.31458C21.1817 9.64648 21.5069 9.84393 21.8477 9.84393Z" fill="#F8AE1B"/>
<path d="M38.527 29.488C38.1187 29.2212 37.5712 29.3359 37.3041 29.7444C36.576 30.8587 35.7219 31.9257 34.7651 32.9156C33.9783 33.7295 33.1256 34.4881 32.2309 35.1702C31.843 35.466 31.7684 36.0204 32.0641 36.4085C32.2381 36.6364 32.5011 36.7564 32.7673 36.7564C32.9541 36.7564 33.1424 36.6974 33.3023 36.5753C34.2674 35.8394 35.187 35.0213 36.0354 34.1438C37.0699 33.0738 37.9944 31.9188 38.7833 30.7108C39.0503 30.3023 38.9354 29.7549 38.527 29.488Z" fill="#F8AE1B"/>
<path d="M30.1787 36.5558L30.128 36.5857C29.7058 36.8302 29.5615 37.3706 29.8059 37.7928C29.9698 38.0758 30.2663 38.2338 30.5714 38.2338C30.7215 38.2338 30.8739 38.1955 31.0131 38.1147L31.0716 38.0804C31.4926 37.8338 31.6341 37.2926 31.3875 36.8715C31.1407 36.4506 30.5995 36.3095 30.1787 36.5558Z" fill="#F8AE1B"/>
<path d="M21.9779 20.1969C21.4355 19.6543 20.714 19.3557 19.9467 19.3557C19.1794 19.3557 18.4578 19.6544 17.9151 20.1969C16.7951 21.3171 16.7951 23.1398 17.9151 24.2599L23.132 29.4766C23.6745 30.019 24.396 30.3177 25.1634 30.3177C25.9308 30.3177 26.6522 30.019 27.1949 29.4765L38.0854 18.5858C39.2053 17.4654 39.2053 15.6429 38.0853 14.5231C37.5427 13.9805 36.8212 13.6819 36.0537 13.6819C35.2863 13.6819 34.5649 13.9806 34.0222 14.5231L25.1633 23.382L21.9779 20.1969ZM35.2717 15.7726C35.4805 15.5638 35.7584 15.4489 36.0538 15.4489C36.3495 15.4489 36.6271 15.5638 36.836 15.7726C37.2671 16.2037 37.2671 16.9054 36.8358 17.3366L25.9455 28.2271C25.7367 28.4358 25.4589 28.5507 25.1634 28.5507C24.8679 28.5507 24.5901 28.4358 24.3812 28.2271L19.1645 23.0105C18.7333 22.5793 18.7333 21.8776 19.1644 21.4465C19.3732 21.2378 19.6511 21.1227 19.9466 21.1227C20.2422 21.1227 20.5198 21.2376 20.7286 21.4464L24.5386 25.2564C24.7043 25.422 24.9289 25.5151 25.1633 25.5151C25.3977 25.5151 25.6223 25.4221 25.7879 25.2564L35.2717 15.7726Z" fill="#17428D"/>
</g>
<defs>
<clipPath id="clip0">
<rect width="42" height="42" fill="white" transform="translate(7 1)"/>
</clipPath>
</defs>
</svg>
