<svg width="56" height="44" viewBox="0 0 56 44" fill="none" xmlns="http://www.w3.org/2000/svg">
<g>
<path d="M54.0095 11.9097C53.357 11.1985 52.6108 10.5341 51.9029 9.9209C45.6917 4.55931 38.3633 1.56977 30.1223 1.03744C25.8088 0.758504 21.5188 1.24611 17.3695 2.4875C12.088 4.06744 7.32467 6.75889 3.20736 10.4894L2.96003 10.713C2.06876 11.5158 1.2244 12.2738 0.802226 13.3427C0.667896 13.6834 0.559153 14.0305 0.441882 14.3988C0.397105 14.5415 0.352329 14.6842 0.30542 14.8268V16.4174C0.309684 16.4281 0.311817 16.4366 0.316081 16.4472C0.348064 16.5388 0.384312 16.6431 0.407766 16.7602C0.966406 19.5624 3.64873 21.4979 6.5123 21.1679C7.81508 21.0188 8.96434 20.4269 10.1328 19.3048C14.4804 15.1292 19.7064 12.7529 25.6617 12.244C26.4378 12.178 27.2076 12.1439 27.973 12.1439C32.3441 12.1439 36.5104 13.2298 40.3868 15.3804C42.6405 16.6325 44.5787 18.3231 46.2184 19.8094C48.3932 21.7833 51.7451 21.6789 53.8475 19.5709C55.9498 17.4672 56.0202 14.1007 54.0095 11.9097ZM52.2632 17.8653C51.679 18.4999 50.8879 18.864 50.0372 18.8959C49.9988 18.8981 49.9626 18.8981 49.9242 18.8981C49.082 18.8981 48.2696 18.5659 47.6214 17.9569C45.4657 15.9277 43.5019 14.4521 41.438 13.3086C38.1309 11.4796 34.5914 10.3617 30.9176 9.98691C23.8301 9.26295 17.3354 10.9685 11.6126 15.0547C10.7064 15.6998 9.84708 16.4685 9.01551 17.2095C8.76391 17.4331 8.51444 17.6567 8.26071 17.8781C6.93661 19.0386 5.31826 19.2089 4.03893 18.3231C3.21376 17.7525 2.69563 16.8624 2.62314 15.8851C2.55064 14.9269 2.91951 13.9921 3.63381 13.3193C5.22231 11.8202 6.49524 10.7364 7.75751 9.80166C11.845 6.78018 16.4548 4.79567 21.457 3.90349C22.9986 3.62881 24.5274 3.48401 25.7577 3.3669C26.2033 3.32432 26.5999 3.28599 26.9261 3.24979L26.9602 3.24553H26.9943C37.1522 3.43078 45.3442 6.68649 52.0372 13.2022C53.421 14.5458 53.5148 16.5068 52.2632 17.8653Z" fill="#17428D"/>
<path d="M20.0817 30.4681C20.2651 30.2999 20.4527 30.1274 20.6531 29.9656C23.4954 27.6468 26.7577 26.8547 30.3526 27.6084C32.3825 28.0343 34.2204 29.0542 35.9731 30.7279C37.0051 31.7137 38.2695 32.1971 39.9454 32.2439C40.0115 32.2354 40.0883 32.2269 40.1736 32.2163C40.4358 32.1864 40.7621 32.1502 41.0712 32.0693C43.1949 31.5157 44.5617 30.1998 45.1331 28.1578C45.7322 26.0157 45.2141 24.1483 43.5936 22.6067C39.1266 18.3587 33.9176 16.2167 28.0711 16.2167C26.9005 16.2167 25.7065 16.3018 24.4869 16.4743C19.7619 17.1386 15.5763 19.2403 12.0433 22.7196C11.0177 23.7288 10.474 24.9425 10.4249 26.3266C10.3418 28.7008 11.3247 30.4574 13.3482 31.5455C15.3716 32.6336 17.3759 32.4909 19.3077 31.1197C19.5742 30.9323 19.8194 30.7066 20.0817 30.4681ZM18.5657 28.7135C18.4271 28.8392 18.2906 28.9648 18.1478 29.0862C16.7853 30.2403 14.7448 30.1381 13.5955 28.8583C12.4015 27.5297 12.4846 25.5132 13.7831 24.2676C17.0071 21.1801 20.764 19.3212 24.9538 18.7463C25.6511 18.6504 26.3568 18.5887 26.8728 18.544C27.0626 18.5269 27.2289 18.512 27.3654 18.4993L27.3931 18.4971H27.4208C33.2375 18.5653 38.003 20.4561 41.9859 24.2739C43.2845 25.5196 43.3634 27.536 42.1651 28.8647C41.5958 29.4971 40.8068 29.8655 39.9454 29.9038C39.8942 29.906 39.8452 29.9081 39.794 29.9081C38.9667 29.9081 38.1799 29.5972 37.5616 29.0266C35.7258 27.3274 34.0264 26.2776 32.2161 25.7197C27.344 24.2186 22.8984 25.0959 19.0049 28.326C18.8578 28.4474 18.715 28.5773 18.5657 28.7135Z" fill="#F8AE1B"/>
<path d="M27.9069 31.0686C27.9048 31.0686 27.9005 31.0686 27.8984 31.0686C24.4186 31.0686 21.6894 33.7834 21.683 37.2499C21.6787 38.9129 22.3227 40.4737 23.4933 41.6448C24.6638 42.8159 26.2225 43.459 27.8835 43.459C29.5445 43.459 31.1031 42.8138 32.2716 41.6427C33.4422 40.4694 34.0861 38.9087 34.0797 37.2457C34.0712 33.8452 31.3014 31.0728 27.9069 31.0686ZM30.6724 39.9478C29.9368 40.7015 28.9304 41.138 27.9091 41.1466C27.8984 41.1466 27.8877 41.1466 27.8771 41.1466C25.7939 41.1466 24.0135 39.3878 23.9815 37.2904C23.9495 35.2037 25.7214 33.4108 27.8494 33.3746C29.9411 33.3448 31.7428 35.1036 31.779 37.2286C31.7982 38.2315 31.4059 39.1982 30.6724 39.9478Z" fill="#17428D"/>
</g>
<defs>
<clipPath id="clip0">
<rect width="55.1668" height="42.5009" fill="white" transform="translate(0.30542 0.960178)"/>
</clipPath>
</defs>
</svg>
