<?xml version="1.0" encoding="UTF-8"?>
<svg width="26px" height="20px" viewBox="0 0 26 20" version="1.1" xmlns="http://www.w3.org/2000/svg" xmlns:xlink="http://www.w3.org/1999/xlink">
    <title>0409AD26-9B29-431F-9846-32BA254ED7AC</title>
    <defs>
        <polygon id="path-1" points="0.347316667 0.521124246 25.3239278 0.521124246 25.3239278 20 0.347316667 20"></polygon>
    </defs>
    <g id="Main" stroke="none" stroke-width="1" fill="none" fill-rule="evenodd">
        <g id="icons-for-book-a-trip" transform="translate(-38.000000, -269.000000)">
            <g id="Group-85" transform="translate(38.000000, 269.000000)">
                <g id="Group-1149">
                    <mask id="mask-2" fill="white">
                        <use xlink:href="#path-1"></use>
                    </mask>
                    <g id="Clip-1148"></g>
                    <path d="M25.3239278,18.5620714 C16.9988722,13.5806429 8.67309444,23.5435 0.347316667,18.5620714 L0.347316667,1.95921429 C8.67309444,6.93992857 16.9988722,-3.02221429 25.3239278,1.95921429 L25.3239278,18.5620714 Z" id="Fill-1147" fill="#CBCBCA" mask="url(#mask-2)"></path>
                </g>
                <path d="M25.1201167,18.2419286 C16.9315611,13.5812143 8.74228333,23.1397857 0.553727778,18.4812143 L0.553727778,2.28264286 C8.74228333,6.94192857 16.9315611,-2.61735714 25.1201167,2.04335714 L25.1201167,18.2419286 Z" id="Fill-1150" fill="#2E307E"></path>
                <path d="M25.1201167,2.04492857 C24.13645,1.48492857 23.1513389,1.13064286 22.1676722,0.931357143 C19.0570611,2.35421429 15.9471722,5.33492857 12.8372833,8.31564286 C9.72667222,7.19564286 6.61606111,6.07564286 3.50617222,3.39778571 C2.52178333,3.1985 1.53811667,2.84421429 0.553727778,2.28421429 L0.553727778,4.23064286 C3.66433889,8.05064286 6.77422778,9.81992857 9.88483889,11.0963571 C6.77422778,13.9213571 3.66433889,16.2542143 0.553727778,16.5349286 L0.553727778,18.4813571 C1.53811667,19.0413571 2.52178333,19.3956429 3.50617222,19.5942143 C6.61606111,18.1706429 9.72667222,15.1892143 12.8372833,12.2085 C15.9471722,13.3292143 19.0570611,14.4492143 22.1676722,17.1285 C23.1513389,17.3277857 24.13645,17.6820714 25.1201167,18.2420714 L25.1201167,16.2956429 C22.0095056,12.4749286 18.8996167,10.7049286 15.7890056,9.4285 C18.8996167,6.6035 22.0095056,4.27135714 25.1201167,3.99135714 L25.1201167,2.04492857 Z" id="Fill-1152" fill="#FEFEFE"></path>
                <path d="M0.553655556,2.28421429 L0.553655556,3.25635714 C4.64793333,8.28564286 8.74221111,9.76135714 12.8372111,11.2356429 L12.8372111,10.2620714 C8.74221111,8.78707143 4.64793333,7.3135 0.553655556,2.28421429" id="Fill-1154" fill="#D02533"></path>
                <path d="M25.1201167,17.2695714 C21.0258389,12.2395714 16.9315611,10.7638571 12.8372833,9.28814286 L12.8372833,10.2617143 C16.9315611,11.7374286 21.0258389,13.2117143 25.1201167,18.2417143 L25.1201167,17.2695714 Z" id="Fill-1156" fill="#D02533"></path>
                <path d="M0.553655556,18.4811429 C1.04548889,18.7611429 1.53732222,18.9897143 2.02915556,19.1732857 C5.6316,18.1411429 9.23476667,14.6882857 12.8372111,11.2354286 L12.8372111,10.2618571 C8.74221111,14.1861429 4.64793333,18.1111429 0.553655556,18.4811429" id="Fill-1158" fill="#D02533"></path>
                <path d="M23.6446167,1.35292857 C20.0421722,2.38364286 16.4390056,5.8365 12.8372833,9.28935714 L12.8372833,10.2636429 C16.9308389,6.33864286 21.0251167,2.41435714 25.1186722,2.04435714 C24.6268389,1.76435714 24.13645,1.5365 23.6446167,1.35292857" id="Fill-1160" fill="#D02533"></path>
                <path d="M25.1201167,8.726 C21.36745,6.59028571 17.6133389,7.44028571 13.8606722,8.54028571 L13.8606722,1.85957143 C13.1781722,2.05957143 12.4956722,2.26814286 11.8131722,2.46814286 L11.8131722,9.14957143 C8.05978333,10.2495714 4.30711667,11.1002857 0.553727778,8.96528571 L0.553727778,11.8002857 C4.30711667,13.9352857 8.05978333,13.0845714 11.8131722,11.9845714 L11.8131722,18.6652857 C12.4956722,18.4652857 13.1781722,18.2567143 13.8606722,18.0567143 L13.8606722,11.3752857 C17.6133389,10.2752857 21.36745,9.42528571 25.1201167,11.561 L25.1201167,8.726 Z" id="Fill-1162" fill="#D02633"></path>
                <path d="M10.9933778,2.70342857 L10.9933778,8.57414286 C7.51371111,9.547 4.03332222,10.1348571 0.553655556,8.15485714 L0.553655556,8.96557143 C4.30704444,11.1005714 8.05971111,10.2491429 11.8131,9.14914286 L11.8131,2.46842857 C11.5393778,2.54842857 11.2663778,2.627 10.9933778,2.70342857" id="Fill-1164" fill="#FEFEFE"></path>
                <path d="M0.553655556,12.6092143 C4.03332222,14.5892143 7.51371111,14.0013571 10.9933778,13.0285 L10.9933778,18.9006429 C11.2663778,18.8235 11.5393778,18.7456429 11.8131,18.6656429 L11.8131,11.9842143 C8.05971111,13.0842143 4.30704444,13.9349286 0.553655556,11.7999286 L0.553655556,12.6092143 Z" id="Fill-1166" fill="#FEFEFE"></path>
                <path d="M25.1201167,11.5608571 C21.36745,9.42514286 17.6133389,10.2751429 13.8606722,11.3751429 L13.8606722,18.0565714 C14.1336722,17.9765714 14.4073944,17.898 14.6803944,17.8215714 L14.6803944,11.9494286 C18.1600611,10.9772857 21.64045,10.3894286 25.1201167,12.3701429 L25.1201167,11.5608571 Z" id="Fill-1168" fill="#FEFEFE"></path>
                <path d="M25.1201167,7.91542857 C21.64045,5.93542857 18.1600611,6.52257143 14.6803944,7.49471429 L14.6803944,1.624 C14.4073944,1.70114286 14.1336722,1.77971429 13.8606722,1.859 L13.8606722,8.54042857 C17.6133389,7.44042857 21.36745,6.59042857 25.1201167,8.72614286 L25.1201167,7.91542857 Z" id="Fill-1170" fill="#FEFEFE"></path>
            </g>
        </g>
    </g>
</svg>