<?xml version="1.0" encoding="UTF-8"?>
<svg width="25px" height="20px" viewBox="0 0 25 20" version="1.1" xmlns="http://www.w3.org/2000/svg" xmlns:xlink="http://www.w3.org/1999/xlink">
    <title>080FFC11-E3F5-4A5D-A4DC-0D2758E254F1</title>
    <g id="Main" stroke="none" stroke-width="1" fill="none" fill-rule="evenodd">
        <g id="icons-for-book-a-trip" transform="translate(-177.000000, -269.000000)">
            <g id="Group-97" transform="translate(177.000000, 269.000000)">
                <path d="M24.7021429,18.0407857 C16.4685714,13.0600714 8.23357143,23.0215 0,18.0407857 L0,1.43792857 C8.23357143,6.41864286 16.4685714,-3.54278571 24.7021429,1.43792857 L24.7021429,18.0407857 Z" id="Fill-1" fill="#CBCBCA"></path>
                <path d="M24.5082857,17.7252143 L24.5082857,1.52735714 C16.409,-3.14264286 8.31042857,6.41592857 0.211142857,1.76664286 L0.211142857,17.9637857 C8.31042857,22.6137857 16.409,13.0545 24.5082857,17.7252143" id="Fill-3" fill="#00A94F"></path>
                <path d="M22.4575,8.68292857 C19.1017857,5.5165 15.7460714,4.38078571 12.3903571,3.25292857 C12.3725,3.24721429 12.3482143,3.25435714 12.3289286,3.2715 C8.97392857,6.42935714 5.61821429,9.58221429 2.26321429,10.7086429 C2.24607143,10.7136429 2.23535714,10.7286429 2.23535714,10.7486429 C2.23535714,10.7679286 2.24607143,10.7893571 2.26321429,10.8050714 C5.61821429,13.9643571 8.97392857,15.0965 12.3289286,16.2243571 C12.3382143,16.2272143 12.3489286,16.2272143 12.3596429,16.2236429 C12.3703571,16.2200714 12.3810714,16.2143571 12.3903571,16.2057857 C15.7460714,13.0479286 19.1017857,9.89864286 22.4575,8.77935714 C22.4732143,8.77364286 22.4832143,8.75792857 22.4832143,8.73935714 C22.4832143,8.71935714 22.4732143,8.69792857 22.4575,8.68292857" id="Fill-5" fill="#FADD2E"></path>
                <path d="M10.0460714,9.25664286 C9.4975,9.40521429 8.96107143,9.58592857 8.43964286,9.78807143 C8.35535714,10.1309286 8.31035714,10.4809286 8.31035714,10.8323571 C8.31035714,13.0845 10.1232143,14.4952143 12.3596429,13.7873571 C14.1746429,13.2223571 15.7117857,11.6366429 16.2253571,9.89378571 C14.5867857,8.75164286 12.4210714,8.5945 10.0460714,9.25664286" id="Fill-7" fill="#253370"></path>
                <path d="M10.0460714,9.25664286 C12.4167857,8.59521429 14.5796429,8.75092857 16.2167857,9.88807143 C16.2810714,9.66807143 16.3353571,9.44592857 16.3660714,9.22021429 C14.6575,8.11735714 12.4525,8.00735714 10.0460714,8.67807143 C9.57535714,8.80592857 9.11107143,8.95664286 8.65821429,9.12092857 C8.57035714,9.33878571 8.5025,9.56092857 8.44678571,9.78592857 C8.96607143,9.5845 9.50035714,9.4045 10.0460714,9.25664286" id="Fill-9" fill="#FEFEFE"></path>
                <path d="M10.0460714,8.67835714 C12.4539286,8.00764286 14.6596429,8.11764286 16.3689286,9.22192857 C16.3953571,9.0305 16.4096429,8.83835714 16.4096429,8.64621429 C16.4096429,6.39478571 14.5960714,4.98192857 12.3596429,5.68907143 C10.7067857,6.2005 9.28535714,7.57192857 8.65678571,9.12121429 C9.11035714,8.95692857 9.57464286,8.80621429 10.0460714,8.67835714" id="Fill-11" fill="#253370"></path>
                <path d="M10.2762143,9.0195 C10.2776429,8.9895 10.2783571,8.96021429 10.2797857,8.93021429 C10.3526429,8.91307143 10.4262143,8.89521429 10.4990714,8.87664286 C10.4997857,8.85092857 10.5012143,8.8245 10.5019286,8.79807143 C10.4290714,8.81664286 10.3555,8.83521429 10.2826429,8.85307143 L10.2847857,8.78592857 C10.3726429,8.76521429 10.4605,8.74307143 10.5483571,8.72164286 C10.5490714,8.69378571 10.5505,8.66592857 10.5512143,8.63807143 C10.4376429,8.66592857 10.3240714,8.69378571 10.2105,8.72092857 C10.2055,8.8545 10.2019286,8.98807143 10.1969286,9.12164286 C10.3162143,9.09307143 10.4347857,9.06378571 10.5540714,9.0345 C10.5547857,9.00592857 10.5562143,8.97807143 10.5569286,8.95021429 C10.4633571,8.97378571 10.3697857,8.99664286 10.2762143,9.0195" id="Fill-13" fill="#04A94D"></path>
                <path d="M10.8796429,8.82171429 C10.8632143,8.74242857 10.8467857,8.66314286 10.8303571,8.58385714 C10.8296429,8.58314286 10.8296429,8.58242857 10.8289286,8.581 C10.7939286,8.58814286 10.7582143,8.59528571 10.7232143,8.60171429 C10.7125,8.73457143 10.7003571,8.86814286 10.6889286,9.001 C10.6889286,9.00314286 10.6882143,9.00528571 10.6882143,9.00742857 C10.7146429,9.00171429 10.7403571,8.99671429 10.7660714,8.991 C10.7725,8.91242857 10.7789286,8.83385714 10.7853571,8.75528571 C10.8017857,8.82957143 10.8167857,8.90385714 10.8332143,8.97814286 C10.8560714,8.97314286 10.8782143,8.96885714 10.9010714,8.96385714 L10.9889286,8.71385714 C10.9832143,8.791 10.9760714,8.86742857 10.9696429,8.94457143 C10.9696429,8.94671429 10.9689286,8.94885714 10.9689286,8.951 C10.9939286,8.94528571 11.0196429,8.941 11.0446429,8.93528571 C11.0560714,8.80242857 11.0682143,8.66885714 11.0789286,8.53528571 C11.0789286,8.53385714 11.0796429,8.53171429 11.0796429,8.52957143 C11.0446429,8.53742857 11.0096429,8.54385714 10.9746429,8.55171429 C10.9432143,8.64171429 10.9110714,8.73171429 10.8796429,8.82171429" id="Fill-15" fill="#04A94D"></path>
                <path d="M11.5925,8.67628571 C11.6525,8.66842857 11.7117857,8.66128571 11.7717857,8.65342857 C11.7760714,8.627 11.7803571,8.60057143 11.7846429,8.57342857 C11.7253571,8.58128571 11.6653571,8.58842857 11.6060714,8.59628571 L11.6139286,8.54485714 C11.6853571,8.53628571 11.7560714,8.527 11.8267857,8.51771429 C11.8310714,8.49128571 11.8360714,8.46485714 11.8403571,8.43842857 C11.7453571,8.45057143 11.6510714,8.46271429 11.5560714,8.47414286 C11.5546429,8.47485714 11.5525,8.47485714 11.5510714,8.47485714 C11.5310714,8.59628571 11.5117857,8.71842857 11.4910714,8.83985714 C11.4910714,8.84128571 11.4903571,8.84342857 11.4903571,8.84557143 C11.5875,8.83342857 11.6839286,8.82128571 11.7810714,8.80914286 C11.7832143,8.80914286 11.7846429,8.80842857 11.7860714,8.80842857 C11.7903571,8.78128571 11.7953571,8.75485714 11.7996429,8.72771429 C11.7260714,8.73771429 11.6525,8.747 11.5789286,8.75628571 C11.5832143,8.72985714 11.5882143,8.70342857 11.5925,8.67628571" id="Fill-17" fill="#04A94D"></path>
                <path d="M15.1214286,9.01007143 C15.16,9.03792857 15.1935714,9.0615 15.1771429,9.09007143 C15.165,9.11292857 15.1335714,9.11721429 15.0928571,9.10292857 C15.065,9.0915 15.0464286,9.07578571 15.0421429,9.05721429 C15.04,9.0465 15.0421429,9.03507143 15.0478571,9.02364286 C15.0485714,9.0215 15.05,9.02007143 15.0507143,9.01792857 C15.0235714,9.00792857 14.9957143,8.99721429 14.9685714,8.98721429 C14.9678571,8.98864286 14.9664286,8.99007143 14.9657143,8.99221429 C14.9492857,9.02221429 14.9442857,9.05078571 14.9507143,9.07721429 C14.9614286,9.12578571 15.0085714,9.15864286 15.0478571,9.17435714 C15.08,9.18578571 15.1278571,9.19792857 15.1728571,9.1865 C15.2128571,9.17578571 15.2442857,9.15007143 15.2664286,9.10864286 C15.3128571,9.02507143 15.2442857,8.9765 15.19,8.93792857 C15.155,8.91364286 15.125,8.89221429 15.1371429,8.87078571 C15.1457143,8.85578571 15.1542857,8.84721429 15.1664286,8.84435714 C15.1821429,8.84078571 15.2014286,8.8465 15.2164286,8.85221429 C15.2407143,8.8615 15.2778571,8.88435714 15.2542857,8.92721429 C15.2535714,8.92864286 15.2521429,8.93078571 15.2514286,8.93292857 C15.2778571,8.94292857 15.3042857,8.95292857 15.3307143,8.96364286 C15.3321429,8.9615 15.3328571,8.95935714 15.3342857,8.95792857 C15.3521429,8.9265 15.3578571,8.8965 15.3514286,8.87007143 C15.3428571,8.82935714 15.3064286,8.80221429 15.2757143,8.79007143 C15.2735714,8.78935714 15.2721429,8.78864286 15.27,8.78792857 C15.2421429,8.77721429 15.1907143,8.75721429 15.14,8.77007143 C15.1035714,8.77935714 15.0735714,8.80435714 15.0507143,8.84435714 C15.0057143,8.92578571 15.07,8.97221429 15.1214286,9.01007143" id="Fill-19" fill="#04A94D"></path>
                <path d="M14.4957143,8.99121429 C14.5985714,9.02121429 14.7,9.0505 14.8028571,9.08121429 C14.8042857,9.08121429 14.8064286,9.08192857 14.8078571,9.08264286 C14.8207143,9.05478571 14.835,9.02764286 14.8478571,8.99978571 C14.7664286,8.9755 14.6857143,8.95121429 14.6035714,8.92764286 C14.6185714,8.89835714 14.6321429,8.86835714 14.6471429,8.83907143 C14.7092857,8.85764286 14.7721429,8.8755 14.8342857,8.89407143 C14.8357143,8.89478571 14.8378571,8.8955 14.8385714,8.8955 C14.8514286,8.8705 14.8642857,8.84407143 14.8764286,8.81907143 C14.8128571,8.79907143 14.7485714,8.7805 14.6857143,8.76192857 C14.6957143,8.73907143 14.7071429,8.71764286 14.7178571,8.69478571 C14.7928571,8.71764286 14.8678571,8.73978571 14.9428571,8.76264286 C14.9442857,8.76335714 14.9464286,8.76407143 14.9478571,8.76478571 C14.9607143,8.73692857 14.975,8.70907143 14.9878571,8.68192857 C14.8907143,8.65192857 14.7935714,8.62264286 14.6957143,8.59335714 C14.6942857,8.59335714 14.6921429,8.59264286 14.6907143,8.59264286 C14.6271429,8.72335714 14.5628571,8.85478571 14.4985714,8.9855 C14.4978571,8.98764286 14.4964286,8.98978571 14.4957143,8.99121429" id="Fill-21" fill="#04A94D"></path>
                <path d="M15.6661429,9.30235714 C15.7154286,9.22092857 15.6511429,9.16807143 15.599,9.1245 C15.5661429,9.09735714 15.5375714,9.07378571 15.5504286,9.05307143 C15.5597143,9.0395 15.5682857,9.03164286 15.5797143,9.02878571 C15.5918571,9.02592857 15.6075714,9.02878571 15.6297143,9.0395 C15.6532857,9.05092857 15.6682857,9.06592857 15.6718571,9.08307143 C15.6732857,9.09378571 15.6704286,9.10664286 15.6625714,9.11807143 C15.6618571,9.1195 15.6604286,9.12164286 15.6597143,9.12378571 C15.684,9.1345 15.7082857,9.14592857 15.7325714,9.15735714 C15.734,9.15878571 15.7361429,9.1595 15.7375714,9.16021429 C15.7382857,9.15878571 15.7397143,9.15664286 15.7404286,9.15521429 C15.7597143,9.12378571 15.7675714,9.0945 15.7625714,9.06664286 C15.7554286,9.02521429 15.7211429,8.99521429 15.6918571,8.98092857 C15.6897143,8.98021429 15.6882857,8.97878571 15.6861429,8.97807143 C15.6582857,8.9645 15.6061429,8.9395 15.5532857,8.95235714 C15.519,8.96021429 15.4897143,8.98378571 15.4668571,9.02021429 C15.4182857,9.0995 15.479,9.15092857 15.5282857,9.19235714 C15.564,9.22378571 15.5954286,9.2495 15.579,9.27735714 C15.5732857,9.28664286 15.5647143,9.29235714 15.5547143,9.29521429 C15.539,9.29878571 15.5182857,9.2945 15.4954286,9.2845 C15.4732857,9.27307143 15.4582857,9.26092857 15.4511429,9.24664286 C15.444,9.23164286 15.4454286,9.21664286 15.4554286,9.20021429 C15.4561429,9.19878571 15.4575714,9.19735714 15.4582857,9.19592857 C15.4318571,9.18307143 15.4054286,9.17092857 15.379,9.15878571 C15.3775714,9.16021429 15.3768571,9.16235714 15.3754286,9.16378571 C15.3575714,9.19235714 15.3518571,9.22164286 15.3561429,9.24878571 C15.3647143,9.29807143 15.4097143,9.3345 15.4475714,9.35307143 C15.4804286,9.36807143 15.5297143,9.38378571 15.5761429,9.37307143 C15.6125714,9.36378571 15.6432857,9.34021429 15.6661429,9.30235714" id="Fill-23" fill="#04A94D"></path>
                <path d="M8.84395629,9.43856285 C8.84395629,9.39756285 8.85595629,9.35556285 8.87595629,9.32256285 C8.89995629,9.28556285 8.93395629,9.26156285 8.97395629,9.25256285 C9.06395629,9.23156285 9.10295629,9.30356285 9.10295629,9.37856285 C9.10295629,9.41956285 9.09195629,9.46056285 9.07095629,9.49456285 C9.04695629,9.53256285 9.01295629,9.55656285 8.97395629,9.56556285 C8.88395629,9.58656285 8.84395629,9.51456285 8.84395629,9.43856285 M8.97995629,9.68456285 L8.97995629,9.68456285 C8.98995629,9.68256285 8.99795629,9.67956285 9.00795629,9.67656285 C9.14495629,9.62756285 9.23995629,9.46656285 9.22295629,9.31856285 C9.20395629,9.18256285 9.09495629,9.10356285 8.96695629,9.13256285 C8.95795629,9.13456285 8.94895629,9.13656285 8.93995629,9.14156285 C8.87295629,9.16456285 8.81395629,9.21356285 8.77395629,9.28156285 C8.73295629,9.34856285 8.71595629,9.42456285 8.72495629,9.49556285 C8.74195629,9.63256285 8.85195629,9.71456285 8.97995629,9.68456285" id="Fill-25" fill="#04A94D"></path>
                <path d="M16.1728205,9.4332381 C16.1498205,9.5152381 16.0818205,9.5862381 16.0168205,9.6002381 C15.9928205,9.6062381 15.9708205,9.6042381 15.9498205,9.5942381 C15.9018205,9.5722381 15.8848205,9.5222381 15.9038205,9.4562381 C15.9278205,9.3752381 15.9938205,9.3032381 16.0598205,9.2882381 C16.0828205,9.2832381 16.1058205,9.2862381 16.1268205,9.2962381 C16.1748205,9.3172381 16.1918205,9.3692381 16.1728205,9.4332381 M16.2858205,9.2972381 C16.2688205,9.2322381 16.2258205,9.1872381 16.1658205,9.1702381 C16.1338205,9.1602381 16.0978205,9.1592381 16.0598205,9.1672381 C15.9608205,9.1892381 15.8648205,9.2742381 15.8158205,9.3802381 C15.7818205,9.4532381 15.7728205,9.5302381 15.7898205,9.5942381 C15.8088205,9.6582381 15.8518205,9.7032381 15.9108205,9.7202381 C15.9438205,9.7292381 15.9798205,9.7302381 16.0168205,9.7222381 C16.1148205,9.6992381 16.2118205,9.6172381 16.2608205,9.5112381 C16.2948205,9.4382381 16.3038205,9.3622381 16.2858205,9.2972381" id="Fill-27" fill="#04A94D"></path>
                <path d="M9.9725,8.93351173 C10.0455,8.91451173 10.0775,8.95951173 10.0955,8.99451173 C10.1015,9.03251173 10.1015,9.04951173 10.1025,9.08151173 C10.1025,9.08351173 10.1035,9.08551173 10.1035,9.08751173 C10.0975,9.13251173 10.0835,9.16551173 10.0555,9.19951173 C10.0005,9.25051173 9.9745,9.25751173 9.9405,9.26651173 C9.9065,9.27551173 9.8475,9.29151173 9.8265,9.29751173 C9.8265,9.25451173 9.8225,9.04351173 9.8215,8.97551173 C9.9255,8.94651173 9.9295,8.94551173 9.9725,8.93351173 M10.2095,9.03751173 L10.2095,9.02251173 C10.2105,8.98151173 10.2105,8.92751173 10.1675,8.86851173 C10.1065,8.78651173 9.9875,8.81351173 9.9815,8.81451173 C9.8885,8.84051173 9.7955,8.86651173 9.7025,8.89251173 C9.7055,9.07451173 9.7095,9.25651173 9.7125,9.43751173 C9.7125,9.43951173 9.7135,9.44251173 9.7135,9.44451173 C9.7165,9.44351173 9.7185,9.44251173 9.7215,9.44251173 C9.7435,9.43651173 9.9375,9.38551173 9.9925,9.36651173 C10.0585,9.34151173 10.1235,9.28651173 10.1645,9.22151173 C10.2105,9.14851173 10.2095,9.07951173 10.2095,9.03751173" id="Fill-29" fill="#04A94D"></path>
                <path d="M9.44892857,9.09264126 C9.45992857,9.08964126 9.46692857,9.08764126 9.46792857,9.08764126 C9.49392857,9.07964126 9.52392857,9.06964126 9.52392857,9.06964126 C9.52492857,9.06864126 9.54392857,9.06464126 9.56392857,9.07764126 C9.56392857,9.07764126 9.58292857,9.08664126 9.58192857,9.11264126 C9.58092857,9.13864126 9.56592857,9.16464126 9.55892857,9.17064126 C9.54392857,9.18664126 9.49892857,9.20164126 9.48292857,9.20664126 C9.42992857,9.22264126 9.37692857,9.23964126 9.32392857,9.25664126 C9.32092857,9.21664126 9.31792857,9.17564126 9.31492857,9.13564126 C9.34392857,9.12764126 9.41392857,9.10464126 9.44892857,9.09264126 M9.63492857,9.24064126 C9.64992857,9.22364126 9.68992857,9.17064126 9.70292857,9.10864126 C9.71892857,9.03264126 9.67392857,8.98564126 9.65392857,8.97464126 L9.65092857,8.97164126 C9.63192857,8.95864126 9.59492857,8.93464126 9.54292857,8.94764126 C9.54092857,8.94864126 9.53992857,8.94864126 9.53792857,8.94864126 C9.48192857,8.96664126 9.20992857,9.05164126 9.20692857,9.05264126 C9.20492857,9.05364126 9.20192857,9.05464126 9.19992857,9.05564126 C9.20992857,9.23764126 9.21992857,9.42064126 9.22992857,9.60264126 C9.26792857,9.59064126 9.30692857,9.57764126 9.34492857,9.56564126 C9.34092857,9.50064126 9.33692857,9.43464126 9.33192857,9.36964126 C9.39892857,9.34764126 9.46792857,9.32664126 9.53492857,9.30464126 C9.54492857,9.31964126 9.58592857,9.38164126 9.59092857,9.42564126 C9.59392857,9.45564126 9.59392857,9.48264126 9.59392857,9.48264126 L9.59392857,9.49064126 C9.63092857,9.48164126 9.66892857,9.47164126 9.70592857,9.46264126 L9.70592857,9.45464126 C9.70592857,9.45064126 9.70892857,9.35464126 9.67992857,9.30364126 C9.65992857,9.26764126 9.64292857,9.24864126 9.63492857,9.24064126" id="Fill-31" fill="#04A94D"></path>
                <path d="M13.3324398,8.69641272 C13.3444398,8.62141272 13.3964398,8.53041272 13.4744398,8.50841272 C13.4864398,8.50441272 13.5004398,8.50241272 13.5144398,8.50241272 C13.5884398,8.50641272 13.6044398,8.57341272 13.5954398,8.63541272 C13.5834398,8.70941272 13.5284398,8.80241272 13.4534398,8.82441272 C13.4394398,8.82841272 13.4274398,8.83041272 13.4124398,8.82941272 C13.3384398,8.82641272 13.3214398,8.75841272 13.3324398,8.69641272 M13.4064398,8.95441272 C13.4224398,8.95241272 13.4374398,8.95041272 13.4534398,8.94541272 C13.5734398,8.90941272 13.6814398,8.78341272 13.7084398,8.64441272 C13.7394398,8.48641272 13.6554398,8.36541272 13.5204398,8.37641272 C13.5054398,8.37841272 13.4894398,8.38241272 13.4744398,8.38641272 C13.3534398,8.42241272 13.2454398,8.54841272 13.2184398,8.68741272 C13.2034398,8.76341272 13.2144398,8.83541272 13.2494398,8.88441272 C13.2854398,8.93541272 13.3414398,8.96041272 13.4064398,8.95441272" id="Fill-33" fill="#04A94D"></path>
                <path d="M12.8927143,8.48628571 C12.9217143,8.48628571 12.9967143,8.48328571 13.0277143,8.48328571 C13.0357143,8.48128571 13.0387143,8.48228571 13.0397143,8.48228571 C13.0657143,8.48228571 13.0947143,8.48028571 13.0947143,8.48028571 C13.0947143,8.48028571 13.1137143,8.48228571 13.1257143,8.50128571 C13.1257143,8.50128571 13.1397143,8.51628571 13.1297143,8.54428571 C13.1217143,8.57028571 13.0997143,8.59328571 13.0907143,8.59728571 C13.0867143,8.60028571 13.0817143,8.60228571 13.0757143,8.60428571 C13.0487143,8.61228571 13.0157143,8.61128571 13.0147143,8.61128571 C12.9637143,8.61228571 12.9127143,8.61328571 12.8617143,8.61428571 C12.8667143,8.59228571 12.8827143,8.52628571 12.8927143,8.48628571 M13.1337143,8.69528571 C13.1537143,8.68028571 13.2047143,8.63728571 13.2357143,8.57728571 C13.2747143,8.50228571 13.2507143,8.43928571 13.2397143,8.42128571 L13.2367143,8.41828571 C13.2237143,8.40028571 13.1997143,8.36128571 13.1457143,8.36028571 C13.0927143,8.36128571 12.8297143,8.36828571 12.8267143,8.36828571 C12.8237143,8.36828571 12.8217143,8.36928571 12.8187143,8.36928571 L12.6687143,8.94028571 L12.6657143,8.94928571 C12.7037143,8.94828571 12.7417143,8.94628571 12.7787143,8.94528571 C12.7957143,8.87528571 12.8127143,8.80528571 12.8307143,8.73628571 C12.8957143,8.73428571 12.9617143,8.73228571 13.0277143,8.73028571 C13.0317143,8.74828571 13.0457143,8.82528571 13.0357143,8.87328571 C13.0277143,8.90528571 13.0197143,8.93328571 13.0197143,8.93328571 C13.0187143,8.93628571 13.0167143,8.93928571 13.0157143,8.94228571 C13.0507143,8.94428571 13.0867143,8.94528571 13.1217143,8.94728571 C13.1227143,8.94428571 13.1247143,8.94228571 13.1257143,8.93928571 C13.1267143,8.93428571 13.1607143,8.83728571 13.1527143,8.77428571 C13.1467143,8.72928571 13.1387143,8.70528571 13.1337143,8.69528571" id="Fill-35" fill="#04A94D"></path>
                <path d="M14.4752143,8.64071429 C14.4872143,8.64171429 14.4952143,8.64271429 14.4962143,8.64371429 C14.5192143,8.64771429 14.5472143,8.65171429 14.5472143,8.65171429 C14.5472143,8.65171429 14.5642143,8.65771429 14.5742143,8.67971429 C14.5742143,8.67971429 14.5832143,8.69871429 14.5712143,8.72371429 C14.5592143,8.74971429 14.5362143,8.76771429 14.5272143,8.77171429 C14.5242143,8.77271429 14.5222143,8.77371429 14.5202143,8.77471429 C14.4942143,8.78171429 14.4532143,8.77171429 14.4522143,8.77171429 C14.4032143,8.76371429 14.3542143,8.75571429 14.3052143,8.74771429 C14.3222143,8.70571429 14.3392143,8.66271429 14.3562143,8.62071429 C14.3802143,8.62571429 14.4412143,8.63571429 14.4752143,8.64071429 M14.4312143,9.04571429 C14.4192143,9.07771429 14.4072143,9.10471429 14.4072143,9.10471429 C14.4062143,9.10771429 14.4042143,9.11071429 14.4032143,9.11271429 L14.5022143,9.13771429 C14.5032143,9.13571429 14.5052143,9.13371429 14.5062143,9.13071429 C14.5082143,9.12671429 14.5542143,9.03071429 14.5562143,8.96571429 C14.5592143,8.91871429 14.5542143,8.89171429 14.5512143,8.87971429 C14.5722143,8.86871429 14.6272143,8.83471429 14.6652143,8.77971429 C14.7112143,8.70971429 14.7002143,8.63971429 14.6922143,8.61871429 C14.6912143,8.61771429 14.6912143,8.61571429 14.6902143,8.61471429 C14.6802143,8.59171429 14.6632143,8.54871429 14.6142143,8.53771429 C14.5632143,8.52771429 14.3132143,8.48771429 14.3112143,8.48771429 C14.3092143,8.48671429 14.3062143,8.48571429 14.3042143,8.48571429 L14.0762143,9.04771429 C14.0752143,9.05071429 14.0742143,9.05371429 14.0732143,9.05571429 C14.1082143,9.06071429 14.1432143,9.06671429 14.1782143,9.07271429 C14.2052143,9.00371429 14.2322143,8.93471429 14.2592143,8.86671429 C14.3222143,8.87571429 14.3832143,8.88671429 14.4462143,8.89671429 C14.4462143,8.91571429 14.4492143,8.99871429 14.4312143,9.04571429" id="Fill-37" fill="#04A94D"></path>
                <path d="M12.4103571,8.49529154 C12.4393571,8.49429154 12.5113571,8.49029154 12.5443571,8.48829154 C12.5533571,8.48729154 12.5573571,8.48729154 12.5583571,8.48629154 C12.5853571,8.48529154 12.6133571,8.48329154 12.6133571,8.48329154 C12.6143571,8.48429154 12.6323571,8.48529154 12.6463571,8.50429154 C12.6483571,8.50629154 12.6593571,8.52129154 12.6513571,8.54529154 C12.6433571,8.57229154 12.6223571,8.59529154 12.6133571,8.59929154 C12.6083571,8.60329154 12.6023571,8.60529154 12.5953571,8.60729154 C12.5693571,8.61529154 12.5373571,8.61529154 12.5363571,8.61529154 C12.4843571,8.61829154 12.4333571,8.62129154 12.3823571,8.62429154 C12.3863571,8.60129154 12.4013571,8.53529154 12.4103571,8.49529154 M12.7553571,8.41729154 C12.7413571,8.39829154 12.7163571,8.36229154 12.6633571,8.36329154 C12.6083571,8.36529154 12.3433571,8.38029154 12.3413571,8.37929154 C12.3383571,8.38029154 12.3363571,8.38029154 12.3333571,8.38129154 C12.2873571,8.57429154 12.2403571,8.76629154 12.1943571,8.96029154 C12.2313571,8.95729154 12.2693571,8.95529154 12.3063571,8.95329154 C12.3223571,8.88429154 12.3393571,8.81429154 12.3543571,8.74529154 C12.4223571,8.74029154 12.4893571,8.73629154 12.5563571,8.73229154 C12.5573571,8.73229154 12.5773571,8.73129154 12.6013571,8.72429154 C12.6203571,8.71829154 12.6383571,8.70929154 12.6513571,8.70129154 C12.6543571,8.69929154 12.7223571,8.64929154 12.7583571,8.57629154 C12.7953571,8.50129154 12.7693571,8.43829154 12.7573571,8.42029154 C12.7563571,8.41929154 12.7563571,8.41829154 12.7553571,8.41729154" id="Fill-39" fill="#04A94D"></path>
                <path d="M13.8790714,8.81021429 L13.8626429,8.85235714 C13.8619286,8.85378571 13.8612143,8.85592857 13.8605,8.85735714 C13.8805,8.86021429 13.9005,8.86378571 13.9212143,8.86664286 C13.9390714,8.81878571 13.9576429,8.77164286 13.9762143,8.72378571 C13.9819286,8.7245 13.9862143,8.72521429 13.9919286,8.72592857 C14.0012143,8.70378571 14.0097857,8.68092857 14.0183571,8.65807143 C14.0140714,8.65735714 14.0097857,8.65664286 14.0055,8.65592857 C14.0055,8.65592857 14.0062143,8.65521429 14.0062143,8.65521429 C14.0040714,8.6545 14.0026429,8.65378571 14.0005,8.65307143 C13.9933571,8.65235714 13.9855,8.65092857 13.9790714,8.65021429 C13.9733571,8.6495 13.9676429,8.64807143 13.9619286,8.64735714 C13.9533571,8.64592857 13.9447857,8.64592857 13.9355,8.64592857 C13.9155,8.64235714 13.8940714,8.6395 13.8740714,8.63664286 C13.8655,8.6595 13.8569286,8.68235714 13.8483571,8.70521429 C13.8605,8.70664286 13.8712143,8.70807143 13.8833571,8.71021429 C13.8647857,8.7295 13.8440714,8.74378571 13.8240714,8.7495 C13.8062143,8.7545 13.7905,8.75307143 13.7755,8.74735714 C13.7419286,8.7345 13.7297857,8.6995 13.7433571,8.65164286 C13.7597857,8.59235714 13.8076429,8.53807143 13.8540714,8.5245 C13.8705,8.5195 13.8876429,8.5195 13.9019286,8.52592857 C13.9247857,8.53521429 13.9376429,8.5545 13.9397857,8.58021429 C13.9397857,8.58092857 13.9405,8.58235714 13.9405,8.58378571 C13.9412143,8.58378571 13.9426429,8.58378571 13.9433571,8.58378571 C13.9512143,8.58521429 13.9590714,8.58592857 13.9669286,8.58592857 C13.9762143,8.58592857 13.9847857,8.58592857 13.9933571,8.58735714 C14.0026429,8.58878571 14.0126429,8.59021429 14.0212143,8.59235714 L14.0212143,8.5845 C14.0276429,8.50735714 13.9912143,8.44878571 13.9297857,8.4345 C13.9069286,8.42878571 13.8819286,8.43021429 13.8547857,8.43807143 C13.7840714,8.45807143 13.7155,8.52235714 13.6805,8.60092857 C13.6297857,8.71235714 13.6605,8.8195 13.7476429,8.8395 C13.7719286,8.8445 13.7969286,8.84307143 13.8233571,8.83592857 C13.8426429,8.83021429 13.8612143,8.82164286 13.8790714,8.81021429" id="Fill-41" fill="#04A94D"></path>
                <path d="M13.5330714,8.02371429 C13.5652143,7.99157143 13.5966429,7.95871429 13.6287857,7.92585714 C13.6609286,7.93942857 13.6937857,7.95371429 13.7259286,7.96728571 C13.7130714,7.93371429 13.7009286,7.89942857 13.6887857,7.86514286 C13.7209286,7.83228571 13.7523571,7.80014286 13.7845,7.768 C13.7445,7.77942857 13.7052143,7.79085714 13.6659286,7.80228571 C13.6530714,7.768 13.6409286,7.73442857 13.6287857,7.70014286 C13.6166429,7.74085714 13.6045,7.78228571 13.5923571,7.82371429 C13.5523571,7.83514286 13.5137857,7.84657143 13.4737857,7.85871429 C13.5059286,7.87228571 13.5373571,7.88657143 13.5695,7.90014286 C13.5573571,7.94157143 13.5452143,7.98228571 13.5330714,8.02371429" id="Fill-43" fill="#FEFEFE"></path>
                <path d="M9.15878571,9.85585714 C9.11307143,9.86728571 9.06592857,9.878 9.02021429,9.88942857 C9.00592857,9.84871429 8.99164286,9.808 8.97735714,9.76657143 C8.96307143,9.81442857 8.94878571,9.86157143 8.9345,9.90942857 C8.88807143,9.92014286 8.84164286,9.93085714 8.79521429,9.94157143 C8.83307143,9.96014286 8.87021429,9.97871429 8.90735714,9.99728571 C8.89307143,10.0444286 8.87878571,10.0915714 8.8645,10.1387143 C8.90235714,10.103 8.9395,10.0672857 8.97735714,10.0308571 C9.0145,10.0494286 9.05235714,10.068 9.08878571,10.0865714 C9.07521429,10.0458571 9.06021429,10.0051429 9.04664286,9.96442857 C9.0845,9.92871429 9.12092857,9.89228571 9.15878571,9.85585714" id="Fill-45" fill="#FEFEFE"></path>
                <path d="M13.4995714,9.30614286 C13.4888571,9.27685714 13.4795714,9.24828571 13.4688571,9.21971429 C13.4581429,9.25471429 13.4488571,9.28971429 13.4381429,9.324 C13.4045714,9.334 13.371,9.344 13.3374286,9.354 C13.3652857,9.36542857 13.3917143,9.37685714 13.4188571,9.38828571 C13.4081429,9.42328571 13.3981429,9.45828571 13.3881429,9.49328571 C13.4152857,9.46542857 13.4417143,9.43828571 13.4688571,9.41042857 C13.496,9.42257143 13.5224286,9.434 13.5495714,9.44542857 C13.5395714,9.41685714 13.5295714,9.38757143 13.5188571,9.359 C13.546,9.33114286 13.5731429,9.304 13.6002857,9.27614286 C13.5667143,9.28614286 13.5331429,9.29614286 13.4995714,9.30614286" id="Fill-47" fill="#FEFEFE"></path>
                <path d="M9.82564286,11.0235 C9.81921429,11.0042143 9.81207143,10.9856429 9.80635714,10.9663571 C9.79921429,10.9892143 9.79207143,11.0113571 9.78492857,11.0342143 C9.76278571,11.0399286 9.74135714,11.0456429 9.71921429,11.0513571 C9.73707143,11.0592143 9.75421429,11.0677857 9.77278571,11.0756429 C9.76564286,11.0985 9.75921429,11.1213571 9.75207143,11.1442143 C9.77064286,11.1270714 9.78778571,11.1099286 9.80635714,11.0920714 C9.8235,11.0999286 9.84135714,11.1085 9.85921429,11.1163571 C9.85207143,11.0970714 9.84564286,11.0777857 9.83921429,11.0585 C9.85707143,11.0413571 9.87421429,11.0235 9.89278571,11.0056429 L9.82564286,11.0235 Z" id="Fill-49" fill="#FEFEFE"></path>
                <path d="M9.3785,11.5041429 C9.36564286,11.4684286 9.35278571,11.4327143 9.33992857,11.3977143 L9.33421429,11.4005714 L9.32921429,11.4005714 C9.31635714,11.442 9.30421429,11.4841429 9.29207143,11.5255714 C9.24564286,11.537 9.19921429,11.5484286 9.1535,11.5591429 C9.19064286,11.5777143 9.22778571,11.5962857 9.26564286,11.6141429 C9.25135714,11.662 9.23707143,11.7091429 9.22278571,11.757 C9.26064286,11.7205714 9.29778571,11.6834286 9.33492857,11.647 C9.37278571,11.6655714 9.40992857,11.6827143 9.44778571,11.7005714 C9.43278571,11.6605714 9.41921429,11.6205714 9.40421429,11.5798571 C9.44207143,11.5427143 9.47921429,11.5062857 9.51635714,11.4691429 C9.47064286,11.4805714 9.42421429,11.4927143 9.3785,11.5041429" id="Fill-51" fill="#FEFEFE"></path>
                <path d="M8.953,11.9795 C8.94014286,11.9452143 8.92871429,11.9109286 8.91585714,11.8759286 C8.90442857,11.9166429 8.89157143,11.9566429 8.87942857,11.9966429 C8.84085714,12.0052143 8.80157143,12.0145 8.76228571,12.0230714 C8.79371429,12.0395 8.82585714,12.0552143 8.85728571,12.0709286 C8.84585714,12.1116429 8.833,12.1516429 8.82085714,12.1916429 C8.85228571,12.1616429 8.88442857,12.1309286 8.91585714,12.1002143 C8.948,12.1159286 8.97942857,12.1316429 9.01157143,12.1473571 C8.99942857,12.1130714 8.98728571,12.0787857 8.97514286,12.0437857 C9.00728571,12.0130714 9.03871429,11.9823571 9.07085714,11.9516429 C9.03157143,11.9609286 8.99228571,11.9702143 8.953,11.9795" id="Fill-53" fill="#FEFEFE"></path>
                <path d="M10.7785,10.4762857 C10.7663571,10.4427143 10.7542143,10.4098571 10.7420714,10.3762857 C10.7306429,10.4162857 10.7192143,10.4562857 10.7070714,10.4962857 C10.6685,10.5077143 10.6299286,10.5191429 10.5906429,10.5298571 L10.6849286,10.5705714 C10.6735,10.6105714 10.6606429,10.6512857 10.6485,10.6912857 C10.6799286,10.6598571 10.7106429,10.6284286 10.7420714,10.597 C10.7735,10.6105714 10.8042143,10.6241429 10.8356429,10.6377143 C10.8235,10.6041429 10.8120714,10.5705714 10.7999286,10.5377143 C10.8313571,10.5062857 10.8627857,10.4748571 10.8942143,10.4427143 C10.8556429,10.4541429 10.8170714,10.4648571 10.7785,10.4762857" id="Fill-55" fill="#FEFEFE"></path>
                <path d="M10.2978571,11.7440714 L10.2642857,11.6512143 C10.2535714,11.6883571 10.2428571,11.7255 10.2314286,11.7626429 C10.195,11.7726429 10.16,11.7826429 10.1235714,11.7919286 C10.1528571,11.8055 10.1814286,11.8183571 10.2107143,11.8319286 L10.1771429,11.9433571 C10.2064286,11.9140714 10.235,11.8855 10.2642857,11.8562143 C10.2935714,11.8690714 10.3221429,11.8819286 10.3514286,11.8955 C10.3407143,11.8640714 10.33,11.8333571 10.3185714,11.8019286 C10.3478571,11.7726429 10.3764286,11.7433571 10.4057143,11.7140714 C10.37,11.7240714 10.3342857,11.7340714 10.2978571,11.7440714" id="Fill-57" fill="#FEFEFE"></path>
                <path d="M10.1716429,12.2797857 L10.1402143,12.1926429 C10.1302143,12.2276429 10.1202143,12.2619286 10.1102143,12.2962143 C10.0766429,12.3062143 10.0430714,12.3147857 10.0095,12.3240714 C10.0373571,12.3362143 10.0637857,12.3483571 10.0909286,12.3605 C10.0802143,12.3955 10.0695,12.4297857 10.0595,12.4647857 C10.0866429,12.4376429 10.1130714,12.4105 10.1402143,12.3833571 C10.1673571,12.3955 10.1945,12.4076429 10.2216429,12.4205 C10.2116429,12.3912143 10.2009286,12.3619286 10.1902143,12.3333571 C10.2173571,12.3062143 10.2445,12.2797857 10.2716429,12.2519286 C10.2380714,12.2619286 10.2052143,12.2705 10.1716429,12.2797857" id="Fill-59" fill="#FEFEFE"></path>
                <path d="M10.7805714,12.4307857 C10.7662857,12.3907857 10.752,12.3507857 10.7377143,12.3115 C10.7241429,12.3593571 10.7091429,12.4072143 10.6955714,12.4550714 C10.6491429,12.4686429 10.6027143,12.4815 10.557,12.4943571 C10.5934286,12.5115 10.6312857,12.5279286 10.6684286,12.5443571 C10.6541429,12.5929286 10.6398571,12.6407857 10.6255714,12.6893571 C10.6634286,12.6515 10.7005714,12.6136429 10.7377143,12.5757857 C10.7755714,12.5922143 10.8127143,12.6086429 10.8505714,12.6243571 C10.8362857,12.5843571 10.822,12.5443571 10.8077143,12.5043571 C10.8455714,12.4665 10.8827143,12.4286429 10.9198571,12.3900714 C10.8734286,12.4036429 10.827,12.4172143 10.7805714,12.4307857" id="Fill-61" fill="#FEFEFE"></path>
                <path d="M12.3597857,10.0856429 C12.3469286,10.1270714 12.3355,10.1685 12.3226429,10.2099286 C12.2833571,10.2220714 12.2440714,10.2342143 12.2040714,10.2456429 L12.3005,10.2863571 C12.2883571,10.3277857 12.2762143,10.3692143 12.2640714,10.4106429 C12.2962143,10.3777857 12.3276429,10.3449286 12.3597857,10.3113571 L12.4562143,10.3527857 C12.4433571,10.3185 12.4319286,10.2842143 12.4190714,10.2506429 C12.4512143,10.2177857 12.4833571,10.1849286 12.5155,10.1520714 C12.4755,10.1635 12.4355,10.1756429 12.3962143,10.1877857 C12.3840714,10.1535 12.3719286,10.1199286 12.3597857,10.0856429" id="Fill-63" fill="#FEFEFE"></path>
                <path d="M12.0815,10.6478571 C12.0479286,10.6578571 12.0150714,10.6678571 11.9815,10.6778571 C11.9715,10.6492857 11.9607857,10.62 11.9500714,10.5914286 C11.9400714,10.6264286 11.9300714,10.6621429 11.9193571,10.6964286 C11.8865,10.7071429 11.8529286,10.7171429 11.8193571,10.7264286 C11.8465,10.7378571 11.8736429,10.7492857 11.9007857,10.7607143 C11.8900714,10.7957143 11.8800714,10.8307143 11.8693571,10.8657143 C11.8965,10.8378571 11.9229286,10.81 11.9500714,10.7821429 C11.9772143,10.7935714 12.0050714,10.805 12.0322143,10.8164286 C12.0215,10.7878571 12.0107857,10.7592857 12.0007857,10.7307143 C12.0279286,10.7028571 12.0543571,10.6757143 12.0815,10.6478571" id="Fill-65" fill="#FEFEFE"></path>
                <path d="M12.1533571,11.0444286 C12.1705,11.0522857 12.1890714,11.0594286 12.2062143,11.068 C12.1990714,11.0487143 12.1933571,11.0294286 12.1862143,11.0108571 C12.2033571,10.9922857 12.2219286,10.9744286 12.2390714,10.9558571 C12.2176429,10.9622857 12.1955,10.9694286 12.1733571,10.9758571 C12.1669286,10.9565714 12.1605,10.9387143 12.1533571,10.9194286 C12.1462143,10.9422857 12.1397857,10.9651429 12.1333571,10.988 C12.1105,10.9944286 12.0890714,11.0008571 12.0669286,11.008 C12.0847857,11.0151429 12.1026429,11.023 12.1205,11.0308571 L12.0997857,11.1001429 C12.1176429,11.0815714 12.1355,11.063 12.1533571,11.0444286" id="Fill-67" fill="#FEFEFE"></path>
                <path d="M12.8641429,10.4777143 C12.852,10.4434286 12.8398571,10.4098571 12.8277143,10.3755714 C12.8162857,10.417 12.8034286,10.4584286 12.7912857,10.4991429 C12.752,10.5112857 12.712,10.5234286 12.672,10.5355714 C12.7041429,10.5491429 12.7362857,10.5627143 12.7684286,10.5762857 C12.7562857,10.6177143 12.7441429,10.6591429 12.7312857,10.7005714 C12.7634286,10.6677143 12.7955714,10.6348571 12.8277143,10.6012857 L12.9241429,10.642 C12.9112857,10.6084286 12.8998571,10.5741429 12.887,10.5405714 C12.9191429,10.5077143 12.9512857,10.4748571 12.9834286,10.442 C12.9434286,10.4534286 12.9041429,10.4655714 12.8641429,10.4777143" id="Fill-69" fill="#FEFEFE"></path>
                <path d="M12.2830714,11.4071429 C12.2687857,11.455 12.2545,11.5035714 12.2402143,11.5521429 C12.1937857,11.5657143 12.1480714,11.58 12.1009286,11.5942857 C12.1387857,11.61 12.1759286,11.6257143 12.2130714,11.6414286 C12.1987857,11.69 12.1845,11.7385714 12.1702143,11.7871429 C12.2080714,11.7485714 12.2452143,11.7092857 12.2830714,11.6707143 C12.3209286,11.6871429 12.3573571,11.7028571 12.3952143,11.7192857 C12.3809286,11.6792857 12.3666429,11.6392857 12.3523571,11.6 C12.3895,11.5614286 12.4266429,11.5228571 12.4645,11.4842857 C12.4180714,11.4978571 12.3716429,11.5121429 12.3259286,11.5264286 C12.3116429,11.4864286 12.2973571,11.4471429 12.2830714,11.4071429" id="Fill-71" fill="#FEFEFE"></path>
                <path d="M12.3737857,13.0335 C12.3680714,13.0185 12.3623571,13.0035 12.3573571,12.9877857 C12.3516429,13.0063571 12.3466429,13.0249286 12.3409286,13.0435 C12.3230714,13.0485 12.3052143,13.0542143 12.2873571,13.0599286 C12.3016429,13.0656429 12.3159286,13.0720714 12.3302143,13.0777857 C12.3252143,13.0963571 12.3202143,13.1149286 12.3145,13.1342143 C12.3287857,13.1192143 12.3430714,13.1042143 12.3573571,13.0899286 C12.3716429,13.0956429 12.3866429,13.1020714 12.4009286,13.1077857 L12.3845,13.0620714 C12.3980714,13.0470714 12.4130714,13.0327857 12.4266429,13.0177857 C12.4095,13.0227857 12.3909286,13.0285 12.3737857,13.0335" id="Fill-73" fill="#FEFEFE"></path>
                <path d="M13.2052143,11.7147857 C13.1945,11.6855 13.1845,11.6569286 13.1737857,11.6283571 C13.1637857,11.6633571 13.1537857,11.6983571 13.1437857,11.7326429 L13.0430714,11.7633571 C13.0709286,11.7740714 13.0973571,11.7862143 13.1245,11.7976429 C13.1137857,11.8326429 13.1030714,11.8676429 13.0930714,11.9026429 C13.1202143,11.8747857 13.1466429,11.8469286 13.1737857,11.8190714 C13.2009286,11.8305 13.2273571,11.8426429 13.2545,11.8540714 C13.2445,11.8255 13.2345,11.7962143 13.2237857,11.7676429 C13.2509286,11.7405 13.2780714,11.7126429 13.3052143,11.6847857 C13.2716429,11.6947857 13.2387857,11.7047857 13.2052143,11.7147857" id="Fill-75" fill="#FEFEFE"></path>
                <path d="M13.5302857,12.0628571 C13.5174286,12.0285714 13.506,11.995 13.4931429,11.9607143 C13.481,12.0021429 13.4688571,12.0435714 13.456,12.0842857 C13.4167143,12.0964286 13.3774286,12.1078571 13.3374286,12.12 C13.3695714,12.1335714 13.401,12.1471429 13.4331429,12.1614286 C13.421,12.2021429 13.4088571,12.2435714 13.3967143,12.285 C13.4281429,12.2521429 13.461,12.2192857 13.4931429,12.1864286 C13.5252857,12.2007143 13.5567143,12.2142857 13.5888571,12.2278571 C13.5767143,12.1942857 13.5645714,12.16 13.5524286,12.1257143 C13.5845714,12.0928571 13.616,12.0607143 13.6481429,12.0285714 C13.6088571,12.04 13.5695714,12.0514286 13.5302857,12.0628571" id="Fill-77" fill="#FEFEFE"></path>
                <path d="M13.9516429,11.5104286 C13.9409286,11.4811429 13.9316429,11.4525714 13.9209286,11.424 C13.9102143,11.4582857 13.9009286,11.4932857 13.8902143,11.5282857 C13.8566429,11.5382857 13.8230714,11.5475714 13.7895,11.5568571 C13.8173571,11.569 13.8437857,11.5804286 13.8709286,11.5925714 C13.8602143,11.6275714 13.8502143,11.6618571 13.8402143,11.6968571 C13.8673571,11.6697143 13.8937857,11.6425714 13.9209286,11.6147143 C13.9480714,11.6268571 13.9745,11.6382857 14.0016429,11.6504286 C13.9916429,11.6211429 13.9816429,11.5925714 13.9709286,11.5632857 C13.9980714,11.5361429 14.0252143,11.509 14.0523571,11.4818571 C14.0187857,11.4911429 13.9852143,11.5011429 13.9516429,11.5104286" id="Fill-79" fill="#FEFEFE"></path>
                <path d="M14.4022143,11.4026429 C14.3915,11.3740714 14.3815,11.3455 14.3707857,11.3162143 L14.3393571,11.4197857 C14.3057857,11.4297857 14.2729286,11.4390714 14.2393571,11.4476429 C14.2672143,11.4605 14.2936429,11.4726429 14.3207857,11.4847857 C14.3100714,11.5197857 14.3000714,11.5540714 14.2900714,11.5890714 C14.3172143,11.5619286 14.3436429,11.5340714 14.3707857,11.5069286 C14.3979286,11.5190714 14.4243571,11.5319286 14.4515,11.5440714 C14.4415,11.5147857 14.4315,11.4862143 14.4207857,11.4569286 C14.4479286,11.4297857 14.4750714,11.4026429 14.5022143,11.3747857 C14.4686429,11.3847857 14.4357857,11.3933571 14.4022143,11.4026429" id="Fill-81" fill="#FEFEFE"></path>
                <path d="M14.3812857,11.6792143 C14.3691429,11.7206429 14.357,11.7613571 14.3448571,11.8020714 L14.2255714,11.8356429 C14.2577143,11.8499286 14.2898571,11.8642143 14.322,11.8785 C14.3091429,11.9192143 14.2977143,11.9606429 14.2848571,12.0020714 C14.317,11.9699286 14.3491429,11.9370714 14.3812857,11.9049286 C14.4134286,11.9192143 14.4455714,11.9335 14.4777143,11.9485 C14.4648571,11.9142143 14.4534286,11.8799286 14.4405714,11.8456429 L14.537,11.7492143 C14.497,11.7599286 14.457,11.7713571 14.4177143,11.7820714 C14.4055714,11.7477857 14.3934286,11.7135 14.3812857,11.6792143" id="Fill-83" fill="#FEFEFE"></path>
                <path d="M14.4217857,12.2037857 C14.4110714,12.1745 14.4017857,12.1452143 14.3910714,12.1166429 C14.3803571,12.1516429 14.3710714,12.1859286 14.3603571,12.2209286 C14.3267857,12.2302143 14.2932143,12.2395 14.2596429,12.2487857 C14.2875,12.2609286 14.3139286,12.2730714 14.3410714,12.2845 C14.3303571,12.3195 14.3203571,12.3537857 14.3103571,12.3887857 C14.3375,12.3616429 14.3639286,12.3345 14.3910714,12.3073571 C14.4182143,12.3195 14.4446429,12.3316429 14.4717857,12.3437857 L14.4403571,12.2573571 C14.4675,12.2302143 14.4953571,12.2030714 14.5225,12.1759286 C14.4889286,12.1852143 14.4553571,12.1945 14.4217857,12.2037857" id="Fill-85" fill="#FEFEFE"></path>
                <path d="M14.8249286,11.3604286 C14.8142143,11.3311429 14.8049286,11.3025714 14.7942143,11.2732857 C14.7835,11.3082857 14.7742143,11.3425714 14.7635,11.3768571 C14.7299286,11.3854286 14.6963571,11.3947143 14.6627857,11.404 C14.6906429,11.4161429 14.7170714,11.429 14.7442143,11.4411429 C14.7335,11.4754286 14.7235,11.5097143 14.7135,11.544 C14.7406429,11.5175714 14.7670714,11.4911429 14.7942143,11.464 C14.8213571,11.4768571 14.8477857,11.489 14.8749286,11.5011429 C14.8649286,11.4725714 14.8549286,11.4432857 14.8442143,11.4147143 C14.8713571,11.3875714 14.8985,11.3604286 14.9256429,11.334 C14.8920714,11.3425714 14.8585,11.3511429 14.8249286,11.3604286" id="Fill-87" fill="#FEFEFE"></path>
                <path d="M15.1548571,11.065 C15.142,11.0307143 15.1305714,10.9957143 15.1177143,10.9614286 C15.1062857,11.0021429 15.0934286,11.0428571 15.0812857,11.0835714 C15.0484286,11.0921429 15.0155714,11.1007143 14.982,11.1092857 L14.982,11.1114286 C14.9798571,11.115 14.9784286,11.1178571 14.9762857,11.1207143 C15.0041429,11.1335714 15.0312857,11.1464286 15.0591429,11.1592857 C15.047,11.2 15.0348571,11.2414286 15.022,11.2821429 C15.0541429,11.25 15.0855714,11.2185714 15.1177143,11.1871429 C15.1498571,11.2021429 15.182,11.2171429 15.2141429,11.2328571 C15.2012857,11.1985714 15.1898571,11.1635714 15.177,11.1292857 C15.2091429,11.0971429 15.242,11.0657143 15.2741429,11.035 L15.1548571,11.065 Z" id="Fill-89" fill="#FEFEFE"></path>
                <path d="M15.3215714,10.6294286 C15.3087143,10.5951429 15.2972857,10.5601429 15.2844286,10.5258571 C15.2722857,10.5665714 15.2601429,10.6072857 15.2472857,10.648 C15.208,10.658 15.1687143,10.668 15.1287143,10.678 L15.2251429,10.723 C15.213,10.7637143 15.2008571,10.8051429 15.188,10.8458571 C15.2201429,10.8144286 15.2522857,10.783 15.2844286,10.7515714 C15.3165714,10.7665714 15.348,10.7822857 15.3801429,10.7972857 C15.368,10.763 15.3558571,10.728 15.3437143,10.6937143 C15.3758571,10.6622857 15.4072857,10.6308571 15.4394286,10.6001429 C15.4001429,10.6101429 15.3608571,10.6194286 15.3215714,10.6294286" id="Fill-91" fill="#FEFEFE"></path>
                <path d="M15.0425714,10.4577857 C15.0797143,10.4749286 15.1168571,10.4927857 15.154,10.5106429 C15.1404286,10.4699286 15.1254286,10.4292143 15.1118571,10.3892143 C15.149,10.3520714 15.1861429,10.3156429 15.224,10.2785 C15.1775714,10.2906429 15.1311429,10.3020714 15.0854286,10.3142143 C15.0711429,10.2742143 15.0568571,10.2335 15.0425714,10.1935 C15.0275714,10.2406429 15.014,10.2885 14.999,10.3363571 C14.9532857,10.3485 14.9068571,10.3606429 14.8604286,10.3727857 C14.8982857,10.3899286 14.9354286,10.4077857 14.9725714,10.4249286 C14.9582857,10.4727857 14.944,10.5206429 14.9297143,10.5685 L15.0425714,10.4577857 Z" id="Fill-93" fill="#FEFEFE"></path>
                <path d="M15.7177857,10.2192143 L15.6863571,10.1313571 C15.6756429,10.1656429 15.6663571,10.1999286 15.6556429,10.2342143 L15.5549286,10.2577857 C15.5827857,10.2713571 15.6092143,10.2842143 15.6363571,10.2970714 C15.6256429,10.3313571 15.6156429,10.3656429 15.6056429,10.3992143 C15.6327857,10.3735 15.6592143,10.3477857 15.6863571,10.3220714 C15.7135,10.3349286 15.7399286,10.3477857 15.7670714,10.3613571 C15.7570714,10.3320714 15.7470714,10.3027857 15.7363571,10.2735 C15.7635,10.2477857 15.7906429,10.2213571 15.8177857,10.1963571 C15.7842143,10.2042143 15.7513571,10.2113571 15.7177857,10.2192143" id="Fill-95" fill="#FEFEFE"></path>
            </g>
        </g>
    </g>
</svg>